<svg width="1920" height="1080" viewBox="0 0 1920 1080" fill="none" xmlns="http://www.w3.org/2000/svg">
<g id="bg-hero" clip-path="url(#clip0_23_2)">
<rect width="1920" height="1080" fill="#101010"/>
<g id="glowup2" filter="url(#filter0_f_23_2)">
<path d="M73.6752 361.552C164.094 178.133 620.905 24.4002 659.236 29.4535C697.566 34.5068 741.956 301.7 720.267 582.91C623.846 427.228 382.002 303.038 73.6752 361.552Z" fill="#04B879" fill-opacity="0.05"/>
<path d="M73.6752 361.552C164.094 178.133 620.905 24.4002 659.236 29.4535C697.566 34.5068 741.956 301.7 720.267 582.91C623.846 427.228 382.002 303.038 73.6752 361.552Z" stroke="black"/>
</g>
<g id="glowup1" filter="url(#filter1_f_23_2)">
<path d="M1911.42 772.066C1772 921.661 1290.26 937.275 1255.01 921.393C1219.76 905.512 1254.23 636.858 1356.01 373.819C1403.5 550.678 1599.31 739.275 1911.42 772.066Z" fill="#04B879" fill-opacity="0.05"/>
<path d="M1911.42 772.066C1772 921.661 1290.26 937.275 1255.01 921.393C1219.76 905.512 1254.23 636.858 1356.01 373.819C1403.5 550.678 1599.31 739.275 1911.42 772.066Z" stroke="black"/>
</g>
<g id="circuit">
<path id="circuit6" d="M373.97 953.136H374.393L374.463 952.72C378.121 931.064 396.957 914.5 419.636 914.5C444.926 914.5 465.5 935.074 465.5 960.364C465.5 985.653 444.926 1006.23 419.636 1006.23C396.957 1006.23 378.119 989.664 374.463 968.008L374.393 967.591H373.97H342.364C325.045 967.591 310.955 981.669 310.955 998.973V1083.5H296.5V998.973C296.5 973.699 317.074 953.136 342.364 953.136H373.97ZM388.227 960.364C388.227 977.682 402.318 991.773 419.636 991.773C436.955 991.773 451.045 977.682 451.045 960.364C451.045 943.045 436.955 928.955 419.636 928.955C402.318 928.955 388.227 943.045 388.227 960.364Z" stroke="url(#paint0_linear_23_2)"/>
<path id="circuit5" d="M178.318 797.465V797.965H178.818H212.091C239.369 797.965 261.5 818.639 261.5 843.977V1083.5H245.864V843.977C245.864 826.561 230.679 812.453 212.091 812.453H175.907H175.562L175.44 812.775C168.644 830.591 150.393 843.43 128.909 843.43C101.63 843.43 79.5 822.778 79.5 797.465C79.5 772.153 101.63 751.5 128.909 751.5C156.188 751.5 178.318 772.153 178.318 797.465ZM95.1364 797.465C95.1364 814.854 110.321 828.942 128.909 828.942C147.497 828.942 162.682 814.854 162.682 797.465C162.682 780.076 147.497 765.988 128.909 765.988C110.321 765.988 95.1364 780.076 95.1364 797.465Z" stroke="url(#paint1_linear_23_2)"/>
<path id="circuit4" d="M124.537 913.787L124.607 914.204H125.03H156.636C181.925 914.204 202.5 934.828 202.5 960.175V1083.5H188.045V960.175C188.045 942.813 173.956 928.685 156.636 928.685H125.03H124.607L124.537 929.102C120.879 950.797 102.042 967.389 79.3636 967.389C54.0749 967.389 33.5 946.779 33.5 921.444C33.5 896.11 54.0749 875.5 79.3636 875.5C102.042 875.5 120.879 892.092 124.537 913.787ZM47.9545 921.444C47.9545 938.792 62.0442 952.907 79.3636 952.907C96.6831 952.907 110.773 938.792 110.773 921.444C110.773 904.097 96.6831 889.981 79.3636 889.981C62.0442 889.981 47.9545 904.097 47.9545 921.444Z" stroke="url(#paint2_linear_23_2)"/>
<path id="circuit3" d="M1792.67 102.101L1792.67 101.678L1792.26 101.607C1770.61 97.91 1754.08 79.0438 1754.12 56.3645C1754.17 31.075 1774.78 10.5383 1800.07 10.5844C1825.36 10.6304 1845.89 31.2419 1845.85 56.5314C1845.81 79.2108 1829.21 98.0186 1807.54 101.635L1807.13 101.705L1807.13 102.127L1807.07 133.734C1807.04 151.052 1821.09 165.168 1838.39 165.2L1922.92 165.354L1922.9 179.808L1838.37 179.654C1813.09 179.608 1792.57 158.997 1792.62 133.707L1792.67 102.101ZM1799.93 87.857C1817.24 87.8885 1831.36 73.8237 1831.39 56.5051C1831.42 39.1865 1817.36 25.0704 1800.04 25.0389C1782.72 25.0074 1768.61 39.0721 1768.57 56.3908C1768.54 73.7094 1782.61 87.8254 1799.93 87.857Z" stroke="url(#paint3_linear_23_2)"/>
<path id="circuit2" d="M1636.65 297.469L1637.15 297.47L1637.15 296.97L1637.21 263.698C1637.26 236.419 1657.97 214.326 1683.31 214.372L1922.83 214.808L1922.8 230.445L1683.28 230.009C1665.86 229.977 1651.73 245.136 1651.7 263.724L1651.63 299.908L1651.63 300.252L1651.95 300.376C1669.75 307.204 1682.56 325.478 1682.52 346.962C1682.47 374.241 1661.78 396.333 1636.47 396.287C1611.15 396.241 1590.54 374.073 1590.59 346.795C1590.64 319.516 1611.33 297.423 1636.65 297.469ZM1636.49 380.651C1653.88 380.683 1668 365.523 1668.03 346.936C1668.07 328.348 1654.01 313.137 1636.62 313.106C1619.23 313.074 1605.11 328.233 1605.08 346.821C1605.05 365.409 1619.11 380.619 1636.49 380.651Z" stroke="url(#paint4_linear_23_2)"/>
<path id="circuit1" d="M1752.87 351.462L1753.29 351.393L1753.29 350.97L1753.34 319.364C1753.39 294.075 1774.05 273.538 1799.4 273.584L1922.72 273.808L1922.7 288.263L1799.37 288.038C1782.01 288.007 1767.86 302.07 1767.83 319.39L1767.77 350.996L1767.77 351.419L1768.18 351.49C1789.87 355.188 1806.43 374.054 1806.39 396.733C1806.34 422.022 1785.7 442.559 1760.36 442.513C1735.03 442.467 1714.45 421.854 1714.5 396.566C1714.54 373.887 1731.17 355.081 1752.87 351.462ZM1760.39 428.058C1777.74 428.09 1791.88 414.026 1791.91 396.707C1791.94 379.387 1777.85 365.272 1760.5 365.24C1743.15 365.209 1729.01 379.273 1728.98 396.592C1728.95 413.911 1743.04 428.027 1760.39 428.058Z" stroke="url(#paint5_linear_23_2)"/>
</g>
<g id="processor">
<g id="Center">
<path id="processor_2" d="M1657.62 931.881V932.381H1658.12H1670.64V939.787H1650.21V845.214H1744.79V939.787H1682.85V932.381H1736.88H1737.38V931.881V853.12V852.62H1736.88H1658.12H1657.62V853.12V931.881Z" stroke="#23C46E"/>
</g>
<g id="Flats">
<g id="flats">
<mask id="path-10-inside-1_23_2" fill="white">
<path d="M1839 907.797V877.201H1787.66V860.477H1839V829.881H1787.66V802.337H1760.12V751H1729.52V802.337H1712.8V751H1682.2V802.337H1665.48V751H1634.88V802.337H1607.34V829.883H1556V860.48H1607.34V877.203H1556V907.799H1607.34V924.523H1556V955.119H1607.34V982.663H1634.88V1034H1665.48V982.663H1682.2V1034H1712.8V982.663H1729.52V1034H1760.12V982.663H1787.66V955.116H1839V924.52H1787.66V907.796H1839V907.797ZM1607.34 946.712H1564.41V932.928H1607.34V946.712ZM1607.34 899.393H1564.41V885.609H1607.34V899.393ZM1607.34 852.074H1564.41V838.289H1607.34V852.074ZM1787.66 838.288H1830.59V852.072H1787.66V838.288ZM1737.93 759.406H1751.71V802.337H1737.93V759.406ZM1690.61 759.406H1704.39V802.337H1690.61V759.406ZM1643.29 759.406H1657.07V802.337H1643.29V759.406ZM1657.07 1025.59H1643.29V982.663H1657.07V1025.59ZM1704.39 1025.59H1690.61V982.663H1704.39V1025.59ZM1737.93 1025.59V982.663H1751.71V1025.59H1737.93ZM1779.26 829.881H1779.26V860.477H1779.26V877.201H1779.26V907.797H1779.26V924.52H1779.26V955.117H1779.26V974.258H1760.12V974.257H1729.52V974.258H1712.8V974.257H1682.2V974.258H1665.48V974.257H1634.88V974.258H1615.74V955.119V924.523V907.8V877.204V860.48V829.884V810.744H1634.88H1665.48H1682.2H1712.8H1729.52H1760.12H1779.26V829.881H1779.26ZM1830.59 932.926V946.711H1787.66V932.926H1830.59ZM1787.66 899.391V885.607H1830.59V899.391H1787.66Z"/>
</mask>
<path d="M1839 907.797V877.201H1787.66V860.477H1839V829.881H1787.66V802.337H1760.12V751H1729.52V802.337H1712.8V751H1682.2V802.337H1665.48V751H1634.88V802.337H1607.34V829.883H1556V860.48H1607.34V877.203H1556V907.799H1607.34V924.523H1556V955.119H1607.34V982.663H1634.88V1034H1665.48V982.663H1682.2V1034H1712.8V982.663H1729.52V1034H1760.12V982.663H1787.66V955.116H1839V924.52H1787.66V907.796H1839V907.797ZM1607.34 946.712H1564.41V932.928H1607.34V946.712ZM1607.34 899.393H1564.41V885.609H1607.34V899.393ZM1607.34 852.074H1564.41V838.289H1607.34V852.074ZM1787.66 838.288H1830.59V852.072H1787.66V838.288ZM1737.93 759.406H1751.71V802.337H1737.93V759.406ZM1690.61 759.406H1704.39V802.337H1690.61V759.406ZM1643.29 759.406H1657.07V802.337H1643.29V759.406ZM1657.07 1025.59H1643.29V982.663H1657.07V1025.59ZM1704.39 1025.59H1690.61V982.663H1704.39V1025.59ZM1737.93 1025.59V982.663H1751.71V1025.59H1737.93ZM1779.26 829.881H1779.26V860.477H1779.26V877.201H1779.26V907.797H1779.26V924.52H1779.26V955.117H1779.26V974.258H1760.12V974.257H1729.52V974.258H1712.8V974.257H1682.2V974.258H1665.48V974.257H1634.88V974.258H1615.74V955.119V924.523V907.8V877.204V860.48V829.884V810.744H1634.88H1665.48H1682.2H1712.8H1729.52H1760.12H1779.26V829.881H1779.26ZM1830.59 932.926V946.711H1787.66V932.926H1830.59ZM1787.66 899.391V885.607H1830.59V899.391H1787.66Z" stroke="#23C46E" stroke-width="2" mask="url(#path-10-inside-1_23_2)"/>
</g>
</g>
<g id="LOGO">
<path id="cirlce-1" fill-rule="evenodd" clip-rule="evenodd" d="M1698 864C1714.02 864 1727 876.76 1727 892.5C1727 908.24 1714.02 921 1698 921C1681.98 921 1669 908.24 1669 892.5C1669 876.76 1681.98 864 1698 864ZM1698 866.409C1712.66 866.409 1724.55 878.09 1724.55 892.5C1724.55 906.91 1712.66 918.591 1698 918.591C1683.34 918.591 1671.45 906.91 1671.45 892.5C1671.45 878.09 1683.34 866.409 1698 866.409Z" fill="url(#paint6_linear_23_2)"/>
<path id="body" d="M1704.32 909C1703 909 1701.92 907.947 1701.92 906.652V898.526C1701.92 896.172 1703.14 894.09 1704.99 892.85C1704.41 889.316 1701.27 886.607 1697.5 886.607C1693.73 886.607 1690.59 889.316 1690.01 892.849C1691.86 894.09 1693.08 896.172 1693.08 898.526V906.652C1693.08 907.947 1692 909 1690.68 909C1689.35 909 1688.27 907.947 1688.27 906.652V894.019C1688.27 893.922 1688.27 893.825 1688.28 893.729C1687.6 893.423 1686.84 893.253 1686.04 893.253C1683.06 893.253 1680.64 895.618 1680.64 898.526V904.711C1680.64 905.155 1680.28 905.515 1679.82 905.515C1679.37 905.515 1679 905.155 1679 904.711V898.526C1679 894.733 1682.16 891.646 1686.04 891.646C1686.9 891.646 1687.73 891.798 1688.49 892.076C1689.4 888.034 1693.09 885 1697.5 885C1701.91 885 1705.6 888.034 1706.51 892.076C1707.27 891.798 1708.1 891.646 1708.96 891.646C1712.84 891.646 1716 894.733 1716 898.526V904.711C1716 905.155 1715.63 905.515 1715.18 905.515C1714.72 905.515 1714.36 905.155 1714.36 904.711V898.526C1714.36 895.618 1711.94 893.253 1708.96 893.253C1708.16 893.253 1707.4 893.423 1706.72 893.729C1706.73 893.825 1706.73 893.922 1706.73 894.019V906.652C1706.73 907.947 1705.65 909 1704.32 909ZM1705.08 894.864C1704.14 895.814 1703.57 897.105 1703.57 898.526V906.652C1703.57 907.061 1703.91 907.393 1704.32 907.393C1704.74 907.393 1705.08 907.061 1705.08 906.652V894.864ZM1689.92 894.864V906.652C1689.92 907.061 1690.26 907.393 1690.68 907.393C1691.09 907.393 1691.43 907.061 1691.43 906.652V898.526C1691.43 897.105 1690.86 895.813 1689.92 894.864Z" fill="url(#paint7_linear_23_2)"/>
<path id="head-3" d="M1709.5 893C1707.02 893 1705 890.981 1705 888.5C1705 886.019 1707.02 884 1709.5 884C1711.98 884 1714 886.019 1714 888.5C1714 890.981 1711.98 893 1709.5 893ZM1709.5 885.622C1707.91 885.622 1706.62 886.913 1706.62 888.5C1706.62 890.087 1707.91 891.378 1709.5 891.378C1711.09 891.378 1712.38 890.087 1712.38 888.5C1712.38 886.913 1711.09 885.622 1709.5 885.622Z" fill="#07DB91"/>
<path id="head-2" d="M1698 887C1694.69 887 1692 884.308 1692 881C1692 877.691 1694.69 875 1698 875C1701.31 875 1704 877.691 1704 881C1704 884.308 1701.31 887 1698 887ZM1698 876.723C1695.64 876.723 1693.72 878.642 1693.72 881C1693.72 883.358 1695.64 885.277 1698 885.277C1700.36 885.277 1702.28 883.358 1702.28 881C1702.28 878.642 1700.36 876.723 1698 876.723Z" fill="url(#paint8_linear_23_2)"/>
<path id="head-1" d="M1686.5 893C1684.02 893 1682 890.981 1682 888.5C1682 886.019 1684.02 884 1686.5 884C1688.98 884 1691 886.019 1691 888.5C1691 890.981 1688.98 893 1686.5 893ZM1686.5 885.622C1684.91 885.622 1683.62 886.913 1683.62 888.5C1683.62 890.087 1684.91 891.378 1686.5 891.378C1688.09 891.378 1689.38 890.087 1689.38 888.5C1689.38 886.913 1688.09 885.622 1686.5 885.622Z" fill="#00BE7D"/>
</g>
</g>
</g>
<defs>
<filter id="filter0_f_23_2" x="-227.217" y="-271.168" width="1253.69" height="1155.64" filterUnits="userSpaceOnUse" color-interpolation-filters="sRGB">
<feFlood flood-opacity="0" result="BackgroundImageFix"/>
<feBlend mode="normal" in="SourceGraphic" in2="BackgroundImageFix" result="shape"/>
<feGaussianBlur stdDeviation="150" result="effect1_foregroundBlur_23_2"/>
</filter>
<filter id="filter1_f_23_2" x="941.108" y="72.2113" width="1271.36" height="1154.62" filterUnits="userSpaceOnUse" color-interpolation-filters="sRGB">
<feFlood flood-opacity="0" result="BackgroundImageFix"/>
<feBlend mode="normal" in="SourceGraphic" in2="BackgroundImageFix" result="shape"/>
<feGaussianBlur stdDeviation="150" result="effect1_foregroundBlur_23_2"/>
</filter>
<linearGradient id="paint0_linear_23_2" x1="381" y1="914" x2="381" y2="1084" gradientUnits="userSpaceOnUse">
<stop stop-color="#23C46E"/>
<stop offset="1" stop-color="#23C46E" stop-opacity="0"/>
</linearGradient>
<linearGradient id="paint1_linear_23_2" x1="170.5" y1="751" x2="170.5" y2="1084" gradientUnits="userSpaceOnUse">
<stop stop-color="#23C46E"/>
<stop offset="1" stop-color="#23C46E" stop-opacity="0"/>
</linearGradient>
<linearGradient id="paint2_linear_23_2" x1="118" y1="875" x2="118" y2="1084" gradientUnits="userSpaceOnUse">
<stop stop-color="#23C46E"/>
<stop offset="1" stop-color="#23C46E" stop-opacity="0"/>
</linearGradient>
<linearGradient id="paint3_linear_23_2" x1="1753.55" y1="94.9998" x2="1923.55" y2="95.3093" gradientUnits="userSpaceOnUse">
<stop stop-color="#23C46E"/>
<stop offset="1" stop-color="#23C46E" stop-opacity="0"/>
</linearGradient>
<linearGradient id="paint4_linear_23_2" x1="1590.17" y1="305.203" x2="1923.17" y2="305.809" gradientUnits="userSpaceOnUse">
<stop stop-color="#23C46E"/>
<stop offset="1" stop-color="#23C46E" stop-opacity="0"/>
</linearGradient>
<linearGradient id="paint5_linear_23_2" x1="1714.07" y1="357.928" x2="1923.07" y2="358.309" gradientUnits="userSpaceOnUse">
<stop stop-color="#23C46E"/>
<stop offset="1" stop-color="#23C46E" stop-opacity="0"/>
</linearGradient>
<linearGradient id="paint6_linear_23_2" x1="1678.05" y1="865.053" x2="1711.88" y2="920.169" gradientUnits="userSpaceOnUse">
<stop stop-color="#00FAA2"/>
<stop offset="1" stop-color="#006F48"/>
</linearGradient>
<linearGradient id="paint7_linear_23_2" x1="1678.43" y1="889.048" x2="1703.02" y2="911.603" gradientUnits="userSpaceOnUse">
<stop stop-color="#16F0A4"/>
<stop offset="0.360784" stop-color="#0BC282"/>
<stop offset="0.54902" stop-color="#0ABD7E"/>
<stop offset="1" stop-color="#009460"/>
</linearGradient>
<linearGradient id="paint8_linear_23_2" x1="1707.29" y1="873.048" x2="1685.23" y2="884.758" gradientUnits="userSpaceOnUse">
<stop stop-color="#07DB91"/>
<stop offset="1" stop-color="#00A36A"/>
</linearGradient>
<clipPath id="clip0_23_2">
<rect width="1920" height="1080" fill="white"/>
</clipPath>
</defs>
</svg>
