<svg width="173" height="127" viewBox="0 0 173 127" fill="none" xmlns="http://www.w3.org/2000/svg">
<g id="certificado-a1">
<g id="layer1">
<path id="rect3592-3" d="M167.068 4.55957H10.2654C7.11632 4.55957 4.56348 7.10927 4.56348 10.2545V121.305C4.56348 124.451 7.11632 127 10.2654 127H167.068C170.218 127 172.77 124.451 172.77 121.305V10.2545C172.77 7.10927 170.218 4.55957 167.068 4.55957Z" fill="url(#paint0_linear_596_844)"/>
<path id="rect3592" d="M163.505 1H6.70193C3.55284 1 1 3.5497 1 6.69492V117.746C1 120.891 3.55284 123.441 6.70193 123.441H163.505C166.654 123.441 169.207 120.891 169.207 117.746V6.69492C169.207 3.5497 166.654 1 163.505 1Z" fill="url(#paint1_linear_596_844)" stroke="#3E573C" stroke-opacity="0.498039" stroke-width="0.336645" stroke-linecap="round" stroke-linejoin="round"/>
<path id="rect3592-9" d="M163.505 3.84717H6.70155C5.12701 3.84717 3.85059 5.12202 3.85059 6.69463V117.745C3.85059 119.318 5.12701 120.593 6.70155 120.593H163.505C165.079 120.593 166.356 119.318 166.356 117.745V6.69463C166.356 5.12202 165.079 3.84717 163.505 3.84717Z" stroke="white" stroke-width="0.67329" stroke-linecap="round"/>
</g>
<g id="layer2">
<g id="g9232">
<path id="path3797-4-02" opacity="0.46" d="M15.2553 9.54199L9.55341 15.2369H20.9573L15.2553 9.54199ZM35.2121 9.54199L29.5102 15.2369H40.914L35.2121 9.54199ZM55.1688 9.54199L49.4669 15.2369H60.8708L55.1688 9.54199ZM75.1256 9.54199L69.4237 15.2369H80.8275L75.1256 9.54199ZM95.0823 9.54199L89.3804 15.2369H100.784L95.0823 9.54199ZM115.039 9.54199L109.337 15.2369H120.741L115.039 9.54199ZM134.996 9.54199L129.294 15.2369H140.698L134.996 9.54199ZM154.953 9.54199L149.251 15.2369H160.655L154.953 9.54199ZM19.5318 10.9657L25.2337 16.6606L30.9356 10.9657H19.5318ZM39.4885 10.9657L45.1905 16.6606L50.8924 10.9657H39.4885ZM59.4453 10.9657L65.1472 16.6606L70.8491 10.9657H59.4453ZM99.3588 10.9657L105.061 16.6606L110.763 10.9657H99.3588ZM119.316 10.9657L125.017 16.6606L130.719 10.9657H119.316ZM139.272 10.9657L144.974 16.6606L150.676 10.9657H139.272ZM13.8299 17.3725L8.12793 23.0674L13.8299 28.7623V17.3725ZM156.378 17.3725V28.7623L162.08 23.0674L156.378 17.3725ZM9.55341 27.3386V38.7284L15.2553 33.0335L9.55341 27.3386ZM160.655 27.3386L154.953 33.0335L160.655 38.7284V27.3386ZM13.8299 37.3047L8.12793 42.9996L13.8299 48.6945V37.3047ZM156.378 37.3047V48.6945L162.08 42.9996L156.378 37.3047ZM9.55341 47.2708V58.6606L15.2553 52.9657L9.55341 47.2708ZM160.655 47.2708L154.953 52.9657L160.655 58.6606V47.2708ZM13.8299 57.2369L8.12793 62.9318L13.8299 68.6267V57.2369ZM156.378 57.2369V68.6267L162.08 62.9318L156.378 57.2369ZM9.55341 67.203V78.5928L15.2553 72.8979L9.55341 67.203ZM160.655 67.203L154.953 72.8979L160.655 78.5928V67.203ZM13.8299 77.1691L8.12793 82.864L13.8299 88.5589V77.1691ZM156.378 77.1691V88.5589L162.08 82.864L156.378 77.1691ZM9.55341 87.1352V98.525L15.2553 92.8301L9.55341 87.1352ZM160.655 87.1352L154.953 92.8301L160.655 98.525V87.1352ZM13.8299 97.1013L8.12793 102.796L13.8299 108.491V97.1013ZM156.378 97.1013V108.491L162.08 102.796L156.378 97.1013ZM25.2337 109.203L19.5318 114.898H30.9356L25.2337 109.203ZM45.1905 109.203L39.4885 114.898H50.8924L45.1905 109.203ZM65.1472 109.203L59.4453 114.898H70.8491L65.1472 109.203ZM85.104 109.203L79.402 114.898H90.8059L85.104 109.203ZM105.061 109.203L99.3588 114.898H110.763L105.061 109.203ZM125.017 109.203L119.316 114.898H130.719L125.017 109.203ZM144.974 109.203L139.272 114.898H150.676L144.974 109.203ZM9.55341 110.627L15.2553 116.322L20.9573 110.627H9.55341ZM29.5102 110.627L35.2121 116.322L40.914 110.627H29.5102ZM49.4669 110.627L55.1688 116.322L60.8708 110.627H49.4669ZM69.4237 110.627L75.1256 116.322L80.8275 110.627H69.4237ZM89.3804 110.627L95.0823 116.322L100.784 110.627H89.3804ZM109.337 110.627L115.039 116.322L120.741 110.627H109.337ZM129.294 110.627L134.996 116.322L140.698 110.627H129.294ZM149.251 110.627L154.953 116.322L160.655 110.627H149.251Z" fill="#1E6E52"/>
<path id="path3797-4" opacity="0.46" d="M25.2337 9.54199L19.5318 15.2369H30.9356L25.2337 9.54199ZM45.1905 9.54199L39.4885 15.2369H50.8924L45.1905 9.54199ZM65.1472 9.54199L59.4453 15.2369H70.8491L65.1472 9.54199ZM105.061 9.54199L99.3588 15.2369H110.763L105.061 9.54199ZM125.017 9.54199L119.316 15.2369H130.719L125.017 9.54199ZM144.974 9.54199L139.272 15.2369H150.676L144.974 9.54199ZM9.55341 10.9657L15.2553 16.6606L20.9573 10.9657H9.55341ZM29.5102 10.9657L35.2121 16.6606L40.914 10.9657H29.5102ZM49.4669 10.9657L55.1688 16.6606L60.8708 10.9657H49.4669ZM69.4237 10.9657L75.1256 16.6606L80.8275 10.9657H69.4237ZM89.3804 10.9657L95.0823 16.6606L100.784 10.9657H89.3804ZM109.337 10.9657L115.039 16.6606L120.741 10.9657H109.337ZM129.294 10.9657L134.996 16.6606L140.698 10.9657H129.294ZM149.251 10.9657L154.953 16.6606L160.655 10.9657H149.251ZM9.55341 17.3725V28.7623L15.2553 23.0674L9.55341 17.3725ZM160.655 17.3725L154.953 23.0674L160.655 28.7623V17.3725ZM13.8299 27.3386L8.12793 33.0335L13.8299 38.7284V27.3386ZM156.378 27.3386V38.7284L162.08 33.0335L156.378 27.3386ZM9.55341 37.3047V48.6945L15.2553 42.9996L9.55341 37.3047ZM160.655 37.3047L154.953 42.9996L160.655 48.6945V37.3047ZM13.8299 47.2708L8.12793 52.9657L13.8299 58.6606V47.2708ZM156.378 47.2708V58.6606L162.08 52.9657L156.378 47.2708ZM9.55341 57.2369V68.6267L15.2553 62.9318L9.55341 57.2369ZM160.655 57.2369L154.953 62.9318L160.655 68.6267V57.2369ZM13.8299 67.203L8.12793 72.8979L13.8299 78.5928V67.203ZM156.378 67.203V78.5928L162.08 72.8979L156.378 67.203ZM9.55341 77.1691V88.5589L15.2553 82.864L9.55341 77.1691ZM160.655 77.1691L154.953 82.864L160.655 88.5589V77.1691ZM13.8299 87.1352L8.12793 92.8301L13.8299 98.525V87.1352ZM156.378 87.1352V98.525L162.08 92.8301L156.378 87.1352ZM9.55341 97.1013V108.491L15.2553 102.796L9.55341 97.1013ZM160.655 97.1013L154.953 102.796L160.655 108.491V97.1013ZM15.2553 109.203L9.55341 114.898H20.9573L15.2553 109.203ZM35.2121 109.203L29.5102 114.898H40.914L35.2121 109.203ZM55.1688 109.203L49.4669 114.898H60.8708L55.1688 109.203ZM75.1256 109.203L69.4237 114.898H80.8275L75.1256 109.203ZM95.0823 109.203L89.3804 114.898H100.784L95.0823 109.203ZM115.039 109.203L109.337 114.898H120.741L115.039 109.203ZM134.996 109.203L129.294 114.898H140.698L134.996 109.203ZM154.953 109.203L149.251 114.898H160.655L154.953 109.203ZM19.5318 110.627L25.2337 116.322L30.9356 110.627H19.5318ZM39.4885 110.627L45.1905 116.322L50.8924 110.627H39.4885ZM59.4453 110.627L65.1472 116.322L70.8491 110.627H59.4453ZM79.402 110.627L85.104 116.322L90.8059 110.627H79.402ZM99.3588 110.627L105.061 116.322L110.763 110.627H99.3588ZM119.316 110.627L125.017 116.322L130.719 110.627H119.316ZM139.272 110.627L144.974 116.322L150.676 110.627H139.272Z" fill="#1E6E52"/>
<path id="path5115" opacity="0.7" d="M42.4281 46.559C42.2409 46.5765 42.0589 46.6307 41.8927 46.7184C41.7265 46.8062 41.5792 46.9258 41.4592 47.0704C41.3392 47.215 41.2489 47.3817 41.1935 47.5612C41.1381 47.7406 41.1186 47.9292 41.1361 48.1162C41.1537 48.3032 41.2079 48.4849 41.2958 48.6509C41.3837 48.817 41.5034 48.9641 41.6482 49.0839C41.793 49.2037 41.96 49.2939 42.1396 49.3492C42.3193 49.4045 42.5081 49.424 42.6954 49.4065H137.846C138.035 49.4091 138.223 49.3743 138.398 49.3039C138.573 49.2336 138.733 49.1291 138.867 48.9967C139.002 48.8642 139.109 48.7063 139.182 48.5323C139.255 48.3582 139.292 48.1714 139.292 47.9827C139.292 47.7941 139.255 47.6073 139.182 47.4332C139.109 47.2591 139.002 47.1013 138.867 46.9688C138.733 46.8363 138.573 46.7319 138.398 46.6615C138.223 46.5912 138.035 46.5563 137.846 46.559H42.6954C42.6065 46.5506 42.517 46.5506 42.4281 46.559V46.559Z" fill="#1E6E52"/>
<path id="path5115-4" opacity="0.7" d="M42.3402 51.4404C42.153 51.4579 41.9711 51.512 41.8048 51.5998C41.6386 51.6875 41.4913 51.8071 41.3713 51.9517C41.2513 52.0963 41.161 52.2631 41.1056 52.4425C41.0502 52.622 41.0307 52.8106 41.0482 52.9976C41.0658 53.1845 41.12 53.3662 41.2079 53.5323C41.2958 53.6983 41.4155 53.8454 41.5603 53.9652C41.7051 54.085 41.8721 54.1752 42.0518 54.2305C42.2314 54.2859 42.4203 54.3054 42.6075 54.2878H137.847C138.036 54.2905 138.224 54.2556 138.399 54.1853C138.575 54.1149 138.734 54.0105 138.869 53.878C139.003 53.7455 139.11 53.5877 139.183 53.4136C139.256 53.2396 139.293 53.0528 139.293 52.8641C139.293 52.6754 139.256 52.4886 139.183 52.3145C139.11 52.1405 139.003 51.9826 138.869 51.8502C138.734 51.7177 138.575 51.6132 138.399 51.5429C138.224 51.4725 138.036 51.4377 137.847 51.4404H42.6075C42.5186 51.432 42.4291 51.432 42.3402 51.4404Z" fill="#1E6E52"/>
<path id="path5115-7" opacity="0.7" d="M32.0941 56.3217C31.9069 56.3392 31.725 56.3934 31.5587 56.4811C31.3925 56.5689 31.2452 56.6885 31.1252 56.8331C31.0052 56.9777 30.915 57.1444 30.8595 57.3239C30.8041 57.5033 30.7846 57.6919 30.8021 57.8789C30.8197 58.0659 30.874 58.2476 30.9618 58.4136C31.0497 58.5796 31.1694 58.7268 31.3142 58.8466C31.459 58.9664 31.626 59.0565 31.8057 59.1119C31.9853 59.1672 32.1742 59.1867 32.3614 59.1692H137.847C138.036 59.1718 138.223 59.137 138.399 59.0666C138.574 58.9963 138.734 58.8918 138.868 58.7594C139.003 58.6269 139.109 58.469 139.182 58.295C139.255 58.1209 139.293 57.9341 139.293 57.7454C139.293 57.5568 139.255 57.37 139.182 57.1959C139.109 57.0218 139.003 56.864 138.868 56.7315C138.734 56.599 138.574 56.4946 138.399 56.4242C138.223 56.3539 138.036 56.319 137.847 56.3217H32.3614C32.2725 56.3133 32.183 56.3133 32.0941 56.3217Z" fill="#1E6E52"/>
<path id="path5115-4-8" opacity="0.7" d="M32.0941 66.0844C31.9069 66.1019 31.725 66.1561 31.5587 66.2438C31.3925 66.3316 31.2452 66.4511 31.1252 66.5957C31.0052 66.7404 30.915 66.9071 30.8595 67.0866C30.8041 67.266 30.7846 67.4546 30.8021 67.6416C30.8197 67.8286 30.874 68.0103 30.9618 68.1763C31.0497 68.3423 31.1694 68.4895 31.3142 68.6093C31.459 68.7291 31.626 68.8192 31.8057 68.8746C31.9853 68.9299 32.1742 68.9494 32.3614 68.9319H137.847C138.036 68.9345 138.223 68.8997 138.399 68.8293C138.574 68.759 138.734 68.6545 138.868 68.522C139.003 68.3896 139.109 68.2317 139.182 68.0577C139.255 67.8836 139.293 67.6968 139.293 67.5081C139.293 67.3194 139.255 67.1326 139.182 66.9586C139.109 66.7845 139.003 66.6267 138.868 66.4942C138.734 66.3617 138.574 66.2573 138.399 66.1869C138.223 66.1166 138.036 66.0817 137.847 66.0844H32.3614C32.2725 66.076 32.183 66.076 32.0941 66.0844V66.0844Z" fill="#1E6E52"/>
<path id="path5115-7-1" opacity="0.7" d="M32.0941 70.9657C31.9069 70.9833 31.725 71.0374 31.5587 71.1252C31.3925 71.2129 31.2452 71.3325 31.1252 71.4771C31.0052 71.6217 30.915 71.7885 30.8595 71.9679C30.8041 72.1474 30.7846 72.336 30.8021 72.523C30.8197 72.7099 30.874 72.8916 30.9618 73.0576C31.0497 73.2237 31.1694 73.3708 31.3142 73.4906C31.459 73.6104 31.626 73.7006 31.8057 73.7559C31.9853 73.8113 32.1742 73.8307 32.3614 73.8132H137.847C138.036 73.8159 138.223 73.781 138.399 73.7107C138.574 73.6403 138.734 73.5359 138.868 73.4034C139.003 73.2709 139.109 73.1131 139.182 72.939C139.255 72.7649 139.293 72.5781 139.293 72.3895C139.293 72.2008 139.255 72.014 139.182 71.8399C139.109 71.6659 139.003 71.508 138.868 71.3755C138.734 71.2431 138.574 71.1386 138.399 71.0683C138.223 70.9979 138.036 70.9631 137.847 70.9657H32.3614C32.2725 70.9574 32.183 70.9574 32.0941 70.9657Z" fill="#1E6E52"/>
<path id="path5115-4-5-3" opacity="0.7" d="M32.0941 75.8471C31.9069 75.8646 31.725 75.9188 31.5587 76.0065C31.3925 76.0943 31.2452 76.2138 31.1252 76.3584C31.0052 76.503 30.915 76.6698 30.8595 76.8493C30.8041 77.0287 30.7846 77.2173 30.8021 77.4043C30.8197 77.5913 30.874 77.773 30.9618 77.939C31.0497 78.105 31.1694 78.2522 31.3142 78.372C31.459 78.4918 31.626 78.5819 31.8057 78.6373C31.9853 78.6926 32.1742 78.7121 32.3614 78.6946H137.847C138.036 78.6972 138.223 78.6624 138.399 78.592C138.574 78.5217 138.734 78.4172 138.868 78.2847C139.003 78.1523 139.109 77.9944 139.182 77.8204C139.255 77.6463 139.293 77.4595 139.293 77.2708C139.293 77.0821 139.255 76.8953 139.182 76.7213C139.109 76.5472 139.003 76.3894 138.868 76.2569C138.734 76.1244 138.574 76.02 138.399 75.9496C138.223 75.8793 138.036 75.8444 137.847 75.8471H32.3614C32.2725 75.8387 32.183 75.8387 32.0941 75.8471Z" fill="#1E6E52"/>
<path id="path5115-4-5-3-7" opacity="0.7" d="M32.0941 80.7284C31.9069 80.746 31.725 80.8001 31.5587 80.8879C31.3925 80.9756 31.2452 81.0952 31.1252 81.2398C31.0052 81.3844 30.915 81.5512 30.8595 81.7306C30.8041 81.9101 30.7846 82.0987 30.8021 82.2856C30.8197 82.4726 30.874 82.6543 30.9618 82.8203C31.0497 82.9864 31.1694 83.1335 31.3142 83.2533C31.459 83.3731 31.626 83.4633 31.8057 83.5186C31.9853 83.574 32.1742 83.5934 32.3614 83.5759H66.5729C66.7618 83.5786 66.9494 83.5437 67.1247 83.4734C67.3 83.403 67.4595 83.2986 67.594 83.1661C67.7285 83.0336 67.8354 82.8758 67.9083 82.7017C67.9812 82.5276 68.0187 82.3408 68.0187 82.1522C68.0187 81.9635 67.9812 81.7767 67.9083 81.6026C67.8354 81.4286 67.7285 81.2707 67.594 81.1382C67.4595 81.0058 67.3 80.9013 67.1247 80.831C66.9494 80.7606 66.7618 80.7258 66.5729 80.7284H32.3614C32.2725 80.7201 32.183 80.7201 32.0941 80.7284Z" fill="#1E6E52"/>
<path id="path5251" opacity="0.7" d="M39.4758 46.1946C35.3085 44.4309 31.9265 46.735 31.4699 49.7002C31.2416 51.1827 31.9228 52.942 33.4299 53.7934C34.9371 54.6448 36.8038 55.082 39.3867 54.5962C40.1267 54.4571 40.5768 53.5387 40.3669 52.8165C40.157 52.0943 39.308 51.628 38.5849 51.8378C36.3958 52.5192 35.3635 51.5889 34.8554 51.3019C34.3474 51.0149 34.2382 50.6817 34.3209 50.1451C34.4861 49.0718 35.5175 47.6413 38.4067 48.8641C39.1065 49.1437 39.9978 48.7622 40.2777 48.0633C40.5576 47.3644 40.1756 46.4742 39.4758 46.1946Z" fill="#1E6E52"/>
<path id="path5614-8" d="M85.1041 15.2334L73.6111 21.9071H76.8184V29.2927H75.2148L70.2256 34.3648H99.9825L94.9933 29.2927H93.3897V21.9071H96.597L85.1041 15.2334ZM85.1041 16.8351L91.9642 21.0173H78.1548L85.1041 16.8351ZM85.1041 17.547C84.2068 17.547 83.5004 18.2525 83.5004 19.1487C83.5004 20.0448 84.2068 20.8393 85.1041 20.8393C86.0013 20.8393 86.7077 20.0448 86.7077 19.1487C86.7077 18.2525 86.0013 17.547 85.1041 17.547ZM85.1041 18.4368C85.5391 18.4368 85.9059 18.7142 85.9059 19.1487C85.9059 19.5832 85.5391 19.9495 85.1041 19.9495C84.669 19.9495 84.3022 19.5832 84.3022 19.1487C84.3022 18.7142 84.669 18.4368 85.1041 18.4368ZM78.2988 22.4608H79.1897V28.9055H78.2988V22.4608ZM80.0806 22.4608H81.8076V28.9055H80.0806V22.4608ZM82.6986 22.4608H84.4804V28.9055H82.6986V22.4608ZM85.3713 22.4608H87.1532V28.9055H85.3713V22.4608ZM88.0441 22.4608H89.826V28.9055H88.0441V22.4608ZM90.7169 22.4608H91.786V28.9055H90.7169V22.4608ZM76.5512 30.1826H93.3897L93.9242 30.7165H76.1057L76.5512 30.1826ZM75.3039 31.6063H94.8152L95.4388 32.1402H74.6802L75.3039 31.6063ZM73.7893 33.03H96.2406L96.6861 33.4749H73.2547L73.7893 33.03Z" fill="#1E6E52"/>
<path id="path8537-9" fill-rule="evenodd" clip-rule="evenodd" d="M105.328 18.3481L103.724 23.2422L98.5566 23.1532L102.744 26.1787L101.051 31.0727L105.239 28.0473L109.337 31.1617L107.733 26.2676L112.01 23.3312L106.842 23.2422L105.328 18.3481ZM118.335 18.7041L117.177 22.0854L113.613 21.9964L116.464 24.132L115.306 27.5134L118.246 25.4668L121.097 27.6024L120.028 24.221L122.968 22.0854H119.315L118.335 18.7041ZM105.328 22.3524L105.951 24.488H108.09L106.308 25.7337L107.02 27.7803L105.239 26.4456L103.546 27.6914L104.259 25.6448L102.477 24.399L104.615 24.488L105.328 22.3524Z" fill="#1E6E52"/>
<path id="path8537-9-3" fill-rule="evenodd" clip-rule="evenodd" d="M64.8796 18.3481L66.4833 23.2422L71.6506 23.1532L67.4633 26.1787L69.156 31.0727L64.9687 28.0473L60.8704 31.1617L62.4741 26.2676L58.1977 23.3312L63.365 23.2422L64.8796 18.3481ZM51.8721 18.7041L53.0303 22.0854L56.594 21.9964L53.743 24.132L54.9012 27.5134L51.9612 25.4668L49.1102 27.6024L50.1793 24.221L47.2393 22.0854H50.8921L51.8721 18.7041ZM64.8796 22.3524L64.256 24.488H62.1177L63.8996 25.7337L63.1868 27.7803L64.9687 26.4456L66.6615 27.6914L65.9487 25.6448L67.7306 24.399L65.5923 24.488L64.8796 22.3524Z" fill="#1E6E52"/>
<path id="path5115-4-5-3-0" opacity="0.7" d="M32.0941 61.203C31.9069 61.2206 31.725 61.2747 31.5587 61.3625C31.3925 61.4502 31.2452 61.5698 31.1252 61.7144C31.0052 61.859 30.915 62.0258 30.8595 62.2052C30.8041 62.3847 30.7846 62.5733 30.8021 62.7603C30.8197 62.9472 30.874 63.1289 30.9618 63.295C31.0497 63.461 31.1694 63.6081 31.3142 63.7279C31.459 63.8477 31.626 63.9379 31.8057 63.9932C31.9853 64.0486 32.1742 64.068 32.3614 64.0505H137.847C138.036 64.0532 138.223 64.0183 138.399 63.948C138.574 63.8776 138.734 63.7732 138.868 63.6407C139.003 63.5082 139.109 63.3504 139.182 63.1763C139.255 63.0023 139.293 62.8155 139.293 62.6268C139.293 62.4381 139.255 62.2513 139.182 62.0772C139.109 61.9032 139.003 61.7453 138.868 61.6129C138.734 61.4804 138.574 61.3759 138.399 61.3056C138.223 61.2352 138.036 61.2004 137.847 61.203H32.3614C32.2725 61.1947 32.183 61.1947 32.0941 61.203V61.203Z" fill="#1E6E52"/>
</g>
</g>
<g id="layer5">
<path id="path5790" d="M121.061 40.2164C120.872 39.7903 120.533 39.4322 120.118 39.2191C119.703 39.0059 119.215 38.9393 118.758 39.0334C118.228 39.1426 117.747 39.4685 117.445 39.9173C117.144 40.3661 117.024 40.9319 117.113 41.4651C117.184 41.8956 117.389 42.3031 117.692 42.6175C117.995 42.9319 118.395 43.1519 118.823 43.2396H125.427" stroke="black" stroke-width="0.437639" stroke-linecap="round"/>
<path id="path5115-4-5-3-7-5" opacity="0.75" d="M32.3604 97.8135H63.721" stroke="black" stroke-width="0.336645" stroke-linecap="round"/>
<path id="path5416" opacity="0.75" d="M37.453 88.5245C36.6138 88.5751 34.2428 90.2006 34.1073 91.1632C33.9719 92.1259 35.7232 92.4701 34.9639 93.8241C34.2047 95.1781 32.5344 94.4433 32.234 93.1884C31.9337 91.9335 30.4936 93.2897 31.0183 94.4636C31.5429 95.6375 33.0504 96.775 34.4127 96.1493C35.775 95.5236 36.7969 94.1646 38.2752 94.7276C39.7535 95.2907 41.0662 94.08 42.2835 94.6605C43.5008 95.241 44.0116 95.4968 45.0396 95.7787C46.0675 96.0605 47.3543 94.8124 48.4824 94.663C49.6106 94.5136 49.5305 92.895 51.9506 92.839C54.3707 92.7831 60.8073 93.5427 63.0469 94.0692C65.2864 94.5956 66.1947 94.2766 64.9451 93.1746C63.6955 92.0726 63.3587 92.8463 60.876 92.6392C58.3933 92.432 52.2807 91.2639 49.8446 91.3222C47.4085 91.3805 47.2915 94.4943 45.8405 94.2767C44.3895 94.0591 42.3062 93.7478 41.8186 92.8847C41.3309 92.0216 40.9693 91.6838 40.4502 92.4006C39.931 93.1175 37.5974 93.6873 38.0605 92.615C38.5237 91.5428 38.3785 89.4777 38.0072 88.8605C37.6358 88.2432 38.2922 88.4739 37.453 88.5245V88.5245ZM64.7154 93.3296C64.885 93.0407 64.5457 93.6186 64.7154 93.3296V93.3296Z" fill="#000080"/>
<path id="path5115-4-5-3-7-5-6" opacity="0.75" d="M106.485 97.8135H137.846" stroke="black" stroke-width="0.336645" stroke-linecap="round"/>
<path id="path5455" opacity="0.75" d="M115.305 86.7932C113.121 87.5065 111.075 88.8641 109.914 90.8863C109.076 91.8597 108.387 93.6061 109.617 94.491C107.108 95.7739 108.793 96.7336 111.089 95.6948C112.237 95.6301 113.563 93.9262 114.484 95.0202C115.278 95.7463 116.456 95.7392 117.156 96.6961C118.24 96.8768 119.487 94.8413 120.5 95.8121C123.876 96.892 123.989 95.7661 126.325 93.9823C131.69 97.4179 135.653 97.6529 142.156 97.3378C134.286 96.0156 131.338 95.0546 126.768 91.9623C125.251 91.5192 124.743 92.5652 124.266 93.5619C123.005 94.9714 123.126 94.8587 121.352 94.5686C121.418 93.6742 121.084 93.8971 120.798 93.1459C119.542 92.9092 118.321 93.4561 117.252 94.0388C116.564 94.4942 114.489 93.8762 115.98 93.3075C117.152 92.5099 117.253 91.0261 117.819 89.8417C118.25 88.6433 117.875 86.7902 116.341 86.7267C115.996 86.6871 115.643 86.7133 115.305 86.7932V86.7932V86.7932ZM116.285 88.306C116.641 89.6523 115.877 90.9896 114.604 91.4348C113.926 92.409 113.106 93.2935 111.861 93.4634C110.812 94.0288 110.083 92.8682 110.956 92.0947C112.101 90.1546 113.982 88.5706 116.285 88.306V88.306Z" fill="#000080"/>
<g id="g5781" opacity="0.75">
<path id="path5491" opacity="0.75" d="M85.1031 81.4497C77.8242 81.4497 71.917 87.3496 71.917 94.6196C71.917 101.89 77.8242 107.79 85.1031 107.79C92.3821 107.79 98.2892 101.89 98.2892 94.6196C98.2892 87.3496 92.3821 81.4497 85.1031 81.4497ZM85.1031 82.5303C85.4056 82.5303 85.6853 82.5762 85.9822 82.5979L84.8326 84.6915C84.7752 84.5947 84.7573 84.5202 84.6974 84.4214C84.4136 83.9536 84.1036 83.49 83.8859 83.1382C83.7771 82.9622 83.6844 82.7712 83.6154 82.6654C83.6016 82.6442 83.6258 82.6137 83.6154 82.5979C84.0875 82.5422 84.6158 82.5303 85.1031 82.5303ZM86.6584 82.6654C87.0931 82.7218 87.5244 82.7669 87.9432 82.868C87.922 82.8877 87.8955 82.9111 87.8756 82.9355C87.7959 83.0336 87.7318 83.1772 87.6051 83.3408C87.4667 83.5195 87.2364 83.7242 87.0641 83.9486L86.6584 82.6654ZM82.6011 82.7329C82.6877 82.7152 82.7844 82.7487 82.8716 82.7329C82.8653 82.7599 82.8798 82.77 82.8716 82.8005C82.8387 82.9224 82.7855 83.0723 82.7364 83.2732C82.6826 83.4935 82.6018 83.8052 82.5335 84.0837L81.5868 83.0031C81.9207 82.9041 82.2558 82.8033 82.6011 82.7329ZM88.6194 83.0706C89.4002 83.3081 90.1462 83.5667 90.8509 83.9486L88.8899 85.4344C88.8741 85.3153 88.9055 85.2191 88.8899 85.0968C88.8211 84.5542 88.7426 84.0208 88.687 83.6109C88.6592 83.406 88.6393 83.2628 88.6194 83.1382C88.6164 83.1194 88.6237 83.0878 88.6194 83.0706ZM80.9782 83.2732L80.7754 85.6371C80.6792 85.5688 80.6025 85.5022 80.5049 85.4344C80.0552 85.1224 79.6299 84.857 79.2877 84.624C79.1166 84.5075 78.9881 84.4225 78.882 84.3538C78.8493 84.3327 78.7803 84.3129 78.7467 84.2863C79.4417 83.8613 80.1995 83.5528 80.9782 83.2732ZM86.2527 83.4083L86.5908 84.5565C86.2804 84.9639 86.0144 85.3999 85.7793 85.7046C85.7166 85.7859 85.6278 85.8416 85.5765 85.9072C85.5289 85.8314 85.5008 85.7337 85.4412 85.6371C85.3817 85.5404 85.304 85.4102 85.2384 85.2994L86.2527 83.4083ZM83.345 83.4758C83.557 83.8192 83.8155 84.241 84.0888 84.6915C84.2202 84.9082 84.3671 85.0886 84.4945 85.2994L84.1564 85.9072L83.0745 84.6915C83.1821 84.2506 83.263 83.812 83.345 83.4758ZM88.0784 83.6785C88.1334 84.0836 88.2126 84.6218 88.2813 85.1643C88.3126 85.4111 88.3264 85.6108 88.3489 85.8397L87.808 86.2449L87.3346 84.6915C87.6031 84.3399 87.8743 83.9422 88.0784 83.6785ZM81.5192 83.8811L82.3983 84.8266C82.2808 85.3364 82.1527 85.8632 82.0602 86.2449C82.0317 86.3623 82.0153 86.4245 81.9925 86.5151C81.9211 86.4669 81.8785 86.3731 81.7897 86.3124C81.6834 86.2398 81.5079 86.1307 81.3839 86.0423L81.5192 83.8811ZM91.4595 84.2863C91.8148 84.5059 92.1443 84.7751 92.4738 85.0292C92.3611 85.0864 92.1152 85.1339 91.9328 85.2318C91.7392 85.3359 91.4953 85.5069 91.2566 85.6371L91.4595 84.2863ZM78.2058 84.624C78.2153 84.6573 78.1993 84.7175 78.2058 84.7591C78.2254 84.8838 78.2364 85.0283 78.2734 85.2318C78.3139 85.4549 78.4233 85.7543 78.4762 86.0423L77.1238 85.502C77.4829 85.1872 77.8108 84.895 78.2058 84.624ZM90.7157 84.8266L90.5804 86.0423C90.1316 86.2927 89.7023 86.5346 89.3632 86.7177C89.2629 86.7718 89.1721 86.8107 89.0928 86.8527C89.0804 86.7659 89.0398 86.692 89.0251 86.5826C89.0102 86.4709 88.9751 86.3045 88.9575 86.1774L90.7157 84.8266ZM78.9496 85.1643C79.283 85.3917 79.7338 85.6744 80.1668 85.9747C80.3856 86.1266 80.561 86.233 80.7754 86.38L80.7077 87.0554L79.1525 86.38C79.0702 85.9598 79.0089 85.4895 78.9496 85.1643ZM86.8613 85.2994L87.267 86.7852C86.8232 86.6612 86.3853 86.5628 85.9146 86.5151C85.994 86.4164 86.126 86.2741 86.2527 86.1098C86.4238 85.888 86.6431 85.5958 86.8613 85.2994ZM82.8716 85.4344L83.8859 86.5151C83.4255 86.5824 82.9657 86.7122 82.5335 86.8527C82.5659 86.7303 82.6199 86.5815 82.6687 86.38C82.7308 86.1242 82.7915 85.7624 82.8716 85.4344ZM93.0148 85.502C93.602 86.014 94.1589 86.575 94.6377 87.1904L92.4062 87.7307C92.4356 87.6348 92.4444 87.5578 92.4738 87.4606C92.632 86.937 92.7634 86.4393 92.8795 86.0423C92.9376 85.8438 92.9822 85.624 93.0148 85.502ZM92.2709 85.8397C92.1562 86.2321 92.0233 86.7345 91.8652 87.258C91.7937 87.4947 91.7311 87.7023 91.6624 87.9333L90.9861 88.0684L91.189 86.4475C91.5861 86.2208 91.9696 86.0016 92.2709 85.8397ZM76.6505 85.9072L77.5295 88.2035C77.409 88.1805 77.3141 88.1593 77.1914 88.136C76.6535 88.0336 76.1112 87.9397 75.7038 87.8658C75.5 87.8289 75.3553 87.8179 75.2304 87.7983C75.1867 87.7914 75.1297 87.7404 75.0952 87.7307C75.5513 87.0677 76.0742 86.4654 76.6505 85.9072ZM84.8326 85.9747C84.846 85.9964 84.8874 86.0215 84.9002 86.0423C85.009 86.2188 85.102 86.3411 85.1707 86.4475C85.1474 86.4473 85.1265 86.4475 85.1031 86.4475C84.9215 86.4475 84.7408 86.5034 84.5621 86.5151L84.8326 85.9747ZM77.4619 86.3124L78.6115 86.8527C78.7047 87.3408 78.8144 87.8352 78.882 88.2035C78.9006 88.3045 78.8675 88.3917 78.882 88.4737C78.7999 88.4592 78.7802 88.4247 78.6791 88.4061C78.5336 88.3795 78.3109 88.3712 78.1381 88.3386L77.4619 86.3124ZM88.4165 86.5826C88.4189 86.6016 88.4142 86.6316 88.4165 86.6501C88.444 86.8556 88.4648 87.0653 88.4842 87.1904C88.3006 87.1061 88.1338 86.9911 87.9432 86.9203L88.4165 86.5826ZM81.3163 86.7852C81.3389 86.8005 81.3624 86.838 81.3839 86.8527C81.5553 86.9698 81.6836 87.0536 81.7897 87.1229C81.5988 87.2062 81.4317 87.296 81.2487 87.393L81.3163 86.7852ZM90.5128 86.8527L90.3099 88.3386C89.9485 88.0352 89.5709 87.7663 89.1604 87.5281C89.2731 87.4702 89.4511 87.4241 89.6337 87.3255C89.87 87.198 90.2149 87.0154 90.5128 86.8527ZM85.1031 87.0554C89.2632 87.0554 92.6091 90.4646 92.6091 94.6196C92.6091 98.7746 89.2632 102.116 85.1031 102.116C80.943 102.116 77.5295 98.7746 77.5295 94.6196C77.5295 90.4646 80.943 87.0554 85.1031 87.0554ZM79.3553 87.1904L80.5725 87.7983C80.2106 88.0386 79.8766 88.3156 79.5582 88.6087C79.5378 88.4837 79.528 88.2723 79.4906 88.0684C79.4445 87.8176 79.4155 87.5058 79.3553 87.1904ZM95.0434 87.7307C95.2821 88.0777 95.5176 88.4394 95.7196 88.8113C95.5934 88.8178 95.3851 88.8634 95.1787 88.8789C94.9536 88.8957 94.6413 88.924 94.3672 88.9464L95.0434 87.7307ZM94.1643 87.9333L93.5557 89.014C93.0585 89.0549 92.5762 89.1205 92.2033 89.149C92.0832 89.1583 92.0258 89.1428 91.9328 89.149C91.9584 89.0593 91.9664 88.9947 92.0005 88.8789C92.0386 88.7495 92.0892 88.5576 92.1357 88.4061L94.1643 87.9333ZM74.6895 88.3386C74.7042 88.3602 74.7365 88.3743 74.7571 88.4061C74.8258 88.5121 74.9109 88.6405 75.0276 88.8113C75.1512 88.9925 75.3398 89.2526 75.5009 89.4867H74.1485C74.3272 89.1047 74.4732 88.6974 74.6895 88.3386ZM75.6362 88.4737C76.0311 88.5457 76.5458 88.6467 77.0562 88.7438C77.3014 88.7905 77.5019 88.8351 77.7324 88.8789L78.0029 89.5543H76.3124C76.0575 89.1717 75.8347 88.7641 75.6362 88.4737ZM91.4595 88.6087C91.4476 88.6494 91.4031 88.7057 91.3919 88.7438C91.3333 88.9427 91.2899 89.0944 91.2566 89.2166C91.1115 89.0502 90.9412 88.898 90.7833 88.7438L91.4595 88.6087ZM78.4086 89.014C78.4463 89.0209 78.5079 89.0075 78.5439 89.014C78.748 89.0513 78.8921 89.1288 79.0172 89.149C78.8791 89.3022 78.7379 89.4585 78.6115 89.6218L78.4086 89.014ZM95.1787 89.4867C94.9174 89.7941 94.6438 90.2364 94.2996 90.6349C94.1319 90.829 93.9874 90.989 93.8262 91.1752L93.15 91.0401L93.9615 89.6218C94.4031 89.5844 94.8352 89.5128 95.1787 89.4867ZM96.0577 89.4867C96.3914 90.2014 96.6119 90.9327 96.8016 91.7155L94.5701 91.3102C94.6488 91.2193 94.6943 91.1311 94.7729 91.0401C95.1307 90.626 95.4519 90.2075 95.7196 89.8919C95.8535 89.7342 95.9783 89.5849 96.0577 89.4867ZM93.15 89.6893L92.4062 91.0401C92.2033 90.6265 91.9971 90.1952 91.73 89.8244C91.8566 89.8173 92.064 89.7727 92.2709 89.7569C92.5152 89.7381 92.8388 89.7138 93.15 89.6893ZM73.878 90.0946L75.5685 91.8505C75.4438 91.8773 75.3563 91.8886 75.2304 91.9181C74.6973 92.0431 74.1451 92.1577 73.7428 92.2558C73.5416 92.3048 73.3915 92.358 73.2694 92.3909C73.2491 92.3963 73.2208 92.3865 73.2018 92.3909C73.3484 91.5834 73.5798 90.8372 73.878 90.0946ZM74.7571 90.1621H75.9743C76.2688 90.5821 76.5682 90.9928 76.7857 91.3102C76.8437 91.3949 76.8743 91.4438 76.921 91.5129C76.8389 91.5334 76.7523 91.5558 76.6505 91.5804C76.5159 91.6129 76.3381 91.6818 76.1771 91.7155L74.7571 90.1621ZM76.7857 90.1621H78.2058C77.9623 90.5364 77.7777 90.9647 77.5972 91.3778C77.5277 91.2718 77.4439 91.1436 77.3267 90.9726C77.1798 90.7582 76.9795 90.4319 76.7857 90.1621ZM92.6767 91.5804L93.3529 91.7155C93.3354 91.736 93.302 91.7633 93.2853 91.783C93.1508 91.9409 93.0273 92.0901 92.9472 92.1882C92.927 92.2128 92.9012 92.2363 92.8795 92.2558C92.8095 92.0232 92.7664 91.8037 92.6767 91.5804ZM94.0967 91.8505L96.193 92.1882L95.111 92.9312C94.6443 92.7663 94.1751 92.5825 93.8262 92.4584C93.7217 92.4212 93.7062 92.421 93.6234 92.3909C93.6769 92.3271 93.6921 92.2664 93.7586 92.1882C93.8415 92.0909 93.997 91.9661 94.0967 91.8505ZM77.3267 92.0532C77.2575 92.2621 77.1762 92.445 77.1238 92.661L76.7181 92.1882C76.7549 92.1794 76.8185 92.1967 76.8533 92.1882C77.0551 92.1394 77.2041 92.0855 77.3267 92.0532ZM76.0419 92.3909L76.5152 92.8636L74.9599 93.539C74.5912 93.3146 74.2307 93.1068 73.9456 92.9312C74.3397 92.8353 74.8463 92.6477 75.3657 92.5259C75.6065 92.4695 75.8121 92.4471 76.0419 92.3909ZM97.0044 92.4584C97.073 92.8493 97.1096 93.271 97.1397 93.6741C97.0262 93.6267 96.9053 93.5328 96.7339 93.4715C96.5204 93.395 96.1941 93.2893 95.9225 93.2013L97.0044 92.4584ZM93.0824 92.9312C93.1051 92.9355 93.1263 92.9221 93.15 92.9312C93.2685 92.9761 93.4278 92.9966 93.6234 93.0662C93.8658 93.1525 94.1908 93.2908 94.5024 93.4039L93.2176 94.2819C93.1992 93.8357 93.1696 93.3563 93.0824 92.9312ZM73.0666 93.1338C73.0826 93.1441 73.113 93.1199 73.1342 93.1338C73.2401 93.2027 73.3638 93.2952 73.5399 93.4039C73.7443 93.5301 74.0281 93.7159 74.2837 93.8767L72.9989 94.417C73.0056 93.9977 73.0184 93.5415 73.0666 93.1338ZM76.9886 93.3364C76.925 93.7471 76.8533 94.1911 76.8533 94.6196C76.8533 94.6428 76.8531 94.664 76.8533 94.6871C76.7468 94.6185 76.6244 94.5932 76.4476 94.4845C76.2208 94.3451 75.9342 94.1239 75.6362 93.9442L76.9886 93.3364ZM95.2463 93.6741C95.6649 93.829 96.0708 93.9632 96.3958 94.0793C96.0317 94.2541 95.5888 94.4625 95.111 94.6871C94.8886 94.7917 94.7114 94.8595 94.5024 94.9573L93.9615 94.6196L95.2463 93.6741ZM74.8923 94.2819C75.3297 94.5446 75.7813 94.7555 76.1095 94.9573C76.2063 95.0168 76.3041 95.1124 76.38 95.1599C76.3114 95.2135 76.2636 95.2285 76.1771 95.295C76.0833 95.3671 75.9481 95.4813 75.839 95.5651L73.8104 94.7547L74.8923 94.2819ZM97.2073 94.417C97.2083 94.4825 97.2073 94.5538 97.2073 94.6196C97.2073 95.3387 97.1244 96.029 97.0044 96.7133L95.111 95.4301C95.2104 95.3835 95.2806 95.3424 95.3815 95.295C95.877 95.062 96.3608 94.7991 96.7339 94.6196C96.9205 94.5299 97.0947 94.4744 97.2073 94.417ZM93.2176 94.8898L93.7586 95.295C93.5714 95.3846 93.3984 95.508 93.2853 95.5651C93.2287 95.5937 93.187 95.6121 93.15 95.6327C93.1818 95.3836 93.2089 95.1453 93.2176 94.8898ZM72.9989 95.0924L75.2304 95.9704C75.1338 96.0441 75.0581 96.0985 74.9599 96.173C74.5238 96.5037 74.0703 96.8655 73.7428 97.1185C73.579 97.245 73.4352 97.3766 73.337 97.4562C73.1519 96.6909 73.0309 95.9072 72.9989 95.0924ZM76.9886 95.4301C77.0096 95.6357 77.0202 95.837 77.0562 96.0379L76.4476 95.8353C76.469 95.8189 76.4945 95.7837 76.5152 95.7678C76.6797 95.6412 76.8222 95.577 76.921 95.4976C76.9456 95.4777 76.9589 95.4514 76.9886 95.4301ZM94.4348 95.7002L96.193 96.9159L94.9082 97.1185C94.5643 96.7917 94.2219 96.4207 93.9615 96.173C93.8825 96.0978 93.8889 96.0984 93.8262 96.0379C93.9069 95.9985 93.9263 95.9521 94.0291 95.9028C94.1424 95.8486 94.3028 95.7623 94.4348 95.7002ZM75.839 96.2405L76.5152 96.5107L75.3657 97.7264C74.9214 97.6691 74.4792 97.636 74.1485 97.5913C74.4723 97.3412 74.8621 96.9764 75.298 96.6457C75.4944 96.4968 75.6539 96.3824 75.839 96.2405ZM93.0824 96.2405C93.0945 96.2641 93.123 96.2813 93.15 96.3081C93.24 96.3973 93.4055 96.5027 93.5557 96.6457C93.7436 96.8245 93.9981 97.0951 94.232 97.3211L92.6767 97.5913C92.8461 97.1606 92.9875 96.7031 93.0824 96.2405ZM77.1914 96.7808C77.3144 97.2237 77.4725 97.6547 77.6648 98.064C77.6457 98.0591 77.618 98.0673 77.5972 98.064C77.4719 98.0446 77.3296 98.024 77.1238 97.9965C76.8617 97.9615 76.5048 97.9059 76.1771 97.8614L77.1914 96.7808ZM96.8692 97.4562C96.7734 97.8537 96.665 98.2233 96.5311 98.6043C96.4418 98.515 96.3426 98.4096 96.193 98.2667C96.034 98.1148 95.7893 97.9147 95.5844 97.7264L96.8692 97.4562ZM94.7729 97.8614C95.1091 98.1733 95.4652 98.4968 95.7196 98.7394C95.3143 98.7513 94.7649 98.7282 94.232 98.7394C93.9589 98.7453 93.7456 98.7325 93.4881 98.7394L93.15 98.1991L94.7729 97.8614ZM73.5399 98.1316C73.6647 98.1515 73.8081 98.1713 74.0132 98.1991C74.2283 98.2282 74.5515 98.2982 74.8247 98.3342L73.9456 99.2797C73.7844 98.8984 73.6619 98.5318 73.5399 98.1316ZM92.4062 98.1316L92.8795 98.807C92.8398 98.8081 92.7819 98.8059 92.7443 98.807C92.5368 98.8128 92.33 98.8007 92.2033 98.807C92.14 98.81 92.1103 98.8031 92.0681 98.807C92.2019 98.5865 92.2932 98.365 92.4062 98.1316ZM75.7038 98.4017C76.1945 98.4593 76.6852 98.5548 77.0562 98.6043C77.1581 98.618 77.1765 98.5927 77.2591 98.6043C77.218 98.6816 77.1761 98.7779 77.1238 98.8745C77.0628 98.9873 76.9924 99.1485 76.921 99.2797L74.8247 99.3473L75.7038 98.4017ZM78.0029 98.7394C78.1196 98.9368 78.2762 99.0935 78.4086 99.2797H77.6648C77.6778 99.2562 77.7201 99.2349 77.7324 99.2122C77.8311 99.0298 77.9449 98.852 78.0029 98.7394ZM91.73 99.2797C91.7436 99.3198 91.7747 99.4233 91.7976 99.4823C91.8435 99.6004 91.9214 99.6959 92.0005 99.8876C92.0985 100.125 92.2192 100.452 92.3386 100.766L90.7833 100.428C91.1358 100.084 91.4439 99.6822 91.73 99.2797ZM95.7196 99.3473C95.9266 99.341 96.1344 99.354 96.2606 99.3473C95.959 100.051 95.5348 100.746 95.111 101.373L93.8939 99.4148C94.0141 99.4118 94.1075 99.4174 94.232 99.4148C94.7794 99.4031 95.3057 99.3596 95.7196 99.3473ZM92.7443 99.4148C92.875 99.4111 93.0682 99.4191 93.2176 99.4148L94.2996 101.238L93.15 100.968C92.949 100.486 92.7588 100.048 92.6091 99.685C92.5715 99.594 92.5041 99.5571 92.4738 99.4823C92.562 99.4791 92.6331 99.4179 92.7443 99.4148ZM78.8143 99.7525C79.1092 100.107 79.4111 100.465 79.761 100.766C79.7263 100.774 79.6686 100.821 79.6258 100.833C79.5035 100.866 79.3516 100.842 79.1525 100.901C78.9078 100.972 78.58 101.076 78.2734 101.171L78.8143 99.7525ZM77.3267 99.8876H78.0705L77.5295 101.441C77.0817 101.578 76.5833 101.68 76.2447 101.779C76.4387 101.419 76.7249 100.975 76.9886 100.495C77.1122 100.271 77.2025 100.098 77.3267 99.8876ZM76.5828 99.9551C76.5394 100.034 76.4917 100.078 76.4476 100.158C76.1839 100.637 75.9 101.144 75.7038 101.508C75.6057 101.691 75.5582 101.869 75.5009 101.981C75.0342 101.377 74.6308 100.71 74.2837 100.023L76.5828 99.9551ZM90.3776 100.766L90.5128 101.576C90.4713 101.559 90.4167 101.525 90.3776 101.508C90.1856 101.43 90.0224 101.352 89.9042 101.306C89.8451 101.283 89.8091 101.319 89.769 101.306C89.9901 101.151 90.1732 100.941 90.3776 100.766ZM80.2344 101.171C80.4325 101.317 80.6318 101.448 80.843 101.576L80.2344 101.846C80.2359 101.827 80.233 101.797 80.2344 101.779C80.2502 101.572 80.2272 101.432 80.2344 101.306C80.2368 101.264 80.2352 101.204 80.2344 101.171ZM91.0538 101.171L92.6091 101.508C92.7935 101.931 93.0171 102.333 93.15 102.657C92.7713 102.502 92.2347 102.328 91.73 102.116C91.5033 102.021 91.3372 101.931 91.1214 101.846L91.0538 101.171ZM79.6258 101.441C79.6195 101.534 79.5674 101.591 79.5582 101.711C79.5487 101.835 79.5694 102.037 79.5582 102.184L77.5972 103.129L78.0029 101.981C78.5037 101.83 78.9779 101.619 79.3553 101.508C79.4713 101.474 79.536 101.467 79.6258 101.441ZM89.2956 101.576C89.2917 101.618 89.2311 101.715 89.228 101.779C89.2217 101.905 89.2338 102.044 89.228 102.251C89.2206 102.515 89.2369 102.859 89.228 103.197L87.9432 102.251C88.4278 102.071 88.8592 101.84 89.2956 101.576ZM93.4205 101.644L94.7053 101.914C94.4507 102.248 94.1813 102.553 93.8939 102.859C93.8561 102.746 93.8268 102.62 93.7586 102.454C93.6693 102.236 93.5398 101.918 93.4205 101.644ZM81.3839 101.846C81.8179 102.066 82.2623 102.246 82.7364 102.386C82.7025 102.412 82.6502 102.414 82.6011 102.454C82.5029 102.534 82.4211 102.657 82.263 102.792C82.0649 102.96 81.773 103.18 81.5192 103.4L81.3839 101.846ZM89.9042 101.981C89.9875 102.015 90.0017 102.073 90.1071 102.116C90.2358 102.169 90.4274 102.259 90.5804 102.319L90.8509 104.413L89.8366 103.67C89.8478 103.172 89.8937 102.692 89.9042 102.319C89.9072 102.208 89.9012 102.069 89.9042 101.981ZM77.2591 102.184L76.8533 103.4C76.5625 103.128 76.2371 102.887 75.9743 102.589C76.0964 102.557 76.2489 102.444 76.4476 102.386C76.6632 102.324 76.9818 102.266 77.2591 102.184ZM80.7754 102.319L80.9106 103.94C80.5765 104.227 80.2216 104.532 79.9639 104.75C79.9944 104.346 80.0547 103.795 80.0991 103.264C80.1199 103.017 80.1481 102.826 80.1668 102.589L80.7754 102.319ZM87.4022 102.386L87.1994 103.129C87.1808 103.11 87.1496 103.081 87.1317 103.062C86.9886 102.912 86.883 102.814 86.7936 102.724C86.7601 102.69 86.7535 102.616 86.726 102.589C86.9576 102.542 87.1782 102.453 87.4022 102.386ZM83.2773 102.522C83.5373 102.58 83.8201 102.624 84.0888 102.657L83.6154 103.264C83.6012 103.225 83.5612 103.167 83.5478 103.129C83.4781 102.934 83.39 102.775 83.345 102.657C83.3225 102.597 83.294 102.56 83.2773 102.522ZM91.2566 102.522C91.3559 102.562 91.4271 102.615 91.5271 102.657C92.032 102.868 92.564 103.108 92.9472 103.264C93.1057 103.329 93.2415 103.354 93.3529 103.4C92.7884 103.929 92.1855 104.404 91.5271 104.818L91.2566 102.522ZM86.1174 102.657C86.0969 102.694 86.0784 102.803 86.0498 102.859C85.9926 102.972 85.8691 103.078 85.7793 103.264C85.673 103.486 85.5716 103.797 85.4412 104.075L84.6974 102.724C84.8322 102.731 84.9667 102.792 85.1031 102.792C85.4569 102.792 85.7754 102.7 86.1174 102.657ZM79.4906 102.927C79.481 103.045 79.5005 103.146 79.4906 103.264C79.4449 103.809 79.3862 104.338 79.3553 104.75C79.34 104.957 79.2941 105.097 79.2877 105.223C78.6016 104.851 77.9919 104.432 77.3943 103.94L79.4906 102.927ZM87.9432 102.994L89.228 103.94C89.2172 104.398 89.1707 104.873 89.1604 105.223C88.8815 104.931 88.5747 104.526 88.2137 104.142C88.0497 103.968 87.8967 103.831 87.7403 103.67L87.9432 102.994ZM82.8716 103.129C82.9018 103.212 82.902 103.228 82.9392 103.332C82.9827 103.454 83.0213 103.66 83.0745 103.805L81.7221 105.426L81.5868 104.21C81.9766 103.874 82.3752 103.514 82.6687 103.264C82.747 103.198 82.8078 103.183 82.8716 103.129ZM86.5232 103.332C86.5761 103.387 86.5954 103.469 86.6584 103.535C86.7498 103.63 86.8889 103.762 86.9965 103.872L86.3879 105.831L85.8469 104.818C86.0652 104.354 86.2209 103.882 86.3879 103.535C86.4305 103.446 86.4878 103.405 86.5232 103.332ZM84.2917 103.4L85.1031 104.818C84.9049 105.24 84.6473 105.649 84.4945 105.966C84.3564 105.581 84.2013 105.132 84.0212 104.615C83.9397 104.382 83.9 104.164 83.8183 103.94L84.2917 103.4ZM87.5375 104.413C87.598 104.476 87.6119 104.551 87.6727 104.615C88.0476 105.014 88.4685 105.397 88.7546 105.696C88.8977 105.845 89.0033 105.944 89.0928 106.034C88.3732 106.286 87.6362 106.461 86.8613 106.574L87.5375 104.413ZM89.8366 104.413L90.8509 105.223C90.5336 105.395 90.1703 105.552 89.8366 105.696C89.8382 105.574 89.8312 105.468 89.8366 105.291C89.8439 105.046 89.8284 104.712 89.8366 104.413ZM83.345 104.548C83.3779 104.64 83.3805 104.726 83.4126 104.818C83.5928 105.334 83.7462 105.847 83.8859 106.236C83.9473 106.407 84.0414 106.528 84.0888 106.641C83.3255 106.58 82.5737 106.431 81.8573 106.236L83.345 104.548ZM81.0458 104.683L81.1811 106.034C80.7631 105.892 80.3599 105.745 79.9639 105.561C80.0622 105.481 80.2117 105.424 80.3696 105.291C80.5571 105.132 80.8182 104.889 81.0458 104.683ZM85.4412 105.493L86.0498 106.641C85.7307 106.666 85.4288 106.709 85.1031 106.709C85.0372 106.709 84.9659 106.71 84.9002 106.709C84.9578 106.596 85.0132 106.422 85.1031 106.236C85.2001 106.035 85.3131 105.744 85.4412 105.493Z" fill="#000080"/>
<path id="path5614" opacity="0.75" d="M79.7141 91.7828H81.2054V95.2319H80.4729L78.1445 97.6256H92.0626L89.7342 95.2319H89.0017V91.7828H90.493L85.1036 88.6211L79.7141 91.7828V91.7828ZM85.1035 89.4098L88.3345 91.3647H81.8269L85.1035 89.4098ZM81.8744 91.8089H82.3042V95.2319H81.8744V91.8089ZM82.7227 91.8089H83.5599V95.2319H82.7227V91.8089ZM83.9785 91.8089H84.8157V95.2319H83.9785V91.8089ZM85.2343 91.8089H86.0715V95.2319H85.2343V91.8089ZM86.4901 91.8089H87.3272V95.2319H86.4901V91.8089ZM87.7458 91.8089H88.2187V95.2319H87.7458V91.8089ZM81.1113 95.65H89.0045L89.24 95.8851H80.8759L81.1113 95.65V95.65ZM80.5096 96.2509V96.3032H89.6586L89.9464 96.5645H80.1957L80.5096 96.2509V96.2509ZM79.7771 96.9826H90.3388L90.5413 97.2076H79.5518L79.7771 96.9826H79.7771Z" fill="#000080"/>
<path id="path5777" opacity="0.75" d="M80.5254 98.7139H89.6802" stroke="#000080" stroke-width="0.255513" stroke-linecap="round"/>
</g>
<path id="borda" d="M53.4479 40.2164C53.637 39.7903 53.9755 39.4322 54.3905 39.2191C54.8054 39.0059 55.294 38.9393 55.751 39.0334C56.2809 39.1426 56.7618 39.4685 57.0633 39.9173C57.3649 40.3661 57.4847 40.9319 57.396 41.4651C57.3244 41.8956 57.1194 42.3031 56.8163 42.6175C56.5132 42.9319 56.1132 43.1519 55.6852 43.2396H49.082" stroke="black" stroke-width="0.437639" stroke-linecap="round"/>
<path id="CERTIFICADO DIGTAL" d="M62.1571 42.7427C62.343 42.7427 62.5005 42.7265 62.6298 42.6942C62.7591 42.6619 62.8702 42.6175 62.9631 42.5609L63.1327 43.1669C63.0358 43.2234 62.8984 43.2739 62.7207 43.3184C62.5429 43.3628 62.3268 43.385 62.0723 43.385C61.7855 43.385 61.5209 43.3406 61.2785 43.2517C61.0361 43.1588 60.8261 43.0275 60.6483 42.8578C60.4746 42.6841 60.3393 42.4761 60.2423 42.2337C60.1454 41.9873 60.0969 41.7105 60.0969 41.4035C60.0969 41.1046 60.1433 40.8339 60.2362 40.5915C60.3332 40.3491 60.4665 40.1431 60.6362 39.9735C60.8099 39.7997 61.02 39.6664 61.2664 39.5735C61.5128 39.4806 61.7875 39.4341 62.0905 39.4341C62.349 39.4341 62.5611 39.4584 62.7267 39.5069C62.8964 39.5553 63.0338 39.6079 63.1388 39.6644L62.951 40.2764C62.8459 40.2199 62.7288 40.1734 62.5995 40.1371C62.4743 40.0967 62.3329 40.0765 62.1753 40.0765C62.0097 40.0765 61.8542 40.1007 61.7087 40.1492C61.5633 40.1977 61.4361 40.2764 61.327 40.3855C61.2179 40.4905 61.1311 40.6279 61.0664 40.7976C61.0058 40.9632 60.9755 41.1652 60.9755 41.4035C60.9755 41.6338 61.0058 41.8338 61.0664 42.0034C61.127 42.1691 61.2098 42.3064 61.3149 42.4155C61.4239 42.5245 61.5492 42.6074 61.6906 42.6639C61.836 42.7164 61.9915 42.7427 62.1571 42.7427ZM63.7285 39.5008H66.2129V40.1431H64.5586V41.0157H66.0554V41.652H64.5586V42.676H66.2311V43.3184H63.7285V39.5008ZM66.8589 39.5008H68.3071C68.5212 39.5008 68.7091 39.5331 68.8707 39.5978C69.0363 39.6584 69.1737 39.7432 69.2827 39.8523C69.3918 39.9573 69.4726 40.0825 69.5251 40.228C69.5817 40.3693 69.61 40.5229 69.61 40.6885C69.61 40.842 69.5857 40.9793 69.5372 41.1005C69.4928 41.2177 69.4342 41.3207 69.3615 41.4096C69.2928 41.4944 69.2141 41.5671 69.1252 41.6277C69.0403 41.6843 68.9575 41.7307 68.8767 41.7671L69.8099 43.3184H68.8586L68.1253 41.9125H67.683V43.3184H66.8589V39.5008ZM67.683 41.2763H68.0102C68.2284 41.2763 68.4061 41.2318 68.5435 41.143C68.6848 41.0541 68.7555 40.9066 68.7555 40.7006C68.7555 40.5188 68.699 40.3794 68.5859 40.2825C68.4768 40.1815 68.3152 40.131 68.1011 40.131H67.683V41.2763ZM72.8967 39.5008V40.1552H71.8181V43.3184H70.9879V40.1552H69.9336V39.5008H72.8967ZM74.1984 39.5008V43.3184H73.3682V39.5008H74.1984ZM77.4668 39.5008V40.1431H75.8731V41.1551H77.3334V41.7913H75.8731V43.3184H75.0429V39.5008H77.4668ZM78.8851 39.5008V43.3184H78.055V39.5008H78.8851ZM81.6142 42.7427C81.8 42.7427 81.9576 42.7265 82.0868 42.6942C82.2161 42.6619 82.3272 42.6175 82.4201 42.5609L82.5898 43.1669C82.4928 43.2234 82.3555 43.2739 82.1777 43.3184C82 43.3628 81.7839 43.385 81.5294 43.385C81.2425 43.385 80.9779 43.3406 80.7355 43.2517C80.4932 43.1588 80.2831 43.0275 80.1053 42.8578C79.9316 42.6841 79.7963 42.4761 79.6994 42.2337C79.6024 41.9873 79.5539 41.7105 79.5539 41.4035C79.5539 41.1046 79.6004 40.8339 79.6933 40.5915C79.7902 40.3491 79.9236 40.1431 80.0932 39.9735C80.2669 39.7997 80.477 39.6664 80.7234 39.5735C80.9698 39.4806 81.2446 39.4341 81.5475 39.4341C81.8061 39.4341 82.0182 39.4584 82.1838 39.5069C82.3535 39.5553 82.4908 39.6079 82.5958 39.6644L82.408 40.2764C82.303 40.2199 82.1858 40.1734 82.0565 40.1371C81.9313 40.0967 81.7899 40.0765 81.6324 40.0765C81.4667 40.0765 81.3112 40.1007 81.1658 40.1492C81.0203 40.1977 80.8931 40.2764 80.784 40.3855C80.6749 40.4905 80.5881 40.6279 80.5235 40.7976C80.4629 40.9632 80.4326 41.1652 80.4326 41.4035C80.4326 41.6338 80.4629 41.8338 80.5235 42.0034C80.5841 42.1691 80.6669 42.3064 80.7719 42.4155C80.881 42.5245 81.0062 42.6074 81.1476 42.6639C81.293 42.7164 81.4486 42.7427 81.6142 42.7427ZM84.1914 41.8277H85.161L84.9852 41.3187C84.9287 41.1611 84.8762 41.0036 84.8277 40.846C84.7792 40.6844 84.7327 40.5229 84.6883 40.3613H84.6762C84.6317 40.5148 84.5833 40.6723 84.5308 40.8339C84.4782 40.9915 84.4237 41.1531 84.3671 41.3187L84.1914 41.8277ZM84.2641 39.5008H85.1246L86.5365 43.3184H85.6578L85.3609 42.4397H84.0036L83.7066 43.3184H82.8401L84.2641 39.5008ZM88.3532 39.5008C88.6481 39.5008 88.9168 39.5392 89.1592 39.6159C89.4015 39.6927 89.6096 39.8078 89.7833 39.9613C89.957 40.1148 90.0903 40.3067 90.1832 40.537C90.2802 40.7632 90.3287 41.0278 90.3287 41.3308C90.3287 41.6782 90.2721 41.9772 90.159 42.2276C90.0459 42.4741 89.8924 42.6801 89.6985 42.8457C89.5046 43.0073 89.2763 43.1265 89.0137 43.2032C88.7552 43.28 88.4805 43.3184 88.1896 43.3184H87.0201V39.5008H88.3532ZM87.8503 42.676H88.1351C88.3048 42.676 88.4684 42.6558 88.6259 42.6154C88.7875 42.571 88.9289 42.4983 89.0501 42.3973C89.1713 42.2923 89.2682 42.1549 89.341 41.9852C89.4137 41.8115 89.45 41.5934 89.45 41.3308C89.45 40.947 89.341 40.6541 89.1228 40.4522C88.9047 40.2461 88.6118 40.1431 88.2442 40.1431H87.8503V42.676ZM92.7119 39.4341C92.9826 39.4341 93.233 39.4786 93.4633 39.5675C93.6936 39.6563 93.8915 39.7856 94.0571 39.9553C94.2228 40.1209 94.352 40.3269 94.4449 40.5734C94.5419 40.8198 94.5904 41.1005 94.5904 41.4156C94.5904 41.7227 94.5419 41.9974 94.4449 42.2397C94.348 42.4821 94.2147 42.6882 94.045 42.8578C93.8753 43.0275 93.6734 43.1588 93.4391 43.2517C93.2088 43.3406 92.9583 43.385 92.6877 43.385C92.417 43.385 92.1665 43.3426 91.9363 43.2578C91.706 43.1689 91.5081 43.0416 91.3424 42.876C91.1768 42.7063 91.0455 42.5003 90.9485 42.2579C90.8556 42.0115 90.8092 41.7307 90.8092 41.4156C90.8092 41.1086 90.8577 40.8339 90.9546 40.5915C91.0516 40.3451 91.1849 40.1371 91.3545 39.9674C91.5242 39.7937 91.7242 39.6624 91.9544 39.5735C92.1888 39.4806 92.4412 39.4341 92.7119 39.4341ZM91.6878 41.4156C91.6878 41.6419 91.7141 41.8398 91.7666 42.0095C91.8232 42.1751 91.8979 42.3145 91.9908 42.4276C92.0837 42.5367 92.1908 42.6195 92.312 42.676C92.4372 42.7286 92.5705 42.7548 92.7119 42.7548C92.8492 42.7548 92.9785 42.7286 93.0997 42.676C93.2249 42.6195 93.332 42.5367 93.4209 42.4276C93.5097 42.3145 93.5804 42.1751 93.633 42.0095C93.6855 41.8398 93.7117 41.6419 93.7117 41.4156C93.7117 41.1813 93.6835 40.9793 93.6269 40.8097C93.5744 40.64 93.5017 40.5006 93.4088 40.3916C93.3158 40.2785 93.2068 40.1956 93.0815 40.1431C92.9603 40.0906 92.829 40.0643 92.6877 40.0643C92.5463 40.0643 92.415 40.0926 92.2938 40.1492C92.1726 40.2057 92.0676 40.2906 91.9787 40.4037C91.8898 40.5128 91.8191 40.6521 91.7666 40.8218C91.7141 40.9915 91.6878 41.1894 91.6878 41.4156ZM97.9812 39.5008C98.2761 39.5008 98.5447 39.5392 98.7871 39.6159C99.0295 39.6927 99.2375 39.8078 99.4112 39.9613C99.5849 40.1148 99.7182 40.3067 99.8112 40.537C99.9081 40.7632 99.9566 41.0278 99.9566 41.3308C99.9566 41.6782 99.9 41.9772 99.7869 42.2276C99.6738 42.4741 99.5203 42.6801 99.3264 42.8457C99.1325 43.0073 98.9042 43.1265 98.6417 43.2032C98.3831 43.28 98.1084 43.3184 97.8175 43.3184H96.648V39.5008H97.9812ZM97.4782 42.676H97.763C97.9327 42.676 98.0963 42.6558 98.2538 42.6154C98.4154 42.571 98.5568 42.4983 98.678 42.3973C98.7992 42.2923 98.8962 42.1549 98.9689 41.9852C99.0416 41.8115 99.0779 41.5934 99.0779 41.3308C99.0779 40.947 98.9689 40.6541 98.7507 40.4522C98.5326 40.2461 98.2397 40.1431 97.8721 40.1431H97.4782V42.676ZM101.443 39.5008V43.3184H100.613V39.5008H101.443ZM104.118 39.4341C104.356 39.4341 104.568 39.4543 104.754 39.4947C104.94 39.5351 105.107 39.5897 105.257 39.6584L105.081 40.2219C104.94 40.1532 104.794 40.1027 104.645 40.0704C104.495 40.0381 104.348 40.0219 104.202 40.0219C104.037 40.0219 103.879 40.0482 103.73 40.1007C103.584 40.1532 103.457 40.236 103.348 40.3491C103.239 40.4623 103.152 40.6077 103.087 40.7854C103.023 40.9591 102.99 41.1692 102.99 41.4156C102.99 41.856 103.087 42.1953 103.281 42.4337C103.479 42.668 103.76 42.7851 104.124 42.7851C104.334 42.7851 104.491 42.7649 104.596 42.7245V41.8338H103.966V41.2157H105.39V43.1487C105.232 43.2174 105.049 43.2739 104.839 43.3184C104.629 43.3628 104.388 43.385 104.118 43.385C103.835 43.385 103.57 43.3426 103.324 43.2578C103.081 43.1729 102.869 43.0477 102.687 42.8821C102.51 42.7124 102.368 42.5064 102.263 42.264C102.162 42.0176 102.112 41.7348 102.112 41.4156C102.112 41.0965 102.162 40.8137 102.263 40.5673C102.368 40.3168 102.51 40.1088 102.687 39.9432C102.865 39.7775 103.075 39.6523 103.318 39.5675C103.564 39.4786 103.831 39.4341 104.118 39.4341ZM108.627 39.5008V40.1552H107.549V43.3184H106.718V40.1552H105.664V39.5008H108.627ZM109.773 41.8277H110.743L110.567 41.3187C110.51 41.1611 110.458 41.0036 110.409 40.846C110.361 40.6844 110.314 40.5229 110.27 40.3613H110.258C110.214 40.5148 110.165 40.6723 110.113 40.8339C110.06 40.9915 110.005 41.1531 109.949 41.3187L109.773 41.8277ZM109.846 39.5008H110.706L112.118 43.3184H111.24L110.943 42.4397H109.585L109.288 43.3184H108.422L109.846 39.5008ZM112.602 39.5008H113.432V42.6639H114.971V43.3184H112.602V39.5008Z" fill="black"/>
</g>
<g id="layer4" opacity="0.6">
<path id="rect3592-4" opacity="0.6" d="M163.505 1H6.70193C3.55284 1 1 3.5497 1 6.69492V117.746C1 120.891 3.55284 123.441 6.70193 123.441H163.505C166.654 123.441 169.207 120.891 169.207 117.746V6.69492C169.207 3.5497 166.654 1 163.505 1Z" fill="url(#paint2_linear_596_844)"/>
<path id="rect3592-4-6" opacity="0.6" fill-rule="evenodd" clip-rule="evenodd" d="M12.4041 6.69482C9.24521 6.69482 6.70215 9.23476 6.70215 12.3897V63.0622C28.2436 50.0583 52.2727 50.3855 85.1037 50.3855C117.935 50.3855 141.964 50.0583 163.505 63.0622V12.3897C163.505 9.23476 160.962 6.69482 157.803 6.69482H12.4041Z" fill="url(#paint3_linear_596_844)"/>
</g>
</g>
<defs>
<linearGradient id="paint0_linear_596_844" x1="119.315" y1="127.712" x2="117.893" y2="1.00028" gradientUnits="userSpaceOnUse">
<stop stop-color="#000606" stop-opacity="0.0627451"/>
<stop offset="0.0527728" stop-color="#000606" stop-opacity="0.376471"/>
<stop offset="1" stop-color="#000606" stop-opacity="0"/>
</linearGradient>
<linearGradient id="paint1_linear_596_844" x1="60.8702" y1="123.441" x2="60.8702" y2="1" gradientUnits="userSpaceOnUse">
<stop stop-color="#F8FCF8"/>
<stop offset="1" stop-color="#F0F9EF"/>
</linearGradient>
<linearGradient id="paint2_linear_596_844" x1="27.9884" y1="-20.337" x2="27.9884" y2="144.189" gradientUnits="userSpaceOnUse">
<stop stop-color="white" stop-opacity="0.328704"/>
<stop offset="1" stop-color="white" stop-opacity="0"/>
</linearGradient>
<linearGradient id="paint3_linear_596_844" x1="83.4589" y1="102.468" x2="83.4589" y2="-22.5339" gradientUnits="userSpaceOnUse">
<stop stop-color="white"/>
<stop offset="1" stop-color="white" stop-opacity="0"/>
</linearGradient>
</defs>
</svg>
