<svg width="266" height="24" viewBox="0 0 266 24" fill="none" xmlns="http://www.w3.org/2000/svg">
<g id="check-item3">
<path id="circle-check" d="M21 11.0857V12.0057C20.9988 14.1621 20.3005 16.2604 19.0093 17.9875C17.7182 19.7147 15.9033 20.9782 13.8354 21.5896C11.7674 22.201 9.55726 22.1276 7.53447 21.3803C5.51168 20.633 3.78465 19.2518 2.61096 17.4428C1.43727 15.6338 0.879791 13.4938 1.02168 11.342C1.16356 9.19029 1.99721 7.14205 3.39828 5.5028C4.79935 3.86354 6.69279 2.72111 8.79619 2.24587C10.8996 1.77063 13.1003 1.98806 15.07 2.86572" stroke="url(#paint0_linear_589_710)" stroke-width="2" stroke-linecap="round" stroke-linejoin="round"/>
<path id="check-ok" d="M21 4.00586L11 14.0159L8 11.0159" stroke="url(#paint1_linear_589_710)" stroke-width="2" stroke-linecap="round" stroke-linejoin="round"/>
<path id="text-3" d="M38.872 6.92H40.792L42.904 13.352C43.0107 13.6613 43.112 13.9653 43.208 14.264C43.304 14.552 43.3947 14.8453 43.48 15.144H43.512C43.5973 14.8453 43.6827 14.5573 43.768 14.28C43.864 14.0027 43.9707 13.6933 44.088 13.352L46.152 6.92H48.072L48.952 17H47.48L47.064 11.656C47.0213 11.1333 46.9893 10.616 46.968 10.104C46.9467 9.58133 46.9253 9.05333 46.904 8.52H46.872C46.7227 9.04267 46.568 9.56533 46.408 10.088C46.2587 10.6107 46.0987 11.1333 45.928 11.656L44.152 17H42.808L41.032 11.64C40.8507 11.096 40.6853 10.5787 40.536 10.088C40.3867 9.58667 40.2373 9.064 40.088 8.52H40.056C40.0347 9.04267 40.0027 9.56533 39.96 10.088C39.928 10.6107 39.8907 11.1333 39.848 11.656L39.464 17H38.024L38.872 6.92ZM51.1368 10.152C51.3928 10.024 51.6328 9.912 51.8568 9.816C52.0808 9.70933 52.3048 9.624 52.5288 9.56C52.7528 9.496 52.9821 9.448 53.2168 9.416C53.4514 9.384 53.7074 9.368 53.9848 9.368C54.4008 9.368 54.7794 9.416 55.1208 9.512C55.4728 9.59733 55.7714 9.74667 56.0168 9.96C56.2728 10.1733 56.4701 10.456 56.6088 10.808C56.7474 11.1493 56.8168 11.5813 56.8168 12.104V17H55.6488L55.4728 16.168H55.4408C55.1101 16.52 54.7474 16.7707 54.3528 16.92C53.9581 17.0693 53.5208 17.144 53.0408 17.144C52.6781 17.144 52.3421 17.096 52.0328 17C51.7341 16.8933 51.4728 16.7493 51.2488 16.568C51.0248 16.376 50.8488 16.1467 50.7208 15.88C50.6034 15.6133 50.5448 15.3147 50.5448 14.984C50.5448 14.1947 50.8541 13.5973 51.4728 13.192C52.1021 12.776 52.9288 12.568 53.9528 12.568H55.3928V11.928C55.3928 11.384 55.2541 11.016 54.9768 10.824C54.6994 10.6213 54.3261 10.52 53.8568 10.52C53.5794 10.52 53.2594 10.568 52.8968 10.664C52.5448 10.7493 52.1394 10.92 51.6808 11.176L51.1368 10.152ZM55.4088 13.528L54.2248 13.56C53.4248 13.5813 52.8541 13.7253 52.5128 13.992C52.1821 14.248 52.0168 14.5627 52.0168 14.936C52.0168 15.16 52.0541 15.352 52.1288 15.512C52.2034 15.6613 52.2994 15.7787 52.4168 15.864C52.5448 15.9493 52.6888 16.0133 52.8488 16.056C53.0194 16.088 53.1954 16.104 53.3768 16.104C53.7288 16.104 54.0861 16.024 54.4488 15.864C54.8114 15.6933 55.1314 15.4267 55.4088 15.064V13.528ZM59.1089 17V9.48H60.5169V17H59.1089ZM59.8129 7.544C59.5675 7.544 59.3542 7.464 59.1729 7.304C59.0022 7.13333 58.9169 6.92533 58.9169 6.68C58.9169 6.43467 59.0022 6.22667 59.1729 6.056C59.3542 5.88533 59.5675 5.8 59.8129 5.8C60.0475 5.8 60.2555 5.88533 60.4369 6.056C60.6182 6.22667 60.7089 6.43467 60.7089 6.68C60.7089 6.92533 60.6182 7.13333 60.4369 7.304C60.2555 7.464 60.0475 7.544 59.8129 7.544ZM67.0464 10.888C66.6944 10.7173 66.3744 10.6 66.0864 10.536C65.7984 10.472 65.5104 10.44 65.2224 10.44C64.7104 10.44 64.3317 10.536 64.0864 10.728C63.841 10.9093 63.7184 11.1547 63.7184 11.464C63.7184 11.688 63.8037 11.8853 63.9744 12.056C64.145 12.216 64.5024 12.376 65.0464 12.536L65.5264 12.68C66.241 12.8933 66.7797 13.1707 67.1424 13.512C67.5157 13.8427 67.7024 14.296 67.7024 14.872C67.7024 15.5547 67.4464 16.104 66.9344 16.52C66.433 16.936 65.729 17.144 64.8224 17.144C64.3424 17.144 63.8784 17.1013 63.4304 17.016C62.993 16.9307 62.6144 16.8133 62.2944 16.664L62.6304 15.56C62.9397 15.7093 63.2757 15.832 63.6384 15.928C64.001 16.0133 64.369 16.056 64.7424 16.056C65.2224 16.056 65.601 15.9707 65.8784 15.8C66.1664 15.6293 66.3104 15.3467 66.3104 14.952C66.3104 14.6107 66.1877 14.3707 65.9424 14.232C65.697 14.0827 65.345 13.9387 64.8864 13.8L64.3904 13.64C63.697 13.416 63.1797 13.1387 62.8384 12.808C62.5077 12.4667 62.3424 12.0293 62.3424 11.496C62.3424 11.176 62.4117 10.8827 62.5504 10.616C62.689 10.3493 62.8757 10.1253 63.1104 9.944C63.3557 9.76267 63.6437 9.624 63.9744 9.528C64.305 9.42133 64.6677 9.368 65.0624 9.368C65.4357 9.368 65.8197 9.40533 66.2144 9.48C66.6197 9.544 67.0037 9.656 67.3664 9.816L67.0464 10.888ZM76.4529 16.056C76.7942 16.056 77.0929 16.0187 77.3489 15.944C77.6049 15.8693 77.8555 15.7733 78.1009 15.656L78.4049 16.712C77.8289 17 77.1409 17.144 76.3409 17.144C75.7969 17.144 75.2849 17.064 74.8049 16.904C74.3355 16.744 73.9195 16.504 73.5569 16.184C73.2049 15.8533 72.9275 15.448 72.7249 14.968C72.5222 14.4773 72.4209 13.9067 72.4209 13.256C72.4209 12.6587 72.5169 12.12 72.7089 11.64C72.9009 11.16 73.1675 10.7547 73.5089 10.424C73.8502 10.0827 74.2609 9.82133 74.7409 9.64C75.2209 9.45867 75.7489 9.368 76.3249 9.368C76.6555 9.368 76.9755 9.39467 77.2849 9.448C77.6049 9.49067 77.9675 9.60267 78.3729 9.784L78.0529 10.856C77.5622 10.5787 77.0342 10.44 76.4689 10.44C75.6902 10.44 75.0609 10.6853 74.5809 11.176C74.1009 11.656 73.8609 12.3333 73.8609 13.208C73.8609 13.752 73.9355 14.2053 74.0849 14.568C74.2342 14.9307 74.4315 15.224 74.6769 15.448C74.9222 15.6613 75.1995 15.816 75.5089 15.912C75.8182 16.008 76.1329 16.056 76.4529 16.056ZM86.3746 13.16C86.3746 13.7893 86.2786 14.3547 86.0866 14.856C85.8946 15.3467 85.628 15.7627 85.2866 16.104C84.956 16.4453 84.5666 16.7067 84.1186 16.888C83.6706 17.0587 83.1853 17.144 82.6626 17.144C82.14 17.144 81.6546 17.064 81.2066 16.904C80.7693 16.7333 80.3853 16.488 80.0546 16.168C79.7346 15.8373 79.4786 15.4373 79.2866 14.968C79.1053 14.488 79.0146 13.9387 79.0146 13.32C79.0146 12.6907 79.1106 12.1307 79.3026 11.64C79.4946 11.1493 79.756 10.7387 80.0866 10.408C80.428 10.0667 80.8226 9.81067 81.2706 9.64C81.7186 9.45867 82.204 9.368 82.7266 9.368C83.2493 9.368 83.7293 9.448 84.1666 9.608C84.6146 9.768 84.9986 10.008 85.3186 10.328C85.6493 10.648 85.9053 11.048 86.0866 11.528C86.2786 11.9973 86.3746 12.5413 86.3746 13.16ZM84.9026 13.24C84.9026 12.7387 84.8386 12.312 84.7106 11.96C84.5826 11.608 84.412 11.32 84.1986 11.096C83.996 10.872 83.7613 10.712 83.4946 10.616C83.228 10.5093 82.956 10.456 82.6786 10.456C82.4013 10.456 82.1293 10.4987 81.8626 10.584C81.596 10.6693 81.3613 10.8187 81.1586 11.032C80.956 11.2453 80.7906 11.5333 80.6626 11.896C80.5453 12.248 80.4866 12.696 80.4866 13.24C80.4866 13.7413 80.5506 14.1733 80.6786 14.536C80.8066 14.888 80.972 15.176 81.1746 15.4C81.388 15.624 81.628 15.7893 81.8946 15.896C82.1613 16.0027 82.4333 16.056 82.7106 16.056C82.988 16.056 83.26 16.0133 83.5266 15.928C83.7933 15.832 84.028 15.6773 84.2306 15.464C84.4333 15.24 84.5933 14.952 84.7106 14.6C84.8386 14.2373 84.9026 13.784 84.9026 13.24ZM89.496 17H88.088V9.48H89.192L89.4 10.52C89.7733 10.1467 90.1627 9.864 90.568 9.672C90.984 9.46933 91.4587 9.368 91.992 9.368C92.76 9.368 93.3627 9.58667 93.8 10.024C94.2373 10.4507 94.456 11.048 94.456 11.816V17H93.048V12.024C93.048 11.5653 92.9253 11.2027 92.68 10.936C92.4453 10.6587 92.0827 10.52 91.592 10.52C90.8453 10.52 90.1467 10.856 89.496 11.528V17ZM100.509 10.536H98.3008V14.904C98.3008 15.2773 98.3914 15.528 98.5728 15.656C98.7648 15.784 99.0101 15.848 99.3088 15.848C99.5221 15.848 99.7568 15.8267 100.013 15.784C100.269 15.7307 100.493 15.672 100.685 15.608L100.909 16.68C100.695 16.7653 100.423 16.84 100.093 16.904C99.7621 16.968 99.4154 17 99.0528 17C98.3061 17 97.7621 16.84 97.4208 16.52C97.0794 16.1893 96.9088 15.7147 96.9088 15.096V10.536H95.7888V9.48H96.9088V7.08H98.3008V9.48H100.509V10.536ZM102.353 17V9.48H103.409L103.649 10.984C103.83 10.504 104.129 10.1147 104.545 9.816C104.961 9.51733 105.441 9.368 105.985 9.368C106.262 9.368 106.492 9.38933 106.673 9.432C106.854 9.47467 107.02 9.528 107.169 9.592L106.897 10.824C106.769 10.76 106.625 10.7067 106.465 10.664C106.316 10.6213 106.134 10.6 105.921 10.6C105.612 10.6 105.324 10.6533 105.057 10.76C104.801 10.8667 104.572 11.0267 104.369 11.24C104.177 11.4533 104.022 11.72 103.905 12.04C103.798 12.3493 103.745 12.7067 103.745 13.112V17H102.353ZM114.828 13.16C114.828 13.7893 114.732 14.3547 114.54 14.856C114.348 15.3467 114.081 15.7627 113.74 16.104C113.409 16.4453 113.02 16.7067 112.572 16.888C112.124 17.0587 111.638 17.144 111.116 17.144C110.593 17.144 110.108 17.064 109.66 16.904C109.222 16.7333 108.838 16.488 108.508 16.168C108.188 15.8373 107.932 15.4373 107.74 14.968C107.558 14.488 107.468 13.9387 107.468 13.32C107.468 12.6907 107.564 12.1307 107.756 11.64C107.948 11.1493 108.209 10.7387 108.54 10.408C108.881 10.0667 109.276 9.81067 109.724 9.64C110.172 9.45867 110.657 9.368 111.18 9.368C111.702 9.368 112.182 9.448 112.62 9.608C113.068 9.768 113.452 10.008 113.772 10.328C114.102 10.648 114.358 11.048 114.54 11.528C114.732 11.9973 114.828 12.5413 114.828 13.16ZM113.356 13.24C113.356 12.7387 113.292 12.312 113.164 11.96C113.036 11.608 112.865 11.32 112.652 11.096C112.449 10.872 112.214 10.712 111.948 10.616C111.681 10.5093 111.409 10.456 111.132 10.456C110.854 10.456 110.582 10.4987 110.316 10.584C110.049 10.6693 109.814 10.8187 109.612 11.032C109.409 11.2453 109.244 11.5333 109.116 11.896C108.998 12.248 108.94 12.696 108.94 13.24C108.94 13.7413 109.004 14.1733 109.132 14.536C109.26 14.888 109.425 15.176 109.628 15.4C109.841 15.624 110.081 15.7893 110.348 15.896C110.614 16.0027 110.886 16.056 111.164 16.056C111.441 16.056 111.713 16.0133 111.98 15.928C112.246 15.832 112.481 15.6773 112.684 15.464C112.886 15.24 113.046 14.952 113.164 14.6C113.292 14.2373 113.356 13.784 113.356 13.24ZM116.605 17V5.64H117.981V17H116.605ZM126.629 13.4H121.237V13.464C121.237 14.296 121.461 14.936 121.909 15.384C122.367 15.832 122.986 16.056 123.765 16.056C124.17 16.056 124.527 16.024 124.837 15.96C125.157 15.896 125.503 15.7893 125.877 15.64L126.165 16.68C125.855 16.8187 125.487 16.9307 125.061 17.016C124.645 17.1013 124.197 17.144 123.717 17.144C123.173 17.144 122.661 17.0693 122.181 16.92C121.711 16.7707 121.295 16.5413 120.933 16.232C120.57 15.912 120.282 15.5067 120.069 15.016C119.866 14.5253 119.765 13.9387 119.765 13.256C119.765 12.6693 119.85 12.136 120.021 11.656C120.202 11.176 120.453 10.7707 120.773 10.44C121.093 10.0987 121.477 9.83733 121.925 9.656C122.383 9.464 122.895 9.368 123.461 9.368C123.941 9.368 124.373 9.448 124.757 9.608C125.151 9.768 125.487 9.992 125.765 10.28C126.042 10.568 126.255 10.9147 126.405 11.32C126.554 11.7253 126.629 12.1733 126.629 12.664V13.4ZM125.173 12.392C125.173 12.1147 125.135 11.8587 125.061 11.624C124.997 11.3787 124.89 11.1653 124.741 10.984C124.602 10.8027 124.421 10.6587 124.197 10.552C123.973 10.4453 123.701 10.392 123.381 10.392C122.794 10.392 122.314 10.5787 121.941 10.952C121.578 11.3253 121.354 11.816 121.269 12.424L125.173 12.392ZM136.062 10.888C135.71 10.7173 135.39 10.6 135.102 10.536C134.814 10.472 134.526 10.44 134.238 10.44C133.726 10.44 133.347 10.536 133.102 10.728C132.857 10.9093 132.734 11.1547 132.734 11.464C132.734 11.688 132.819 11.8853 132.99 12.056C133.161 12.216 133.518 12.376 134.062 12.536L134.542 12.68C135.257 12.8933 135.795 13.1707 136.158 13.512C136.531 13.8427 136.718 14.296 136.718 14.872C136.718 15.5547 136.462 16.104 135.95 16.52C135.449 16.936 134.745 17.144 133.838 17.144C133.358 17.144 132.894 17.1013 132.446 17.016C132.009 16.9307 131.63 16.8133 131.31 16.664L131.646 15.56C131.955 15.7093 132.291 15.832 132.654 15.928C133.017 16.0133 133.385 16.056 133.758 16.056C134.238 16.056 134.617 15.9707 134.894 15.8C135.182 15.6293 135.326 15.3467 135.326 14.952C135.326 14.6107 135.203 14.3707 134.958 14.232C134.713 14.0827 134.361 13.9387 133.902 13.8L133.406 13.64C132.713 13.416 132.195 13.1387 131.854 12.808C131.523 12.4667 131.358 12.0293 131.358 11.496C131.358 11.176 131.427 10.8827 131.566 10.616C131.705 10.3493 131.891 10.1253 132.126 9.944C132.371 9.76267 132.659 9.624 132.99 9.528C133.321 9.42133 133.683 9.368 134.078 9.368C134.451 9.368 134.835 9.40533 135.23 9.48C135.635 9.544 136.019 9.656 136.382 9.816L136.062 10.888ZM145.25 13.16C145.25 13.7893 145.154 14.3547 144.962 14.856C144.77 15.3467 144.503 15.7627 144.162 16.104C143.831 16.4453 143.442 16.7067 142.994 16.888C142.546 17.0587 142.06 17.144 141.538 17.144C141.015 17.144 140.53 17.064 140.082 16.904C139.644 16.7333 139.26 16.488 138.93 16.168C138.61 15.8373 138.354 15.4373 138.162 14.968C137.98 14.488 137.89 13.9387 137.89 13.32C137.89 12.6907 137.986 12.1307 138.178 11.64C138.37 11.1493 138.631 10.7387 138.962 10.408C139.303 10.0667 139.698 9.81067 140.146 9.64C140.594 9.45867 141.079 9.368 141.602 9.368C142.124 9.368 142.604 9.448 143.042 9.608C143.49 9.768 143.874 10.008 144.194 10.328C144.524 10.648 144.78 11.048 144.962 11.528C145.154 11.9973 145.25 12.5413 145.25 13.16ZM143.778 13.24C143.778 12.7387 143.714 12.312 143.586 11.96C143.458 11.608 143.287 11.32 143.074 11.096C142.871 10.872 142.636 10.712 142.37 10.616C142.103 10.5093 141.831 10.456 141.554 10.456C141.276 10.456 141.004 10.4987 140.738 10.584C140.471 10.6693 140.236 10.8187 140.034 11.032C139.831 11.2453 139.666 11.5333 139.538 11.896C139.42 12.248 139.362 12.696 139.362 13.24C139.362 13.7413 139.426 14.1733 139.554 14.536C139.682 14.888 139.847 15.176 140.05 15.4C140.263 15.624 140.503 15.7893 140.77 15.896C141.036 16.0027 141.308 16.056 141.586 16.056C141.863 16.056 142.135 16.0133 142.402 15.928C142.668 15.832 142.903 15.6773 143.106 15.464C143.308 15.24 143.468 14.952 143.586 14.6C143.714 14.2373 143.778 13.784 143.778 13.24ZM153.907 13.24C153.907 13.8373 153.816 14.376 153.635 14.856C153.454 15.336 153.208 15.7467 152.899 16.088C152.59 16.4293 152.227 16.6907 151.811 16.872C151.395 17.0533 150.952 17.144 150.483 17.144C149.992 17.144 149.56 17.0747 149.187 16.936C148.824 16.7973 148.483 16.584 148.163 16.296H148.131L147.987 17H146.979V5.64H148.371V10.424C148.712 10.0613 149.086 9.79467 149.491 9.624C149.907 9.45333 150.339 9.368 150.787 9.368C151.747 9.368 152.504 9.70933 153.059 10.392C153.624 11.0747 153.907 12.024 153.907 13.24ZM152.435 13.256C152.435 12.424 152.259 11.7627 151.907 11.272C151.555 10.7707 151.059 10.52 150.419 10.52C150.014 10.52 149.646 10.6107 149.315 10.792C148.984 10.9733 148.67 11.2293 148.371 11.56V15.208C148.595 15.464 148.846 15.672 149.123 15.832C149.411 15.9813 149.742 16.056 150.115 16.056C150.414 16.056 150.702 16.0027 150.979 15.896C151.267 15.7893 151.518 15.624 151.731 15.4C151.944 15.1653 152.115 14.872 152.243 14.52C152.371 14.168 152.435 13.7467 152.435 13.256ZM155.572 17V9.48H156.628L156.868 10.984C157.049 10.504 157.348 10.1147 157.764 9.816C158.18 9.51733 158.66 9.368 159.204 9.368C159.481 9.368 159.71 9.38933 159.892 9.432C160.073 9.47467 160.238 9.528 160.388 9.592L160.116 10.824C159.988 10.76 159.844 10.7067 159.684 10.664C159.534 10.6213 159.353 10.6 159.14 10.6C158.83 10.6 158.542 10.6533 158.276 10.76C158.02 10.8667 157.79 11.0267 157.588 11.24C157.396 11.4533 157.241 11.72 157.124 12.04C157.017 12.3493 156.964 12.7067 156.964 13.112V17H155.572ZM167.566 13.4H162.174V13.464C162.174 14.296 162.398 14.936 162.846 15.384C163.305 15.832 163.923 16.056 164.702 16.056C165.107 16.056 165.465 16.024 165.774 15.96C166.094 15.896 166.441 15.7893 166.814 15.64L167.102 16.68C166.793 16.8187 166.425 16.9307 165.998 17.016C165.582 17.1013 165.134 17.144 164.654 17.144C164.11 17.144 163.598 17.0693 163.118 16.92C162.649 16.7707 162.233 16.5413 161.87 16.232C161.507 15.912 161.219 15.5067 161.006 15.016C160.803 14.5253 160.702 13.9387 160.702 13.256C160.702 12.6693 160.787 12.136 160.958 11.656C161.139 11.176 161.39 10.7707 161.71 10.44C162.03 10.0987 162.414 9.83733 162.862 9.656C163.321 9.464 163.833 9.368 164.398 9.368C164.878 9.368 165.31 9.448 165.694 9.608C166.089 9.768 166.425 9.992 166.702 10.28C166.979 10.568 167.193 10.9147 167.342 11.32C167.491 11.7253 167.566 12.1733 167.566 12.664V13.4ZM166.11 12.392C166.11 12.1147 166.073 11.8587 165.998 11.624C165.934 11.3787 165.827 11.1653 165.678 10.984C165.539 10.8027 165.358 10.6587 165.134 10.552C164.91 10.4453 164.638 10.392 164.318 10.392C163.731 10.392 163.251 10.5787 162.878 10.952C162.515 11.3253 162.291 11.816 162.206 12.424L166.11 12.392ZM172.856 10.152C173.112 10.024 173.352 9.912 173.576 9.816C173.8 9.70933 174.024 9.624 174.248 9.56C174.472 9.496 174.701 9.448 174.936 9.416C175.17 9.384 175.426 9.368 175.704 9.368C176.12 9.368 176.498 9.416 176.84 9.512C177.192 9.59733 177.49 9.74667 177.736 9.96C177.992 10.1733 178.189 10.456 178.328 10.808C178.466 11.1493 178.536 11.5813 178.536 12.104V17H177.368L177.192 16.168H177.16C176.829 16.52 176.466 16.7707 176.072 16.92C175.677 17.0693 175.24 17.144 174.76 17.144C174.397 17.144 174.061 17.096 173.752 17C173.453 16.8933 173.192 16.7493 172.968 16.568C172.744 16.376 172.568 16.1467 172.44 15.88C172.322 15.6133 172.264 15.3147 172.264 14.984C172.264 14.1947 172.573 13.5973 173.192 13.192C173.821 12.776 174.648 12.568 175.672 12.568H177.112V11.928C177.112 11.384 176.973 11.016 176.696 10.824C176.418 10.6213 176.045 10.52 175.576 10.52C175.298 10.52 174.978 10.568 174.616 10.664C174.264 10.7493 173.858 10.92 173.4 11.176L172.856 10.152ZM177.128 13.528L175.944 13.56C175.144 13.5813 174.573 13.7253 174.232 13.992C173.901 14.248 173.736 14.5627 173.736 14.936C173.736 15.16 173.773 15.352 173.848 15.512C173.922 15.6613 174.018 15.7787 174.136 15.864C174.264 15.9493 174.408 16.0133 174.568 16.056C174.738 16.088 174.914 16.104 175.096 16.104C175.448 16.104 175.805 16.024 176.168 15.864C176.53 15.6933 176.85 15.4267 177.128 15.064V13.528ZM184.828 10.888C184.476 10.7173 184.156 10.6 183.868 10.536C183.58 10.472 183.292 10.44 183.004 10.44C182.492 10.44 182.113 10.536 181.868 10.728C181.622 10.9093 181.5 11.1547 181.5 11.464C181.5 11.688 181.585 11.8853 181.756 12.056C181.926 12.216 182.284 12.376 182.828 12.536L183.308 12.68C184.022 12.8933 184.561 13.1707 184.924 13.512C185.297 13.8427 185.484 14.296 185.484 14.872C185.484 15.5547 185.228 16.104 184.716 16.52C184.214 16.936 183.51 17.144 182.604 17.144C182.124 17.144 181.66 17.1013 181.212 17.016C180.774 16.9307 180.396 16.8133 180.076 16.664L180.412 15.56C180.721 15.7093 181.057 15.832 181.42 15.928C181.782 16.0133 182.15 16.056 182.524 16.056C183.004 16.056 183.382 15.9707 183.66 15.8C183.948 15.6293 184.092 15.3467 184.092 14.952C184.092 14.6107 183.969 14.3707 183.724 14.232C183.478 14.0827 183.126 13.9387 182.668 13.8L182.172 13.64C181.478 13.416 180.961 13.1387 180.62 12.808C180.289 12.4667 180.124 12.0293 180.124 11.496C180.124 11.176 180.193 10.8827 180.332 10.616C180.47 10.3493 180.657 10.1253 180.892 9.944C181.137 9.76267 181.425 9.624 181.756 9.528C182.086 9.42133 182.449 9.368 182.844 9.368C183.217 9.368 183.601 9.40533 183.996 9.48C184.401 9.544 184.785 9.656 185.148 9.816L184.828 10.888ZM195.658 5.64H197.066V17H195.882L195.706 16.168H195.658C195.327 16.5093 194.991 16.76 194.65 16.92C194.319 17.0693 193.898 17.144 193.386 17.144C192.981 17.144 192.586 17.064 192.202 16.904C191.829 16.744 191.493 16.504 191.194 16.184C190.895 15.864 190.655 15.464 190.474 14.984C190.293 14.4933 190.202 13.9173 190.202 13.256C190.202 12.6693 190.277 12.136 190.426 11.656C190.586 11.176 190.81 10.7653 191.098 10.424C191.386 10.0827 191.738 9.82133 192.154 9.64C192.57 9.45867 193.045 9.368 193.578 9.368C193.973 9.368 194.346 9.432 194.698 9.56C195.061 9.67733 195.381 9.85867 195.658 10.104V5.64ZM195.658 11.288C195.157 10.7227 194.565 10.44 193.882 10.44C193.594 10.44 193.311 10.4933 193.034 10.6C192.767 10.696 192.527 10.856 192.314 11.08C192.111 11.304 191.946 11.592 191.818 11.944C191.69 12.296 191.626 12.7173 191.626 13.208C191.626 13.72 191.685 14.1573 191.802 14.52C191.919 14.872 192.074 15.1653 192.266 15.4C192.469 15.624 192.693 15.7893 192.938 15.896C193.194 16.0027 193.45 16.056 193.706 16.056C194.506 16.056 195.157 15.7093 195.658 15.016V11.288ZM205.644 13.4H200.252V13.464C200.252 14.296 200.476 14.936 200.924 15.384C201.383 15.832 202.002 16.056 202.78 16.056C203.186 16.056 203.543 16.024 203.852 15.96C204.172 15.896 204.519 15.7893 204.892 15.64L205.18 16.68C204.871 16.8187 204.503 16.9307 204.076 17.016C203.66 17.1013 203.212 17.144 202.732 17.144C202.188 17.144 201.676 17.0693 201.196 16.92C200.727 16.7707 200.311 16.5413 199.948 16.232C199.586 15.912 199.298 15.5067 199.084 15.016C198.882 14.5253 198.78 13.9387 198.78 13.256C198.78 12.6693 198.866 12.136 199.036 11.656C199.218 11.176 199.468 10.7707 199.788 10.44C200.108 10.0987 200.492 9.83733 200.94 9.656C201.399 9.464 201.911 9.368 202.476 9.368C202.956 9.368 203.388 9.448 203.772 9.608C204.167 9.768 204.503 9.992 204.78 10.28C205.058 10.568 205.271 10.9147 205.42 11.32C205.57 11.7253 205.644 12.1733 205.644 12.664V13.4ZM204.188 12.392C204.188 12.1147 204.151 11.8587 204.076 11.624C204.012 11.3787 203.906 11.1653 203.756 10.984C203.618 10.8027 203.436 10.6587 203.212 10.552C202.988 10.4453 202.716 10.392 202.396 10.392C201.81 10.392 201.33 10.5787 200.956 10.952C200.594 11.3253 200.37 11.816 200.284 12.424L204.188 12.392ZM208.715 17H207.307V9.48H208.395L208.603 10.52C208.955 10.168 209.333 9.89067 209.739 9.688C210.144 9.47467 210.629 9.368 211.195 9.368C211.728 9.368 212.165 9.48 212.507 9.704C212.848 9.91733 213.104 10.216 213.275 10.6C213.648 10.2053 214.059 9.90133 214.507 9.688C214.955 9.47467 215.451 9.368 215.995 9.368C216.763 9.368 217.339 9.58667 217.723 10.024C218.117 10.4507 218.315 11.048 218.315 11.816V17H216.907V12.072C216.907 11.5707 216.8 11.1867 216.587 10.92C216.373 10.6533 216.021 10.52 215.531 10.52C214.805 10.52 214.128 10.8453 213.499 11.496C213.509 11.5493 213.515 11.6027 213.515 11.656C213.515 11.7093 213.515 11.7627 213.515 11.816V17H212.107V12.072C212.107 11.5707 212 11.1867 211.787 10.92C211.573 10.6533 211.221 10.52 210.731 10.52C210.005 10.52 209.333 10.8613 208.715 11.544V17ZM220.574 10.152C220.83 10.024 221.07 9.912 221.294 9.816C221.518 9.70933 221.742 9.624 221.966 9.56C222.19 9.496 222.42 9.448 222.654 9.416C222.889 9.384 223.145 9.368 223.422 9.368C223.838 9.368 224.217 9.416 224.558 9.512C224.91 9.59733 225.209 9.74667 225.454 9.96C225.71 10.1733 225.908 10.456 226.046 10.808C226.185 11.1493 226.254 11.5813 226.254 12.104V17H225.086L224.91 16.168H224.878C224.548 16.52 224.185 16.7707 223.79 16.92C223.396 17.0693 222.958 17.144 222.478 17.144C222.116 17.144 221.78 17.096 221.47 17C221.172 16.8933 220.91 16.7493 220.686 16.568C220.462 16.376 220.286 16.1467 220.158 15.88C220.041 15.6133 219.982 15.3147 219.982 14.984C219.982 14.1947 220.292 13.5973 220.91 13.192C221.54 12.776 222.366 12.568 223.39 12.568H224.83V11.928C224.83 11.384 224.692 11.016 224.414 10.824C224.137 10.6213 223.764 10.52 223.294 10.52C223.017 10.52 222.697 10.568 222.334 10.664C221.982 10.7493 221.577 10.92 221.118 11.176L220.574 10.152ZM224.846 13.528L223.662 13.56C222.862 13.5813 222.292 13.7253 221.95 13.992C221.62 14.248 221.454 14.5627 221.454 14.936C221.454 15.16 221.492 15.352 221.566 15.512C221.641 15.6613 221.737 15.7787 221.854 15.864C221.982 15.9493 222.126 16.0133 222.286 16.056C222.457 16.088 222.633 16.104 222.814 16.104C223.166 16.104 223.524 16.024 223.886 15.864C224.249 15.6933 224.569 15.4267 224.846 15.064V13.528ZM229.73 17H228.322V9.48H229.426L229.634 10.52C230.008 10.1467 230.397 9.864 230.802 9.672C231.218 9.46933 231.693 9.368 232.226 9.368C232.994 9.368 233.597 9.58667 234.034 10.024C234.472 10.4507 234.69 11.048 234.69 11.816V17H233.282V12.024C233.282 11.5653 233.16 11.2027 232.914 10.936C232.68 10.6587 232.317 10.52 231.826 10.52C231.08 10.52 230.381 10.856 229.73 11.528V17ZM241.861 5.64H243.269V17H242.085L241.909 16.168H241.861C241.531 16.5093 241.195 16.76 240.853 16.92C240.523 17.0693 240.101 17.144 239.589 17.144C239.184 17.144 238.789 17.064 238.405 16.904C238.032 16.744 237.696 16.504 237.397 16.184C237.099 15.864 236.859 15.464 236.677 14.984C236.496 14.4933 236.405 13.9173 236.405 13.256C236.405 12.6693 236.48 12.136 236.629 11.656C236.789 11.176 237.013 10.7653 237.301 10.424C237.589 10.0827 237.941 9.82133 238.357 9.64C238.773 9.45867 239.248 9.368 239.781 9.368C240.176 9.368 240.549 9.432 240.901 9.56C241.264 9.67733 241.584 9.85867 241.861 10.104V5.64ZM241.861 11.288C241.36 10.7227 240.768 10.44 240.085 10.44C239.797 10.44 239.515 10.4933 239.237 10.6C238.971 10.696 238.731 10.856 238.517 11.08C238.315 11.304 238.149 11.592 238.021 11.944C237.893 12.296 237.829 12.7173 237.829 13.208C237.829 13.72 237.888 14.1573 238.005 14.52C238.123 14.872 238.277 15.1653 238.469 15.4C238.672 15.624 238.896 15.7893 239.141 15.896C239.397 16.0027 239.653 16.056 239.909 16.056C240.709 16.056 241.36 15.7093 241.861 15.016V11.288ZM245.527 10.152C245.783 10.024 246.023 9.912 246.247 9.816C246.471 9.70933 246.695 9.624 246.919 9.56C247.143 9.496 247.373 9.448 247.607 9.416C247.842 9.384 248.098 9.368 248.375 9.368C248.791 9.368 249.17 9.416 249.511 9.512C249.863 9.59733 250.162 9.74667 250.407 9.96C250.663 10.1733 250.861 10.456 250.999 10.808C251.138 11.1493 251.207 11.5813 251.207 12.104V17H250.039L249.863 16.168H249.831C249.501 16.52 249.138 16.7707 248.743 16.92C248.349 17.0693 247.911 17.144 247.431 17.144C247.069 17.144 246.733 17.096 246.423 17C246.125 16.8933 245.863 16.7493 245.639 16.568C245.415 16.376 245.239 16.1467 245.111 15.88C244.994 15.6133 244.935 15.3147 244.935 14.984C244.935 14.1947 245.245 13.5973 245.863 13.192C246.493 12.776 247.319 12.568 248.343 12.568H249.783V11.928C249.783 11.384 249.645 11.016 249.367 10.824C249.09 10.6213 248.717 10.52 248.247 10.52C247.97 10.52 247.65 10.568 247.287 10.664C246.935 10.7493 246.53 10.92 246.071 11.176L245.527 10.152ZM249.799 13.528L248.615 13.56C247.815 13.5813 247.245 13.7253 246.903 13.992C246.573 14.248 246.407 14.5627 246.407 14.936C246.407 15.16 246.445 15.352 246.519 15.512C246.594 15.6613 246.69 15.7787 246.807 15.864C246.935 15.9493 247.079 16.0133 247.239 16.056C247.41 16.088 247.586 16.104 247.767 16.104C248.119 16.104 248.477 16.024 248.839 15.864C249.202 15.6933 249.522 15.4267 249.799 15.064V13.528ZM257.5 10.888C257.148 10.7173 256.828 10.6 256.54 10.536C256.252 10.472 255.964 10.44 255.676 10.44C255.164 10.44 254.785 10.536 254.539 10.728C254.294 10.9093 254.172 11.1547 254.172 11.464C254.172 11.688 254.257 11.8853 254.428 12.056C254.598 12.216 254.956 12.376 255.5 12.536L255.98 12.68C256.694 12.8933 257.233 13.1707 257.596 13.512C257.969 13.8427 258.156 14.296 258.156 14.872C258.156 15.5547 257.9 16.104 257.388 16.52C256.886 16.936 256.182 17.144 255.276 17.144C254.796 17.144 254.332 17.1013 253.884 17.016C253.446 16.9307 253.068 16.8133 252.748 16.664L253.084 15.56C253.393 15.7093 253.729 15.832 254.092 15.928C254.454 16.0133 254.822 16.056 255.196 16.056C255.676 16.056 256.054 15.9707 256.332 15.8C256.62 15.6293 256.764 15.3467 256.764 14.952C256.764 14.6107 256.641 14.3707 256.396 14.232C256.15 14.0827 255.798 13.9387 255.34 13.8L254.844 13.64C254.15 13.416 253.633 13.1387 253.292 12.808C252.961 12.4667 252.796 12.0293 252.796 11.496C252.796 11.176 252.865 10.8827 253.004 10.616C253.142 10.3493 253.329 10.1253 253.564 9.944C253.809 9.76267 254.097 9.624 254.428 9.528C254.758 9.42133 255.121 9.368 255.516 9.368C255.889 9.368 256.273 9.40533 256.668 9.48C257.073 9.544 257.457 9.656 257.82 9.816L257.5 10.888ZM263.114 16.136C263.114 15.8587 263.21 15.624 263.402 15.432C263.594 15.24 263.823 15.144 264.09 15.144C264.357 15.144 264.581 15.24 264.762 15.432C264.954 15.624 265.05 15.8587 265.05 16.136C265.05 16.4453 264.954 16.6907 264.762 16.872C264.581 17.0533 264.357 17.144 264.09 17.144C263.823 17.144 263.594 17.0533 263.402 16.872C263.21 16.6907 263.114 16.4453 263.114 16.136Z" fill="#EBEBEB"/>
</g>
<defs>
<linearGradient id="paint0_linear_589_710" x1="21" y1="7" x2="1" y2="22" gradientUnits="userSpaceOnUse">
<stop stop-color="#0077B6"/>
<stop offset="1" stop-color="#22A8C2" stop-opacity="0"/>
</linearGradient>
<linearGradient id="paint1_linear_589_710" x1="21" y1="4" x2="1.5" y2="14" gradientUnits="userSpaceOnUse">
<stop stop-color="#0077B6"/>
<stop offset="1" stop-color="#22A8C2" stop-opacity="0"/>
</linearGradient>
</defs>
</svg>
