<svg width="243" height="24" viewBox="0 0 243 24" fill="none" xmlns="http://www.w3.org/2000/svg">
<g id="check-item2">
<path id="circle-check" d="M21 11.0857V12.0057C20.9988 14.1621 20.3005 16.2604 19.0093 17.9875C17.7182 19.7147 15.9033 20.9782 13.8354 21.5896C11.7674 22.201 9.55726 22.1276 7.53447 21.3803C5.51168 20.633 3.78465 19.2518 2.61096 17.4428C1.43727 15.6338 0.879791 13.4938 1.02168 11.342C1.16356 9.19029 1.99721 7.14205 3.39828 5.5028C4.79935 3.86354 6.69279 2.72111 8.79619 2.24587C10.8996 1.77063 13.1003 1.98806 15.07 2.86572" stroke="url(#paint0_linear_589_707)" stroke-width="2" stroke-linecap="round" stroke-linejoin="round"/>
<path id="check-ok" d="M21 4.00586L11 14.0159L8 11.0159" stroke="url(#paint1_linear_589_707)" stroke-width="2" stroke-linecap="round" stroke-linejoin="round"/>
<path id="text-2" d="M41.56 6.92C42.2747 6.92 42.936 7.02133 43.544 7.224C44.152 7.42667 44.6747 7.73067 45.112 8.136C45.56 8.53067 45.9067 9.032 46.152 9.64C46.408 10.2373 46.536 10.936 46.536 11.736C46.536 12.7067 46.3867 13.528 46.088 14.2C45.7893 14.872 45.384 15.416 44.872 15.832C44.3707 16.248 43.784 16.5467 43.112 16.728C42.4507 16.9093 41.7467 17 41 17H38.28V6.92H41.56ZM39.752 15.784H40.856C41.368 15.784 41.8693 15.7307 42.36 15.624C42.8507 15.5067 43.2827 15.2987 43.656 15C44.04 14.6907 44.3493 14.2747 44.584 13.752C44.8187 13.2293 44.936 12.5573 44.936 11.736C44.936 11.16 44.8507 10.648 44.68 10.2C44.5093 9.752 44.264 9.37867 43.944 9.08C43.624 8.77067 43.2347 8.536 42.776 8.376C42.328 8.216 41.8267 8.136 41.272 8.136H39.752V15.784ZM54.7536 13.4H49.3616V13.464C49.3616 14.296 49.5856 14.936 50.0336 15.384C50.4923 15.832 51.111 16.056 51.8896 16.056C52.295 16.056 52.6523 16.024 52.9616 15.96C53.2816 15.896 53.6283 15.7893 54.0016 15.64L54.2896 16.68C53.9803 16.8187 53.6123 16.9307 53.1856 17.016C52.7696 17.1013 52.3216 17.144 51.8416 17.144C51.2976 17.144 50.7856 17.0693 50.3056 16.92C49.8363 16.7707 49.4203 16.5413 49.0576 16.232C48.695 15.912 48.407 15.5067 48.1936 15.016C47.991 14.5253 47.8896 13.9387 47.8896 13.256C47.8896 12.6693 47.975 12.136 48.1456 11.656C48.327 11.176 48.5776 10.7707 48.8976 10.44C49.2176 10.0987 49.6016 9.83733 50.0496 9.656C50.5083 9.464 51.0203 9.368 51.5856 9.368C52.0656 9.368 52.4976 9.448 52.8816 9.608C53.2763 9.768 53.6123 9.992 53.8896 10.28C54.167 10.568 54.3803 10.9147 54.5296 11.32C54.679 11.7253 54.7536 12.1733 54.7536 12.664V13.4ZM53.2976 12.392C53.2976 12.1147 53.2603 11.8587 53.1856 11.624C53.1216 11.3787 53.015 11.1653 52.8656 10.984C52.727 10.8027 52.5456 10.6587 52.3216 10.552C52.0976 10.4453 51.8256 10.392 51.5056 10.392C50.919 10.392 50.439 10.5787 50.0656 10.952C49.703 11.3253 49.479 11.816 49.3936 12.424L53.2976 12.392ZM59.9841 16.056C60.3255 16.056 60.6241 16.0187 60.8801 15.944C61.1361 15.8693 61.3868 15.7733 61.6321 15.656L61.9361 16.712C61.3601 17 60.6721 17.144 59.8721 17.144C59.3281 17.144 58.8161 17.064 58.3361 16.904C57.8668 16.744 57.4508 16.504 57.0881 16.184C56.7361 15.8533 56.4588 15.448 56.2561 14.968C56.0535 14.4773 55.9521 13.9067 55.9521 13.256C55.9521 12.6587 56.0481 12.12 56.2401 11.64C56.4321 11.16 56.6988 10.7547 57.0401 10.424C57.3815 10.0827 57.7921 9.82133 58.2721 9.64C58.7521 9.45867 59.2801 9.368 59.8561 9.368C60.1868 9.368 60.5068 9.39467 60.8161 9.448C61.1361 9.49067 61.4988 9.60267 61.9041 9.784L61.5841 10.856C61.0935 10.5787 60.5655 10.44 60.0001 10.44C59.2215 10.44 58.5921 10.6853 58.1121 11.176C57.6321 11.656 57.3921 12.3333 57.3921 13.208C57.3921 13.752 57.4668 14.2053 57.6161 14.568C57.7655 14.9307 57.9628 15.224 58.2081 15.448C58.4535 15.6613 58.7308 15.816 59.0401 15.912C59.3495 16.008 59.6641 16.056 59.9841 16.056ZM63.7183 17V9.48H65.1263V17H63.7183ZM64.4223 7.544C64.1769 7.544 63.9636 7.464 63.7823 7.304C63.6116 7.13333 63.5263 6.92533 63.5263 6.68C63.5263 6.43467 63.6116 6.22667 63.7823 6.056C63.9636 5.88533 64.1769 5.8 64.4223 5.8C64.6569 5.8 64.8649 5.88533 65.0463 6.056C65.2276 6.22667 65.3183 6.43467 65.3183 6.68C65.3183 6.92533 65.2276 7.13333 65.0463 7.304C64.8649 7.464 64.6569 7.544 64.4223 7.544ZM71.6558 10.888C71.3038 10.7173 70.9838 10.6 70.6958 10.536C70.4078 10.472 70.1198 10.44 69.8318 10.44C69.3198 10.44 68.9411 10.536 68.6957 10.728C68.4504 10.9093 68.3278 11.1547 68.3278 11.464C68.3278 11.688 68.4131 11.8853 68.5838 12.056C68.7544 12.216 69.1118 12.376 69.6558 12.536L70.1358 12.68C70.8504 12.8933 71.3891 13.1707 71.7518 13.512C72.1251 13.8427 72.3118 14.296 72.3118 14.872C72.3118 15.5547 72.0558 16.104 71.5438 16.52C71.0424 16.936 70.3384 17.144 69.4318 17.144C68.9518 17.144 68.4878 17.1013 68.0398 17.016C67.6024 16.9307 67.2238 16.8133 66.9038 16.664L67.2398 15.56C67.5491 15.7093 67.8851 15.832 68.2478 15.928C68.6104 16.0133 68.9784 16.056 69.3518 16.056C69.8318 16.056 70.2104 15.9707 70.4878 15.8C70.7758 15.6293 70.9198 15.3467 70.9198 14.952C70.9198 14.6107 70.7971 14.3707 70.5518 14.232C70.3064 14.0827 69.9544 13.9387 69.4958 13.8L68.9998 13.64C68.3064 13.416 67.7891 13.1387 67.4478 12.808C67.1171 12.4667 66.9518 12.0293 66.9518 11.496C66.9518 11.176 67.0211 10.8827 67.1598 10.616C67.2984 10.3493 67.4851 10.1253 67.7198 9.944C67.9651 9.76267 68.2531 9.624 68.5838 9.528C68.9144 9.42133 69.2771 9.368 69.6718 9.368C70.0451 9.368 70.4291 9.40533 70.8238 9.48C71.2291 9.544 71.6131 9.656 71.9758 9.816L71.6558 10.888ZM80.8434 13.16C80.8434 13.7893 80.7474 14.3547 80.5554 14.856C80.3634 15.3467 80.0967 15.7627 79.7554 16.104C79.4247 16.4453 79.0354 16.7067 78.5874 16.888C78.1394 17.0587 77.654 17.144 77.1314 17.144C76.6087 17.144 76.1234 17.064 75.6754 16.904C75.238 16.7333 74.854 16.488 74.5234 16.168C74.2034 15.8373 73.9474 15.4373 73.7554 14.968C73.574 14.488 73.4834 13.9387 73.4834 13.32C73.4834 12.6907 73.5794 12.1307 73.7714 11.64C73.9634 11.1493 74.2247 10.7387 74.5554 10.408C74.8967 10.0667 75.2914 9.81067 75.7394 9.64C76.1874 9.45867 76.6727 9.368 77.1954 9.368C77.718 9.368 78.198 9.448 78.6354 9.608C79.0834 9.768 79.4674 10.008 79.7874 10.328C80.118 10.648 80.374 11.048 80.5554 11.528C80.7474 11.9973 80.8434 12.5413 80.8434 13.16ZM79.3714 13.24C79.3714 12.7387 79.3074 12.312 79.1794 11.96C79.0514 11.608 78.8807 11.32 78.6674 11.096C78.4647 10.872 78.23 10.712 77.9634 10.616C77.6967 10.5093 77.4247 10.456 77.1474 10.456C76.87 10.456 76.598 10.4987 76.3314 10.584C76.0647 10.6693 75.83 10.8187 75.6274 11.032C75.4247 11.2453 75.2594 11.5333 75.1314 11.896C75.014 12.248 74.9554 12.696 74.9554 13.24C74.9554 13.7413 75.0194 14.1733 75.1474 14.536C75.2754 14.888 75.4407 15.176 75.6434 15.4C75.8567 15.624 76.0967 15.7893 76.3634 15.896C76.63 16.0027 76.902 16.056 77.1794 16.056C77.4567 16.056 77.7287 16.0133 77.9954 15.928C78.262 15.832 78.4967 15.6773 78.6994 15.464C78.902 15.24 79.062 14.952 79.1794 14.6C79.3074 14.2373 79.3714 13.784 79.3714 13.24ZM74.7314 8.104C74.7314 7.61333 74.838 7.19733 75.0514 6.856C75.2754 6.51467 75.6327 6.344 76.1234 6.344C76.3474 6.344 76.5447 6.38133 76.7154 6.456C76.8967 6.53067 77.062 6.61067 77.2114 6.696C77.3714 6.78133 77.526 6.86133 77.6754 6.936C77.8247 7.01067 77.9847 7.048 78.1554 7.048C78.3687 7.048 78.518 6.968 78.6034 6.808C78.6994 6.648 78.758 6.47733 78.7794 6.296H79.5794C79.5794 6.52 79.5527 6.73867 79.4994 6.952C79.446 7.15467 79.3607 7.34133 79.2434 7.512C79.1367 7.672 78.998 7.80533 78.8274 7.912C78.6674 8.008 78.4754 8.056 78.2514 8.056C78.0274 8.056 77.814 8.024 77.6114 7.96C77.4194 7.88533 77.238 7.80533 77.0674 7.72C76.8967 7.624 76.7367 7.544 76.5874 7.48C76.438 7.40533 76.2994 7.368 76.1714 7.368C75.9474 7.368 75.7874 7.43733 75.6914 7.576C75.606 7.71467 75.5527 7.89067 75.5314 8.104H74.7314ZM88.9568 13.4H83.5648V13.464C83.5648 14.296 83.7888 14.936 84.2368 15.384C84.6954 15.832 85.3141 16.056 86.0928 16.056C86.4981 16.056 86.8554 16.024 87.1648 15.96C87.4848 15.896 87.8314 15.7893 88.2048 15.64L88.4928 16.68C88.1834 16.8187 87.8154 16.9307 87.3888 17.016C86.9728 17.1013 86.5248 17.144 86.0448 17.144C85.5008 17.144 84.9888 17.0693 84.5088 16.92C84.0394 16.7707 83.6234 16.5413 83.2608 16.232C82.8981 15.912 82.6101 15.5067 82.3968 15.016C82.1941 14.5253 82.0928 13.9387 82.0928 13.256C82.0928 12.6693 82.1781 12.136 82.3488 11.656C82.5301 11.176 82.7808 10.7707 83.1008 10.44C83.4208 10.0987 83.8048 9.83733 84.2528 9.656C84.7114 9.464 85.2234 9.368 85.7888 9.368C86.2688 9.368 86.7008 9.448 87.0848 9.608C87.4794 9.768 87.8154 9.992 88.0928 10.28C88.3701 10.568 88.5834 10.9147 88.7328 11.32C88.8821 11.7253 88.9568 12.1733 88.9568 12.664V13.4ZM87.5008 12.392C87.5008 12.1147 87.4634 11.8587 87.3888 11.624C87.3248 11.3787 87.2181 11.1653 87.0688 10.984C86.9301 10.8027 86.7488 10.6587 86.5248 10.552C86.3008 10.4453 86.0288 10.392 85.7088 10.392C85.1221 10.392 84.6421 10.5787 84.2688 10.952C83.9061 11.3253 83.6821 11.816 83.5968 12.424L87.5008 12.392ZM94.8433 10.888C94.4913 10.7173 94.1713 10.6 93.8833 10.536C93.5953 10.472 93.3073 10.44 93.0193 10.44C92.5073 10.44 92.1286 10.536 91.8832 10.728C91.6379 10.9093 91.5153 11.1547 91.5153 11.464C91.5153 11.688 91.6006 11.8853 91.7713 12.056C91.9419 12.216 92.2993 12.376 92.8433 12.536L93.3233 12.68C94.0379 12.8933 94.5766 13.1707 94.9393 13.512C95.3126 13.8427 95.4993 14.296 95.4993 14.872C95.4993 15.5547 95.2433 16.104 94.7313 16.52C94.2299 16.936 93.5259 17.144 92.6193 17.144C92.1393 17.144 91.6753 17.1013 91.2273 17.016C90.7899 16.9307 90.4113 16.8133 90.0913 16.664L90.4273 15.56C90.7366 15.7093 91.0726 15.832 91.4353 15.928C91.7979 16.0133 92.1659 16.056 92.5393 16.056C93.0193 16.056 93.3979 15.9707 93.6753 15.8C93.9633 15.6293 94.1073 15.3467 94.1073 14.952C94.1073 14.6107 93.9846 14.3707 93.7393 14.232C93.4939 14.0827 93.1419 13.9387 92.6833 13.8L92.1873 13.64C91.4939 13.416 90.9766 13.1387 90.6353 12.808C90.3046 12.4667 90.1393 12.0293 90.1393 11.496C90.1393 11.176 90.2086 10.8827 90.3473 10.616C90.4859 10.3493 90.6726 10.1253 90.9073 9.944C91.1526 9.76267 91.4406 9.624 91.7713 9.528C92.1019 9.42133 92.4646 9.368 92.8593 9.368C93.2326 9.368 93.6166 9.40533 94.0113 9.48C94.4166 9.544 94.8006 9.656 95.1633 9.816L94.8433 10.888ZM107.082 13.4H101.69V13.464C101.69 14.296 101.914 14.936 102.362 15.384C102.82 15.832 103.439 16.056 104.218 16.056C104.623 16.056 104.98 16.024 105.29 15.96C105.61 15.896 105.956 15.7893 106.33 15.64L106.618 16.68C106.308 16.8187 105.94 16.9307 105.514 17.016C105.098 17.1013 104.65 17.144 104.17 17.144C103.626 17.144 103.114 17.0693 102.634 16.92C102.164 16.7707 101.748 16.5413 101.386 16.232C101.023 15.912 100.735 15.5067 100.522 15.016C100.319 14.5253 100.218 13.9387 100.218 13.256C100.218 12.6693 100.303 12.136 100.474 11.656C100.655 11.176 100.906 10.7707 101.226 10.44C101.546 10.0987 101.93 9.83733 102.378 9.656C102.836 9.464 103.348 9.368 103.914 9.368C104.394 9.368 104.826 9.448 105.21 9.608C105.604 9.768 105.94 9.992 106.218 10.28C106.495 10.568 106.708 10.9147 106.858 11.32C107.007 11.7253 107.082 12.1733 107.082 12.664V13.4ZM105.626 12.392C105.626 12.1147 105.588 11.8587 105.514 11.624C105.45 11.3787 105.343 11.1653 105.194 10.984C105.055 10.8027 104.874 10.6587 104.65 10.552C104.426 10.4453 104.154 10.392 103.834 10.392C103.247 10.392 102.767 10.5787 102.394 10.952C102.031 11.3253 101.807 11.816 101.722 12.424L105.626 12.392ZM112.968 10.888C112.616 10.7173 112.296 10.6 112.008 10.536C111.72 10.472 111.432 10.44 111.144 10.44C110.632 10.44 110.254 10.536 110.008 10.728C109.763 10.9093 109.64 11.1547 109.64 11.464C109.64 11.688 109.726 11.8853 109.896 12.056C110.067 12.216 110.424 12.376 110.968 12.536L111.448 12.68C112.163 12.8933 112.702 13.1707 113.064 13.512C113.438 13.8427 113.624 14.296 113.624 14.872C113.624 15.5547 113.368 16.104 112.856 16.52C112.355 16.936 111.651 17.144 110.744 17.144C110.264 17.144 109.8 17.1013 109.352 17.016C108.915 16.9307 108.536 16.8133 108.216 16.664L108.552 15.56C108.862 15.7093 109.198 15.832 109.56 15.928C109.923 16.0133 110.291 16.056 110.664 16.056C111.144 16.056 111.523 15.9707 111.8 15.8C112.088 15.6293 112.232 15.3467 112.232 14.952C112.232 14.6107 112.11 14.3707 111.864 14.232C111.619 14.0827 111.267 13.9387 110.808 13.8L110.312 13.64C109.619 13.416 109.102 13.1387 108.76 12.808C108.43 12.4667 108.264 12.0293 108.264 11.496C108.264 11.176 108.334 10.8827 108.472 10.616C108.611 10.3493 108.798 10.1253 109.032 9.944C109.278 9.76267 109.566 9.624 109.896 9.528C110.227 9.42133 110.59 9.368 110.984 9.368C111.358 9.368 111.742 9.40533 112.136 9.48C112.542 9.544 112.926 9.656 113.288 9.816L112.968 10.888ZM119.212 10.536H117.004V14.904C117.004 15.2773 117.095 15.528 117.276 15.656C117.468 15.784 117.713 15.848 118.012 15.848C118.225 15.848 118.46 15.8267 118.716 15.784C118.972 15.7307 119.196 15.672 119.388 15.608L119.612 16.68C119.399 16.7653 119.127 16.84 118.796 16.904C118.465 16.968 118.119 17 117.756 17C117.009 17 116.465 16.84 116.124 16.52C115.783 16.1893 115.612 15.7147 115.612 15.096V10.536H114.492V9.48H115.612V7.08H117.004V9.48H119.212V10.536ZM121.056 17V9.48H122.112L122.352 10.984C122.533 10.504 122.832 10.1147 123.248 9.816C123.664 9.51733 124.144 9.368 124.688 9.368C124.965 9.368 125.195 9.38933 125.376 9.432C125.557 9.47467 125.723 9.528 125.872 9.592L125.6 10.824C125.472 10.76 125.328 10.7067 125.168 10.664C125.019 10.6213 124.837 10.6 124.624 10.6C124.315 10.6 124.027 10.6533 123.76 10.76C123.504 10.8667 123.275 11.0267 123.072 11.24C122.88 11.4533 122.725 11.72 122.608 12.04C122.501 12.3493 122.448 12.7067 122.448 13.112V17H121.056ZM126.887 10.152C127.143 10.024 127.383 9.912 127.607 9.816C127.831 9.70933 128.055 9.624 128.279 9.56C128.503 9.496 128.732 9.448 128.967 9.416C129.201 9.384 129.457 9.368 129.735 9.368C130.151 9.368 130.529 9.416 130.871 9.512C131.223 9.59733 131.521 9.74667 131.767 9.96C132.023 10.1733 132.22 10.456 132.359 10.808C132.497 11.1493 132.567 11.5813 132.567 12.104V17H131.399L131.223 16.168H131.191C130.86 16.52 130.497 16.7707 130.103 16.92C129.708 17.0693 129.271 17.144 128.791 17.144C128.428 17.144 128.092 17.096 127.783 17C127.484 16.8933 127.223 16.7493 126.999 16.568C126.775 16.376 126.599 16.1467 126.471 15.88C126.353 15.6133 126.295 15.3147 126.295 14.984C126.295 14.1947 126.604 13.5973 127.223 13.192C127.852 12.776 128.679 12.568 129.703 12.568H131.143V11.928C131.143 11.384 131.004 11.016 130.727 10.824C130.449 10.6213 130.076 10.52 129.607 10.52C129.329 10.52 129.009 10.568 128.647 10.664C128.295 10.7493 127.889 10.92 127.431 11.176L126.887 10.152ZM131.159 13.528L129.975 13.56C129.175 13.5813 128.604 13.7253 128.263 13.992C127.932 14.248 127.767 14.5627 127.767 14.936C127.767 15.16 127.804 15.352 127.879 15.512C127.953 15.6613 128.049 15.7787 128.167 15.864C128.295 15.9493 128.439 16.0133 128.599 16.056C128.769 16.088 128.945 16.104 129.127 16.104C129.479 16.104 129.836 16.024 130.199 15.864C130.561 15.6933 130.881 15.4267 131.159 15.064V13.528ZM138.665 10.536H136.457V14.904C136.457 15.2773 136.548 15.528 136.729 15.656C136.921 15.784 137.166 15.848 137.465 15.848C137.678 15.848 137.913 15.8267 138.169 15.784C138.425 15.7307 138.649 15.672 138.841 15.608L139.065 16.68C138.852 16.7653 138.58 16.84 138.249 16.904C137.918 16.968 137.572 17 137.209 17C136.462 17 135.918 16.84 135.577 16.52C135.236 16.1893 135.065 15.7147 135.065 15.096V10.536H133.945V9.48H135.065V7.08H136.457V9.48H138.665V10.536ZM146.941 13.4H141.549V13.464C141.549 14.296 141.773 14.936 142.221 15.384C142.68 15.832 143.298 16.056 144.077 16.056C144.482 16.056 144.84 16.024 145.149 15.96C145.469 15.896 145.816 15.7893 146.189 15.64L146.477 16.68C146.168 16.8187 145.8 16.9307 145.373 17.016C144.957 17.1013 144.509 17.144 144.029 17.144C143.485 17.144 142.973 17.0693 142.493 16.92C142.024 16.7707 141.608 16.5413 141.245 16.232C140.882 15.912 140.594 15.5067 140.381 15.016C140.178 14.5253 140.077 13.9387 140.077 13.256C140.077 12.6693 140.162 12.136 140.333 11.656C140.514 11.176 140.765 10.7707 141.085 10.44C141.405 10.0987 141.789 9.83733 142.237 9.656C142.696 9.464 143.208 9.368 143.773 9.368C144.253 9.368 144.685 9.448 145.069 9.608C145.464 9.768 145.8 9.992 146.077 10.28C146.354 10.568 146.568 10.9147 146.717 11.32C146.866 11.7253 146.941 12.1733 146.941 12.664V13.4ZM145.485 12.392C145.485 12.1147 145.448 11.8587 145.373 11.624C145.309 11.3787 145.202 11.1653 145.053 10.984C144.914 10.8027 144.733 10.6587 144.509 10.552C144.285 10.4453 144.013 10.392 143.693 10.392C143.106 10.392 142.626 10.5787 142.253 10.952C141.89 11.3253 141.666 11.816 141.581 12.424L145.485 12.392ZM145.613 5.96L143.997 8.104H142.845L143.965 5.96H145.613ZM148.492 11.976C148.492 11.56 148.566 11.192 148.716 10.872C148.865 10.5413 149.073 10.264 149.34 10.04C149.617 9.816 149.942 9.65067 150.316 9.544C150.689 9.42667 151.094 9.368 151.532 9.368C151.692 9.368 151.846 9.37867 151.996 9.4C152.145 9.42133 152.294 9.448 152.444 9.48H155.692V10.52H155.196L153.916 10.344C154.118 10.5573 154.273 10.8027 154.38 11.08C154.497 11.3573 154.556 11.6507 154.556 11.96C154.556 12.376 154.481 12.7493 154.332 13.08C154.182 13.4 153.974 13.672 153.708 13.896C153.441 14.12 153.121 14.2907 152.748 14.408C152.374 14.5147 151.969 14.568 151.532 14.568C151.201 14.568 150.913 14.5467 150.668 14.504C150.422 14.5893 150.252 14.7013 150.156 14.84C150.06 14.968 150.012 15.1067 150.012 15.256C150.012 15.5013 150.092 15.6667 150.252 15.752C150.422 15.8373 150.646 15.88 150.924 15.88H152.908C153.74 15.88 154.374 16.072 154.812 16.456C155.26 16.8293 155.484 17.3413 155.484 17.992C155.484 18.408 155.393 18.7813 155.212 19.112C155.03 19.4427 154.769 19.7253 154.428 19.96C154.097 20.1947 153.692 20.3707 153.212 20.488C152.732 20.616 152.193 20.68 151.596 20.68C150.508 20.68 149.638 20.4827 148.988 20.088C148.348 19.704 148.028 19.1333 148.028 18.376C148.028 17.9813 148.15 17.6507 148.396 17.384C148.652 17.1173 148.982 16.9147 149.388 16.776C149.174 16.6267 149.014 16.472 148.908 16.312C148.801 16.1413 148.748 15.9173 148.748 15.64C148.748 15.3093 148.844 15.0267 149.036 14.792C149.238 14.5573 149.51 14.3707 149.852 14.232C149.425 14.04 149.089 13.7627 148.844 13.4C148.609 13.0267 148.492 12.552 148.492 11.976ZM150.204 17C149.66 17.2453 149.388 17.6293 149.388 18.152C149.388 19.0907 150.145 19.56 151.66 19.56C152.108 19.56 152.486 19.5173 152.796 19.432C153.105 19.3467 153.356 19.2347 153.548 19.096C153.74 18.9573 153.878 18.8027 153.964 18.632C154.06 18.4613 154.108 18.2853 154.108 18.104C154.108 17.656 153.953 17.3573 153.644 17.208C153.345 17.0693 152.966 17 152.508 17H150.204ZM153.132 12.008C153.132 11.4427 152.982 11.0267 152.684 10.76C152.396 10.4933 152.012 10.36 151.532 10.36C151.052 10.36 150.662 10.4933 150.364 10.76C150.076 11.0267 149.932 11.4213 149.932 11.944C149.932 12.4987 150.076 12.9093 150.364 13.176C150.662 13.432 151.052 13.56 151.532 13.56C152.012 13.56 152.396 13.432 152.684 13.176C152.982 12.92 153.132 12.5307 153.132 12.008ZM157.484 17V9.48H158.892V17H157.484ZM158.188 7.544C157.943 7.544 157.729 7.464 157.548 7.304C157.377 7.13333 157.292 6.92533 157.292 6.68C157.292 6.43467 157.377 6.22667 157.548 6.056C157.729 5.88533 157.943 5.8 158.188 5.8C158.423 5.8 158.631 5.88533 158.812 6.056C158.993 6.22667 159.084 6.43467 159.084 6.68C159.084 6.92533 158.993 7.13333 158.812 7.304C158.631 7.464 158.423 7.544 158.188 7.544ZM164.765 16.056C165.107 16.056 165.405 16.0187 165.661 15.944C165.917 15.8693 166.168 15.7733 166.413 15.656L166.717 16.712C166.141 17 165.453 17.144 164.653 17.144C164.109 17.144 163.597 17.064 163.117 16.904C162.648 16.744 162.232 16.504 161.869 16.184C161.517 15.8533 161.24 15.448 161.037 14.968C160.835 14.4773 160.733 13.9067 160.733 13.256C160.733 12.6587 160.829 12.12 161.021 11.64C161.213 11.16 161.48 10.7547 161.821 10.424C162.163 10.0827 162.573 9.82133 163.053 9.64C163.533 9.45867 164.061 9.368 164.637 9.368C164.968 9.368 165.288 9.39467 165.597 9.448C165.917 9.49067 166.28 9.60267 166.685 9.784L166.365 10.856C165.875 10.5787 165.347 10.44 164.781 10.44C164.003 10.44 163.373 10.6853 162.893 11.176C162.413 11.656 162.173 12.3333 162.173 13.208C162.173 13.752 162.248 14.2053 162.397 14.568C162.547 14.9307 162.744 15.224 162.989 15.448C163.235 15.6613 163.512 15.816 163.821 15.912C164.131 16.008 164.445 16.056 164.765 16.056ZM168.277 10.152C168.533 10.024 168.773 9.912 168.997 9.816C169.221 9.70933 169.445 9.624 169.669 9.56C169.893 9.496 170.123 9.448 170.357 9.416C170.592 9.384 170.848 9.368 171.125 9.368C171.541 9.368 171.92 9.416 172.261 9.512C172.613 9.59733 172.912 9.74667 173.157 9.96C173.413 10.1733 173.611 10.456 173.749 10.808C173.888 11.1493 173.957 11.5813 173.957 12.104V17H172.789L172.613 16.168H172.581C172.251 16.52 171.888 16.7707 171.493 16.92C171.099 17.0693 170.661 17.144 170.181 17.144C169.819 17.144 169.483 17.096 169.173 17C168.875 16.8933 168.613 16.7493 168.389 16.568C168.165 16.376 167.989 16.1467 167.861 15.88C167.744 15.6133 167.685 15.3147 167.685 14.984C167.685 14.1947 167.995 13.5973 168.613 13.192C169.243 12.776 170.069 12.568 171.093 12.568H172.533V11.928C172.533 11.384 172.395 11.016 172.117 10.824C171.84 10.6213 171.467 10.52 170.997 10.52C170.72 10.52 170.4 10.568 170.037 10.664C169.685 10.7493 169.28 10.92 168.821 11.176L168.277 10.152ZM172.549 13.528L171.365 13.56C170.565 13.5813 169.995 13.7253 169.653 13.992C169.323 14.248 169.157 14.5627 169.157 14.936C169.157 15.16 169.195 15.352 169.269 15.512C169.344 15.6613 169.44 15.7787 169.557 15.864C169.685 15.9493 169.829 16.0133 169.989 16.056C170.16 16.088 170.336 16.104 170.517 16.104C170.869 16.104 171.227 16.024 171.589 15.864C171.952 15.6933 172.272 15.4267 172.549 15.064V13.528ZM180.25 10.888C179.898 10.7173 179.578 10.6 179.29 10.536C179.002 10.472 178.714 10.44 178.426 10.44C177.914 10.44 177.535 10.536 177.289 10.728C177.044 10.9093 176.922 11.1547 176.922 11.464C176.922 11.688 177.007 11.8853 177.178 12.056C177.348 12.216 177.706 12.376 178.25 12.536L178.73 12.68C179.444 12.8933 179.983 13.1707 180.346 13.512C180.719 13.8427 180.906 14.296 180.906 14.872C180.906 15.5547 180.65 16.104 180.138 16.52C179.636 16.936 178.932 17.144 178.026 17.144C177.546 17.144 177.082 17.1013 176.634 17.016C176.196 16.9307 175.818 16.8133 175.498 16.664L175.834 15.56C176.143 15.7093 176.479 15.832 176.842 15.928C177.204 16.0133 177.572 16.056 177.946 16.056C178.426 16.056 178.804 15.9707 179.082 15.8C179.37 15.6293 179.514 15.3467 179.514 14.952C179.514 14.6107 179.391 14.3707 179.146 14.232C178.9 14.0827 178.548 13.9387 178.09 13.8L177.594 13.64C176.9 13.416 176.383 13.1387 176.042 12.808C175.711 12.4667 175.546 12.0293 175.546 11.496C175.546 11.176 175.615 10.8827 175.754 10.616C175.892 10.3493 176.079 10.1253 176.314 9.944C176.559 9.76267 176.847 9.624 177.178 9.528C177.508 9.42133 177.871 9.368 178.266 9.368C178.639 9.368 179.023 9.40533 179.418 9.48C179.823 9.544 180.207 9.656 180.57 9.816L180.25 10.888ZM189.208 17.144C188.867 17.144 188.536 17.096 188.216 17C187.907 16.904 187.64 16.776 187.416 16.616V20.68H186.024V9.368H187.192L187.4 10.344C187.688 10.0773 188.013 9.848 188.376 9.656C188.739 9.464 189.165 9.368 189.656 9.368C190.659 9.368 191.448 9.688 192.024 10.328C192.6 10.968 192.888 11.8853 192.888 13.08C192.888 13.784 192.781 14.392 192.568 14.904C192.365 15.416 192.088 15.8373 191.736 16.168C191.395 16.4987 191 16.744 190.552 16.904C190.115 17.064 189.667 17.144 189.208 17.144ZM189.352 10.52C188.904 10.52 188.515 10.632 188.184 10.856C187.853 11.0693 187.597 11.288 187.416 11.512V15.528C187.661 15.7093 187.923 15.8427 188.2 15.928C188.477 16.0133 188.755 16.056 189.032 16.056C189.32 16.056 189.608 16.008 189.896 15.912C190.184 15.8053 190.44 15.6347 190.664 15.4C190.888 15.1653 191.069 14.8613 191.208 14.488C191.347 14.1147 191.416 13.656 191.416 13.112C191.416 12.312 191.245 11.6827 190.904 11.224C190.573 10.7547 190.056 10.52 189.352 10.52ZM194.556 17V9.48H195.612L195.852 10.984C196.033 10.504 196.332 10.1147 196.748 9.816C197.164 9.51733 197.644 9.368 198.188 9.368C198.465 9.368 198.695 9.38933 198.876 9.432C199.057 9.47467 199.223 9.528 199.372 9.592L199.1 10.824C198.972 10.76 198.828 10.7067 198.668 10.664C198.519 10.6213 198.337 10.6 198.124 10.6C197.815 10.6 197.527 10.6533 197.26 10.76C197.004 10.8667 196.775 11.0267 196.572 11.24C196.38 11.4533 196.225 11.72 196.108 12.04C196.001 12.3493 195.948 12.7067 195.948 13.112V17H194.556ZM206.551 13.4H201.159V13.464C201.159 14.296 201.383 14.936 201.831 15.384C202.289 15.832 202.908 16.056 203.687 16.056C204.092 16.056 204.449 16.024 204.759 15.96C205.079 15.896 205.425 15.7893 205.799 15.64L206.087 16.68C205.777 16.8187 205.409 16.9307 204.983 17.016C204.567 17.1013 204.119 17.144 203.639 17.144C203.095 17.144 202.583 17.0693 202.103 16.92C201.633 16.7707 201.217 16.5413 200.855 16.232C200.492 15.912 200.204 15.5067 199.991 15.016C199.788 14.5253 199.687 13.9387 199.687 13.256C199.687 12.6693 199.772 12.136 199.943 11.656C200.124 11.176 200.375 10.7707 200.695 10.44C201.015 10.0987 201.399 9.83733 201.847 9.656C202.305 9.464 202.817 9.368 203.383 9.368C203.863 9.368 204.295 9.448 204.679 9.608C205.073 9.768 205.409 9.992 205.687 10.28C205.964 10.568 206.177 10.9147 206.327 11.32C206.476 11.7253 206.551 12.1733 206.551 12.664V13.4ZM205.095 12.392C205.095 12.1147 205.057 11.8587 204.983 11.624C204.919 11.3787 204.812 11.1653 204.663 10.984C204.524 10.8027 204.343 10.6587 204.119 10.552C203.895 10.4453 203.623 10.392 203.303 10.392C202.716 10.392 202.236 10.5787 201.863 10.952C201.5 11.3253 201.276 11.816 201.191 12.424L205.095 12.392ZM211.781 16.056C212.122 16.056 212.421 16.0187 212.677 15.944C212.933 15.8693 213.184 15.7733 213.429 15.656L213.733 16.712C213.157 17 212.469 17.144 211.669 17.144C211.125 17.144 210.613 17.064 210.133 16.904C209.664 16.744 209.248 16.504 208.885 16.184C208.533 15.8533 208.256 15.448 208.053 14.968C207.85 14.4773 207.749 13.9067 207.749 13.256C207.749 12.6587 207.845 12.12 208.037 11.64C208.229 11.16 208.496 10.7547 208.837 10.424C209.178 10.0827 209.589 9.82133 210.069 9.64C210.549 9.45867 211.077 9.368 211.653 9.368C211.984 9.368 212.304 9.39467 212.613 9.448C212.933 9.49067 213.296 9.60267 213.701 9.784L213.381 10.856C212.89 10.5787 212.362 10.44 211.797 10.44C211.018 10.44 210.389 10.6853 209.909 11.176C209.429 11.656 209.189 12.3333 209.189 13.208C209.189 13.752 209.264 14.2053 209.413 14.568C209.562 14.9307 209.76 15.224 210.005 15.448C210.25 15.6613 210.528 15.816 210.837 15.912C211.146 16.008 211.461 16.056 211.781 16.056ZM215.515 17V9.48H216.923V17H215.515ZM216.219 7.544C215.974 7.544 215.76 7.464 215.579 7.304C215.408 7.13333 215.323 6.92533 215.323 6.68C215.323 6.43467 215.408 6.22667 215.579 6.056C215.76 5.88533 215.974 5.8 216.219 5.8C216.454 5.8 216.662 5.88533 216.843 6.056C217.024 6.22667 217.115 6.43467 217.115 6.68C217.115 6.92533 217.024 7.13333 216.843 7.304C216.662 7.464 216.454 7.544 216.219 7.544ZM223.453 10.888C223.101 10.7173 222.781 10.6 222.493 10.536C222.205 10.472 221.917 10.44 221.629 10.44C221.117 10.44 220.738 10.536 220.493 10.728C220.247 10.9093 220.125 11.1547 220.125 11.464C220.125 11.688 220.21 11.8853 220.381 12.056C220.551 12.216 220.909 12.376 221.453 12.536L221.933 12.68C222.647 12.8933 223.186 13.1707 223.549 13.512C223.922 13.8427 224.109 14.296 224.109 14.872C224.109 15.5547 223.853 16.104 223.341 16.52C222.839 16.936 222.135 17.144 221.229 17.144C220.749 17.144 220.285 17.1013 219.837 17.016C219.399 16.9307 219.021 16.8133 218.701 16.664L219.037 15.56C219.346 15.7093 219.682 15.832 220.045 15.928C220.407 16.0133 220.775 16.056 221.149 16.056C221.629 16.056 222.007 15.9707 222.285 15.8C222.573 15.6293 222.717 15.3467 222.717 14.952C222.717 14.6107 222.594 14.3707 222.349 14.232C222.103 14.0827 221.751 13.9387 221.293 13.8L220.797 13.64C220.103 13.416 219.586 13.1387 219.245 12.808C218.914 12.4667 218.749 12.0293 218.749 11.496C218.749 11.176 218.818 10.8827 218.957 10.616C219.095 10.3493 219.282 10.1253 219.517 9.944C219.762 9.76267 220.05 9.624 220.381 9.528C220.711 9.42133 221.074 9.368 221.469 9.368C221.842 9.368 222.226 9.40533 222.621 9.48C223.026 9.544 223.41 9.656 223.773 9.816L223.453 10.888ZM225.824 10.152C226.08 10.024 226.32 9.912 226.544 9.816C226.768 9.70933 226.992 9.624 227.216 9.56C227.44 9.496 227.67 9.448 227.904 9.416C228.139 9.384 228.395 9.368 228.672 9.368C229.088 9.368 229.467 9.416 229.808 9.512C230.16 9.59733 230.459 9.74667 230.704 9.96C230.96 10.1733 231.158 10.456 231.296 10.808C231.435 11.1493 231.504 11.5813 231.504 12.104V17H230.336L230.16 16.168H230.128C229.798 16.52 229.435 16.7707 229.04 16.92C228.646 17.0693 228.208 17.144 227.728 17.144C227.366 17.144 227.03 17.096 226.72 17C226.422 16.8933 226.16 16.7493 225.936 16.568C225.712 16.376 225.536 16.1467 225.408 15.88C225.291 15.6133 225.232 15.3147 225.232 14.984C225.232 14.1947 225.542 13.5973 226.16 13.192C226.79 12.776 227.616 12.568 228.64 12.568H230.08V11.928C230.08 11.384 229.942 11.016 229.664 10.824C229.387 10.6213 229.014 10.52 228.544 10.52C228.267 10.52 227.947 10.568 227.584 10.664C227.232 10.7493 226.827 10.92 226.368 11.176L225.824 10.152ZM230.096 13.528L228.912 13.56C228.112 13.5813 227.542 13.7253 227.2 13.992C226.87 14.248 226.704 14.5627 226.704 14.936C226.704 15.16 226.742 15.352 226.816 15.512C226.891 15.6613 226.987 15.7787 227.104 15.864C227.232 15.9493 227.376 16.0133 227.536 16.056C227.707 16.088 227.883 16.104 228.064 16.104C228.416 16.104 228.774 16.024 229.136 15.864C229.499 15.6933 229.819 15.4267 230.096 15.064V13.528ZM237.796 10.888C237.444 10.7173 237.124 10.6 236.836 10.536C236.548 10.472 236.26 10.44 235.972 10.44C235.46 10.44 235.082 10.536 234.836 10.728C234.591 10.9093 234.468 11.1547 234.468 11.464C234.468 11.688 234.554 11.8853 234.724 12.056C234.895 12.216 235.252 12.376 235.796 12.536L236.276 12.68C236.991 12.8933 237.53 13.1707 237.892 13.512C238.266 13.8427 238.452 14.296 238.452 14.872C238.452 15.5547 238.196 16.104 237.684 16.52C237.183 16.936 236.479 17.144 235.572 17.144C235.092 17.144 234.628 17.1013 234.18 17.016C233.743 16.9307 233.364 16.8133 233.044 16.664L233.38 15.56C233.69 15.7093 234.026 15.832 234.388 15.928C234.751 16.0133 235.119 16.056 235.492 16.056C235.972 16.056 236.351 15.9707 236.628 15.8C236.916 15.6293 237.06 15.3467 237.06 14.952C237.06 14.6107 236.938 14.3707 236.692 14.232C236.447 14.0827 236.095 13.9387 235.636 13.8L235.14 13.64C234.447 13.416 233.93 13.1387 233.588 12.808C233.258 12.4667 233.092 12.0293 233.092 11.496C233.092 11.176 233.162 10.8827 233.3 10.616C233.439 10.3493 233.626 10.1253 233.86 9.944C234.106 9.76267 234.394 9.624 234.724 9.528C235.055 9.42133 235.418 9.368 235.812 9.368C236.186 9.368 236.57 9.40533 236.964 9.48C237.37 9.544 237.754 9.656 238.116 9.816L237.796 10.888ZM239.864 16.136C239.864 15.8587 239.96 15.624 240.152 15.432C240.344 15.24 240.573 15.144 240.84 15.144C241.107 15.144 241.331 15.24 241.512 15.432C241.704 15.624 241.8 15.8587 241.8 16.136C241.8 16.4453 241.704 16.6907 241.512 16.872C241.331 17.0533 241.107 17.144 240.84 17.144C240.573 17.144 240.344 17.0533 240.152 16.872C239.96 16.6907 239.864 16.4453 239.864 16.136Z" fill="#EBEBEB"/>
</g>
<defs>
<linearGradient id="paint0_linear_589_707" x1="21" y1="7" x2="1" y2="22" gradientUnits="userSpaceOnUse">
<stop stop-color="#0077B6"/>
<stop offset="1" stop-color="#22A8C2" stop-opacity="0"/>
</linearGradient>
<linearGradient id="paint1_linear_589_707" x1="21" y1="4" x2="1.5" y2="14" gradientUnits="userSpaceOnUse">
<stop stop-color="#0077B6"/>
<stop offset="1" stop-color="#22A8C2" stop-opacity="0"/>
</linearGradient>
</defs>
</svg>
