<svg width="291" height="24" viewBox="0 0 291 24" fill="none" xmlns="http://www.w3.org/2000/svg">
<g id="check-item1">
<path id="circle-check" d="M21 11.0857V12.0057C20.9988 14.1621 20.3005 16.2604 19.0093 17.9875C17.7182 19.7147 15.9033 20.9782 13.8354 21.5896C11.7674 22.201 9.55726 22.1276 7.53447 21.3803C5.51168 20.633 3.78465 19.2518 2.61096 17.4428C1.43727 15.6338 0.879791 13.4938 1.02168 11.342C1.16356 9.19029 1.99721 7.14205 3.39828 5.5028C4.79935 3.86354 6.69279 2.72111 8.79619 2.24587C10.8996 1.77063 13.1003 1.98806 15.07 2.86572" stroke="url(#paint0_linear_585_588)" stroke-width="2" stroke-linecap="round" stroke-linejoin="round"/>
<path id="check-ok" d="M21 4.00586L11 14.0159L8 11.0159" stroke="url(#paint1_linear_585_588)" stroke-width="2" stroke-linecap="round" stroke-linejoin="round"/>
<path id="text-1" d="M38.872 6.92H40.792L42.904 13.352C43.0107 13.6613 43.112 13.9653 43.208 14.264C43.304 14.552 43.3947 14.8453 43.48 15.144H43.512C43.5973 14.8453 43.6827 14.5573 43.768 14.28C43.864 14.0027 43.9707 13.6933 44.088 13.352L46.152 6.92H48.072L48.952 17H47.48L47.064 11.656C47.0213 11.1333 46.9893 10.616 46.968 10.104C46.9467 9.58133 46.9253 9.05333 46.904 8.52H46.872C46.7227 9.04267 46.568 9.56533 46.408 10.088C46.2587 10.6107 46.0987 11.1333 45.928 11.656L44.152 17H42.808L41.032 11.64C40.8507 11.096 40.6853 10.5787 40.536 10.088C40.3867 9.58667 40.2373 9.064 40.088 8.52H40.056C40.0347 9.04267 40.0027 9.56533 39.96 10.088C39.928 10.6107 39.8907 11.1333 39.848 11.656L39.464 17H38.024L38.872 6.92ZM51.1368 10.152C51.3928 10.024 51.6328 9.912 51.8568 9.816C52.0808 9.70933 52.3048 9.624 52.5288 9.56C52.7528 9.496 52.9821 9.448 53.2168 9.416C53.4514 9.384 53.7074 9.368 53.9848 9.368C54.4008 9.368 54.7794 9.416 55.1208 9.512C55.4728 9.59733 55.7714 9.74667 56.0168 9.96C56.2728 10.1733 56.4701 10.456 56.6088 10.808C56.7474 11.1493 56.8168 11.5813 56.8168 12.104V17H55.6488L55.4728 16.168H55.4408C55.1101 16.52 54.7474 16.7707 54.3528 16.92C53.9581 17.0693 53.5208 17.144 53.0408 17.144C52.6781 17.144 52.3421 17.096 52.0328 17C51.7341 16.8933 51.4728 16.7493 51.2488 16.568C51.0248 16.376 50.8488 16.1467 50.7208 15.88C50.6034 15.6133 50.5448 15.3147 50.5448 14.984C50.5448 14.1947 50.8541 13.5973 51.4728 13.192C52.1021 12.776 52.9288 12.568 53.9528 12.568H55.3928V11.928C55.3928 11.384 55.2541 11.016 54.9768 10.824C54.6994 10.6213 54.3261 10.52 53.8568 10.52C53.5794 10.52 53.2594 10.568 52.8968 10.664C52.5448 10.7493 52.1394 10.92 51.6808 11.176L51.1368 10.152ZM55.4088 13.528L54.2248 13.56C53.4248 13.5813 52.8541 13.7253 52.5128 13.992C52.1821 14.248 52.0168 14.5627 52.0168 14.936C52.0168 15.16 52.0541 15.352 52.1288 15.512C52.2034 15.6613 52.2994 15.7787 52.4168 15.864C52.5448 15.9493 52.6888 16.0133 52.8488 16.056C53.0194 16.088 53.1954 16.104 53.3768 16.104C53.7288 16.104 54.0861 16.024 54.4488 15.864C54.8114 15.6933 55.1314 15.4267 55.4088 15.064V13.528ZM59.1089 17V9.48H60.5169V17H59.1089ZM59.8129 7.544C59.5675 7.544 59.3542 7.464 59.1729 7.304C59.0022 7.13333 58.9169 6.92533 58.9169 6.68C58.9169 6.43467 59.0022 6.22667 59.1729 6.056C59.3542 5.88533 59.5675 5.8 59.8129 5.8C60.0475 5.8 60.2555 5.88533 60.4369 6.056C60.6182 6.22667 60.7089 6.43467 60.7089 6.68C60.7089 6.92533 60.6182 7.13333 60.4369 7.304C60.2555 7.464 60.0475 7.544 59.8129 7.544ZM67.0464 10.888C66.6944 10.7173 66.3744 10.6 66.0864 10.536C65.7984 10.472 65.5104 10.44 65.2224 10.44C64.7104 10.44 64.3317 10.536 64.0864 10.728C63.841 10.9093 63.7184 11.1547 63.7184 11.464C63.7184 11.688 63.8037 11.8853 63.9744 12.056C64.145 12.216 64.5024 12.376 65.0464 12.536L65.5264 12.68C66.241 12.8933 66.7797 13.1707 67.1424 13.512C67.5157 13.8427 67.7024 14.296 67.7024 14.872C67.7024 15.5547 67.4464 16.104 66.9344 16.52C66.433 16.936 65.729 17.144 64.8224 17.144C64.3424 17.144 63.8784 17.1013 63.4304 17.016C62.993 16.9307 62.6144 16.8133 62.2944 16.664L62.6304 15.56C62.9397 15.7093 63.2757 15.832 63.6384 15.928C64.001 16.0133 64.369 16.056 64.7424 16.056C65.2224 16.056 65.601 15.9707 65.8784 15.8C66.1664 15.6293 66.3104 15.3467 66.3104 14.952C66.3104 14.6107 66.1877 14.3707 65.9424 14.232C65.697 14.0827 65.345 13.9387 64.8864 13.8L64.3904 13.64C63.697 13.416 63.1797 13.1387 62.8384 12.808C62.5077 12.4667 62.3424 12.0293 62.3424 11.496C62.3424 11.176 62.4117 10.8827 62.5504 10.616C62.689 10.3493 62.8757 10.1253 63.1104 9.944C63.3557 9.76267 63.6437 9.624 63.9744 9.528C64.305 9.42133 64.6677 9.368 65.0624 9.368C65.4357 9.368 65.8197 9.40533 66.2144 9.48C66.6197 9.544 67.0037 9.656 67.3664 9.816L67.0464 10.888ZM76.0049 17.144C75.6635 17.144 75.3329 17.096 75.0129 17C74.7035 16.904 74.4369 16.776 74.2129 16.616V20.68H72.8209V9.368H73.9889L74.1969 10.344C74.4849 10.0773 74.8102 9.848 75.1729 9.656C75.5355 9.464 75.9622 9.368 76.4529 9.368C77.4555 9.368 78.2449 9.688 78.8209 10.328C79.3969 10.968 79.6849 11.8853 79.6849 13.08C79.6849 13.784 79.5782 14.392 79.3649 14.904C79.1622 15.416 78.8849 15.8373 78.5329 16.168C78.1915 16.4987 77.7969 16.744 77.3489 16.904C76.9115 17.064 76.4635 17.144 76.0049 17.144ZM76.1489 10.52C75.7009 10.52 75.3115 10.632 74.9809 10.856C74.6502 11.0693 74.3942 11.288 74.2129 11.512V15.528C74.4582 15.7093 74.7195 15.8427 74.9969 15.928C75.2742 16.0133 75.5515 16.056 75.8289 16.056C76.1169 16.056 76.4049 16.008 76.6929 15.912C76.9809 15.8053 77.2369 15.6347 77.4609 15.4C77.6849 15.1653 77.8662 14.8613 78.0049 14.488C78.1435 14.1147 78.2129 13.656 78.2129 13.112C78.2129 12.312 78.0422 11.6827 77.7009 11.224C77.3702 10.7547 76.8529 10.52 76.1489 10.52ZM81.3529 17V9.48H82.4089L82.6489 10.984C82.8302 10.504 83.1289 10.1147 83.5449 9.816C83.9609 9.51733 84.4409 9.368 84.9849 9.368C85.2622 9.368 85.4915 9.38933 85.6729 9.432C85.8542 9.47467 86.0195 9.528 86.1689 9.592L85.8969 10.824C85.7689 10.76 85.6249 10.7067 85.4649 10.664C85.3155 10.6213 85.1342 10.6 84.9209 10.6C84.6115 10.6 84.3235 10.6533 84.0569 10.76C83.8009 10.8667 83.5715 11.0267 83.3689 11.24C83.1769 11.4533 83.0222 11.72 82.9049 12.04C82.7982 12.3493 82.7449 12.7067 82.7449 13.112V17H81.3529ZM93.8278 13.16C93.8278 13.7893 93.7318 14.3547 93.5398 14.856C93.3478 15.3467 93.0811 15.7627 92.7398 16.104C92.4091 16.4453 92.0198 16.7067 91.5718 16.888C91.1238 17.0587 90.6384 17.144 90.1158 17.144C89.5931 17.144 89.1078 17.064 88.6598 16.904C88.2224 16.7333 87.8384 16.488 87.5078 16.168C87.1878 15.8373 86.9318 15.4373 86.7398 14.968C86.5584 14.488 86.4678 13.9387 86.4678 13.32C86.4678 12.6907 86.5638 12.1307 86.7558 11.64C86.9478 11.1493 87.2091 10.7387 87.5398 10.408C87.8811 10.0667 88.2758 9.81067 88.7238 9.64C89.1718 9.45867 89.6571 9.368 90.1798 9.368C90.7024 9.368 91.1824 9.448 91.6198 9.608C92.0678 9.768 92.4518 10.008 92.7718 10.328C93.1024 10.648 93.3584 11.048 93.5398 11.528C93.7318 11.9973 93.8278 12.5413 93.8278 13.16ZM92.3558 13.24C92.3558 12.7387 92.2918 12.312 92.1638 11.96C92.0358 11.608 91.8651 11.32 91.6518 11.096C91.4491 10.872 91.2144 10.712 90.9478 10.616C90.6811 10.5093 90.4091 10.456 90.1318 10.456C89.8544 10.456 89.5824 10.4987 89.3158 10.584C89.0491 10.6693 88.8144 10.8187 88.6118 11.032C88.4091 11.2453 88.2438 11.5333 88.1158 11.896C87.9984 12.248 87.9398 12.696 87.9398 13.24C87.9398 13.7413 88.0038 14.1733 88.1318 14.536C88.2598 14.888 88.4251 15.176 88.6278 15.4C88.8411 15.624 89.0811 15.7893 89.3478 15.896C89.6144 16.0027 89.8864 16.056 90.1638 16.056C90.4411 16.056 90.7131 16.0133 90.9798 15.928C91.2464 15.832 91.4811 15.6773 91.6838 15.464C91.8864 15.24 92.0464 14.952 92.1638 14.6C92.2918 14.2373 92.3558 13.784 92.3558 13.24ZM100.533 5.64H101.941V17H100.757L100.581 16.168H100.533C100.202 16.5093 99.8665 16.76 99.5251 16.92C99.1945 17.0693 98.7731 17.144 98.2611 17.144C97.8558 17.144 97.4611 17.064 97.0771 16.904C96.7038 16.744 96.3678 16.504 96.0691 16.184C95.7705 15.864 95.5305 15.464 95.3491 14.984C95.1678 14.4933 95.0771 13.9173 95.0771 13.256C95.0771 12.6693 95.1518 12.136 95.3011 11.656C95.4611 11.176 95.6851 10.7653 95.9731 10.424C96.2611 10.0827 96.6131 9.82133 97.0291 9.64C97.4451 9.45867 97.9198 9.368 98.4531 9.368C98.8478 9.368 99.2211 9.432 99.5731 9.56C99.9358 9.67733 100.256 9.85867 100.533 10.104V5.64ZM100.533 11.288C100.032 10.7227 99.4398 10.44 98.7571 10.44C98.4691 10.44 98.1865 10.4933 97.9091 10.6C97.6425 10.696 97.4025 10.856 97.1891 11.08C96.9865 11.304 96.8211 11.592 96.6931 11.944C96.5651 12.296 96.5011 12.7173 96.5011 13.208C96.5011 13.72 96.5598 14.1573 96.6771 14.52C96.7945 14.872 96.9491 15.1653 97.1411 15.4C97.3438 15.624 97.5678 15.7893 97.8131 15.896C98.0691 16.0027 98.3251 16.056 98.5811 16.056C99.3811 16.056 100.032 15.7093 100.533 15.016V11.288ZM109.159 9.48H110.567V17H109.463L109.271 16.056H109.207C108.93 16.3653 108.583 16.6267 108.167 16.84C107.762 17.0427 107.287 17.144 106.743 17.144C105.965 17.144 105.33 16.9253 104.839 16.488C104.359 16.04 104.119 15.368 104.119 14.472V9.48H105.527V14.296C105.527 14.616 105.565 14.888 105.639 15.112C105.725 15.336 105.831 15.5173 105.959 15.656C106.098 15.784 106.258 15.88 106.439 15.944C106.621 15.9973 106.818 16.024 107.031 16.024C107.458 16.024 107.842 15.9333 108.183 15.752C108.525 15.5707 108.85 15.32 109.159 15V9.48ZM116.696 10.536H114.488V14.904C114.488 15.2773 114.579 15.528 114.76 15.656C114.952 15.784 115.198 15.848 115.496 15.848C115.71 15.848 115.944 15.8267 116.2 15.784C116.456 15.7307 116.68 15.672 116.872 15.608L117.096 16.68C116.883 16.7653 116.611 16.84 116.28 16.904C115.95 16.968 115.603 17 115.24 17C114.494 17 113.95 16.84 113.608 16.52C113.267 16.1893 113.096 15.7147 113.096 15.096V10.536H111.976V9.48H113.096V7.08H114.488V9.48H116.696V10.536ZM118.796 17V9.48H120.204V17H118.796ZM119.5 7.544C119.255 7.544 119.042 7.464 118.86 7.304C118.69 7.13333 118.604 6.92533 118.604 6.68C118.604 6.43467 118.69 6.22667 118.86 6.056C119.042 5.88533 119.255 5.8 119.5 5.8C119.735 5.8 119.943 5.88533 120.124 6.056C120.306 6.22667 120.396 6.43467 120.396 6.68C120.396 6.92533 120.306 7.13333 120.124 7.304C119.943 7.464 119.735 7.544 119.5 7.544ZM127.134 9.48H128.638L125.838 17H124.462L121.63 9.48H123.15L124.846 14.648L125.134 15.832H125.198L125.47 14.664L127.134 9.48ZM130.14 17V9.48H131.548V17H130.14ZM130.844 7.544C130.599 7.544 130.385 7.464 130.204 7.304C130.033 7.13333 129.948 6.92533 129.948 6.68C129.948 6.43467 130.033 6.22667 130.204 6.056C130.385 5.88533 130.599 5.8 130.844 5.8C131.079 5.8 131.287 5.88533 131.468 6.056C131.649 6.22667 131.74 6.43467 131.74 6.68C131.74 6.92533 131.649 7.13333 131.468 7.304C131.287 7.464 131.079 7.544 130.844 7.544ZM138.846 5.64H140.254V17H139.07L138.894 16.168H138.846C138.515 16.5093 138.179 16.76 137.838 16.92C137.507 17.0693 137.086 17.144 136.574 17.144C136.168 17.144 135.774 17.064 135.39 16.904C135.016 16.744 134.68 16.504 134.382 16.184C134.083 15.864 133.843 15.464 133.662 14.984C133.48 14.4933 133.39 13.9173 133.39 13.256C133.39 12.6693 133.464 12.136 133.614 11.656C133.774 11.176 133.998 10.7653 134.286 10.424C134.574 10.0827 134.926 9.82133 135.342 9.64C135.758 9.45867 136.232 9.368 136.766 9.368C137.16 9.368 137.534 9.432 137.886 9.56C138.248 9.67733 138.568 9.85867 138.846 10.104V5.64ZM138.846 11.288C138.344 10.7227 137.752 10.44 137.07 10.44C136.782 10.44 136.499 10.4933 136.222 10.6C135.955 10.696 135.715 10.856 135.502 11.08C135.299 11.304 135.134 11.592 135.006 11.944C134.878 12.296 134.814 12.7173 134.814 13.208C134.814 13.72 134.872 14.1573 134.99 14.52C135.107 14.872 135.262 15.1653 135.454 15.4C135.656 15.624 135.88 15.7893 136.126 15.896C136.382 16.0027 136.638 16.056 136.894 16.056C137.694 16.056 138.344 15.7093 138.846 15.016V11.288ZM142.512 10.152C142.768 10.024 143.008 9.912 143.232 9.816C143.456 9.70933 143.68 9.624 143.904 9.56C144.128 9.496 144.357 9.448 144.592 9.416C144.826 9.384 145.082 9.368 145.36 9.368C145.776 9.368 146.154 9.416 146.496 9.512C146.848 9.59733 147.146 9.74667 147.392 9.96C147.648 10.1733 147.845 10.456 147.984 10.808C148.122 11.1493 148.192 11.5813 148.192 12.104V17H147.024L146.848 16.168H146.816C146.485 16.52 146.122 16.7707 145.728 16.92C145.333 17.0693 144.896 17.144 144.416 17.144C144.053 17.144 143.717 17.096 143.408 17C143.109 16.8933 142.848 16.7493 142.624 16.568C142.4 16.376 142.224 16.1467 142.096 15.88C141.978 15.6133 141.92 15.3147 141.92 14.984C141.92 14.1947 142.229 13.5973 142.848 13.192C143.477 12.776 144.304 12.568 145.328 12.568H146.768V11.928C146.768 11.384 146.629 11.016 146.352 10.824C146.074 10.6213 145.701 10.52 145.232 10.52C144.954 10.52 144.634 10.568 144.272 10.664C143.92 10.7493 143.514 10.92 143.056 11.176L142.512 10.152ZM146.784 13.528L145.6 13.56C144.8 13.5813 144.229 13.7253 143.888 13.992C143.557 14.248 143.392 14.5627 143.392 14.936C143.392 15.16 143.429 15.352 143.504 15.512C143.578 15.6613 143.674 15.7787 143.792 15.864C143.92 15.9493 144.064 16.0133 144.224 16.056C144.394 16.088 144.57 16.104 144.752 16.104C145.104 16.104 145.461 16.024 145.824 15.864C146.186 15.6933 146.506 15.4267 146.784 15.064V13.528ZM155.252 5.64H156.66V17H155.476L155.3 16.168H155.252C154.921 16.5093 154.585 16.76 154.244 16.92C153.913 17.0693 153.492 17.144 152.98 17.144C152.575 17.144 152.18 17.064 151.796 16.904C151.423 16.744 151.087 16.504 150.788 16.184C150.489 15.864 150.249 15.464 150.068 14.984C149.887 14.4933 149.796 13.9173 149.796 13.256C149.796 12.6693 149.871 12.136 150.02 11.656C150.18 11.176 150.404 10.7653 150.692 10.424C150.98 10.0827 151.332 9.82133 151.748 9.64C152.164 9.45867 152.639 9.368 153.172 9.368C153.567 9.368 153.94 9.432 154.292 9.56C154.655 9.67733 154.975 9.85867 155.252 10.104V5.64ZM155.252 11.288C154.751 10.7227 154.159 10.44 153.476 10.44C153.188 10.44 152.905 10.4933 152.628 10.6C152.361 10.696 152.121 10.856 151.908 11.08C151.705 11.304 151.54 11.592 151.412 11.944C151.284 12.296 151.22 12.7173 151.22 13.208C151.22 13.72 151.279 14.1573 151.396 14.52C151.513 14.872 151.668 15.1653 151.86 15.4C152.063 15.624 152.287 15.7893 152.532 15.896C152.788 16.0027 153.044 16.056 153.3 16.056C154.1 16.056 154.751 15.7093 155.252 15.016V11.288ZM165.238 13.4H159.846V13.464C159.846 14.296 160.07 14.936 160.518 15.384C160.977 15.832 161.595 16.056 162.374 16.056C162.779 16.056 163.137 16.024 163.446 15.96C163.766 15.896 164.113 15.7893 164.486 15.64L164.774 16.68C164.465 16.8187 164.097 16.9307 163.67 17.016C163.254 17.1013 162.806 17.144 162.326 17.144C161.782 17.144 161.27 17.0693 160.79 16.92C160.321 16.7707 159.905 16.5413 159.542 16.232C159.179 15.912 158.891 15.5067 158.678 15.016C158.475 14.5253 158.374 13.9387 158.374 13.256C158.374 12.6693 158.459 12.136 158.63 11.656C158.811 11.176 159.062 10.7707 159.382 10.44C159.702 10.0987 160.086 9.83733 160.534 9.656C160.993 9.464 161.505 9.368 162.07 9.368C162.55 9.368 162.982 9.448 163.366 9.608C163.761 9.768 164.097 9.992 164.374 10.28C164.651 10.568 164.865 10.9147 165.014 11.32C165.163 11.7253 165.238 12.1733 165.238 12.664V13.4ZM163.782 12.392C163.782 12.1147 163.745 11.8587 163.67 11.624C163.606 11.3787 163.499 11.1653 163.35 10.984C163.211 10.8027 163.03 10.6587 162.806 10.552C162.582 10.4453 162.31 10.392 161.99 10.392C161.403 10.392 160.923 10.5787 160.55 10.952C160.187 11.3253 159.963 11.816 159.878 12.424L163.782 12.392ZM173.567 17.144C173.226 17.144 172.895 17.096 172.575 17C172.266 16.904 171.999 16.776 171.775 16.616V20.68H170.383V9.368H171.551L171.759 10.344C172.047 10.0773 172.373 9.848 172.735 9.656C173.098 9.464 173.525 9.368 174.015 9.368C175.018 9.368 175.807 9.688 176.383 10.328C176.959 10.968 177.247 11.8853 177.247 13.08C177.247 13.784 177.141 14.392 176.927 14.904C176.725 15.416 176.447 15.8373 176.095 16.168C175.754 16.4987 175.359 16.744 174.911 16.904C174.474 17.064 174.026 17.144 173.567 17.144ZM173.711 10.52C173.263 10.52 172.874 10.632 172.543 10.856C172.213 11.0693 171.957 11.288 171.775 11.512V15.528C172.021 15.7093 172.282 15.8427 172.559 15.928C172.837 16.0133 173.114 16.056 173.391 16.056C173.679 16.056 173.967 16.008 174.255 15.912C174.543 15.8053 174.799 15.6347 175.023 15.4C175.247 15.1653 175.429 14.8613 175.567 14.488C175.706 14.1147 175.775 13.656 175.775 13.112C175.775 12.312 175.605 11.6827 175.263 11.224C174.933 10.7547 174.415 10.52 173.711 10.52ZM179.027 10.152C179.283 10.024 179.523 9.912 179.747 9.816C179.971 9.70933 180.195 9.624 180.419 9.56C180.643 9.496 180.873 9.448 181.107 9.416C181.342 9.384 181.598 9.368 181.875 9.368C182.291 9.368 182.67 9.416 183.011 9.512C183.363 9.59733 183.662 9.74667 183.907 9.96C184.163 10.1733 184.361 10.456 184.499 10.808C184.638 11.1493 184.707 11.5813 184.707 12.104V17H183.539L183.363 16.168H183.331C183.001 16.52 182.638 16.7707 182.243 16.92C181.849 17.0693 181.411 17.144 180.931 17.144C180.569 17.144 180.233 17.096 179.923 17C179.625 16.8933 179.363 16.7493 179.139 16.568C178.915 16.376 178.739 16.1467 178.611 15.88C178.494 15.6133 178.435 15.3147 178.435 14.984C178.435 14.1947 178.745 13.5973 179.363 13.192C179.993 12.776 180.819 12.568 181.843 12.568H183.283V11.928C183.283 11.384 183.145 11.016 182.867 10.824C182.59 10.6213 182.217 10.52 181.747 10.52C181.47 10.52 181.15 10.568 180.787 10.664C180.435 10.7493 180.03 10.92 179.571 11.176L179.027 10.152ZM183.299 13.528L182.115 13.56C181.315 13.5813 180.745 13.7253 180.403 13.992C180.073 14.248 179.907 14.5627 179.907 14.936C179.907 15.16 179.945 15.352 180.019 15.512C180.094 15.6613 180.19 15.7787 180.307 15.864C180.435 15.9493 180.579 16.0133 180.739 16.056C180.91 16.088 181.086 16.104 181.267 16.104C181.619 16.104 181.977 16.024 182.339 15.864C182.702 15.6933 183.022 15.4267 183.299 15.064V13.528ZM186.743 17V9.48H187.799L188.039 10.984C188.221 10.504 188.52 10.1147 188.936 9.816C189.352 9.51733 189.832 9.368 190.376 9.368C190.653 9.368 190.882 9.38933 191.064 9.432C191.245 9.47467 191.41 9.528 191.56 9.592L191.288 10.824C191.16 10.76 191.016 10.7067 190.856 10.664C190.706 10.6213 190.525 10.6 190.312 10.6C190.002 10.6 189.714 10.6533 189.448 10.76C189.192 10.8667 188.962 11.0267 188.76 11.24C188.568 11.4533 188.413 11.72 188.296 12.04C188.189 12.3493 188.136 12.7067 188.136 13.112V17H186.743ZM192.574 10.152C192.83 10.024 193.07 9.912 193.294 9.816C193.518 9.70933 193.742 9.624 193.966 9.56C194.19 9.496 194.42 9.448 194.654 9.416C194.889 9.384 195.145 9.368 195.422 9.368C195.838 9.368 196.217 9.416 196.558 9.512C196.91 9.59733 197.209 9.74667 197.454 9.96C197.71 10.1733 197.908 10.456 198.046 10.808C198.185 11.1493 198.254 11.5813 198.254 12.104V17H197.086L196.91 16.168H196.878C196.548 16.52 196.185 16.7707 195.79 16.92C195.396 17.0693 194.958 17.144 194.478 17.144C194.116 17.144 193.78 17.096 193.47 17C193.172 16.8933 192.91 16.7493 192.686 16.568C192.462 16.376 192.286 16.1467 192.158 15.88C192.041 15.6133 191.982 15.3147 191.982 14.984C191.982 14.1947 192.292 13.5973 192.91 13.192C193.54 12.776 194.366 12.568 195.39 12.568H196.83V11.928C196.83 11.384 196.692 11.016 196.414 10.824C196.137 10.6213 195.764 10.52 195.294 10.52C195.017 10.52 194.697 10.568 194.334 10.664C193.982 10.7493 193.577 10.92 193.118 11.176L192.574 10.152ZM196.846 13.528L195.662 13.56C194.862 13.5813 194.292 13.7253 193.95 13.992C193.62 14.248 193.454 14.5627 193.454 14.936C193.454 15.16 193.492 15.352 193.566 15.512C193.641 15.6613 193.737 15.7787 193.854 15.864C193.982 15.9493 194.126 16.0133 194.286 16.056C194.457 16.088 194.633 16.104 194.814 16.104C195.166 16.104 195.524 16.024 195.886 15.864C196.249 15.6933 196.569 15.4267 196.846 15.064V13.528ZM208.093 10.888C207.741 10.7173 207.421 10.6 207.133 10.536C206.845 10.472 206.557 10.44 206.269 10.44C205.757 10.44 205.379 10.536 205.133 10.728C204.888 10.9093 204.765 11.1547 204.765 11.464C204.765 11.688 204.851 11.8853 205.021 12.056C205.192 12.216 205.549 12.376 206.093 12.536L206.573 12.68C207.288 12.8933 207.827 13.1707 208.189 13.512C208.563 13.8427 208.749 14.296 208.749 14.872C208.749 15.5547 208.493 16.104 207.981 16.52C207.48 16.936 206.776 17.144 205.869 17.144C205.389 17.144 204.925 17.1013 204.477 17.016C204.04 16.9307 203.661 16.8133 203.341 16.664L203.677 15.56C203.987 15.7093 204.323 15.832 204.685 15.928C205.048 16.0133 205.416 16.056 205.789 16.056C206.269 16.056 206.648 15.9707 206.925 15.8C207.213 15.6293 207.357 15.3467 207.357 14.952C207.357 14.6107 207.235 14.3707 206.989 14.232C206.744 14.0827 206.392 13.9387 205.933 13.8L205.437 13.64C204.744 13.416 204.227 13.1387 203.885 12.808C203.555 12.4667 203.389 12.0293 203.389 11.496C203.389 11.176 203.459 10.8827 203.597 10.616C203.736 10.3493 203.923 10.1253 204.157 9.944C204.403 9.76267 204.691 9.624 205.021 9.528C205.352 9.42133 205.715 9.368 206.109 9.368C206.483 9.368 206.867 9.40533 207.261 9.48C207.667 9.544 208.051 9.656 208.413 9.816L208.093 10.888ZM215.425 9.48H216.833V17H215.729L215.537 16.056H215.473C215.196 16.3653 214.849 16.6267 214.433 16.84C214.028 17.0427 213.553 17.144 213.009 17.144C212.23 17.144 211.596 16.9253 211.105 16.488C210.625 16.04 210.385 15.368 210.385 14.472V9.48H211.793V14.296C211.793 14.616 211.83 14.888 211.905 15.112C211.99 15.336 212.097 15.5173 212.225 15.656C212.364 15.784 212.524 15.88 212.705 15.944C212.886 15.9973 213.084 16.024 213.297 16.024C213.724 16.024 214.108 15.9333 214.449 15.752C214.79 15.5707 215.116 15.32 215.425 15V9.48ZM219.09 10.152C219.346 10.024 219.586 9.912 219.81 9.816C220.034 9.70933 220.258 9.624 220.482 9.56C220.706 9.496 220.935 9.448 221.17 9.416C221.405 9.384 221.661 9.368 221.938 9.368C222.354 9.368 222.733 9.416 223.074 9.512C223.426 9.59733 223.725 9.74667 223.97 9.96C224.226 10.1733 224.423 10.456 224.562 10.808C224.701 11.1493 224.77 11.5813 224.77 12.104V17H223.602L223.426 16.168H223.394C223.063 16.52 222.701 16.7707 222.306 16.92C221.911 17.0693 221.474 17.144 220.994 17.144C220.631 17.144 220.295 17.096 219.986 17C219.687 16.8933 219.426 16.7493 219.202 16.568C218.978 16.376 218.802 16.1467 218.674 15.88C218.557 15.6133 218.498 15.3147 218.498 14.984C218.498 14.1947 218.807 13.5973 219.426 13.192C220.055 12.776 220.882 12.568 221.906 12.568H223.346V11.928C223.346 11.384 223.207 11.016 222.93 10.824C222.653 10.6213 222.279 10.52 221.81 10.52C221.533 10.52 221.213 10.568 220.85 10.664C220.498 10.7493 220.093 10.92 219.634 11.176L219.09 10.152ZM223.362 13.528L222.178 13.56C221.378 13.5813 220.807 13.7253 220.466 13.992C220.135 14.248 219.97 14.5627 219.97 14.936C219.97 15.16 220.007 15.352 220.082 15.512C220.157 15.6613 220.253 15.7787 220.37 15.864C220.498 15.9493 220.642 16.0133 220.802 16.056C220.973 16.088 221.149 16.104 221.33 16.104C221.682 16.104 222.039 16.024 222.402 15.864C222.765 15.6933 223.085 15.4267 223.362 15.064V13.528ZM236.785 13.4H231.393V13.464C231.393 14.296 231.617 14.936 232.065 15.384C232.524 15.832 233.142 16.056 233.921 16.056C234.326 16.056 234.684 16.024 234.993 15.96C235.313 15.896 235.66 15.7893 236.033 15.64L236.321 16.68C236.012 16.8187 235.644 16.9307 235.217 17.016C234.801 17.1013 234.353 17.144 233.873 17.144C233.329 17.144 232.817 17.0693 232.337 16.92C231.868 16.7707 231.452 16.5413 231.089 16.232C230.726 15.912 230.438 15.5067 230.225 15.016C230.022 14.5253 229.921 13.9387 229.921 13.256C229.921 12.6693 230.006 12.136 230.177 11.656C230.358 11.176 230.609 10.7707 230.929 10.44C231.249 10.0987 231.633 9.83733 232.081 9.656C232.54 9.464 233.052 9.368 233.617 9.368C234.097 9.368 234.529 9.448 234.913 9.608C235.308 9.768 235.644 9.992 235.921 10.28C236.198 10.568 236.412 10.9147 236.561 11.32C236.71 11.7253 236.785 12.1733 236.785 12.664V13.4ZM235.329 12.392C235.329 12.1147 235.292 11.8587 235.217 11.624C235.153 11.3787 235.046 11.1653 234.897 10.984C234.758 10.8027 234.577 10.6587 234.353 10.552C234.129 10.4453 233.857 10.392 233.537 10.392C232.95 10.392 232.47 10.5787 232.097 10.952C231.734 11.3253 231.51 11.816 231.425 12.424L235.329 12.392ZM239.855 17H238.447V9.48H239.535L239.743 10.52C240.095 10.168 240.474 9.89067 240.879 9.688C241.285 9.47467 241.77 9.368 242.335 9.368C242.869 9.368 243.306 9.48 243.647 9.704C243.989 9.91733 244.245 10.216 244.415 10.6C244.789 10.2053 245.199 9.90133 245.647 9.688C246.095 9.47467 246.591 9.368 247.135 9.368C247.903 9.368 248.479 9.58667 248.863 10.024C249.258 10.4507 249.455 11.048 249.455 11.816V17H248.047V12.072C248.047 11.5707 247.941 11.1867 247.727 10.92C247.514 10.6533 247.162 10.52 246.671 10.52C245.946 10.52 245.269 10.8453 244.639 11.496C244.65 11.5493 244.655 11.6027 244.655 11.656C244.655 11.7093 244.655 11.7627 244.655 11.816V17H243.247V12.072C243.247 11.5707 243.141 11.1867 242.927 10.92C242.714 10.6533 242.362 10.52 241.871 10.52C241.146 10.52 240.474 10.8613 239.855 11.544V17ZM254.755 17.144C254.414 17.144 254.083 17.096 253.763 17C253.454 16.904 253.187 16.776 252.963 16.616V20.68H251.571V9.368H252.739L252.947 10.344C253.235 10.0773 253.56 9.848 253.923 9.656C254.286 9.464 254.712 9.368 255.203 9.368C256.206 9.368 256.995 9.688 257.571 10.328C258.147 10.968 258.435 11.8853 258.435 13.08C258.435 13.784 258.328 14.392 258.115 14.904C257.912 15.416 257.635 15.8373 257.283 16.168C256.942 16.4987 256.547 16.744 256.099 16.904C255.662 17.064 255.214 17.144 254.755 17.144ZM254.899 10.52C254.451 10.52 254.062 10.632 253.731 10.856C253.4 11.0693 253.144 11.288 252.963 11.512V15.528C253.208 15.7093 253.47 15.8427 253.747 15.928C254.024 16.0133 254.302 16.056 254.579 16.056C254.867 16.056 255.155 16.008 255.443 15.912C255.731 15.8053 255.987 15.6347 256.211 15.4C256.435 15.1653 256.616 14.8613 256.755 14.488C256.894 14.1147 256.963 13.656 256.963 13.112C256.963 12.312 256.792 11.6827 256.451 11.224C256.12 10.7547 255.603 10.52 254.899 10.52ZM260.103 17V9.48H261.159L261.399 10.984C261.58 10.504 261.879 10.1147 262.295 9.816C262.711 9.51733 263.191 9.368 263.735 9.368C264.012 9.368 264.242 9.38933 264.423 9.432C264.604 9.47467 264.77 9.528 264.919 9.592L264.647 10.824C264.519 10.76 264.375 10.7067 264.215 10.664C264.066 10.6213 263.884 10.6 263.671 10.6C263.362 10.6 263.074 10.6533 262.807 10.76C262.551 10.8667 262.322 11.0267 262.119 11.24C261.927 11.4533 261.772 11.72 261.655 12.04C261.548 12.3493 261.495 12.7067 261.495 13.112V17H260.103ZM272.097 13.4H266.705V13.464C266.705 14.296 266.929 14.936 267.377 15.384C267.836 15.832 268.455 16.056 269.233 16.056C269.639 16.056 269.996 16.024 270.305 15.96C270.625 15.896 270.972 15.7893 271.345 15.64L271.633 16.68C271.324 16.8187 270.956 16.9307 270.529 17.016C270.113 17.1013 269.665 17.144 269.185 17.144C268.641 17.144 268.129 17.0693 267.649 16.92C267.18 16.7707 266.764 16.5413 266.401 16.232C266.039 15.912 265.751 15.5067 265.537 15.016C265.335 14.5253 265.233 13.9387 265.233 13.256C265.233 12.6693 265.319 12.136 265.489 11.656C265.671 11.176 265.921 10.7707 266.241 10.44C266.561 10.0987 266.945 9.83733 267.393 9.656C267.852 9.464 268.364 9.368 268.929 9.368C269.409 9.368 269.841 9.448 270.225 9.608C270.62 9.768 270.956 9.992 271.233 10.28C271.511 10.568 271.724 10.9147 271.873 11.32C272.023 11.7253 272.097 12.1733 272.097 12.664V13.4ZM270.641 12.392C270.641 12.1147 270.604 11.8587 270.529 11.624C270.465 11.3787 270.359 11.1653 270.209 10.984C270.071 10.8027 269.889 10.6587 269.665 10.552C269.441 10.4453 269.169 10.392 268.849 10.392C268.263 10.392 267.783 10.5787 267.409 10.952C267.047 11.3253 266.823 11.816 266.737 12.424L270.641 12.392ZM277.984 10.888C277.632 10.7173 277.312 10.6 277.024 10.536C276.736 10.472 276.448 10.44 276.16 10.44C275.648 10.44 275.269 10.536 275.024 10.728C274.779 10.9093 274.656 11.1547 274.656 11.464C274.656 11.688 274.741 11.8853 274.912 12.056C275.083 12.216 275.44 12.376 275.984 12.536L276.464 12.68C277.179 12.8933 277.717 13.1707 278.08 13.512C278.453 13.8427 278.64 14.296 278.64 14.872C278.64 15.5547 278.384 16.104 277.872 16.52C277.371 16.936 276.667 17.144 275.76 17.144C275.28 17.144 274.816 17.1013 274.368 17.016C273.931 16.9307 273.552 16.8133 273.232 16.664L273.568 15.56C273.877 15.7093 274.213 15.832 274.576 15.928C274.939 16.0133 275.307 16.056 275.68 16.056C276.16 16.056 276.539 15.9707 276.816 15.8C277.104 15.6293 277.248 15.3467 277.248 14.952C277.248 14.6107 277.125 14.3707 276.88 14.232C276.635 14.0827 276.283 13.9387 275.824 13.8L275.328 13.64C274.635 13.416 274.117 13.1387 273.776 12.808C273.445 12.4667 273.28 12.0293 273.28 11.496C273.28 11.176 273.349 10.8827 273.488 10.616C273.627 10.3493 273.813 10.1253 274.048 9.944C274.293 9.76267 274.581 9.624 274.912 9.528C275.243 9.42133 275.605 9.368 276 9.368C276.373 9.368 276.757 9.40533 277.152 9.48C277.557 9.544 277.941 9.656 278.304 9.816L277.984 10.888ZM280.356 10.152C280.612 10.024 280.852 9.912 281.076 9.816C281.3 9.70933 281.524 9.624 281.748 9.56C281.972 9.496 282.201 9.448 282.436 9.416C282.67 9.384 282.926 9.368 283.204 9.368C283.62 9.368 283.998 9.416 284.34 9.512C284.692 9.59733 284.99 9.74667 285.236 9.96C285.492 10.1733 285.689 10.456 285.828 10.808C285.966 11.1493 286.036 11.5813 286.036 12.104V17H284.868L284.692 16.168H284.66C284.329 16.52 283.966 16.7707 283.572 16.92C283.177 17.0693 282.74 17.144 282.26 17.144C281.897 17.144 281.561 17.096 281.252 17C280.953 16.8933 280.692 16.7493 280.468 16.568C280.244 16.376 280.068 16.1467 279.94 15.88C279.822 15.6133 279.764 15.3147 279.764 14.984C279.764 14.1947 280.073 13.5973 280.692 13.192C281.321 12.776 282.148 12.568 283.172 12.568H284.612V11.928C284.612 11.384 284.473 11.016 284.196 10.824C283.918 10.6213 283.545 10.52 283.076 10.52C282.798 10.52 282.478 10.568 282.116 10.664C281.764 10.7493 281.358 10.92 280.9 11.176L280.356 10.152ZM284.628 13.528L283.444 13.56C282.644 13.5813 282.073 13.7253 281.732 13.992C281.401 14.248 281.236 14.5627 281.236 14.936C281.236 15.16 281.273 15.352 281.348 15.512C281.422 15.6613 281.518 15.7787 281.636 15.864C281.764 15.9493 281.908 16.0133 282.068 16.056C282.238 16.088 282.414 16.104 282.596 16.104C282.948 16.104 283.305 16.024 283.668 15.864C284.03 15.6933 284.35 15.4267 284.628 15.064V13.528ZM287.88 16.136C287.88 15.8587 287.976 15.624 288.168 15.432C288.36 15.24 288.589 15.144 288.856 15.144C289.122 15.144 289.346 15.24 289.528 15.432C289.72 15.624 289.816 15.8587 289.816 16.136C289.816 16.4453 289.72 16.6907 289.528 16.872C289.346 17.0533 289.122 17.144 288.856 17.144C288.589 17.144 288.36 17.0533 288.168 16.872C287.976 16.6907 287.88 16.4453 287.88 16.136Z" fill="#EBEBEB"/>
</g>
<defs>
<linearGradient id="paint0_linear_585_588" x1="21" y1="7" x2="1" y2="22" gradientUnits="userSpaceOnUse">
<stop stop-color="#0077B6"/>
<stop offset="1" stop-color="#22A8C2" stop-opacity="0"/>
</linearGradient>
<linearGradient id="paint1_linear_585_588" x1="21" y1="4" x2="1.5" y2="14" gradientUnits="userSpaceOnUse">
<stop stop-color="#0077B6"/>
<stop offset="1" stop-color="#22A8C2" stop-opacity="0"/>
</linearGradient>
</defs>
</svg>
