<svg width="367" height="24" viewBox="0 0 367 24" fill="none" xmlns="http://www.w3.org/2000/svg">
<g id="check-item4">
<path id="circle-check" d="M21 11.0857V12.0057C20.9988 14.1621 20.3005 16.2604 19.0093 17.9875C17.7182 19.7147 15.9033 20.9782 13.8354 21.5896C11.7674 22.201 9.55726 22.1276 7.53447 21.3803C5.51168 20.633 3.78465 19.2518 2.61096 17.4428C1.43727 15.6338 0.879791 13.4938 1.02168 11.342C1.16356 9.19029 1.99721 7.14205 3.39828 5.5028C4.79935 3.86354 6.69279 2.72111 8.79619 2.24587C10.8996 1.77063 13.1003 1.98806 15.07 2.86572" stroke="url(#paint0_linear_589_714)" stroke-width="2" stroke-linecap="round" stroke-linejoin="round"/>
<path id="check-ok" d="M21 4.00586L11 14.0159L8 11.0159" stroke="url(#paint1_linear_589_714)" stroke-width="2" stroke-linecap="round" stroke-linejoin="round"/>
<path id="text-4" d="M38.504 6.92L40.6 12.616C40.7493 13.0107 40.9093 13.448 41.08 13.928C41.2613 14.3973 41.4267 14.8347 41.576 15.24H41.608L42.568 12.616L44.696 6.92H46.232L42.264 17H40.84L36.952 6.92H38.504ZM47.4995 17V9.48H48.9075V17H47.4995ZM48.2035 7.544C47.9582 7.544 47.7448 7.464 47.5635 7.304C47.3928 7.13333 47.3075 6.92533 47.3075 6.68C47.3075 6.43467 47.3928 6.22667 47.5635 6.056C47.7448 5.88533 47.9582 5.8 48.2035 5.8C48.4382 5.8 48.6462 5.88533 48.8275 6.056C49.0088 6.22667 49.0995 6.43467 49.0995 6.68C49.0995 6.92533 49.0088 7.13333 48.8275 7.304C48.6462 7.464 48.4382 7.544 48.2035 7.544ZM55.437 10.888C55.085 10.7173 54.765 10.6 54.477 10.536C54.189 10.472 53.901 10.44 53.613 10.44C53.101 10.44 52.7223 10.536 52.477 10.728C52.2317 10.9093 52.109 11.1547 52.109 11.464C52.109 11.688 52.1943 11.8853 52.365 12.056C52.5357 12.216 52.893 12.376 53.437 12.536L53.917 12.68C54.6317 12.8933 55.1703 13.1707 55.533 13.512C55.9063 13.8427 56.093 14.296 56.093 14.872C56.093 15.5547 55.837 16.104 55.325 16.52C54.8237 16.936 54.1197 17.144 53.213 17.144C52.733 17.144 52.269 17.1013 51.821 17.016C51.3837 16.9307 51.005 16.8133 50.685 16.664L51.021 15.56C51.3303 15.7093 51.6663 15.832 52.029 15.928C52.3917 16.0133 52.7597 16.056 53.133 16.056C53.613 16.056 53.9917 15.9707 54.269 15.8C54.557 15.6293 54.701 15.3467 54.701 14.952C54.701 14.6107 54.5783 14.3707 54.333 14.232C54.0877 14.0827 53.7357 13.9387 53.277 13.8L52.781 13.64C52.0877 13.416 51.5703 13.1387 51.229 12.808C50.8983 12.4667 50.733 12.0293 50.733 11.496C50.733 11.176 50.8023 10.8827 50.941 10.616C51.0797 10.3493 51.2663 10.1253 51.501 9.944C51.7463 9.76267 52.0343 9.624 52.365 9.528C52.6957 9.42133 53.0583 9.368 53.453 9.368C53.8263 9.368 54.2103 9.40533 54.605 9.48C55.0103 9.544 55.3943 9.656 55.757 9.816L55.437 10.888ZM57.8086 10.152C58.0646 10.024 58.3046 9.912 58.5286 9.816C58.7526 9.70933 58.9766 9.624 59.2006 9.56C59.4246 9.496 59.654 9.448 59.8886 9.416C60.1233 9.384 60.3793 9.368 60.6566 9.368C61.0726 9.368 61.4513 9.416 61.7926 9.512C62.1446 9.59733 62.4433 9.74667 62.6886 9.96C62.9446 10.1733 63.142 10.456 63.2806 10.808C63.4193 11.1493 63.4886 11.5813 63.4886 12.104V17H62.3206L62.1446 16.168H62.1126C61.782 16.52 61.4193 16.7707 61.0246 16.92C60.63 17.0693 60.1926 17.144 59.7126 17.144C59.35 17.144 59.014 17.096 58.7046 17C58.406 16.8933 58.1446 16.7493 57.9206 16.568C57.6966 16.376 57.5206 16.1467 57.3926 15.88C57.2753 15.6133 57.2166 15.3147 57.2166 14.984C57.2166 14.1947 57.526 13.5973 58.1446 13.192C58.774 12.776 59.6006 12.568 60.6246 12.568H62.0646V11.928C62.0646 11.384 61.926 11.016 61.6486 10.824C61.3713 10.6213 60.998 10.52 60.5286 10.52C60.2513 10.52 59.9313 10.568 59.5686 10.664C59.2166 10.7493 58.8113 10.92 58.3526 11.176L57.8086 10.152ZM62.0806 13.528L60.8966 13.56C60.0966 13.5813 59.526 13.7253 59.1846 13.992C58.854 14.248 58.6886 14.5627 58.6886 14.936C58.6886 15.16 58.726 15.352 58.8006 15.512C58.8753 15.6613 58.9713 15.7787 59.0886 15.864C59.2166 15.9493 59.3606 16.0133 59.5206 16.056C59.6913 16.088 59.8673 16.104 60.0486 16.104C60.4006 16.104 60.758 16.024 61.1206 15.864C61.4833 15.6933 61.8033 15.4267 62.0806 15.064V13.528ZM58.2086 8.104C58.2086 7.61333 58.3153 7.19733 58.5286 6.856C58.7526 6.51467 59.11 6.344 59.6006 6.344C59.8246 6.344 60.022 6.38133 60.1926 6.456C60.374 6.53067 60.5393 6.61067 60.6886 6.696C60.8486 6.78133 61.0033 6.86133 61.1526 6.936C61.302 7.01067 61.462 7.048 61.6326 7.048C61.846 7.048 61.9953 6.968 62.0806 6.808C62.1766 6.648 62.2353 6.47733 62.2566 6.296H63.0566C63.0566 6.52 63.03 6.73867 62.9766 6.952C62.9233 7.15467 62.838 7.34133 62.7206 7.512C62.614 7.672 62.4753 7.80533 62.3046 7.912C62.1446 8.008 61.9526 8.056 61.7286 8.056C61.5046 8.056 61.2913 8.024 61.0886 7.96C60.8966 7.88533 60.7153 7.80533 60.5446 7.72C60.374 7.624 60.214 7.544 60.0646 7.48C59.9153 7.40533 59.7766 7.368 59.6486 7.368C59.4246 7.368 59.2646 7.43733 59.1686 7.576C59.0833 7.71467 59.03 7.89067 59.0086 8.104H58.2086ZM72.4528 13.16C72.4528 13.7893 72.3568 14.3547 72.1648 14.856C71.9728 15.3467 71.7061 15.7627 71.3648 16.104C71.0341 16.4453 70.6448 16.7067 70.1968 16.888C69.7488 17.0587 69.2634 17.144 68.7408 17.144C68.2181 17.144 67.7328 17.064 67.2848 16.904C66.8474 16.7333 66.4634 16.488 66.1328 16.168C65.8128 15.8373 65.5568 15.4373 65.3648 14.968C65.1834 14.488 65.0928 13.9387 65.0928 13.32C65.0928 12.6907 65.1888 12.1307 65.3808 11.64C65.5728 11.1493 65.8341 10.7387 66.1648 10.408C66.5061 10.0667 66.9008 9.81067 67.3488 9.64C67.7968 9.45867 68.2821 9.368 68.8048 9.368C69.3274 9.368 69.8074 9.448 70.2448 9.608C70.6928 9.768 71.0768 10.008 71.3968 10.328C71.7274 10.648 71.9834 11.048 72.1648 11.528C72.3568 11.9973 72.4528 12.5413 72.4528 13.16ZM70.9808 13.24C70.9808 12.7387 70.9168 12.312 70.7888 11.96C70.6608 11.608 70.4901 11.32 70.2768 11.096C70.0741 10.872 69.8394 10.712 69.5728 10.616C69.3061 10.5093 69.0341 10.456 68.7568 10.456C68.4794 10.456 68.2074 10.4987 67.9408 10.584C67.6741 10.6693 67.4394 10.8187 67.2368 11.032C67.0341 11.2453 66.8688 11.5333 66.7408 11.896C66.6234 12.248 66.5648 12.696 66.5648 13.24C66.5648 13.7413 66.6288 14.1733 66.7568 14.536C66.8848 14.888 67.0501 15.176 67.2528 15.4C67.4661 15.624 67.7061 15.7893 67.9728 15.896C68.2394 16.0027 68.5114 16.056 68.7888 16.056C69.0661 16.056 69.3381 16.0133 69.6048 15.928C69.8714 15.832 70.1061 15.6773 70.3088 15.464C70.5114 15.24 70.6714 14.952 70.7888 14.6C70.9168 14.2373 70.9808 13.784 70.9808 13.24ZM77.937 17V9.48H79.345V17H77.937ZM78.641 7.544C78.3957 7.544 78.1823 7.464 78.001 7.304C77.8303 7.13333 77.745 6.92533 77.745 6.68C77.745 6.43467 77.8303 6.22667 78.001 6.056C78.1823 5.88533 78.3957 5.8 78.641 5.8C78.8757 5.8 79.0837 5.88533 79.265 6.056C79.4463 6.22667 79.537 6.43467 79.537 6.68C79.537 6.92533 79.4463 7.13333 79.265 7.304C79.0837 7.464 78.8757 7.544 78.641 7.544ZM83.0585 17H81.6505V9.48H82.7545L82.9625 10.52C83.3358 10.1467 83.7252 9.864 84.1305 9.672C84.5465 9.46933 85.0212 9.368 85.5545 9.368C86.3225 9.368 86.9252 9.58667 87.3625 10.024C87.7998 10.4507 88.0185 11.048 88.0185 11.816V17H86.6105V12.024C86.6105 11.5653 86.4878 11.2027 86.2425 10.936C86.0078 10.6587 85.6452 10.52 85.1545 10.52C84.4078 10.52 83.7092 10.856 83.0585 11.528V17ZM94.0713 10.536H91.8633V14.904C91.8633 15.2773 91.9539 15.528 92.1353 15.656C92.3273 15.784 92.5726 15.848 92.8713 15.848C93.0846 15.848 93.3193 15.8267 93.5753 15.784C93.8313 15.7307 94.0553 15.672 94.2473 15.608L94.4713 16.68C94.2579 16.7653 93.9859 16.84 93.6553 16.904C93.3246 16.968 92.9779 17 92.6153 17C91.8686 17 91.3246 16.84 90.9833 16.52C90.6419 16.1893 90.4713 15.7147 90.4713 15.096V10.536H89.3513V9.48H90.4713V7.08H91.8633V9.48H94.0713V10.536ZM100.987 9.48H102.395V17H101.291L101.099 16.056H101.035C100.758 16.3653 100.411 16.6267 99.9954 16.84C99.59 17.0427 99.1154 17.144 98.5714 17.144C97.7927 17.144 97.158 16.9253 96.6674 16.488C96.1874 16.04 95.9474 15.368 95.9474 14.472V9.48H97.3554V14.296C97.3554 14.616 97.3927 14.888 97.4674 15.112C97.5527 15.336 97.6594 15.5173 97.7874 15.656C97.926 15.784 98.086 15.88 98.2674 15.944C98.4487 15.9973 98.646 16.024 98.8594 16.024C99.286 16.024 99.67 15.9333 100.011 15.752C100.353 15.5707 100.678 15.32 100.987 15V9.48ZM104.796 17V9.48H106.204V17H104.796ZM105.5 7.544C105.255 7.544 105.042 7.464 104.86 7.304C104.69 7.13333 104.604 6.92533 104.604 6.68C104.604 6.43467 104.69 6.22667 104.86 6.056C105.042 5.88533 105.255 5.8 105.5 5.8C105.735 5.8 105.943 5.88533 106.124 6.056C106.306 6.22667 106.396 6.43467 106.396 6.68C106.396 6.92533 106.306 7.13333 106.124 7.304C105.943 7.464 105.735 7.544 105.5 7.544ZM112.462 10.536H110.254V14.904C110.254 15.2773 110.345 15.528 110.526 15.656C110.718 15.784 110.963 15.848 111.262 15.848C111.475 15.848 111.71 15.8267 111.966 15.784C112.222 15.7307 112.446 15.672 112.638 15.608L112.862 16.68C112.649 16.7653 112.377 16.84 112.046 16.904C111.715 16.968 111.369 17 111.006 17C110.259 17 109.715 16.84 109.374 16.52C109.033 16.1893 108.862 15.7147 108.862 15.096V10.536H107.742V9.48H108.862V7.08H110.254V9.48H112.462V10.536ZM114.562 17V9.48H115.97V17H114.562ZM115.266 7.544C115.021 7.544 114.807 7.464 114.626 7.304C114.455 7.13333 114.37 6.92533 114.37 6.68C114.37 6.43467 114.455 6.22667 114.626 6.056C114.807 5.88533 115.021 5.8 115.266 5.8C115.501 5.8 115.709 5.88533 115.89 6.056C116.071 6.22667 116.162 6.43467 116.162 6.68C116.162 6.92533 116.071 7.13333 115.89 7.304C115.709 7.464 115.501 7.544 115.266 7.544ZM122.9 9.48H124.404L121.604 17H120.228L117.396 9.48H118.916L120.612 14.648L120.9 15.832H120.964L121.236 14.664L122.9 9.48ZM125.606 10.152C125.862 10.024 126.102 9.912 126.326 9.816C126.55 9.70933 126.774 9.624 126.998 9.56C127.222 9.496 127.451 9.448 127.686 9.416C127.92 9.384 128.176 9.368 128.454 9.368C128.87 9.368 129.248 9.416 129.59 9.512C129.942 9.59733 130.24 9.74667 130.486 9.96C130.742 10.1733 130.939 10.456 131.078 10.808C131.216 11.1493 131.286 11.5813 131.286 12.104V17H130.118L129.942 16.168H129.91C129.579 16.52 129.216 16.7707 128.822 16.92C128.427 17.0693 127.99 17.144 127.51 17.144C127.147 17.144 126.811 17.096 126.502 17C126.203 16.8933 125.942 16.7493 125.718 16.568C125.494 16.376 125.318 16.1467 125.19 15.88C125.072 15.6133 125.014 15.3147 125.014 14.984C125.014 14.1947 125.323 13.5973 125.942 13.192C126.571 12.776 127.398 12.568 128.422 12.568H129.862V11.928C129.862 11.384 129.723 11.016 129.446 10.824C129.168 10.6213 128.795 10.52 128.326 10.52C128.048 10.52 127.728 10.568 127.366 10.664C127.014 10.7493 126.608 10.92 126.15 11.176L125.606 10.152ZM129.878 13.528L128.694 13.56C127.894 13.5813 127.323 13.7253 126.982 13.992C126.651 14.248 126.486 14.5627 126.486 14.936C126.486 15.16 126.523 15.352 126.598 15.512C126.672 15.6613 126.768 15.7787 126.886 15.864C127.014 15.9493 127.158 16.0133 127.318 16.056C127.488 16.088 127.664 16.104 127.846 16.104C128.198 16.104 128.555 16.024 128.918 15.864C129.28 15.6933 129.6 15.4267 129.878 15.064V13.528ZM141.125 10.888C140.773 10.7173 140.453 10.6 140.165 10.536C139.877 10.472 139.589 10.44 139.301 10.44C138.789 10.44 138.41 10.536 138.164 10.728C137.919 10.9093 137.797 11.1547 137.797 11.464C137.797 11.688 137.882 11.8853 138.053 12.056C138.223 12.216 138.581 12.376 139.125 12.536L139.605 12.68C140.319 12.8933 140.858 13.1707 141.221 13.512C141.594 13.8427 141.781 14.296 141.781 14.872C141.781 15.5547 141.525 16.104 141.013 16.52C140.511 16.936 139.807 17.144 138.901 17.144C138.421 17.144 137.957 17.1013 137.509 17.016C137.071 16.9307 136.693 16.8133 136.373 16.664L136.709 15.56C137.018 15.7093 137.354 15.832 137.717 15.928C138.079 16.0133 138.447 16.056 138.821 16.056C139.301 16.056 139.679 15.9707 139.957 15.8C140.245 15.6293 140.389 15.3467 140.389 14.952C140.389 14.6107 140.266 14.3707 140.021 14.232C139.775 14.0827 139.423 13.9387 138.965 13.8L138.469 13.64C137.775 13.416 137.258 13.1387 136.917 12.808C136.586 12.4667 136.421 12.0293 136.421 11.496C136.421 11.176 136.49 10.8827 136.629 10.616C136.767 10.3493 136.954 10.1253 137.189 9.944C137.434 9.76267 137.722 9.624 138.053 9.528C138.383 9.42133 138.746 9.368 139.141 9.368C139.514 9.368 139.898 9.40533 140.293 9.48C140.698 9.544 141.082 9.656 141.445 9.816L141.125 10.888ZM150.312 13.16C150.312 13.7893 150.216 14.3547 150.024 14.856C149.832 15.3467 149.565 15.7627 149.224 16.104C148.893 16.4453 148.504 16.7067 148.056 16.888C147.608 17.0587 147.123 17.144 146.6 17.144C146.077 17.144 145.592 17.064 145.144 16.904C144.707 16.7333 144.323 16.488 143.992 16.168C143.672 15.8373 143.416 15.4373 143.224 14.968C143.043 14.488 142.952 13.9387 142.952 13.32C142.952 12.6907 143.048 12.1307 143.24 11.64C143.432 11.1493 143.693 10.7387 144.024 10.408C144.365 10.0667 144.76 9.81067 145.208 9.64C145.656 9.45867 146.141 9.368 146.664 9.368C147.187 9.368 147.667 9.448 148.104 9.608C148.552 9.768 148.936 10.008 149.256 10.328C149.587 10.648 149.843 11.048 150.024 11.528C150.216 11.9973 150.312 12.5413 150.312 13.16ZM148.84 13.24C148.84 12.7387 148.776 12.312 148.648 11.96C148.52 11.608 148.349 11.32 148.136 11.096C147.933 10.872 147.699 10.712 147.432 10.616C147.165 10.5093 146.893 10.456 146.616 10.456C146.339 10.456 146.067 10.4987 145.8 10.584C145.533 10.6693 145.299 10.8187 145.096 11.032C144.893 11.2453 144.728 11.5333 144.6 11.896C144.483 12.248 144.424 12.696 144.424 13.24C144.424 13.7413 144.488 14.1733 144.616 14.536C144.744 14.888 144.909 15.176 145.112 15.4C145.325 15.624 145.565 15.7893 145.832 15.896C146.099 16.0027 146.371 16.056 146.648 16.056C146.925 16.056 147.197 16.0133 147.464 15.928C147.731 15.832 147.965 15.6773 148.168 15.464C148.371 15.24 148.531 14.952 148.648 14.6C148.776 14.2373 148.84 13.784 148.84 13.24ZM158.97 13.24C158.97 13.8373 158.879 14.376 158.698 14.856C158.516 15.336 158.271 15.7467 157.962 16.088C157.652 16.4293 157.29 16.6907 156.874 16.872C156.458 17.0533 156.015 17.144 155.546 17.144C155.055 17.144 154.623 17.0747 154.25 16.936C153.887 16.7973 153.546 16.584 153.226 16.296H153.194L153.049 17H152.042V5.64H153.434V10.424C153.775 10.0613 154.148 9.79467 154.554 9.624C154.97 9.45333 155.402 9.368 155.85 9.368C156.81 9.368 157.567 9.70933 158.122 10.392C158.687 11.0747 158.97 12.024 158.97 13.24ZM157.498 13.256C157.498 12.424 157.322 11.7627 156.97 11.272C156.618 10.7707 156.122 10.52 155.482 10.52C155.076 10.52 154.708 10.6107 154.378 10.792C154.047 10.9733 153.732 11.2293 153.434 11.56V15.208C153.658 15.464 153.908 15.672 154.186 15.832C154.474 15.9813 154.804 16.056 155.178 16.056C155.476 16.056 155.764 16.0027 156.042 15.896C156.33 15.7893 156.58 15.624 156.794 15.4C157.007 15.1653 157.178 14.872 157.306 14.52C157.434 14.168 157.498 13.7467 157.498 13.256ZM160.634 17V9.48H161.69L161.93 10.984C162.111 10.504 162.41 10.1147 162.826 9.816C163.242 9.51733 163.722 9.368 164.266 9.368C164.543 9.368 164.773 9.38933 164.954 9.432C165.135 9.47467 165.301 9.528 165.45 9.592L165.178 10.824C165.05 10.76 164.906 10.7067 164.746 10.664C164.597 10.6213 164.415 10.6 164.202 10.6C163.893 10.6 163.605 10.6533 163.338 10.76C163.082 10.8667 162.853 11.0267 162.65 11.24C162.458 11.4533 162.303 11.72 162.186 12.04C162.079 12.3493 162.026 12.7067 162.026 13.112V17H160.634ZM172.629 13.4H167.237V13.464C167.237 14.296 167.461 14.936 167.909 15.384C168.367 15.832 168.986 16.056 169.765 16.056C170.17 16.056 170.527 16.024 170.837 15.96C171.157 15.896 171.503 15.7893 171.877 15.64L172.165 16.68C171.855 16.8187 171.487 16.9307 171.061 17.016C170.645 17.1013 170.197 17.144 169.717 17.144C169.173 17.144 168.661 17.0693 168.181 16.92C167.711 16.7707 167.295 16.5413 166.933 16.232C166.57 15.912 166.282 15.5067 166.069 15.016C165.866 14.5253 165.765 13.9387 165.765 13.256C165.765 12.6693 165.85 12.136 166.021 11.656C166.202 11.176 166.453 10.7707 166.773 10.44C167.093 10.0987 167.477 9.83733 167.925 9.656C168.383 9.464 168.895 9.368 169.461 9.368C169.941 9.368 170.373 9.448 170.757 9.608C171.151 9.768 171.487 9.992 171.765 10.28C172.042 10.568 172.255 10.9147 172.405 11.32C172.554 11.7253 172.629 12.1733 172.629 12.664V13.4ZM171.173 12.392C171.173 12.1147 171.135 11.8587 171.061 11.624C170.997 11.3787 170.89 11.1653 170.741 10.984C170.602 10.8027 170.421 10.6587 170.197 10.552C169.973 10.4453 169.701 10.392 169.381 10.392C168.794 10.392 168.314 10.5787 167.941 10.952C167.578 11.3253 167.354 11.816 167.269 12.424L171.173 12.392ZM184.734 13.16C184.734 13.7893 184.638 14.3547 184.446 14.856C184.254 15.3467 183.987 15.7627 183.646 16.104C183.315 16.4453 182.926 16.7067 182.478 16.888C182.03 17.0587 181.545 17.144 181.022 17.144C180.499 17.144 180.014 17.064 179.566 16.904C179.129 16.7333 178.745 16.488 178.414 16.168C178.094 15.8373 177.838 15.4373 177.646 14.968C177.465 14.488 177.374 13.9387 177.374 13.32C177.374 12.6907 177.47 12.1307 177.662 11.64C177.854 11.1493 178.115 10.7387 178.446 10.408C178.787 10.0667 179.182 9.81067 179.63 9.64C180.078 9.45867 180.563 9.368 181.086 9.368C181.609 9.368 182.089 9.448 182.526 9.608C182.974 9.768 183.358 10.008 183.678 10.328C184.009 10.648 184.265 11.048 184.446 11.528C184.638 11.9973 184.734 12.5413 184.734 13.16ZM183.262 13.24C183.262 12.7387 183.198 12.312 183.07 11.96C182.942 11.608 182.771 11.32 182.558 11.096C182.355 10.872 182.121 10.712 181.854 10.616C181.587 10.5093 181.315 10.456 181.038 10.456C180.761 10.456 180.489 10.4987 180.222 10.584C179.955 10.6693 179.721 10.8187 179.518 11.032C179.315 11.2453 179.15 11.5333 179.022 11.896C178.905 12.248 178.846 12.696 178.846 13.24C178.846 13.7413 178.91 14.1733 179.038 14.536C179.166 14.888 179.331 15.176 179.534 15.4C179.747 15.624 179.987 15.7893 180.254 15.896C180.521 16.0027 180.793 16.056 181.07 16.056C181.347 16.056 181.619 16.0133 181.886 15.928C182.153 15.832 182.387 15.6773 182.59 15.464C182.793 15.24 182.953 14.952 183.07 14.6C183.198 14.2373 183.262 13.784 183.262 13.24ZM193.114 17.144C192.773 17.144 192.442 17.096 192.122 17C191.813 16.904 191.546 16.776 191.322 16.616V20.68H189.93V9.368H191.098L191.306 10.344C191.594 10.0773 191.92 9.848 192.282 9.656C192.645 9.464 193.072 9.368 193.562 9.368C194.565 9.368 195.354 9.688 195.93 10.328C196.506 10.968 196.794 11.8853 196.794 13.08C196.794 13.784 196.688 14.392 196.474 14.904C196.272 15.416 195.994 15.8373 195.642 16.168C195.301 16.4987 194.906 16.744 194.458 16.904C194.021 17.064 193.573 17.144 193.114 17.144ZM193.258 10.52C192.81 10.52 192.421 10.632 192.09 10.856C191.76 11.0693 191.504 11.288 191.322 11.512V15.528C191.568 15.7093 191.829 15.8427 192.106 15.928C192.384 16.0133 192.661 16.056 192.938 16.056C193.226 16.056 193.514 16.008 193.802 15.912C194.09 15.8053 194.346 15.6347 194.57 15.4C194.794 15.1653 194.976 14.8613 195.114 14.488C195.253 14.1147 195.322 13.656 195.322 13.112C195.322 12.312 195.152 11.6827 194.81 11.224C194.48 10.7547 193.962 10.52 193.258 10.52ZM198.462 17V9.48H199.518L199.758 10.984C199.94 10.504 200.238 10.1147 200.654 9.816C201.07 9.51733 201.55 9.368 202.094 9.368C202.372 9.368 202.601 9.38933 202.782 9.432C202.964 9.47467 203.129 9.528 203.278 9.592L203.006 10.824C202.878 10.76 202.734 10.7067 202.574 10.664C202.425 10.6213 202.244 10.6 202.03 10.6C201.721 10.6 201.433 10.6533 201.166 10.76C200.91 10.8667 200.681 11.0267 200.478 11.24C200.286 11.4533 200.132 11.72 200.014 12.04C199.908 12.3493 199.854 12.7067 199.854 13.112V17H198.462ZM210.937 13.16C210.937 13.7893 210.841 14.3547 210.649 14.856C210.457 15.3467 210.19 15.7627 209.849 16.104C209.518 16.4453 209.129 16.7067 208.681 16.888C208.233 17.0587 207.748 17.144 207.225 17.144C206.702 17.144 206.217 17.064 205.769 16.904C205.332 16.7333 204.948 16.488 204.617 16.168C204.297 15.8373 204.041 15.4373 203.849 14.968C203.668 14.488 203.577 13.9387 203.577 13.32C203.577 12.6907 203.673 12.1307 203.865 11.64C204.057 11.1493 204.318 10.7387 204.649 10.408C204.99 10.0667 205.385 9.81067 205.833 9.64C206.281 9.45867 206.766 9.368 207.289 9.368C207.812 9.368 208.292 9.448 208.729 9.608C209.177 9.768 209.561 10.008 209.881 10.328C210.212 10.648 210.468 11.048 210.649 11.528C210.841 11.9973 210.937 12.5413 210.937 13.16ZM209.465 13.24C209.465 12.7387 209.401 12.312 209.273 11.96C209.145 11.608 208.974 11.32 208.761 11.096C208.558 10.872 208.324 10.712 208.057 10.616C207.79 10.5093 207.518 10.456 207.241 10.456C206.964 10.456 206.692 10.4987 206.425 10.584C206.158 10.6693 205.924 10.8187 205.721 11.032C205.518 11.2453 205.353 11.5333 205.225 11.896C205.108 12.248 205.049 12.696 205.049 13.24C205.049 13.7413 205.113 14.1733 205.241 14.536C205.369 14.888 205.534 15.176 205.737 15.4C205.95 15.624 206.19 15.7893 206.457 15.896C206.724 16.0027 206.996 16.056 207.273 16.056C207.55 16.056 207.822 16.0133 208.089 15.928C208.356 15.832 208.59 15.6773 208.793 15.464C208.996 15.24 209.156 14.952 209.273 14.6C209.401 14.2373 209.465 13.784 209.465 13.24ZM212.539 11.976C212.539 11.56 212.613 11.192 212.763 10.872C212.912 10.5413 213.12 10.264 213.387 10.04C213.664 9.816 213.989 9.65067 214.363 9.544C214.736 9.42667 215.141 9.368 215.579 9.368C215.739 9.368 215.893 9.37867 216.043 9.4C216.192 9.42133 216.341 9.448 216.491 9.48H219.739V10.52H219.243L217.963 10.344C218.165 10.5573 218.32 10.8027 218.427 11.08C218.544 11.3573 218.603 11.6507 218.603 11.96C218.603 12.376 218.528 12.7493 218.379 13.08C218.229 13.4 218.021 13.672 217.755 13.896C217.488 14.12 217.168 14.2907 216.795 14.408C216.421 14.5147 216.016 14.568 215.579 14.568C215.248 14.568 214.96 14.5467 214.715 14.504C214.469 14.5893 214.299 14.7013 214.203 14.84C214.107 14.968 214.059 15.1067 214.059 15.256C214.059 15.5013 214.139 15.6667 214.299 15.752C214.469 15.8373 214.693 15.88 214.971 15.88H216.955C217.787 15.88 218.421 16.072 218.859 16.456C219.307 16.8293 219.531 17.3413 219.531 17.992C219.531 18.408 219.44 18.7813 219.259 19.112C219.077 19.4427 218.816 19.7253 218.475 19.96C218.144 20.1947 217.739 20.3707 217.259 20.488C216.779 20.616 216.24 20.68 215.643 20.68C214.555 20.68 213.685 20.4827 213.035 20.088C212.395 19.704 212.075 19.1333 212.075 18.376C212.075 17.9813 212.197 17.6507 212.443 17.384C212.699 17.1173 213.029 16.9147 213.435 16.776C213.221 16.6267 213.061 16.472 212.955 16.312C212.848 16.1413 212.795 15.9173 212.795 15.64C212.795 15.3093 212.891 15.0267 213.083 14.792C213.285 14.5573 213.557 14.3707 213.899 14.232C213.472 14.04 213.136 13.7627 212.891 13.4C212.656 13.0267 212.539 12.552 212.539 11.976ZM214.251 17C213.707 17.2453 213.435 17.6293 213.435 18.152C213.435 19.0907 214.192 19.56 215.707 19.56C216.155 19.56 216.533 19.5173 216.843 19.432C217.152 19.3467 217.403 19.2347 217.595 19.096C217.787 18.9573 217.925 18.8027 218.011 18.632C218.107 18.4613 218.155 18.2853 218.155 18.104C218.155 17.656 218 17.3573 217.691 17.208C217.392 17.0693 217.013 17 216.555 17H214.251ZM217.179 12.008C217.179 11.4427 217.029 11.0267 216.731 10.76C216.443 10.4933 216.059 10.36 215.579 10.36C215.099 10.36 214.709 10.4933 214.411 10.76C214.123 11.0267 213.979 11.4213 213.979 11.944C213.979 12.4987 214.123 12.9093 214.411 13.176C214.709 13.432 215.099 13.56 215.579 13.56C216.059 13.56 216.443 13.432 216.731 13.176C217.029 12.92 217.179 12.5307 217.179 12.008ZM221.275 17V9.48H222.331L222.571 10.984C222.752 10.504 223.051 10.1147 223.467 9.816C223.883 9.51733 224.363 9.368 224.907 9.368C225.184 9.368 225.413 9.38933 225.595 9.432C225.776 9.47467 225.941 9.528 226.091 9.592L225.819 10.824C225.691 10.76 225.547 10.7067 225.387 10.664C225.237 10.6213 225.056 10.6 224.843 10.6C224.533 10.6 224.245 10.6533 223.979 10.76C223.723 10.8667 223.493 11.0267 223.291 11.24C223.099 11.4533 222.944 11.72 222.827 12.04C222.72 12.3493 222.667 12.7067 222.667 13.112V17H221.275ZM233.269 13.4H227.877V13.464C227.877 14.296 228.101 14.936 228.549 15.384C229.008 15.832 229.627 16.056 230.405 16.056C230.811 16.056 231.168 16.024 231.477 15.96C231.797 15.896 232.144 15.7893 232.517 15.64L232.805 16.68C232.496 16.8187 232.128 16.9307 231.701 17.016C231.285 17.1013 230.837 17.144 230.357 17.144C229.813 17.144 229.301 17.0693 228.821 16.92C228.352 16.7707 227.936 16.5413 227.573 16.232C227.211 15.912 226.923 15.5067 226.709 15.016C226.507 14.5253 226.405 13.9387 226.405 13.256C226.405 12.6693 226.491 12.136 226.661 11.656C226.843 11.176 227.093 10.7707 227.413 10.44C227.733 10.0987 228.117 9.83733 228.565 9.656C229.024 9.464 229.536 9.368 230.101 9.368C230.581 9.368 231.013 9.448 231.397 9.608C231.792 9.768 232.128 9.992 232.405 10.28C232.683 10.568 232.896 10.9147 233.045 11.32C233.195 11.7253 233.269 12.1733 233.269 12.664V13.4ZM231.813 12.392C231.813 12.1147 231.776 11.8587 231.701 11.624C231.637 11.3787 231.531 11.1653 231.381 10.984C231.243 10.8027 231.061 10.6587 230.837 10.552C230.613 10.4453 230.341 10.392 230.021 10.392C229.435 10.392 228.955 10.5787 228.581 10.952C228.219 11.3253 227.995 11.816 227.909 12.424L231.813 12.392ZM239.156 10.888C238.804 10.7173 238.484 10.6 238.196 10.536C237.908 10.472 237.62 10.44 237.332 10.44C236.82 10.44 236.441 10.536 236.196 10.728C235.95 10.9093 235.828 11.1547 235.828 11.464C235.828 11.688 235.913 11.8853 236.084 12.056C236.254 12.216 236.612 12.376 237.156 12.536L237.636 12.68C238.35 12.8933 238.889 13.1707 239.252 13.512C239.625 13.8427 239.812 14.296 239.812 14.872C239.812 15.5547 239.556 16.104 239.044 16.52C238.542 16.936 237.838 17.144 236.932 17.144C236.452 17.144 235.988 17.1013 235.54 17.016C235.102 16.9307 234.724 16.8133 234.404 16.664L234.74 15.56C235.049 15.7093 235.385 15.832 235.748 15.928C236.11 16.0133 236.478 16.056 236.852 16.056C237.332 16.056 237.71 15.9707 237.988 15.8C238.276 15.6293 238.42 15.3467 238.42 14.952C238.42 14.6107 238.297 14.3707 238.052 14.232C237.806 14.0827 237.454 13.9387 236.996 13.8L236.5 13.64C235.806 13.416 235.289 13.1387 234.948 12.808C234.617 12.4667 234.452 12.0293 234.452 11.496C234.452 11.176 234.521 10.8827 234.66 10.616C234.798 10.3493 234.985 10.1253 235.22 9.944C235.465 9.76267 235.753 9.624 236.084 9.528C236.414 9.42133 236.777 9.368 237.172 9.368C237.545 9.368 237.929 9.40533 238.324 9.48C238.729 9.544 239.113 9.656 239.476 9.816L239.156 10.888ZM245.671 10.888C245.319 10.7173 244.999 10.6 244.711 10.536C244.423 10.472 244.135 10.44 243.847 10.44C243.335 10.44 242.957 10.536 242.711 10.728C242.466 10.9093 242.343 11.1547 242.343 11.464C242.343 11.688 242.429 11.8853 242.599 12.056C242.77 12.216 243.127 12.376 243.671 12.536L244.151 12.68C244.866 12.8933 245.405 13.1707 245.767 13.512C246.141 13.8427 246.327 14.296 246.327 14.872C246.327 15.5547 246.071 16.104 245.559 16.52C245.058 16.936 244.354 17.144 243.447 17.144C242.967 17.144 242.503 17.1013 242.055 17.016C241.618 16.9307 241.239 16.8133 240.919 16.664L241.255 15.56C241.565 15.7093 241.901 15.832 242.263 15.928C242.626 16.0133 242.994 16.056 243.367 16.056C243.847 16.056 244.226 15.9707 244.503 15.8C244.791 15.6293 244.935 15.3467 244.935 14.952C244.935 14.6107 244.813 14.3707 244.567 14.232C244.322 14.0827 243.97 13.9387 243.511 13.8L243.015 13.64C242.322 13.416 241.805 13.1387 241.463 12.808C241.133 12.4667 240.967 12.0293 240.967 11.496C240.967 11.176 241.037 10.8827 241.175 10.616C241.314 10.3493 241.501 10.1253 241.735 9.944C241.981 9.76267 242.269 9.624 242.599 9.528C242.93 9.42133 243.293 9.368 243.687 9.368C244.061 9.368 244.445 9.40533 244.839 9.48C245.245 9.544 245.629 9.656 245.991 9.816L245.671 10.888ZM254.859 13.16C254.859 13.7893 254.763 14.3547 254.571 14.856C254.379 15.3467 254.112 15.7627 253.771 16.104C253.44 16.4453 253.051 16.7067 252.603 16.888C252.155 17.0587 251.67 17.144 251.147 17.144C250.624 17.144 250.139 17.064 249.691 16.904C249.254 16.7333 248.87 16.488 248.539 16.168C248.219 15.8373 247.963 15.4373 247.771 14.968C247.59 14.488 247.499 13.9387 247.499 13.32C247.499 12.6907 247.595 12.1307 247.787 11.64C247.979 11.1493 248.24 10.7387 248.571 10.408C248.912 10.0667 249.307 9.81067 249.755 9.64C250.203 9.45867 250.688 9.368 251.211 9.368C251.734 9.368 252.214 9.448 252.651 9.608C253.099 9.768 253.483 10.008 253.803 10.328C254.134 10.648 254.39 11.048 254.571 11.528C254.763 11.9973 254.859 12.5413 254.859 13.16ZM253.387 13.24C253.387 12.7387 253.323 12.312 253.195 11.96C253.067 11.608 252.896 11.32 252.683 11.096C252.48 10.872 252.246 10.712 251.979 10.616C251.712 10.5093 251.44 10.456 251.163 10.456C250.886 10.456 250.614 10.4987 250.347 10.584C250.08 10.6693 249.846 10.8187 249.643 11.032C249.44 11.2453 249.275 11.5333 249.147 11.896C249.03 12.248 248.971 12.696 248.971 13.24C248.971 13.7413 249.035 14.1733 249.163 14.536C249.291 14.888 249.456 15.176 249.659 15.4C249.872 15.624 250.112 15.7893 250.379 15.896C250.646 16.0027 250.918 16.056 251.195 16.056C251.472 16.056 251.744 16.0133 252.011 15.928C252.278 15.832 252.512 15.6773 252.715 15.464C252.918 15.24 253.078 14.952 253.195 14.6C253.323 14.2373 253.387 13.784 253.387 13.24ZM265.111 5.64H266.519V17H265.335L265.159 16.168H265.111C264.781 16.5093 264.445 16.76 264.103 16.92C263.773 17.0693 263.351 17.144 262.839 17.144C262.434 17.144 262.039 17.064 261.655 16.904C261.282 16.744 260.946 16.504 260.647 16.184C260.349 15.864 260.109 15.464 259.927 14.984C259.746 14.4933 259.655 13.9173 259.655 13.256C259.655 12.6693 259.73 12.136 259.879 11.656C260.039 11.176 260.263 10.7653 260.551 10.424C260.839 10.0827 261.191 9.82133 261.607 9.64C262.023 9.45867 262.498 9.368 263.031 9.368C263.426 9.368 263.799 9.432 264.151 9.56C264.514 9.67733 264.834 9.85867 265.111 10.104V5.64ZM265.111 11.288C264.61 10.7227 264.018 10.44 263.335 10.44C263.047 10.44 262.765 10.4933 262.487 10.6C262.221 10.696 261.981 10.856 261.767 11.08C261.565 11.304 261.399 11.592 261.271 11.944C261.143 12.296 261.079 12.7173 261.079 13.208C261.079 13.72 261.138 14.1573 261.255 14.52C261.373 14.872 261.527 15.1653 261.719 15.4C261.922 15.624 262.146 15.7893 262.391 15.896C262.647 16.0027 262.903 16.056 263.159 16.056C263.959 16.056 264.61 15.7093 265.111 15.016V11.288ZM268.777 10.152C269.033 10.024 269.273 9.912 269.497 9.816C269.721 9.70933 269.945 9.624 270.169 9.56C270.393 9.496 270.623 9.448 270.857 9.416C271.092 9.384 271.348 9.368 271.625 9.368C272.041 9.368 272.42 9.416 272.761 9.512C273.113 9.59733 273.412 9.74667 273.657 9.96C273.913 10.1733 274.111 10.456 274.249 10.808C274.388 11.1493 274.457 11.5813 274.457 12.104V17H273.289L273.113 16.168H273.081C272.751 16.52 272.388 16.7707 271.993 16.92C271.599 17.0693 271.161 17.144 270.681 17.144C270.319 17.144 269.983 17.096 269.673 17C269.375 16.8933 269.113 16.7493 268.889 16.568C268.665 16.376 268.489 16.1467 268.361 15.88C268.244 15.6133 268.185 15.3147 268.185 14.984C268.185 14.1947 268.495 13.5973 269.113 13.192C269.743 12.776 270.569 12.568 271.593 12.568H273.033V11.928C273.033 11.384 272.895 11.016 272.617 10.824C272.34 10.6213 271.967 10.52 271.497 10.52C271.22 10.52 270.9 10.568 270.537 10.664C270.185 10.7493 269.78 10.92 269.321 11.176L268.777 10.152ZM273.049 13.528L271.865 13.56C271.065 13.5813 270.495 13.7253 270.153 13.992C269.823 14.248 269.657 14.5627 269.657 14.936C269.657 15.16 269.695 15.352 269.769 15.512C269.844 15.6613 269.94 15.7787 270.057 15.864C270.185 15.9493 270.329 16.0133 270.489 16.056C270.66 16.088 270.836 16.104 271.017 16.104C271.369 16.104 271.727 16.024 272.089 15.864C272.452 15.6933 272.772 15.4267 273.049 15.064V13.528ZM284.296 10.888C283.944 10.7173 283.624 10.6 283.336 10.536C283.048 10.472 282.76 10.44 282.472 10.44C281.96 10.44 281.582 10.536 281.336 10.728C281.091 10.9093 280.968 11.1547 280.968 11.464C280.968 11.688 281.054 11.8853 281.224 12.056C281.395 12.216 281.752 12.376 282.296 12.536L282.776 12.68C283.491 12.8933 284.03 13.1707 284.392 13.512C284.766 13.8427 284.952 14.296 284.952 14.872C284.952 15.5547 284.696 16.104 284.184 16.52C283.683 16.936 282.979 17.144 282.072 17.144C281.592 17.144 281.128 17.1013 280.68 17.016C280.243 16.9307 279.864 16.8133 279.544 16.664L279.88 15.56C280.19 15.7093 280.526 15.832 280.888 15.928C281.251 16.0133 281.619 16.056 281.992 16.056C282.472 16.056 282.851 15.9707 283.128 15.8C283.416 15.6293 283.56 15.3467 283.56 14.952C283.56 14.6107 283.438 14.3707 283.192 14.232C282.947 14.0827 282.595 13.9387 282.136 13.8L281.64 13.64C280.947 13.416 280.43 13.1387 280.088 12.808C279.758 12.4667 279.592 12.0293 279.592 11.496C279.592 11.176 279.662 10.8827 279.8 10.616C279.939 10.3493 280.126 10.1253 280.36 9.944C280.606 9.76267 280.894 9.624 281.224 9.528C281.555 9.42133 281.918 9.368 282.312 9.368C282.686 9.368 283.07 9.40533 283.464 9.48C283.87 9.544 284.254 9.656 284.616 9.816L284.296 10.888ZM291.628 9.48H293.036V17H291.932L291.74 16.056H291.676C291.399 16.3653 291.052 16.6267 290.636 16.84C290.231 17.0427 289.756 17.144 289.212 17.144C288.433 17.144 287.799 16.9253 287.308 16.488C286.828 16.04 286.588 15.368 286.588 14.472V9.48H287.996V14.296C287.996 14.616 288.033 14.888 288.108 15.112C288.193 15.336 288.3 15.5173 288.428 15.656C288.567 15.784 288.727 15.88 288.908 15.944C289.089 15.9973 289.287 16.024 289.5 16.024C289.927 16.024 290.311 15.9333 290.652 15.752C290.993 15.5707 291.319 15.32 291.628 15V9.48ZM295.293 10.152C295.549 10.024 295.789 9.912 296.013 9.816C296.237 9.70933 296.461 9.624 296.685 9.56C296.909 9.496 297.138 9.448 297.373 9.416C297.608 9.384 297.864 9.368 298.141 9.368C298.557 9.368 298.936 9.416 299.277 9.512C299.629 9.59733 299.928 9.74667 300.173 9.96C300.429 10.1733 300.626 10.456 300.765 10.808C300.904 11.1493 300.973 11.5813 300.973 12.104V17H299.805L299.629 16.168H299.597C299.266 16.52 298.904 16.7707 298.509 16.92C298.114 17.0693 297.677 17.144 297.197 17.144C296.834 17.144 296.498 17.096 296.189 17C295.89 16.8933 295.629 16.7493 295.405 16.568C295.181 16.376 295.005 16.1467 294.877 15.88C294.76 15.6133 294.701 15.3147 294.701 14.984C294.701 14.1947 295.01 13.5973 295.629 13.192C296.258 12.776 297.085 12.568 298.109 12.568H299.549V11.928C299.549 11.384 299.41 11.016 299.133 10.824C298.856 10.6213 298.482 10.52 298.013 10.52C297.736 10.52 297.416 10.568 297.053 10.664C296.701 10.7493 296.296 10.92 295.837 11.176L295.293 10.152ZM299.565 13.528L298.381 13.56C297.581 13.5813 297.01 13.7253 296.669 13.992C296.338 14.248 296.173 14.5627 296.173 14.936C296.173 15.16 296.21 15.352 296.285 15.512C296.36 15.6613 296.456 15.7787 296.573 15.864C296.701 15.9493 296.845 16.0133 297.005 16.056C297.176 16.088 297.352 16.104 297.533 16.104C297.885 16.104 298.242 16.024 298.605 15.864C298.968 15.6933 299.288 15.4267 299.565 15.064V13.528ZM312.988 13.4H307.596V13.464C307.596 14.296 307.82 14.936 308.268 15.384C308.727 15.832 309.345 16.056 310.124 16.056C310.529 16.056 310.887 16.024 311.196 15.96C311.516 15.896 311.863 15.7893 312.236 15.64L312.524 16.68C312.215 16.8187 311.847 16.9307 311.42 17.016C311.004 17.1013 310.556 17.144 310.076 17.144C309.532 17.144 309.02 17.0693 308.54 16.92C308.071 16.7707 307.655 16.5413 307.292 16.232C306.929 15.912 306.641 15.5067 306.428 15.016C306.225 14.5253 306.124 13.9387 306.124 13.256C306.124 12.6693 306.209 12.136 306.38 11.656C306.561 11.176 306.812 10.7707 307.132 10.44C307.452 10.0987 307.836 9.83733 308.284 9.656C308.743 9.464 309.255 9.368 309.82 9.368C310.3 9.368 310.732 9.448 311.116 9.608C311.511 9.768 311.847 9.992 312.124 10.28C312.401 10.568 312.615 10.9147 312.764 11.32C312.913 11.7253 312.988 12.1733 312.988 12.664V13.4ZM311.532 12.392C311.532 12.1147 311.495 11.8587 311.42 11.624C311.356 11.3787 311.249 11.1653 311.1 10.984C310.961 10.8027 310.78 10.6587 310.556 10.552C310.332 10.4453 310.06 10.392 309.74 10.392C309.153 10.392 308.673 10.5787 308.3 10.952C307.937 11.3253 307.713 11.816 307.628 12.424L311.532 12.392ZM316.059 17H314.651V9.48H315.739L315.947 10.52C316.299 10.168 316.677 9.89067 317.083 9.688C317.488 9.47467 317.973 9.368 318.539 9.368C319.072 9.368 319.509 9.48 319.851 9.704C320.192 9.91733 320.448 10.216 320.619 10.6C320.992 10.2053 321.403 9.90133 321.851 9.688C322.299 9.47467 322.795 9.368 323.339 9.368C324.107 9.368 324.683 9.58667 325.067 10.024C325.461 10.4507 325.659 11.048 325.659 11.816V17H324.251V12.072C324.251 11.5707 324.144 11.1867 323.931 10.92C323.717 10.6533 323.365 10.52 322.875 10.52C322.149 10.52 321.472 10.8453 320.843 11.496C320.853 11.5493 320.859 11.6027 320.859 11.656C320.859 11.7093 320.859 11.7627 320.859 11.816V17H319.451V12.072C319.451 11.5707 319.344 11.1867 319.131 10.92C318.917 10.6533 318.565 10.52 318.075 10.52C317.349 10.52 316.677 10.8613 316.059 11.544V17ZM330.958 17.144C330.617 17.144 330.286 17.096 329.966 17C329.657 16.904 329.39 16.776 329.166 16.616V20.68H327.774V9.368H328.942L329.15 10.344C329.438 10.0773 329.763 9.848 330.126 9.656C330.489 9.464 330.915 9.368 331.406 9.368C332.409 9.368 333.198 9.688 333.774 10.328C334.35 10.968 334.638 11.8853 334.638 13.08C334.638 13.784 334.531 14.392 334.318 14.904C334.115 15.416 333.838 15.8373 333.486 16.168C333.145 16.4987 332.75 16.744 332.302 16.904C331.865 17.064 331.417 17.144 330.958 17.144ZM331.102 10.52C330.654 10.52 330.265 10.632 329.934 10.856C329.603 11.0693 329.347 11.288 329.166 11.512V15.528C329.411 15.7093 329.673 15.8427 329.95 15.928C330.227 16.0133 330.505 16.056 330.782 16.056C331.07 16.056 331.358 16.008 331.646 15.912C331.934 15.8053 332.19 15.6347 332.414 15.4C332.638 15.1653 332.819 14.8613 332.958 14.488C333.097 14.1147 333.166 13.656 333.166 13.112C333.166 12.312 332.995 11.6827 332.654 11.224C332.323 10.7547 331.806 10.52 331.102 10.52ZM336.306 17V9.48H337.362L337.602 10.984C337.783 10.504 338.082 10.1147 338.498 9.816C338.914 9.51733 339.394 9.368 339.938 9.368C340.215 9.368 340.445 9.38933 340.626 9.432C340.807 9.47467 340.973 9.528 341.122 9.592L340.85 10.824C340.722 10.76 340.578 10.7067 340.418 10.664C340.269 10.6213 340.087 10.6 339.874 10.6C339.565 10.6 339.277 10.6533 339.01 10.76C338.754 10.8667 338.525 11.0267 338.322 11.24C338.13 11.4533 337.975 11.72 337.858 12.04C337.751 12.3493 337.698 12.7067 337.698 13.112V17H336.306ZM348.301 13.4H342.909V13.464C342.909 14.296 343.133 14.936 343.581 15.384C344.039 15.832 344.658 16.056 345.437 16.056C345.842 16.056 346.199 16.024 346.509 15.96C346.829 15.896 347.175 15.7893 347.549 15.64L347.837 16.68C347.527 16.8187 347.159 16.9307 346.733 17.016C346.317 17.1013 345.869 17.144 345.389 17.144C344.845 17.144 344.333 17.0693 343.853 16.92C343.383 16.7707 342.967 16.5413 342.605 16.232C342.242 15.912 341.954 15.5067 341.741 15.016C341.538 14.5253 341.437 13.9387 341.437 13.256C341.437 12.6693 341.522 12.136 341.693 11.656C341.874 11.176 342.125 10.7707 342.445 10.44C342.765 10.0987 343.149 9.83733 343.597 9.656C344.055 9.464 344.567 9.368 345.133 9.368C345.613 9.368 346.045 9.448 346.429 9.608C346.823 9.768 347.159 9.992 347.437 10.28C347.714 10.568 347.927 10.9147 348.077 11.32C348.226 11.7253 348.301 12.1733 348.301 12.664V13.4ZM346.845 12.392C346.845 12.1147 346.807 11.8587 346.733 11.624C346.669 11.3787 346.562 11.1653 346.413 10.984C346.274 10.8027 346.093 10.6587 345.869 10.552C345.645 10.4453 345.373 10.392 345.053 10.392C344.466 10.392 343.986 10.5787 343.613 10.952C343.25 11.3253 343.026 11.816 342.941 12.424L346.845 12.392ZM354.187 10.888C353.835 10.7173 353.515 10.6 353.227 10.536C352.939 10.472 352.651 10.44 352.363 10.44C351.851 10.44 351.472 10.536 351.227 10.728C350.982 10.9093 350.859 11.1547 350.859 11.464C350.859 11.688 350.944 11.8853 351.115 12.056C351.286 12.216 351.643 12.376 352.187 12.536L352.667 12.68C353.382 12.8933 353.92 13.1707 354.283 13.512C354.656 13.8427 354.843 14.296 354.843 14.872C354.843 15.5547 354.587 16.104 354.075 16.52C353.574 16.936 352.87 17.144 351.963 17.144C351.483 17.144 351.019 17.1013 350.571 17.016C350.134 16.9307 349.755 16.8133 349.435 16.664L349.771 15.56C350.08 15.7093 350.416 15.832 350.779 15.928C351.142 16.0133 351.51 16.056 351.883 16.056C352.363 16.056 352.742 15.9707 353.019 15.8C353.307 15.6293 353.451 15.3467 353.451 14.952C353.451 14.6107 353.328 14.3707 353.083 14.232C352.838 14.0827 352.486 13.9387 352.027 13.8L351.531 13.64C350.838 13.416 350.32 13.1387 349.979 12.808C349.648 12.4667 349.483 12.0293 349.483 11.496C349.483 11.176 349.552 10.8827 349.691 10.616C349.83 10.3493 350.016 10.1253 350.251 9.944C350.496 9.76267 350.784 9.624 351.115 9.528C351.446 9.42133 351.808 9.368 352.203 9.368C352.576 9.368 352.96 9.40533 353.355 9.48C353.76 9.544 354.144 9.656 354.507 9.816L354.187 10.888ZM356.559 10.152C356.815 10.024 357.055 9.912 357.279 9.816C357.503 9.70933 357.727 9.624 357.951 9.56C358.175 9.496 358.404 9.448 358.639 9.416C358.873 9.384 359.129 9.368 359.407 9.368C359.823 9.368 360.201 9.416 360.543 9.512C360.895 9.59733 361.193 9.74667 361.439 9.96C361.695 10.1733 361.892 10.456 362.031 10.808C362.169 11.1493 362.239 11.5813 362.239 12.104V17H361.071L360.895 16.168H360.863C360.532 16.52 360.169 16.7707 359.775 16.92C359.38 17.0693 358.943 17.144 358.463 17.144C358.1 17.144 357.764 17.096 357.455 17C357.156 16.8933 356.895 16.7493 356.671 16.568C356.447 16.376 356.271 16.1467 356.143 15.88C356.025 15.6133 355.967 15.3147 355.967 14.984C355.967 14.1947 356.276 13.5973 356.895 13.192C357.524 12.776 358.351 12.568 359.375 12.568H360.815V11.928C360.815 11.384 360.676 11.016 360.399 10.824C360.121 10.6213 359.748 10.52 359.279 10.52C359.001 10.52 358.681 10.568 358.319 10.664C357.967 10.7493 357.561 10.92 357.103 11.176L356.559 10.152ZM360.831 13.528L359.647 13.56C358.847 13.5813 358.276 13.7253 357.935 13.992C357.604 14.248 357.439 14.5627 357.439 14.936C357.439 15.16 357.476 15.352 357.551 15.512C357.625 15.6613 357.721 15.7787 357.839 15.864C357.967 15.9493 358.111 16.0133 358.271 16.056C358.441 16.088 358.617 16.104 358.799 16.104C359.151 16.104 359.508 16.024 359.871 15.864C360.233 15.6933 360.553 15.4267 360.831 15.064V13.528ZM364.083 16.136C364.083 15.8587 364.179 15.624 364.371 15.432C364.563 15.24 364.792 15.144 365.059 15.144C365.325 15.144 365.549 15.24 365.731 15.432C365.923 15.624 366.019 15.8587 366.019 16.136C366.019 16.4453 365.923 16.6907 365.731 16.872C365.549 17.0533 365.325 17.144 365.059 17.144C364.792 17.144 364.563 17.0533 364.371 16.872C364.179 16.6907 364.083 16.4453 364.083 16.136Z" fill="#EBEBEB"/>
</g>
<defs>
<linearGradient id="paint0_linear_589_714" x1="21" y1="7" x2="1" y2="22" gradientUnits="userSpaceOnUse">
<stop stop-color="#0077B6"/>
<stop offset="1" stop-color="#22A8C2" stop-opacity="0"/>
</linearGradient>
<linearGradient id="paint1_linear_589_714" x1="21" y1="4" x2="1.5" y2="14" gradientUnits="userSpaceOnUse">
<stop stop-color="#0077B6"/>
<stop offset="1" stop-color="#22A8C2" stop-opacity="0"/>
</linearGradient>
</defs>
</svg>
