<svg width="297" height="115" viewBox="0 0 297 115" fill="none" xmlns="http://www.w3.org/2000/svg">
<g id="LGPD">
<path id="tranca-lock" d="M13.3213 35.1415L21.3346 26.0841C27.2434 19.4054 37.4842 18.7791 44.1629 24.6879C50.8416 30.5967 51.468 40.8375 45.5592 47.5162L37.5459 56.5736C38.934 60.2689 39.6739 64.1625 39.7537 68.0754L52.5058 53.6618C61.8035 43.1528 60.8179 27.0388 50.3088 17.7412C39.7998 8.44357 23.6858 9.42914 14.3882 19.9382L1.6361 34.3518C5.52948 33.9541 9.4844 34.2138 13.3213 35.1415Z" fill="#BDCCD4"/>
<path id="circle-lock3" d="M51.2044 50.5556L51.2044 50.5556C54.5918 52.3497 57.6357 54.7059 60.2121 57.5011L60.9188 56.8497L60.2121 57.5011C65.731 63.4887 69.1019 71.4826 69.1019 80.2666C69.1019 98.8242 54.0578 113.868 35.5002 113.868C16.9425 113.868 1.89844 98.8242 1.89844 80.2666C1.89844 71.4826 5.2694 63.4886 10.7883 57.5011C13.3648 54.706 16.4088 52.3499 19.7961 50.5556C24.4823 48.0734 29.825 46.665 35.5002 46.665C41.1754 46.665 46.5181 48.0733 51.2044 50.5556Z" fill="#29ABE2" stroke="black" stroke-width="2"/>
<path id="circle-lock2" d="M35.5002 99.3261C45.9818 99.3261 54.4789 90.829 54.4789 80.3474C54.4789 69.8657 45.9818 61.3687 35.5002 61.3687C25.0185 61.3687 16.5215 69.8657 16.5215 80.3474C16.5215 90.829 25.0185 99.3261 35.5002 99.3261Z" fill="#7AC943"/>
<path id="circle-lock" d="M35.5004 59.2373C23.86 59.2373 14.3896 68.7076 14.3896 80.3481C14.3896 91.9885 23.86 101.459 35.5004 101.459C47.1408 101.459 56.6112 91.9885 56.6112 80.3481C56.6112 68.7076 47.1408 59.2373 35.5004 59.2373ZM35.5004 97.1958C26.2106 97.1958 18.6525 89.6381 18.6525 80.3479C18.6525 71.0577 26.2106 63.5002 35.5004 63.5002C44.7902 63.5002 52.3483 71.0579 52.3483 80.3481C52.3483 89.6383 44.7902 97.1958 35.5004 97.1958Z" fill="black"/>
<path id="verified-lock" d="M41.6094 73.308L30.8605 84.0569L27.9592 81.1554C27.1266 80.323 25.7774 80.323 24.9446 81.1554C24.1122 81.9878 24.1122 83.3374 24.9446 84.17L29.3533 88.5787C29.7696 88.995 30.3151 89.2029 30.8605 89.2029C31.406 89.2029 31.9514 88.995 32.3677 88.5787L44.6236 76.3228C45.456 75.4904 45.456 74.1408 44.6236 73.3082C43.7912 72.4754 42.442 72.4754 41.6094 73.308Z" fill="black"/>
<path id="lgpd-text" d="M98.6023 10.24H103.769V29.9269H113.349V34H98.6023V10.24ZM127.634 9.82514C129.117 9.82514 130.437 9.95085 131.594 10.2023C132.75 10.4537 133.794 10.7931 134.724 11.2206L133.63 14.728C132.75 14.3006 131.845 13.9863 130.915 13.7851C129.985 13.584 129.067 13.4834 128.162 13.4834C127.131 13.4834 126.15 13.6469 125.22 13.9737C124.315 14.3006 123.523 14.816 122.844 15.52C122.165 16.224 121.625 17.1291 121.222 18.2354C120.82 19.3166 120.619 20.624 120.619 22.1577C120.619 24.8983 121.222 27.0103 122.429 28.4937C123.661 29.952 125.409 30.6811 127.671 30.6811C128.979 30.6811 129.959 30.5554 130.613 30.304V24.76H126.691V20.9131H135.554V32.944C134.573 33.3714 133.429 33.7234 132.122 34C130.814 34.2766 129.318 34.4149 127.634 34.4149C125.874 34.4149 124.227 34.1509 122.693 33.6229C121.185 33.0949 119.865 32.3154 118.733 31.2846C117.627 30.2286 116.747 28.9463 116.093 27.4377C115.465 25.904 115.15 24.144 115.15 22.1577C115.15 20.1714 115.465 18.4114 116.093 16.8777C116.747 15.3189 117.627 14.024 118.733 12.9931C119.839 11.9623 121.147 11.1829 122.655 10.6549C124.189 10.1017 125.849 9.82514 127.634 9.82514ZM140.036 10.24H148.371C149.754 10.24 150.999 10.4034 152.105 10.7303C153.236 11.0571 154.192 11.5349 154.971 12.1634C155.776 12.792 156.392 13.5589 156.819 14.464C157.247 15.344 157.46 16.3623 157.46 17.5189C157.46 18.8766 157.209 20.0457 156.706 21.0263C156.203 22.0069 155.512 22.824 154.632 23.4777C153.777 24.1063 152.771 24.584 151.615 24.9109C150.458 25.2126 149.226 25.3634 147.919 25.3634H145.203V34H140.036V10.24ZM145.203 21.4034H147.315C147.969 21.4034 148.585 21.3531 149.163 21.2526C149.767 21.1269 150.282 20.9257 150.71 20.6491C151.162 20.3474 151.514 19.9703 151.766 19.5177C152.017 19.04 152.143 18.4491 152.143 17.7451C152.143 16.5131 151.728 15.608 150.898 15.0297C150.068 14.4514 149.012 14.1623 147.73 14.1623H145.203V21.4034ZM169.437 10.24C171.273 10.24 172.945 10.4789 174.453 10.9566C175.962 11.4343 177.257 12.1509 178.338 13.1063C179.419 14.0617 180.249 15.256 180.827 16.6891C181.431 18.0971 181.732 19.744 181.732 21.6297C181.732 23.792 181.38 25.6526 180.676 27.2114C179.972 28.7451 179.017 30.0274 177.81 31.0583C176.603 32.064 175.183 32.8057 173.548 33.2834C171.939 33.7611 170.229 34 168.419 34H161.14V10.24H169.437ZM166.307 30.0023H168.08C169.136 30.0023 170.154 29.8766 171.135 29.6251C172.14 29.3486 173.02 28.896 173.775 28.2674C174.529 27.6137 175.132 26.7589 175.585 25.7029C176.037 24.6217 176.264 23.264 176.264 21.6297C176.264 19.2411 175.585 17.4183 174.227 16.1611C172.869 14.8789 171.047 14.2377 168.759 14.2377H166.307V30.0023Z" fill="#EBEBEB"/>
<path id="lgpd-text2" d="M97.44 56.66H98.736V66.92H103.758V68H97.44V56.66ZM105.473 56.66H112.133V57.722H106.769V61.61H111.665V62.672H106.769V66.938H112.187V68H105.473V56.66ZM115.664 56.66V68H114.368V56.66H115.664ZM127.314 56.516C127.962 56.516 128.538 56.564 129.042 56.66C129.546 56.756 130.026 56.924 130.482 57.164L130.158 58.19C129.738 57.986 129.306 57.83 128.862 57.722C128.43 57.614 127.98 57.56 127.512 57.56C126.936 57.56 126.384 57.644 125.856 57.812C125.34 57.98 124.884 58.256 124.488 58.64C124.092 59.012 123.774 59.504 123.534 60.116C123.294 60.728 123.174 61.472 123.174 62.348C123.174 63.104 123.276 63.782 123.48 64.382C123.684 64.97 123.972 65.468 124.344 65.876C124.728 66.272 125.178 66.578 125.694 66.794C126.21 66.998 126.786 67.1 127.422 67.1C127.878 67.1 128.274 67.07 128.61 67.01C128.958 66.95 129.252 66.872 129.492 66.776V63.176H127.206V62.168H130.734V67.55C130.29 67.73 129.804 67.88 129.276 68C128.76 68.108 128.124 68.162 127.368 68.162C126.6 68.162 125.88 68.036 125.208 67.784C124.536 67.532 123.948 67.16 123.444 66.668C122.94 66.176 122.538 65.57 122.238 64.85C121.95 64.13 121.806 63.296 121.806 62.348C121.806 61.4 121.944 60.56 122.22 59.828C122.496 59.096 122.88 58.49 123.372 58.01C123.864 57.518 124.446 57.146 125.118 56.894C125.79 56.642 126.522 56.516 127.314 56.516ZM133.211 56.66H139.871V57.722H134.507V61.61H139.403V62.672H134.507V66.938H139.925V68H133.211V56.66ZM142.106 56.66H145.598C146.186 56.66 146.702 56.744 147.146 56.912C147.602 57.068 147.98 57.29 148.28 57.578C148.58 57.866 148.808 58.214 148.964 58.622C149.12 59.018 149.198 59.456 149.198 59.936C149.198 60.368 149.132 60.764 149 61.124C148.868 61.472 148.688 61.778 148.46 62.042C148.244 62.306 147.992 62.528 147.704 62.708C147.416 62.888 147.116 63.032 146.804 63.14L149.882 68H148.406L145.598 63.374H143.312V68H142.106V56.66ZM143.312 62.33H145.04C145.436 62.33 145.802 62.288 146.138 62.204C146.486 62.108 146.786 61.964 147.038 61.772C147.29 61.58 147.488 61.34 147.632 61.052C147.776 60.752 147.848 60.398 147.848 59.99C147.848 59.198 147.62 58.622 147.164 58.262C146.72 57.89 146.06 57.704 145.184 57.704H143.312V62.33ZM153.344 63.716H157.448L156.548 61.286C156.38 60.866 156.206 60.392 156.026 59.864C155.846 59.324 155.654 58.736 155.45 58.1H155.414C155.318 58.412 155.222 58.706 155.126 58.982C155.03 59.258 154.934 59.522 154.838 59.774C154.754 60.026 154.664 60.278 154.568 60.53C154.484 60.77 154.388 61.022 154.28 61.286L153.344 63.716ZM154.856 56.66H156.062L160.454 68H159.086L157.844 64.76H152.984L151.742 68H150.392L154.856 56.66ZM162.11 56.66H163.406V66.92H168.428V68H162.11V56.66ZM177.555 56.66C178.323 56.66 179.037 56.774 179.697 57.002C180.369 57.23 180.945 57.572 181.425 58.028C181.905 58.472 182.283 59.036 182.559 59.72C182.835 60.392 182.973 61.178 182.973 62.078C182.973 63.17 182.811 64.094 182.487 64.85C182.163 65.606 181.725 66.218 181.173 66.686C180.621 67.154 179.979 67.49 179.247 67.694C178.515 67.898 177.741 68 176.925 68H174.045V56.66H177.555ZM175.341 66.938H176.763C177.363 66.938 177.951 66.872 178.527 66.74C179.103 66.596 179.619 66.344 180.075 65.984C180.531 65.612 180.897 65.114 181.173 64.49C181.449 63.854 181.587 63.05 181.587 62.078C181.587 61.382 181.479 60.764 181.263 60.224C181.059 59.684 180.765 59.228 180.381 58.856C180.009 58.484 179.553 58.202 179.013 58.01C178.473 57.818 177.879 57.722 177.231 57.722H175.341V66.938ZM185.243 56.66H191.903V57.722H186.539V61.61H191.435V62.672H186.539V66.938H191.957V68H185.243V56.66ZM198.04 56.66H201.37C201.922 56.66 202.432 56.732 202.9 56.876C203.368 57.02 203.77 57.236 204.106 57.524C204.454 57.8 204.718 58.148 204.898 58.568C205.09 58.976 205.186 59.456 205.186 60.008C205.186 60.572 205.084 61.07 204.88 61.502C204.676 61.922 204.394 62.276 204.034 62.564C203.686 62.84 203.266 63.05 202.774 63.194C202.294 63.338 201.766 63.41 201.19 63.41H199.336V68H198.04V56.66ZM199.336 62.348H200.632C201.1 62.348 201.532 62.312 201.928 62.24C202.324 62.168 202.66 62.048 202.936 61.88C203.212 61.7 203.428 61.46 203.584 61.16C203.74 60.86 203.818 60.482 203.818 60.026C203.818 59.582 203.734 59.21 203.566 58.91C203.41 58.61 203.2 58.37 202.936 58.19C202.684 58.01 202.39 57.884 202.054 57.812C201.718 57.74 201.376 57.704 201.028 57.704H199.336V62.348ZM207.251 56.66H210.743C211.331 56.66 211.847 56.744 212.291 56.912C212.747 57.068 213.125 57.29 213.425 57.578C213.725 57.866 213.953 58.214 214.109 58.622C214.265 59.018 214.343 59.456 214.343 59.936C214.343 60.368 214.277 60.764 214.145 61.124C214.013 61.472 213.833 61.778 213.605 62.042C213.389 62.306 213.137 62.528 212.849 62.708C212.561 62.888 212.261 63.032 211.949 63.14L215.027 68H213.551L210.743 63.374H208.457V68H207.251V56.66ZM208.457 62.33H210.185C210.581 62.33 210.947 62.288 211.283 62.204C211.631 62.108 211.931 61.964 212.183 61.772C212.435 61.58 212.633 61.34 212.777 61.052C212.921 60.752 212.993 60.398 212.993 59.99C212.993 59.198 212.765 58.622 212.309 58.262C211.865 57.89 211.205 57.704 210.329 57.704H208.457V62.33ZM221.35 56.516C222.07 56.516 222.742 56.636 223.366 56.876C224.002 57.116 224.548 57.482 225.004 57.974C225.46 58.454 225.82 59.06 226.084 59.792C226.348 60.512 226.48 61.358 226.48 62.33C226.48 63.278 226.342 64.118 226.066 64.85C225.802 65.57 225.436 66.176 224.968 66.668C224.5 67.16 223.948 67.532 223.312 67.784C222.676 68.036 221.998 68.162 221.278 68.162C220.558 68.162 219.88 68.042 219.244 67.802C218.62 67.55 218.08 67.184 217.624 66.704C217.168 66.212 216.808 65.606 216.544 64.886C216.28 64.154 216.148 63.302 216.148 62.33C216.148 61.382 216.28 60.548 216.544 59.828C216.82 59.108 217.192 58.502 217.66 58.01C218.128 57.518 218.674 57.146 219.298 56.894C219.934 56.642 220.618 56.516 221.35 56.516ZM217.534 62.33C217.534 63.146 217.636 63.854 217.84 64.454C218.044 65.054 218.32 65.552 218.668 65.948C219.016 66.344 219.418 66.638 219.874 66.83C220.342 67.022 220.834 67.118 221.35 67.118C221.866 67.118 222.346 67.022 222.79 66.83C223.246 66.638 223.642 66.344 223.978 65.948C224.326 65.552 224.596 65.054 224.788 64.454C224.992 63.854 225.094 63.146 225.094 62.33C225.094 61.502 224.992 60.788 224.788 60.188C224.584 59.576 224.308 59.078 223.96 58.694C223.612 58.31 223.204 58.028 222.736 57.848C222.28 57.656 221.794 57.56 221.278 57.56C220.762 57.56 220.276 57.656 219.82 57.848C219.376 58.04 218.98 58.334 218.632 58.73C218.296 59.126 218.026 59.624 217.822 60.224C217.63 60.824 217.534 61.526 217.534 62.33ZM235.708 56.66V57.74H231.982V68H230.686V57.74H227.032V56.66H235.708ZM237.309 56.66H243.969V57.722H238.605V61.61H243.501V62.672H238.605V66.938H244.023V68H237.309V56.66ZM250.94 67.1C251.528 67.1 252.014 67.046 252.398 66.938C252.794 66.83 253.166 66.692 253.514 66.524L253.82 67.568C253.436 67.748 253.022 67.892 252.578 68C252.134 68.096 251.588 68.15 250.94 68.162L250.634 68.846C250.97 68.858 251.252 68.906 251.48 68.99C251.72 69.074 251.912 69.182 252.056 69.314C252.212 69.446 252.32 69.59 252.38 69.746C252.452 69.914 252.488 70.088 252.488 70.268C252.488 70.772 252.278 71.162 251.858 71.438C251.45 71.714 250.934 71.852 250.31 71.852C250.034 71.852 249.776 71.828 249.536 71.78C249.308 71.744 249.122 71.696 248.978 71.636L249.176 70.97C249.332 71.03 249.494 71.072 249.662 71.096C249.842 71.12 250.016 71.132 250.184 71.132C250.64 71.132 250.97 71.054 251.174 70.898C251.39 70.754 251.498 70.556 251.498 70.304C251.498 70.184 251.474 70.07 251.426 69.962C251.378 69.854 251.288 69.758 251.156 69.674C251.024 69.59 250.832 69.524 250.58 69.476C250.328 69.428 249.998 69.404 249.59 69.404L250.202 68.126C249.518 68.066 248.882 67.898 248.294 67.622C247.718 67.346 247.214 66.968 246.782 66.488C246.35 65.996 246.008 65.408 245.756 64.724C245.516 64.028 245.396 63.236 245.396 62.348C245.396 61.424 245.528 60.602 245.792 59.882C246.068 59.15 246.446 58.538 246.926 58.046C247.418 57.542 247.994 57.164 248.654 56.912C249.314 56.648 250.034 56.516 250.814 56.516C251.522 56.516 252.11 56.576 252.578 56.696C253.046 56.804 253.478 56.96 253.874 57.164L253.568 58.172C253.148 57.968 252.74 57.818 252.344 57.722C251.96 57.626 251.516 57.578 251.012 57.578C250.448 57.578 249.908 57.668 249.392 57.848C248.888 58.028 248.444 58.31 248.06 58.694C247.676 59.078 247.364 59.576 247.124 60.188C246.896 60.788 246.782 61.514 246.782 62.366C246.782 63.242 246.896 63.98 247.124 64.58C247.364 65.18 247.676 65.666 248.06 66.038C248.456 66.41 248.9 66.68 249.392 66.848C249.896 67.016 250.412 67.1 250.94 67.1ZM257.041 55.184C257.041 54.656 257.161 54.212 257.401 53.852C257.653 53.48 258.055 53.294 258.607 53.294C258.859 53.294 259.081 53.342 259.273 53.438C259.477 53.522 259.663 53.624 259.831 53.744C260.011 53.852 260.179 53.954 260.335 54.05C260.503 54.134 260.689 54.176 260.893 54.176C261.169 54.176 261.361 54.08 261.469 53.888C261.589 53.696 261.661 53.48 261.685 53.24H262.495C262.495 53.48 262.459 53.714 262.387 53.942C262.327 54.158 262.231 54.35 262.099 54.518C261.979 54.686 261.823 54.824 261.631 54.932C261.451 55.04 261.235 55.094 260.983 55.094C260.719 55.094 260.479 55.052 260.263 54.968C260.047 54.872 259.843 54.77 259.651 54.662C259.471 54.554 259.297 54.458 259.129 54.374C258.973 54.278 258.817 54.23 258.661 54.23C258.373 54.23 258.169 54.326 258.049 54.518C257.941 54.698 257.875 54.92 257.851 55.184H257.041ZM257.635 63.716H261.739L260.839 61.286C260.671 60.866 260.497 60.392 260.317 59.864C260.137 59.324 259.945 58.736 259.741 58.1H259.705C259.609 58.412 259.513 58.706 259.417 58.982C259.321 59.258 259.225 59.522 259.129 59.774C259.045 60.026 258.955 60.278 258.859 60.53C258.775 60.77 258.679 61.022 258.571 61.286L257.635 63.716ZM259.147 56.66H260.353L264.745 68H263.377L262.135 64.76H257.275L256.033 68H254.683L259.147 56.66ZM270.639 56.516C271.359 56.516 272.031 56.636 272.655 56.876C273.291 57.116 273.837 57.482 274.293 57.974C274.749 58.454 275.109 59.06 275.373 59.792C275.637 60.512 275.769 61.358 275.769 62.33C275.769 63.278 275.631 64.118 275.355 64.85C275.091 65.57 274.725 66.176 274.257 66.668C273.789 67.16 273.237 67.532 272.601 67.784C271.965 68.036 271.287 68.162 270.567 68.162C269.847 68.162 269.169 68.042 268.533 67.802C267.909 67.55 267.369 67.184 266.913 66.704C266.457 66.212 266.097 65.606 265.833 64.886C265.569 64.154 265.437 63.302 265.437 62.33C265.437 61.382 265.569 60.548 265.833 59.828C266.109 59.108 266.481 58.502 266.949 58.01C267.417 57.518 267.963 57.146 268.587 56.894C269.223 56.642 269.907 56.516 270.639 56.516ZM266.823 62.33C266.823 63.146 266.925 63.854 267.129 64.454C267.333 65.054 267.609 65.552 267.957 65.948C268.305 66.344 268.707 66.638 269.163 66.83C269.631 67.022 270.123 67.118 270.639 67.118C271.155 67.118 271.635 67.022 272.079 66.83C272.535 66.638 272.931 66.344 273.267 65.948C273.615 65.552 273.885 65.054 274.077 64.454C274.281 63.854 274.383 63.146 274.383 62.33C274.383 61.502 274.281 60.788 274.077 60.188C273.873 59.576 273.597 59.078 273.249 58.694C272.901 58.31 272.493 58.028 272.025 57.848C271.569 57.656 271.083 57.56 270.567 57.56C270.051 57.56 269.565 57.656 269.109 57.848C268.665 58.04 268.269 58.334 267.921 58.73C267.585 59.126 267.315 59.624 267.111 60.224C266.919 60.824 266.823 61.526 266.823 62.33ZM100.95 83.66C101.718 83.66 102.432 83.774 103.092 84.002C103.764 84.23 104.34 84.572 104.82 85.028C105.3 85.472 105.678 86.036 105.954 86.72C106.23 87.392 106.368 88.178 106.368 89.078C106.368 90.17 106.206 91.094 105.882 91.85C105.558 92.606 105.12 93.218 104.568 93.686C104.016 94.154 103.374 94.49 102.642 94.694C101.91 94.898 101.136 95 100.32 95H97.44V83.66H100.95ZM98.736 93.938H100.158C100.758 93.938 101.346 93.872 101.922 93.74C102.498 93.596 103.014 93.344 103.47 92.984C103.926 92.612 104.292 92.114 104.568 91.49C104.844 90.854 104.982 90.05 104.982 89.078C104.982 88.382 104.874 87.764 104.658 87.224C104.454 86.684 104.16 86.228 103.776 85.856C103.404 85.484 102.948 85.202 102.408 85.01C101.868 84.818 101.274 84.722 100.626 84.722H98.736V93.938ZM108.637 83.66H115.297V84.722H109.933V88.61H114.829V89.672H109.933V93.938H115.351V95H108.637V83.66ZM124.944 83.66C125.712 83.66 126.426 83.774 127.086 84.002C127.758 84.23 128.334 84.572 128.814 85.028C129.294 85.472 129.672 86.036 129.948 86.72C130.224 87.392 130.362 88.178 130.362 89.078C130.362 90.17 130.2 91.094 129.876 91.85C129.552 92.606 129.114 93.218 128.562 93.686C128.01 94.154 127.368 94.49 126.636 94.694C125.904 94.898 125.13 95 124.314 95H121.434V83.66H124.944ZM122.73 93.938H124.152C124.752 93.938 125.34 93.872 125.916 93.74C126.492 93.596 127.008 93.344 127.464 92.984C127.92 92.612 128.286 92.114 128.562 91.49C128.838 90.854 128.976 90.05 128.976 89.078C128.976 88.382 128.868 87.764 128.652 87.224C128.448 86.684 128.154 86.228 127.77 85.856C127.398 85.484 126.942 85.202 126.402 85.01C125.862 84.818 125.268 84.722 124.62 84.722H122.73V93.938ZM134.008 90.716H138.112L137.212 88.286C137.044 87.866 136.87 87.392 136.69 86.864C136.51 86.324 136.318 85.736 136.114 85.1H136.078C135.982 85.412 135.886 85.706 135.79 85.982C135.694 86.258 135.598 86.522 135.502 86.774C135.418 87.026 135.328 87.278 135.232 87.53C135.148 87.77 135.052 88.022 134.944 88.286L134.008 90.716ZM135.52 83.66H136.726L141.118 95H139.75L138.508 91.76H133.648L132.406 95H131.056L135.52 83.66ZM146.284 83.66C147.052 83.66 147.766 83.774 148.426 84.002C149.098 84.23 149.674 84.572 150.154 85.028C150.634 85.472 151.012 86.036 151.288 86.72C151.564 87.392 151.702 88.178 151.702 89.078C151.702 90.17 151.54 91.094 151.216 91.85C150.892 92.606 150.454 93.218 149.902 93.686C149.35 94.154 148.708 94.49 147.976 94.694C147.244 94.898 146.47 95 145.654 95H142.774V83.66H146.284ZM144.07 93.938H145.492C146.092 93.938 146.68 93.872 147.256 93.74C147.832 93.596 148.348 93.344 148.804 92.984C149.26 92.612 149.626 92.114 149.902 91.49C150.178 90.854 150.316 90.05 150.316 89.078C150.316 88.382 150.208 87.764 149.992 87.224C149.788 86.684 149.494 86.228 149.11 85.856C148.738 85.484 148.282 85.202 147.742 85.01C147.202 84.818 146.608 84.722 145.96 84.722H144.07V93.938ZM158.561 83.516C159.281 83.516 159.953 83.636 160.577 83.876C161.213 84.116 161.759 84.482 162.215 84.974C162.671 85.454 163.031 86.06 163.295 86.792C163.559 87.512 163.691 88.358 163.691 89.33C163.691 90.278 163.553 91.118 163.277 91.85C163.013 92.57 162.647 93.176 162.179 93.668C161.711 94.16 161.159 94.532 160.523 94.784C159.887 95.036 159.209 95.162 158.489 95.162C157.769 95.162 157.091 95.042 156.455 94.802C155.831 94.55 155.291 94.184 154.835 93.704C154.379 93.212 154.019 92.606 153.755 91.886C153.491 91.154 153.359 90.302 153.359 89.33C153.359 88.382 153.491 87.548 153.755 86.828C154.031 86.108 154.403 85.502 154.871 85.01C155.339 84.518 155.885 84.146 156.509 83.894C157.145 83.642 157.829 83.516 158.561 83.516ZM154.745 89.33C154.745 90.146 154.847 90.854 155.051 91.454C155.255 92.054 155.531 92.552 155.879 92.948C156.227 93.344 156.629 93.638 157.085 93.83C157.553 94.022 158.045 94.118 158.561 94.118C159.077 94.118 159.557 94.022 160.001 93.83C160.457 93.638 160.853 93.344 161.189 92.948C161.537 92.552 161.807 92.054 161.999 91.454C162.203 90.854 162.305 90.146 162.305 89.33C162.305 88.502 162.203 87.788 161.999 87.188C161.795 86.576 161.519 86.078 161.171 85.694C160.823 85.31 160.415 85.028 159.947 84.848C159.491 84.656 159.005 84.56 158.489 84.56C157.973 84.56 157.487 84.656 157.031 84.848C156.587 85.04 156.191 85.334 155.843 85.73C155.507 86.126 155.237 86.624 155.033 87.224C154.841 87.824 154.745 88.526 154.745 89.33ZM169.038 83.516C169.578 83.516 170.094 83.564 170.586 83.66C171.09 83.756 171.588 83.918 172.08 84.146L171.756 85.208C171.24 84.968 170.772 84.8 170.352 84.704C169.944 84.608 169.524 84.56 169.092 84.56C168.36 84.56 167.772 84.728 167.328 85.064C166.884 85.388 166.662 85.85 166.662 86.45C166.662 86.978 166.83 87.398 167.166 87.71C167.502 88.01 168.024 88.274 168.732 88.502L169.938 88.898C170.862 89.21 171.534 89.636 171.954 90.176C172.386 90.704 172.602 91.31 172.602 91.994C172.602 92.486 172.506 92.93 172.314 93.326C172.134 93.71 171.876 94.04 171.54 94.316C171.204 94.58 170.802 94.79 170.334 94.946C169.866 95.09 169.35 95.162 168.786 95.162C168.21 95.162 167.634 95.108 167.058 95C166.494 94.892 165.924 94.706 165.348 94.442L165.69 93.38C166.194 93.632 166.686 93.818 167.166 93.938C167.658 94.046 168.174 94.1 168.714 94.1C169.446 94.1 170.052 93.938 170.532 93.614C171.024 93.29 171.27 92.792 171.27 92.12C171.27 91.88 171.234 91.658 171.162 91.454C171.102 91.238 170.988 91.04 170.82 90.86C170.652 90.68 170.424 90.512 170.136 90.356C169.848 90.188 169.482 90.032 169.038 89.888L167.868 89.51C167.112 89.27 166.5 88.922 166.032 88.466C165.564 87.998 165.33 87.38 165.33 86.612C165.33 85.664 165.648 84.914 166.284 84.362C166.92 83.798 167.838 83.516 169.038 83.516Z" fill="#EBEBEB"/>
</g>
</svg>
