<svg width="205" height="201" viewBox="0 0 205 201" fill="none" xmlns="http://www.w3.org/2000/svg">
<g id="logo-svg">
<path id="cirlce-1" d="M102.275 0.5C158.49 0.5 204.05 45.2798 204.05 100.5C204.05 155.72 158.49 200.5 102.275 200.5C46.0596 200.5 0.5 155.72 0.5 100.5C0.5 45.2798 46.0596 0.5 102.275 0.5ZM196.405 100.5C196.405 49.4023 154.252 7.99422 102.275 7.99422C50.2981 7.99422 8.14453 49.4023 8.14453 100.5C8.14453 151.597 50.2981 193.006 102.275 193.006C154.252 193.006 196.405 151.597 196.405 100.5Z" fill="url(#paint0_linear_634_545)" stroke="white"/>
<g id="elo">
<path id="linear12" d="M128.116 103.109L128.376 102.93L128.326 102.618C126.275 89.7059 115.077 79.8057 101.609 79.8057C88.1424 79.8057 76.9451 89.7069 74.8922 102.617L74.8426 102.929L75.1029 103.108C81.452 107.47 85.6216 114.785 85.6216 123.057V152.202C85.6216 156.569 82.0718 160.123 77.7109 160.123C73.3499 160.123 69.8001 156.569 69.8001 152.202V106.89C69.8001 106.547 69.8055 106.206 69.8162 105.866L69.8267 105.534L69.525 105.396C67.0711 104.27 64.3447 103.643 61.4746 103.643C50.7812 103.643 42.0833 112.352 42.0833 123.057V145.241C42.0833 146.556 41.0184 147.622 39.7054 147.622C38.3929 147.622 37.3279 146.556 37.3279 145.241V123.057C37.3279 109.726 48.161 98.8802 61.4746 98.8802C64.43 98.8802 67.2617 99.4142 69.88 100.39L70.4193 100.591L70.543 100.029C73.6856 85.7554 86.4231 75.043 101.609 75.043C116.795 75.043 129.532 85.7554 132.675 100.029L132.799 100.591L133.338 100.39C135.956 99.4142 138.789 98.8802 141.744 98.8802C155.058 98.8802 165.891 109.726 165.891 123.057V145.241C165.891 146.556 164.826 147.622 163.513 147.622C162.201 147.622 161.135 146.556 161.135 145.241V123.057C161.135 112.352 152.437 103.643 141.744 103.643C138.874 103.643 136.147 104.27 133.693 105.396L133.391 105.534L133.402 105.866C133.413 106.206 133.418 106.548 133.418 106.89V152.202C133.418 156.569 129.869 160.123 125.508 160.123C121.147 160.123 117.597 156.569 117.597 152.202V123.057C117.597 114.785 121.766 107.47 128.116 103.109ZM128.662 109.923V108.685L127.803 109.576C124.431 113.07 122.353 117.824 122.353 123.057V152.202C122.353 153.943 123.767 155.36 125.508 155.36C127.248 155.36 128.662 153.943 128.662 152.202V109.923ZM75.4156 109.575L74.5558 108.684V109.922V152.202C74.5558 153.943 75.9701 155.36 77.7109 155.36C79.4515 155.36 80.8661 153.943 80.8661 152.202V123.057C80.8661 117.824 78.7873 113.069 75.4156 109.575Z" fill="url(#paint1_linear_634_545)" stroke="white"/>
<path id="head-3" d="M142.43 103.772C133.648 103.772 126.513 96.7235 126.513 88.076C126.513 79.4288 133.648 72.3808 142.43 72.3808C151.213 72.3808 158.348 79.4288 158.348 88.076C158.348 96.7235 151.213 103.772 142.43 103.772ZM142.43 77.2197C136.372 77.2197 131.432 82.0832 131.432 88.076C131.432 94.0692 136.372 98.9324 142.43 98.9324C148.489 98.9324 153.428 94.0691 153.428 88.076C153.428 82.0832 148.489 77.2197 142.43 77.2197Z" fill="#07DB91" stroke="white"/>
<path id="head-2" d="M102.275 79.3675C91.4242 79.3675 82.5861 70.4399 82.5861 59.4565C82.5861 48.4731 91.4241 39.5464 102.275 39.5464C113.125 39.5464 121.964 48.4731 121.964 59.4565C121.964 70.4399 113.125 79.3675 102.275 79.3675ZM102.275 44.4091C94.0591 44.4091 87.3853 51.1643 87.3853 59.4565C87.3853 67.7496 94.0591 74.5048 102.275 74.5048C110.491 74.5048 117.165 67.7496 117.165 59.4565C117.165 51.1643 110.491 44.4091 102.275 44.4091Z" fill="url(#paint2_linear_634_545)" stroke="white"/>
<path id="head-1" d="M61.4538 103.772C52.7998 103.772 45.7583 96.7299 45.7583 88.076C45.7583 79.4224 52.7998 72.3808 61.4538 72.3808C70.1078 72.3808 77.149 79.4224 77.149 88.076C77.149 96.7299 70.1078 103.772 61.4538 103.772ZM61.4538 77.2197C55.4674 77.2197 50.5976 82.0896 50.5976 88.076C50.5976 94.0628 55.4674 98.9324 61.4538 98.9324C67.4404 98.9324 72.31 94.0627 72.31 88.076C72.31 82.0896 67.4404 77.2197 61.4538 77.2197Z" fill="#00BE7D" stroke="white"/>
</g>
</g>
<defs>
<linearGradient id="paint0_linear_634_545" x1="31.9202" y1="3.71389" x2="151.208" y2="198.08" gradientUnits="userSpaceOnUse">
<stop stop-color="#00FAA2"/>
<stop offset="1" stop-color="#006F48"/>
</linearGradient>
<linearGradient id="paint1_linear_634_545" x1="34.8329" y1="89.0614" x2="122.803" y2="167.858" gradientUnits="userSpaceOnUse">
<stop stop-color="#16F0A4"/>
<stop offset="0.360784" stop-color="#0BC282"/>
<stop offset="0.54902" stop-color="#0ABD7E"/>
<stop offset="1" stop-color="#009460"/>
</linearGradient>
<linearGradient id="paint2_linear_634_545" x1="133.532" y1="32.4054" x2="58.9537" y2="71.5652" gradientUnits="userSpaceOnUse">
<stop stop-color="#07DB91"/>
<stop offset="1" stop-color="#00A36A"/>
</linearGradient>
</defs>
</svg>
