<svg width="48" height="48" viewBox="0 0 48 48" fill="none" xmlns="http://www.w3.org/2000/svg">
<g id="menu-icon">
<path id="cirlce-1" fill-rule="evenodd" clip-rule="evenodd" d="M23.9999 0C37.2544 0 48 10.7452 48 24C48 37.2548 37.2544 48 23.9999 48C10.7456 48 0 37.2548 0 24C0 10.7452 10.7456 0 23.9999 0ZM24 2.02847C36.1342 2.02847 45.9715 11.8655 45.9715 24C45.9715 36.1345 36.1342 45.9715 24 45.9715C11.8659 45.9715 2.02854 36.1345 2.02854 24C2.02854 11.8655 11.8659 2.02847 24 2.02847Z" fill="url(#paint0_linear_609_654)"/>
<path id="body" d="M29.5711 38.4255C28.4782 38.4255 27.5891 37.5205 27.5891 36.4081V29.4255C27.5891 27.4026 28.5921 25.614 30.1189 24.5477C29.6443 21.5113 27.054 19.1834 23.9394 19.1834C20.825 19.1834 18.2348 21.5115 17.76 24.5475C19.2867 25.614 20.2898 27.4026 20.2898 29.4255V36.4081C20.2898 37.5205 19.4007 38.4255 18.3078 38.4255C17.215 38.4255 16.3258 37.5205 16.3258 36.4081V25.5523C16.3258 25.4689 16.3271 25.386 16.3297 25.3032C15.7665 25.0405 15.1408 24.8942 14.4818 24.8942C12.0271 24.8942 10.0301 26.9269 10.0301 29.4255V34.7404C10.0301 35.1215 9.72655 35.4307 9.3519 35.4307C8.97737 35.4307 8.67383 35.1215 8.67383 34.7404V29.4255C8.67383 26.1658 11.2792 23.5136 14.4818 23.5136C15.1925 23.5136 15.8737 23.6442 16.5037 23.883C17.2558 20.4097 20.3042 17.8027 23.9394 17.8027C27.5746 17.8027 30.6229 20.4097 31.3751 23.883C32.0051 23.6442 32.6864 23.5136 33.3971 23.5136C36.5997 23.5136 39.2051 26.1658 39.2051 29.4255V34.7404C39.2051 35.1215 38.9015 35.4307 38.5269 35.4307C38.1524 35.4307 37.8488 35.1215 37.8488 34.7404V29.4255C37.8488 26.9269 35.8518 24.8942 33.3971 24.8942C32.7381 24.8942 32.1123 25.0405 31.5491 25.3032C31.5517 25.3859 31.553 25.4691 31.553 25.5523V36.4081C31.553 37.5205 30.6639 38.4255 29.5711 38.4255V38.4255ZM30.1966 26.279C29.4223 27.0947 28.9454 28.2044 28.9454 29.4255V36.4081C28.9454 36.7592 29.2261 37.045 29.5711 37.045C29.916 37.045 30.1966 36.7592 30.1966 36.4081V26.279ZM17.6822 26.2788V36.4081C17.6822 36.7592 17.9628 37.045 18.3078 37.045C18.6528 37.045 18.9335 36.7592 18.9335 36.4081V29.4255C18.9335 28.2044 18.4564 27.0944 17.6822 26.2788Z" fill="url(#paint1_linear_609_654)"/>
<path id="head-3" d="M33.4804 24.8532C31.3761 24.8532 29.6641 23.1136 29.6641 20.9754C29.6641 18.8373 31.3761 17.0977 33.4804 17.0977C35.5848 17.0977 37.2969 18.8373 37.2969 20.9754C37.2969 23.1136 35.5848 24.8532 33.4804 24.8532ZM33.4804 18.4957C32.1348 18.4957 31.04 19.6081 31.04 20.9754C31.04 22.3427 32.1348 23.4551 33.4804 23.4551C34.8261 23.4551 35.9209 22.3427 35.9209 20.9754C35.9209 19.6081 34.8261 18.4957 33.4804 18.4957Z" fill="#07DB91"/>
<path id="head-2" d="M24.0259 19.0363C21.3955 19.0363 19.2554 16.8617 19.2554 14.1889C19.2554 11.5162 21.3955 9.3418 24.0259 9.3418C26.6563 9.3418 28.7964 11.5162 28.7964 14.1889C28.7964 16.8617 26.6563 19.0363 24.0259 19.0363ZM24.0259 10.7341C22.151 10.7341 20.6257 12.284 20.6257 14.1889C20.6257 16.0941 22.151 17.6439 24.0259 17.6439C25.9009 17.6439 27.4261 16.0941 27.4261 14.1889C27.4261 12.284 25.9009 10.7341 24.0259 10.7341Z" fill="url(#paint2_linear_609_654)"/>
<path id="head-1" d="M14.3985 24.8532C12.2941 24.8532 10.582 23.1136 10.582 20.9754C10.582 18.8373 12.2941 17.0977 14.3985 17.0977C16.5028 17.0977 18.2148 18.8373 18.2148 20.9754C18.2148 23.1136 16.5028 24.8532 14.3985 24.8532ZM14.3985 18.4957C13.0529 18.4957 11.9581 19.6081 11.9581 20.9754C11.9581 22.3427 13.0529 23.4551 14.3985 23.4551C15.7441 23.4551 16.8389 22.3427 16.8389 20.9754C16.8389 19.6081 15.7441 18.4957 14.3985 18.4957Z" fill="#00BE7D"/>
</g>
<defs>
<linearGradient id="paint0_linear_609_654" x1="7.49045" y1="0.8869" x2="36.2003" y2="46.8546" gradientUnits="userSpaceOnUse">
<stop stop-color="#00FAA2"/>
<stop offset="1" stop-color="#006F48"/>
</linearGradient>
<linearGradient id="paint1_linear_609_654" x1="8.20373" y1="21.281" x2="29.2385" y2="39.8132" gradientUnits="userSpaceOnUse">
<stop stop-color="#16F0A4"/>
<stop offset="0.360784" stop-color="#0BC282"/>
<stop offset="0.54902" stop-color="#0ABD7E"/>
<stop offset="1" stop-color="#009460"/>
</linearGradient>
<linearGradient id="paint2_linear_609_654" x1="31.4117" y1="7.76465" x2="13.7511" y2="16.9915" gradientUnits="userSpaceOnUse">
<stop stop-color="#07DB91"/>
<stop offset="1" stop-color="#00A36A"/>
</linearGradient>
</defs>
</svg>
