<svg width="277" height="283" viewBox="0 0 277 283" fill="none" xmlns="http://www.w3.org/2000/svg">
<g id="Token">
<g id="tampa-token">
<g id="g3263">
<g id="path3713" opacity="0.33679" filter="url(#filter0_f_416_575)">
<path d="M189.633 167.484L216.993 174.211C234.727 178.572 242.875 195.464 235.268 212.085L227.075 229.986L142.84 208.752L139.206 207.858L141.304 203.275L147.402 189.952C155.009 173.331 171.899 163.124 189.633 167.484Z" fill="black"/>
<path d="M143.038 208.32L139.897 207.547L141.797 203.397L147.895 190.073C151.662 181.843 157.713 175.232 164.976 171.218C172.228 167.21 180.717 165.773 189.435 167.916L216.795 174.644C234.226 178.93 242.285 195.554 234.775 211.963L226.78 229.43L143.041 208.32L143.038 208.32Z" stroke="white"/>
</g>
<path id="rect3267" d="M142.429 208.756L139.524 208.041L141.29 204.183L146.998 191.712C150.522 184.011 156.182 177.827 162.973 174.073C169.754 170.324 177.691 168.98 185.844 170.985L211.467 177.285C227.764 181.292 235.311 196.837 228.285 212.189L220.81 228.519L142.432 208.756L142.429 208.756Z" fill="url(#paint0_linear_416_575)" stroke="white"/>
</g>
<path id="path3338" d="M139.701 208.905L138.412 207.662L140.265 178.853L150.201 181.442L139.701 208.905Z" fill="url(#paint1_linear_416_575)" stroke="white"/>
<g id="g3292">
<path id="path3294" d="M151.081 156.808L151.082 156.808L151.087 156.798C158.446 141.502 177.402 132.751 193.554 137.082L218.945 143.891C235.096 148.221 242.267 163.975 234.912 179.268L224.052 200.401L140.229 177.925L151.081 156.808Z" fill="url(#paint2_linear_416_575)" stroke="white"/>
</g>
<path id="rect3298" d="M234.049 202.248L224.981 224.549L225.907 200.789L225.954 200.665L226.171 200.092C226.359 199.595 226.63 198.879 226.962 198.003C227.625 196.251 228.528 193.856 229.492 191.288C231.418 186.155 233.588 180.319 234.552 177.536C235.407 175.07 235.993 173.166 236.369 171.454C236.99 181.429 237.137 193.111 234.049 202.248Z" fill="url(#paint3_linear_416_575)" stroke="white"/>
<path id="rect3286" d="M221.984 200.284L140.672 178.682C139.256 178.305 138.061 179.003 138.003 180.239L136.864 204.382C136.806 205.618 137.906 206.925 139.322 207.302L220.634 228.904C222.05 229.28 223.245 228.583 223.303 227.347L224.442 203.204C224.5 201.968 223.4 200.66 221.984 200.284Z" fill="url(#paint4_linear_416_575)" stroke="white"/>
</g>
<g id="token">
<g id="g3839" opacity="0.34715" filter="url(#filter1_f_416_575)">
<path id="rect3841" d="M30.9353 66.5918H119.276C120.08 66.5918 120.86 67.0586 121.459 67.9186C122.058 68.7769 122.444 69.9895 122.444 71.3527V194.867C122.444 196.23 122.058 197.443 121.459 198.301C120.86 199.161 120.08 199.628 119.276 199.628H30.9353C30.1313 199.628 29.3516 199.161 28.752 198.301C28.1536 197.443 27.7676 196.23 27.7676 194.867V71.3527C27.7676 69.9895 28.1536 68.7769 28.752 67.9186C29.3516 67.0586 30.1313 66.5918 30.9353 66.5918Z" fill="black" stroke="white"/>
<path id="rect3843" d="M60.7818 28.5674H89.4294C98.4753 28.5674 106.717 33.826 112.717 42.4334C118.717 51.0391 122.444 62.9546 122.444 76.1399V114.031C122.444 127.217 118.717 139.132 112.717 147.738C106.717 156.345 98.4753 161.604 89.4294 161.604H60.7818C51.736 161.604 43.4946 156.345 37.4938 147.738C31.4943 139.132 27.7676 127.217 27.7676 114.031V76.1399C27.7676 62.9546 31.4943 51.0391 37.4938 42.4334C43.4946 33.826 51.736 28.5674 60.7818 28.5674Z" fill="black" stroke="white"/>
</g>
<g id="g5416">
<path id="rect5342" d="M23.6677 27.2969H112.008C113.753 27.2969 115.176 28.7278 115.176 30.5043V162.761C115.176 164.538 113.753 165.969 112.008 165.969H23.6677C21.9233 165.969 20.5 164.538 20.5 162.761V30.5043C20.5 28.7278 21.9233 27.2969 23.6677 27.2969Z" fill="url(#paint5_linear_416_575)" stroke="white"/>
<path id="rect5412" d="M53.5143 0.5H82.1619C100.39 0.5 115.176 15.4386 115.176 33.8776V60.5805C115.176 79.0195 100.39 93.9581 82.1619 93.9581H53.5143C35.2861 93.9581 20.5 79.0195 20.5 60.5805V33.8776C20.5 15.4386 35.2861 0.5 53.5143 0.5Z" fill="url(#paint6_linear_416_575)" stroke="white"/>
</g>
<g id="g3260">
<g id="rect3877" opacity="0.39592" filter="url(#filter2_f_416_575)">
<path d="M114.444 195.073H36.4652C35.0525 195.073 33.9072 196.231 33.9072 197.659V254.415C33.9072 255.843 35.0525 257 36.4652 257H114.444C115.857 257 117.002 255.843 117.002 254.415V197.659C117.002 196.231 115.857 195.073 114.444 195.073Z" fill="black"/>
<path d="M36.4652 195.573H114.444C115.575 195.573 116.502 196.502 116.502 197.659V254.415C116.502 255.572 115.575 256.5 114.444 256.5H36.4652C35.3337 256.5 34.4072 255.572 34.4072 254.415V197.659C34.4072 196.502 35.3337 195.573 36.4652 195.573Z" stroke="white"/>
</g>
<path id="rect5308" d="M111.706 161.301H23.9341C22.1627 161.301 20.7266 162.705 20.7266 164.438V198.266C20.7266 199.998 22.1627 201.403 23.9341 201.403H111.706C113.478 201.403 114.914 199.998 114.914 198.266V164.438C114.914 162.705 113.478 161.301 111.706 161.301Z" fill="url(#paint7_linear_416_575)" stroke="white"/>
<path id="rect5717" opacity="0.2" d="M29.5612 164.792H105.959C107.512 164.792 108.752 166.021 108.752 167.513V172.668C108.752 174.16 107.512 175.388 105.959 175.388H29.5612C28.0083 175.388 26.7686 174.16 26.7686 172.668V167.513C26.7686 166.021 28.0083 164.792 29.5612 164.792Z" fill="url(#paint8_linear_416_575)" stroke="white"/>
<path id="rect3152" d="M28.9125 172.328H106.722C107.917 172.328 108.866 173.272 108.866 174.414V231.169C108.866 232.31 107.917 233.255 106.722 233.255H28.9125C27.7179 233.255 26.7686 232.31 26.7686 231.169V174.414C26.7686 173.272 27.7179 172.328 28.9125 172.328Z" fill="url(#paint9_linear_416_575)" stroke="white"/>
<path id="path4191" opacity="0.27347" d="M26.7236 228.596V171.953L73.0676 172.341C73.2146 189.616 70.8345 203.209 66.3064 212.477C61.7459 221.812 55.0403 226.712 46.5395 226.674C39.4788 226.64 34.3731 227.165 31.0253 227.701C29.3514 227.97 28.1171 228.24 27.2978 228.445C27.0762 228.501 26.885 228.551 26.7236 228.596Z" fill="url(#paint10_linear_416_575)" stroke="white"/>
<path id="rect2160" d="M105.749 226.649H29.7499C28.3854 226.649 27.2793 227.731 27.2793 229.065V248.515C27.2793 249.849 28.3854 250.931 29.7499 250.931H105.749C107.113 250.931 108.219 249.849 108.219 248.515V229.065C108.219 227.731 107.113 226.649 105.749 226.649Z" fill="url(#paint11_linear_416_575)" stroke="white"/>
<g id="g5817">
<path id="rect5260" d="M29.5878 228.212H105.8C106.094 228.212 106.366 228.466 106.366 228.821V244.003C106.366 244.358 106.094 244.611 105.8 244.611H29.5878C29.294 244.611 29.0225 244.358 29.0225 244.003V228.821C29.0225 228.466 29.294 228.212 29.5878 228.212Z" fill="#0B0B0B" stroke="white"/>
<path id="rect5258" d="M29.5048 243.841H105.883C106.131 243.841 106.366 244.056 106.366 244.363V248.655C106.366 248.963 106.131 249.177 105.883 249.177H29.5048C29.2569 249.177 29.0225 248.963 29.0225 248.655V244.363C29.0225 244.056 29.2569 243.841 29.5048 243.841Z" fill="#1D1D1D" stroke="white"/>
</g>
<g id="g5262">
<path id="rect3194" d="M55.3926 188.771H41.7685C40.7497 188.771 39.9238 189.606 39.9238 190.636V197.628C39.9238 198.658 40.7497 199.493 41.7685 199.493H55.3926C56.4114 199.493 57.2373 198.658 57.2373 197.628V190.636C57.2373 189.606 56.4114 188.771 55.3926 188.771Z" fill="#1D1D1D" stroke="white"/>
<path id="rect4179" d="M92.9473 188.771H79.3232C78.3044 188.771 77.4785 189.606 77.4785 190.636V197.628C77.4785 198.658 78.3044 199.493 79.3232 199.493H92.9473C93.9661 199.493 94.792 198.658 94.792 197.628V190.636C94.792 189.606 93.9661 188.771 92.9473 188.771Z" fill="#1D1D1D" stroke="white"/>
<g id="g5998">
<path id="rect5796" opacity="0.3" d="M85.3694 189.573H92.9545C93.5282 189.573 93.9954 190.041 93.9954 190.631V197.631C93.9954 198.225 93.524 198.694 92.9494 198.694C92.9492 198.694 92.9491 198.694 92.949 198.694L85.3744 198.689L85.3694 189.573Z" fill="#A0892C" fill-opacity="0.70588" stroke="white"/>
<path id="path5801" opacity="0.3" d="M49.3446 198.689H41.7645C41.1897 198.689 40.7236 198.225 40.7236 197.631V190.63C40.7236 190.034 41.1919 189.567 41.7643 189.567C41.7644 189.567 41.7644 189.567 41.7645 189.567L49.3496 189.573L49.3446 198.689Z" fill="#A0892C" fill-opacity="0.70588" stroke="white"/>
<path id="path5992" opacity="0.3" d="M79.3113 189.567L79.4203 189.568L79.4103 198.689H79.3189C78.7417 198.689 78.2725 198.223 78.2725 197.631V190.63C78.2725 190.035 78.7397 189.569 79.3113 189.567Z" fill="#A0892C" fill-opacity="0.70588" stroke="white"/>
<path id="path5996" opacity="0.3" d="M55.2932 189.568L55.397 189.567C55.9686 189.569 56.4358 190.035 56.4358 190.63V197.631C56.4358 198.225 55.9698 198.689 55.395 198.689H55.2982L55.2932 189.568Z" fill="#A0892C" fill-opacity="0.70588" stroke="white"/>
</g>
<g id="g6360" opacity="0.73469">
<g id="rect6004" opacity="0.54694" filter="url(#filter3_f_416_575)">
<path d="M79.3185 189.079C78.4625 189.079 77.7832 189.765 77.7832 190.631V193.193C77.7832 192.328 78.4625 191.641 79.3185 191.641H92.9488C93.8049 191.641 94.4842 192.328 94.4842 193.193V190.631C94.4842 189.765 93.8049 189.079 92.9488 189.079H79.3185Z" fill="url(#paint12_linear_416_575)"/>
<path d="M79.3185 191.141C78.9385 191.141 78.5852 191.243 78.2832 191.422V190.631C78.2832 190.036 78.7437 189.579 79.3185 189.579H92.9488C93.5237 189.579 93.9842 190.036 93.9842 190.631V191.422C93.6821 191.243 93.3288 191.141 92.9488 191.141H79.3185Z" stroke="white"/>
</g>
<g id="path6356" opacity="0.54694" filter="url(#filter4_f_416_575)">
<path d="M41.7639 189.073C40.9078 189.073 40.2285 189.759 40.2285 190.625V193.187C40.2285 192.327 40.9078 191.635 41.7639 191.635H55.3941C56.2502 191.635 56.9295 192.327 56.9295 193.187V190.625C56.9295 189.759 56.2502 189.073 55.3941 189.073H41.7639Z" fill="url(#paint13_linear_416_575)"/>
<path d="M41.7639 191.135C41.3837 191.135 41.0304 191.238 40.7285 191.417V190.625C40.7285 190.03 41.189 189.573 41.7639 189.573H55.3941C55.969 189.573 56.4295 190.03 56.4295 190.625V191.417C56.1276 191.238 55.7743 191.135 55.3941 191.135H41.7639Z" stroke="white"/>
</g>
</g>
</g>
<path id="rect5749" opacity="0.22449" d="M28.9 172.295H106.707C107.929 172.295 108.901 173.261 108.901 174.43V183.259C108.901 184.427 107.929 185.393 106.707 185.393H28.9C27.6778 185.393 26.7061 184.427 26.7061 183.259V174.43C26.7061 173.261 27.6778 172.295 28.9 172.295Z" fill="url(#paint14_linear_416_575)" stroke="white"/>
<g id="g5821">
<path id="rect5759" opacity="0.56327" d="M49.6134 233.905V233.905C49.6134 234.279 49.3411 234.716 48.6777 235.089C48.0293 235.453 47.098 235.694 46.0376 235.694H43.6794C42.6189 235.694 41.6877 235.453 41.0393 235.089C40.3759 234.716 40.1035 234.279 40.1035 233.905V228.175H49.6185L49.6134 233.905Z" fill="#A0892C" fill-opacity="0.70698" stroke="white"/>
<path id="path5786" opacity="0.563" d="M94.8826 228.192V233.928C94.8826 234.3 94.6102 234.736 93.9456 235.108C93.2963 235.471 92.3648 235.711 91.3068 235.711H88.943C87.8821 235.711 86.9507 235.471 86.3023 235.108C85.6391 234.737 85.3673 234.301 85.3672 233.928C85.3672 233.928 85.3672 233.928 85.3672 233.928L85.3723 228.192H94.8826Z" fill="#A0892C" fill-opacity="0.70698" stroke="white"/>
<path id="path5788" opacity="0.56327" d="M64.3699 228.175V233.905C64.3699 234.278 64.097 234.716 63.4323 235.089C62.783 235.453 61.8516 235.694 60.7941 235.694H58.4303C57.3699 235.694 56.4387 235.453 55.7902 235.089C55.1269 234.716 54.8546 234.279 54.8545 233.906C54.8545 233.906 54.8545 233.905 54.8545 233.905L54.8596 228.175H64.3699Z" fill="#A0892C" fill-opacity="0.70698" stroke="white"/>
<path id="path5790" opacity="0.56327" d="M79.4188 228.192V233.928C79.4188 234.3 79.1463 234.736 78.4817 235.108C77.8324 235.471 76.9009 235.711 75.8429 235.711H73.4792C72.4182 235.711 71.4868 235.471 70.8384 235.108C70.1752 234.737 69.9034 234.301 69.9033 233.928C69.9033 233.928 69.9033 233.928 69.9033 233.928L69.9084 228.192H79.4188Z" fill="#A0892C" fill-opacity="0.70698" stroke="white"/>
</g>
<path id="rect5805" opacity="0.39184" d="M37.0537 228.192H98.461V231.379H37.0537V228.192Z" fill="url(#paint15_linear_416_575)" stroke="white"/>
<path id="path5420" opacity="0.7551" d="M22.3395 161.377L22.34 160.87L22.3427 157.388C22.345 154.379 22.3479 150.056 22.3507 144.801C22.3562 134.291 22.361 120.054 22.3581 105.147C22.3522 75.3422 22.3156 42.8519 22.1924 32.1117C22.5765 15.5488 37.1066 3.12034 53.5517 2.92006C57.4357 2.90979 62.4299 2.87328 67.099 2.83915C68.3601 2.82993 69.5976 2.82089 70.783 2.81258C73.5712 2.79304 76.0714 2.77758 77.9172 2.77351C78.8403 2.77148 79.5983 2.7723 80.1462 2.77685C80.3322 2.7784 80.4931 2.78038 80.6275 2.78279C80.6033 22.9819 79.0564 57.9116 75.23 89.552C73.3014 105.5 70.7955 120.596 67.6185 132.544C66.0299 138.519 64.277 143.692 62.3514 147.786C60.4651 151.796 58.4362 154.72 56.2771 156.364C48.1023 155.492 39.48 156.799 32.9019 158.322C29.5826 159.09 26.7752 159.915 24.7968 160.548C23.8074 160.865 23.0249 161.134 22.4889 161.324C22.4368 161.342 22.387 161.36 22.3395 161.377Z" fill="url(#paint16_linear_416_575)" stroke="white"/>
</g>
<g id="logo" opacity="0.5">
<g id="logo CWV">
<path id="body" d="M54.6583 46.8085C54.6706 45.6253 55.6693 44.6721 56.8846 44.6837L64.5125 44.7563C66.7224 44.7773 68.6651 45.8819 69.8127 47.5459C73.1351 47.0637 75.7074 44.2834 75.7426 40.9113C75.7777 37.5394 73.2635 34.7109 69.9523 34.1652C68.77 35.807 66.8047 36.8745 64.5948 36.8535L56.9669 36.7808C55.7516 36.7693 54.7729 35.7972 54.7853 34.6141C54.7976 33.4308 55.7963 32.4776 57.0116 32.4892L68.8707 32.602C68.9618 32.6029 69.0523 32.6052 69.1428 32.6088C69.4361 32.0018 69.603 31.3259 69.6105 30.6124C69.6381 27.9547 67.4401 25.7715 64.7105 25.7455L58.9044 25.6902C58.488 25.6863 58.1537 25.3544 58.1579 24.9488C58.1621 24.5433 58.5033 24.2179 58.9197 24.2218L64.7257 24.2771C68.2868 24.311 71.1547 27.1594 71.1186 30.6267C71.1106 31.3962 70.9603 32.1324 70.6924 32.8119C74.4782 33.6624 77.2918 36.9899 77.2508 40.9257C77.2098 44.8614 74.3276 48.1347 70.5247 48.913C70.7785 49.5975 70.9134 50.3365 70.9054 51.106C70.8693 54.5733 67.9427 57.3666 64.3816 57.3327L58.5755 57.2774C58.1592 57.2734 57.8248 56.9416 57.829 56.5359C57.8333 56.1305 58.1745 55.805 58.5908 55.809L64.3969 55.8643C67.1265 55.8902 69.3696 53.7492 69.3973 51.0916C69.4047 50.3781 69.2519 49.699 68.9712 49.0865C68.8809 49.0884 68.79 49.089 68.699 49.0881L56.8399 48.9752C55.6246 48.9637 54.646 47.9917 54.6583 46.8085V46.8085ZM67.9206 47.6121C67.0382 46.7653 65.8313 46.2374 64.4972 46.2247L56.8693 46.1521C56.4857 46.1484 56.1704 46.4494 56.1665 46.8229C56.1626 47.1963 56.4716 47.5031 56.8552 47.5068L67.9206 47.6121ZM68.0618 34.0629L56.9963 33.9576C56.6126 33.954 56.2973 34.2549 56.2934 34.6284C56.2895 35.0019 56.5985 35.3088 56.9822 35.3124L64.6101 35.3851C65.9441 35.3978 67.162 34.8927 68.0618 34.0629Z" fill="black"/>
<path id="head-3" d="M69.3756 51.0664C69.3991 48.8137 71.2478 46.9984 73.4967 47.0198C75.7455 47.0412 77.5561 48.8913 77.5327 51.1441C77.5092 53.3969 75.6604 55.2122 73.4116 55.1908C71.1628 55.1694 69.3522 53.3192 69.3756 51.0664ZM76.0622 51.1301C76.0772 49.6896 74.9194 48.5064 73.4814 48.4927C72.0433 48.479 70.8611 49.6399 70.8461 51.0804C70.8311 52.521 71.9889 53.7041 73.427 53.7178C74.865 53.7315 76.0472 52.5707 76.0622 51.1301Z" fill="black"/>
<path id="head-2" d="M75.6975 40.9108C75.7262 38.1461 78.1022 35.9191 80.9936 35.9467C83.885 35.9742 86.2139 38.2459 86.1851 41.0106C86.1563 43.7753 83.7806 46.0023 80.8892 45.9748C77.9978 45.9472 75.6687 43.6755 75.6975 40.9108ZM84.6789 40.9963C84.6994 39.0257 83.0394 37.4066 80.9786 37.3869C78.9176 37.3673 77.2242 38.9546 77.2037 40.9251C77.1832 42.8958 78.8432 44.5149 80.9042 44.5345C82.965 44.5542 84.6583 42.967 84.6789 40.9963Z" fill="black"/>
<path id="head-1" d="M69.5914 30.2667C69.6149 28.0139 71.4636 26.1986 73.7125 26.22C75.9613 26.2414 77.7719 28.0916 77.7485 30.3443C77.725 32.5971 75.8763 34.4124 73.6275 34.391C71.3786 34.3696 69.568 32.5195 69.5914 30.2667ZM76.2781 30.3303C76.293 28.8898 75.1352 27.7067 73.6972 27.693C72.2591 27.6793 71.0769 28.8402 71.0619 30.2807C71.0469 31.7212 72.2047 32.9043 73.6428 32.918C75.0808 32.9317 76.2631 31.7709 76.2781 30.3303Z" fill="black"/>
<path id="circle-1" fill-rule="evenodd" clip-rule="evenodd" d="M94.3395 41.2743C94.1986 54.8121 82.8675 65.6807 69.031 65.549C55.1944 65.4173 44.0919 54.3352 44.2328 40.7973C44.3738 27.2596 55.7048 16.391 69.5414 16.5228C83.3779 16.6545 94.4805 27.7365 94.3395 41.2743ZM92.222 41.2542C92.093 53.6478 81.7196 63.5977 69.0525 63.4771C56.3855 63.3565 46.2213 53.2112 46.3503 40.8175C46.4793 28.424 56.8527 18.4741 69.5198 18.5947C82.1869 18.7152 92.3511 28.8607 92.222 41.2542Z" fill="black"/>
<path id="cwv" d="M74.1622 91.5919C74.1603 91.774 74.0783 91.9304 73.9162 92.0612L72.2715 93.3609C71.2481 92.6228 70.4676 91.7215 69.9299 90.6529C69.3922 89.5843 69.1309 88.3032 69.1461 86.8138C69.1597 85.4817 69.4319 84.2886 69.9629 83.2304C70.4938 82.1722 71.2265 81.2691 72.161 80.5251C73.0954 79.7812 74.2078 79.2169 75.498 78.8281C76.7882 78.4394 78.1946 78.2503 79.7172 78.2651C81.2586 78.2801 82.6702 78.5173 83.9471 78.9766C85.2239 79.4359 86.3193 80.0755 87.2378 80.8954C88.1563 81.7153 88.8699 82.6945 89.3738 83.829C89.8777 84.9635 90.1204 86.2112 90.1065 87.5765C90.0929 88.9086 89.8352 90.0729 89.338 91.0652C88.836 92.0575 88.1796 92.9035 87.3638 93.6072L85.602 92.4729C85.4891 92.4056 85.3907 92.3219 85.3066 92.2176C85.2226 92.1134 85.1815 91.9681 85.1833 91.7861C85.1853 91.5958 85.2724 91.4022 85.4446 91.2053C85.6169 91.0084 85.8039 90.7578 86.0055 90.4535C86.2073 90.1493 86.3956 89.7664 86.5706 89.3005C86.7456 88.8347 86.8367 88.2398 86.844 87.5199C86.8526 86.6759 86.6951 85.9007 86.3665 85.19C86.038 84.4792 85.5619 83.8664 84.9429 83.3514C84.3286 82.8365 83.5714 82.432 82.6807 82.1378C81.7946 81.8437 80.7889 81.689 79.6777 81.6782C78.524 81.667 77.4964 81.8018 76.5951 82.0785C75.6938 82.3553 74.9381 82.7327 74.3184 83.2149C73.6987 83.6971 73.22 84.2675 72.887 84.9263C72.554 85.5851 72.386 86.2951 72.3783 87.0563C72.3736 87.5114 72.3978 87.9254 72.4508 88.2942C72.5037 88.6629 72.5901 89.003 72.7099 89.3145C72.8297 89.626 72.9827 89.9213 73.1738 90.2004C73.3648 90.4794 73.6032 90.7548 73.8842 91.0306C73.9684 91.1142 74.0337 91.2017 74.0848 91.2932C74.1359 91.3848 74.1633 91.4843 74.1622 91.5919V91.5919ZM89.8052 94.8673L89.7767 97.6722C89.7737 97.9618 89.6956 98.2052 89.5376 98.3981C89.3796 98.5911 89.1655 98.7172 88.9 98.7808L76.5985 101.715C76.2952 101.786 75.9682 101.853 75.6129 101.912C75.2577 101.97 74.8788 102.025 74.481 102.079C74.8775 102.149 75.2551 102.227 75.6089 102.309C75.9628 102.391 76.2882 102.477 76.5898 102.571L88.8244 106.215C89.0412 106.284 89.2384 106.418 89.4161 106.614C89.5938 106.81 89.6813 107.047 89.6784 107.328L89.6684 108.309C89.6655 108.598 89.5874 108.838 89.4294 109.026C89.2714 109.215 89.0573 109.346 88.7918 109.417L76.4857 112.798C75.8786 112.974 75.2056 113.125 74.4666 113.25C74.8349 113.312 75.1889 113.377 75.5287 113.442C75.8685 113.508 76.1847 113.573 76.4771 113.642L88.7165 116.815C88.9523 116.875 89.1543 117.005 89.3225 117.205C89.4907 117.406 89.5734 117.646 89.5705 117.928L89.5439 120.547L69.0885 114.774L69.1192 111.758L83.1743 107.973C83.3545 107.925 83.5488 107.877 83.7575 107.825C83.9661 107.773 84.1889 107.722 84.4257 107.674C84.1899 107.622 83.9681 107.571 83.7606 107.515C83.5531 107.459 83.3598 107.403 83.1806 107.352L69.2057 103.256L69.2364 100.24L89.8052 94.8673V94.8673ZM89.537 121.224L89.5095 123.917C89.5066 124.207 89.4238 124.442 89.2612 124.623C89.0986 124.803 88.8891 124.938 88.6329 125.026L76.0784 129.124C75.6703 129.261 75.2244 129.393 74.7361 129.517C74.2478 129.64 73.7311 129.755 73.1909 129.866C74.2766 130.067 75.234 130.312 76.0634 130.601L88.5321 134.93C88.7488 135.007 88.946 135.141 89.1238 135.333C89.3015 135.525 89.389 135.762 89.3861 136.043L89.3587 138.737L68.9204 131.289L68.9511 128.273L89.537 121.224V121.224Z" fill="black"/>
<path id="digital-solucoes" d="M56.2984 85.4788C56.2643 85.4784 56.2356 85.489 56.2111 85.5093C56.19 85.5329 56.1788 85.561 56.1784 85.5945L56.1736 86.0742C56.1688 86.5452 56.3319 86.9496 56.6641 87.2842C56.9973 87.6198 57.405 87.7895 57.8836 87.7942C58.3633 87.7988 58.7732 87.6371 59.1133 87.308C59.4544 86.98 59.6269 86.5788 59.6317 86.1079L59.6365 85.6282C59.6369 85.5946 59.6262 85.5663 59.6022 85.5423C59.5793 85.5215 59.5497 85.5104 59.5156 85.5101L56.2984 85.4788V85.4788ZM60.4183 86.1155C60.4114 86.7987 60.1601 87.3799 59.6623 87.8591C59.1655 88.3383 58.57 88.575 57.8757 88.5683C57.1815 88.5615 56.5908 88.3132 56.104 87.8245C55.6171 87.3357 55.3766 86.7497 55.3835 86.0665L55.3884 85.5868C55.3909 85.3421 55.4822 85.1329 55.6622 84.9582C55.8422 84.7845 56.0576 84.6989 56.3064 84.7013L59.5235 84.7327C59.7755 84.7351 59.9891 84.8249 60.1656 85.002C60.3399 85.1802 60.4257 85.3912 60.4232 85.6359L60.4183 86.1155V86.1155ZM59.0613 89.5988C59.0603 89.706 59.0209 89.7955 58.943 89.8673C58.8641 89.9423 58.7714 89.9794 58.6646 89.9783L55.7335 89.9498C55.6246 89.9487 55.5337 89.9099 55.4607 89.8334C55.3844 89.7601 55.3469 89.6699 55.348 89.5626L55.348 89.5561C55.3491 89.45 55.3885 89.3595 55.4663 89.2844C55.5408 89.2094 55.6325 89.1713 55.7415 89.1724L58.6725 89.2009C58.7793 89.2019 58.8713 89.2418 58.9486 89.3183C59.0249 89.3949 59.0625 89.4862 59.0614 89.5923L59.0613 89.5988ZM59.4806 89.5996C59.4818 89.4763 59.5269 89.3727 59.6158 89.2869C59.7047 89.2011 59.8118 89.1589 59.9362 89.1601C60.0584 89.1613 60.1635 89.2056 60.2506 89.2931C60.3378 89.3806 60.3808 89.485 60.3795 89.6084C60.3783 89.7286 60.3332 89.8321 60.2443 89.9179C60.1576 90.0058 60.0515 90.0492 59.9272 90.0479C59.8007 90.0467 59.6944 90.0013 59.6094 89.9117C59.5223 89.8242 59.4794 89.7199 59.4806 89.5996ZM55.28 91.484C54.9533 91.6898 54.7883 92.0045 54.784 92.4278C54.7813 92.692 54.8834 92.9312 55.0924 93.1476C55.3047 93.3717 55.5545 93.4846 55.8394 93.4873C55.4876 93.2435 55.3141 92.891 55.3187 92.433C55.3239 91.9295 55.5098 91.5004 55.8765 91.1466C56.2433 90.7928 56.6829 90.6184 57.1945 90.6234C57.7051 90.6284 58.1412 90.8113 58.5006 91.1721C58.8601 91.533 59.0373 91.9657 59.0321 92.4691C59.027 92.9705 58.8422 93.3974 58.4777 93.7513C58.1154 94.1051 57.6767 94.2805 57.1628 94.2777L55.8315 94.2648C55.3288 94.2599 54.8928 94.0639 54.5226 93.6781C54.1655 93.3043 53.9893 92.8846 53.994 92.4201C54.0013 91.7065 54.2884 91.1756 54.8542 90.8258C54.9218 90.7843 54.9913 90.7633 55.0617 90.764C55.1046 90.7644 55.1475 90.7724 55.1902 90.7879C55.3109 90.827 55.3914 90.9058 55.4332 91.0253L55.4363 91.0351C55.4546 91.0872 55.4639 91.1382 55.4635 91.187C55.4622 91.306 55.4007 91.404 55.28 91.484V91.484ZM57.184 93.5004C57.4745 93.4989 57.722 93.3974 57.9288 93.1937C58.1344 92.9931 58.2392 92.7484 58.2421 92.4614C58.2451 92.1691 58.1442 91.9201 57.9372 91.7124C57.7313 91.5079 57.4804 91.4037 57.1866 91.4008C56.8896 91.3979 56.6366 91.4972 56.4255 91.6977C56.2176 91.9014 56.1117 92.1483 56.1088 92.4407C56.1058 92.732 56.2066 92.9809 56.4103 93.1853C56.6173 93.3931 56.8682 93.4973 57.1653 93.5002L57.184 93.5004ZM59.0019 95.4412C59.0008 95.5484 58.9614 95.6379 58.8835 95.7096C58.8047 95.7848 58.7119 95.8217 58.6051 95.8207L55.6741 95.7922C55.5651 95.7911 55.4742 95.7523 55.4012 95.6757C55.3249 95.6025 55.2874 95.5123 55.2885 95.4051L55.2885 95.3985C55.2896 95.2925 55.329 95.2019 55.4068 95.1268C55.4813 95.0518 55.573 95.0137 55.682 95.0147L58.613 95.0433C58.7198 95.0443 58.8118 95.0842 58.8891 95.1607C58.9655 95.2373 59.003 95.3286 59.0019 95.4347L59.0019 95.4412ZM59.4211 95.442C59.4224 95.3186 59.4674 95.2151 59.5563 95.1293C59.6452 95.0436 59.7524 95.0013 59.8767 95.0025C59.9989 95.0037 60.104 95.048 60.1912 95.1355C60.2783 95.223 60.3213 95.3274 60.3201 95.4508C60.3188 95.571 60.2737 95.6745 60.1848 95.7603C60.0981 95.8482 59.992 95.8915 59.8677 95.8903C59.7412 95.8891 59.6349 95.8437 59.55 95.7541C59.4628 95.6666 59.4199 95.5622 59.4211 95.442ZM60.3077 96.9851C60.3066 97.089 60.2683 97.1785 60.1928 97.2535C60.1139 97.3297 60.021 97.3667 59.9143 97.3657L58.9824 97.3566L58.9775 97.8319C58.9765 97.9358 58.9371 98.0253 58.8592 98.1004C58.7803 98.1765 58.6875 98.2135 58.5808 98.2124L58.5743 98.2124C58.4642 98.2113 58.3732 98.1725 58.3014 98.0949C58.2241 98.0184 58.1865 97.9281 58.1875 97.8242L58.1924 97.3489L56.2812 97.3303C56.2185 97.3297 56.1655 97.3497 56.1221 97.3915C56.0788 97.4333 56.0574 97.4861 56.0567 97.5501L56.0542 97.8034C56.0531 97.9073 56.0136 97.9969 55.9347 98.0719C55.8569 98.148 55.7642 98.185 55.6563 98.184L55.6497 98.1839C55.5408 98.1828 55.4499 98.144 55.3769 98.0665C55.3006 97.9899 55.2631 97.8997 55.2641 97.7957L55.2667 97.5424C55.2695 97.2674 55.3709 97.0323 55.571 96.8383C55.7721 96.6452 56.0119 96.5502 56.2891 96.5529L59.9222 96.5882C60.0289 96.5893 60.121 96.628 60.1983 96.7046C60.2724 96.7822 60.3088 96.8725 60.3078 96.9753L60.3077 96.9851V96.9851ZM58.9505 100.487C58.9454 100.99 58.7594 101.419 58.3927 101.773C58.026 102.127 57.5863 102.301 57.0757 102.296L55.608 102.282C55.4991 102.281 55.4082 102.242 55.3351 102.166C55.2589 102.088 55.2214 101.998 55.2224 101.895L55.2225 101.885C55.2236 101.781 55.263 101.692 55.3407 101.617C55.4153 101.541 55.507 101.504 55.6159 101.505C55.3587 101.262 55.2325 100.91 55.2371 100.451C55.2422 99.9481 55.4282 99.519 55.7949 99.1652C56.1616 98.8115 56.6013 98.6371 57.1129 98.6421C57.6235 98.6471 58.0596 98.83 58.419 99.1908C58.7784 99.5516 58.9556 99.9843 58.9505 100.487ZM58.1605 100.479C58.1635 100.188 58.0626 99.9377 57.8556 99.731C57.6497 99.5255 57.3988 99.4224 57.105 99.4195C56.808 99.4166 56.555 99.5149 56.3439 99.7163C56.136 99.919 56.0301 100.167 56.0271 100.458C56.0242 100.751 56.125 101 56.3287 101.204C56.5357 101.412 56.7866 101.516 57.0836 101.519C57.3775 101.522 57.6304 101.422 57.8404 101.219C58.0516 101.016 58.1575 100.769 58.1605 100.479ZM60.2416 103.481C60.2405 103.585 60.2022 103.675 60.1266 103.75C60.0478 103.826 59.9549 103.863 59.8482 103.862L55.5924 103.821C55.4834 103.82 55.3925 103.781 55.3195 103.703C55.2433 103.627 55.2057 103.536 55.2068 103.432L55.2069 103.424C55.2079 103.32 55.2473 103.23 55.3251 103.155C55.3996 103.079 55.4913 103.042 55.6003 103.043L59.8561 103.085C59.9628 103.086 60.0549 103.124 60.1322 103.202C60.2062 103.279 60.2427 103.369 60.2416 103.473L60.2416 103.481ZM59.4162 107.922C59.418 107.74 59.3558 107.584 59.2273 107.456C59.0998 107.328 58.9442 107.263 58.7594 107.261C58.5393 107.259 58.3722 107.356 58.2568 107.552C58.2065 107.638 58.117 107.892 57.9873 108.314C57.8746 108.674 57.7399 108.937 57.5831 109.102C57.3505 109.35 57.0258 109.472 56.6088 109.468C56.205 109.464 55.861 109.319 55.5789 109.032C55.2957 108.749 55.1561 108.409 55.1601 108.013L55.1724 106.805C55.1735 106.701 55.2129 106.612 55.2907 106.537C55.3697 106.46 55.4613 106.424 55.5659 106.425L55.5856 106.425C55.6912 106.426 55.7822 106.464 55.8584 106.542C55.9347 106.619 55.9734 106.709 55.9723 106.813L55.9597 108.053C55.9579 108.232 56.0201 108.388 56.1475 108.518C56.2761 108.646 56.4316 108.711 56.6165 108.713C56.8311 108.715 57.0004 108.618 57.1223 108.422C57.1794 108.33 57.2766 108.075 57.414 107.657C57.5376 107.297 57.6768 107.035 57.8314 106.872C58.0616 106.624 58.3732 106.503 58.7671 106.507C59.1709 106.51 59.5138 106.655 59.797 106.939C60.0802 107.222 60.2198 107.563 60.2158 107.961L60.2071 108.814C60.206 108.92 60.1666 109.011 60.0877 109.086C60.0121 109.159 59.9205 109.196 59.8126 109.195L59.7939 109.194C59.6883 109.193 59.5973 109.155 59.521 109.08C59.4437 109.004 59.4061 108.912 59.4072 108.806L59.4162 107.922V107.922ZM58.0391 111.753C58.0421 111.461 57.9413 111.212 57.7343 111.004C57.5284 110.8 57.2763 110.696 56.9804 110.693C56.6855 110.69 56.4336 110.789 56.2225 110.99C56.0125 111.193 55.9054 111.44 55.9025 111.733C55.8995 112.022 56.0015 112.271 56.2073 112.477C56.4143 112.685 56.6641 112.789 56.959 112.792C57.255 112.795 57.5091 112.696 57.7191 112.492C57.9303 112.289 58.0362 112.043 58.0391 111.753ZM58.8358 111.761C58.8306 112.264 58.6447 112.693 58.278 113.047C57.9112 113.4 57.4715 113.575 56.961 113.57C56.4494 113.565 56.0133 113.382 55.6538 113.021C55.2944 112.66 55.1172 112.227 55.1224 111.725C55.1275 111.222 55.3134 110.792 55.6801 110.439C56.0469 110.085 56.4866 109.91 56.9982 109.915C57.5087 109.92 57.9448 110.103 58.3043 110.464C58.6637 110.825 58.8409 111.258 58.8358 111.761ZM60.1278 114.66C60.1267 114.764 60.0884 114.853 60.0128 114.928C59.934 115.004 59.8411 115.041 59.7344 115.04L55.4786 114.999C55.3696 114.998 55.2787 114.959 55.2057 114.881C55.1295 114.805 55.0919 114.715 55.093 114.611L55.0931 114.602C55.0941 114.498 55.1335 114.408 55.2113 114.333C55.2858 114.257 55.3775 114.22 55.4865 114.221L59.7423 114.263C59.849 114.264 59.9411 114.303 60.0184 114.38C60.0925 114.457 60.1289 114.547 60.1279 114.651L60.1278 114.66V114.66ZM56.6302 116.549C56.4179 116.547 56.2357 116.617 56.0834 116.762C55.9333 116.909 55.8579 117.088 55.8557 117.299C55.8536 117.508 55.9254 117.687 56.0725 117.837C56.2218 117.985 56.4025 118.059 56.6148 118.061L58.3786 118.078C58.4853 118.079 58.5773 118.118 58.6547 118.196C58.731 118.272 58.7685 118.364 58.7675 118.47L58.7674 118.476C58.7663 118.583 58.7269 118.673 58.6491 118.745C58.5702 118.82 58.4774 118.857 58.3707 118.856L56.6069 118.839C56.179 118.834 55.8141 118.68 55.5124 118.377C55.2106 118.075 55.0614 117.713 55.0657 117.291C55.07 116.868 55.2266 116.508 55.5345 116.211C55.8422 115.914 56.2102 115.767 56.6382 115.771L58.4019 115.788C58.5086 115.789 58.6007 115.828 58.678 115.905C58.7543 115.982 58.7919 116.073 58.7908 116.175L58.7907 116.185C58.7897 116.289 58.7503 116.379 58.6724 116.454C58.5935 116.53 58.5007 116.567 58.394 116.566L56.6302 116.549V116.549ZM58.7394 121.227C58.7375 121.416 58.707 121.6 58.6469 121.777C58.5867 121.956 58.4615 122.045 58.27 122.043L58.2535 122.043C58.1225 122.041 58.0197 121.989 57.9426 121.885C57.8917 121.812 57.8671 121.738 57.8679 121.662C57.8683 121.622 57.8753 121.581 57.8878 121.539C57.9241 121.435 57.9416 121.328 57.9428 121.219C57.9457 120.926 57.8449 120.677 57.6379 120.47C57.4321 120.265 57.18 120.161 56.8841 120.158C56.5892 120.155 56.3373 120.254 56.1261 120.455C55.9161 120.659 55.8091 120.906 55.8061 121.198C55.805 121.307 55.8215 121.415 55.8546 121.519C55.8673 121.559 55.8724 121.599 55.872 121.639C55.8712 121.717 55.8452 121.792 55.7927 121.864C55.7146 121.967 55.6085 122.017 55.4754 122.015C55.2861 122.014 55.1627 121.923 55.104 121.742C55.0497 121.564 55.0241 121.38 55.026 121.19C55.0311 120.687 55.2171 120.258 55.5838 119.904C55.9505 119.55 56.3902 119.376 56.9018 119.381C57.4124 119.386 57.8485 119.569 58.2079 119.929C58.5673 120.29 58.7445 120.723 58.7394 121.227V121.227ZM55.0903 120.921L55.0836 121.574L54.7169 121.501C54.7001 121.643 54.6339 121.77 54.5194 121.883C54.4082 121.994 54.2822 122.048 54.1403 122.047C53.9411 122.045 53.7682 121.952 53.6237 121.77C53.4858 121.592 53.4191 121.334 53.4225 120.994L53.4256 120.692C53.4264 120.607 53.4591 120.537 53.5246 120.481C53.579 120.43 53.6442 120.406 53.7223 120.407L53.7476 120.407L53.7729 120.41C53.8487 120.417 53.9112 120.45 53.9622 120.508C54.0135 120.56 54.0392 120.626 54.0384 120.704C54.0355 120.77 54.0339 120.824 54.0334 120.869C54.0315 121.057 54.0533 121.186 54.0999 121.254C54.126 121.29 54.1522 121.308 54.1797 121.309C54.1973 121.309 54.2127 121.304 54.225 121.293C54.2427 121.279 54.2596 121.248 54.2743 121.201C54.2834 121.174 54.2904 121.138 54.2953 121.091C54.3071 121.005 54.3464 120.938 54.4128 120.892C54.4672 120.853 54.5268 120.832 54.5917 120.833C54.606 120.833 54.6224 120.834 54.64 120.837L55.0903 120.921ZM57.9113 124.311C57.9143 124.019 57.8134 123.77 57.6064 123.562C57.4006 123.357 57.1485 123.253 56.8526 123.25C56.5577 123.247 56.3058 123.347 56.0947 123.547C55.8846 123.751 55.7776 123.998 55.7746 124.29C55.7717 124.579 55.8737 124.828 56.0795 125.035C56.2865 125.243 56.5363 125.347 56.8312 125.35C57.1272 125.353 57.3813 125.253 57.5913 125.05C57.8025 124.847 57.9083 124.6 57.9113 124.311ZM58.7079 124.319C58.7028 124.821 58.5169 125.25 58.1501 125.604C57.7834 125.958 57.3437 126.132 56.8332 126.127C56.3216 126.122 55.8855 125.939 55.526 125.579C55.1666 125.218 54.9894 124.785 54.9945 124.283C54.9997 123.779 55.1856 123.35 55.5523 122.996C55.9191 122.642 56.3588 122.468 56.8704 122.473C57.3809 122.478 57.817 122.661 58.1764 123.022C58.5359 123.383 58.7131 123.815 58.7079 124.319ZM59.2132 123.114C59.4064 123.148 59.5597 123.233 59.6716 123.37C59.7912 123.511 59.8488 123.686 59.8467 123.895C59.845 124.066 59.7868 124.268 59.6733 124.499C59.6363 124.575 59.6167 124.654 59.6159 124.737L59.6156 124.762C59.617 124.846 59.6428 124.906 59.6908 124.94C59.8067 125.017 59.8642 125.096 59.8634 125.174L59.8621 125.303C59.8613 125.377 59.8333 125.436 59.7789 125.48C59.7334 125.518 59.6836 125.537 59.6309 125.536C59.6176 125.536 59.6034 125.535 59.5891 125.533C59.1551 125.458 58.941 125.21 58.9453 124.787C58.947 124.613 59.0084 124.415 59.1318 124.19C59.1823 124.097 59.2074 124.003 59.2084 123.908C59.207 123.823 59.1768 123.77 59.1164 123.748C59.0081 123.693 58.9485 123.604 58.9387 123.486L58.9401 123.346C58.9408 123.277 58.9689 123.218 59.0222 123.17C59.0677 123.13 59.1185 123.111 59.1746 123.112C59.1879 123.112 59.201 123.113 59.2132 123.114V123.114ZM57.8696 128.409C57.8725 128.117 57.7717 127.868 57.5647 127.66C57.3589 127.456 57.1068 127.351 56.8109 127.349L56.7877 127.348L57.5795 129.13C57.7692 128.974 57.8663 128.734 57.8696 128.409ZM57.5667 130.065C57.5125 130.09 57.4573 130.102 57.4012 130.101C57.3561 130.101 57.3111 130.092 57.2661 130.075C57.1653 130.037 57.0934 129.97 57.0493 129.87C56.917 129.573 56.7427 129.181 56.5264 128.697C56.2575 128.096 56.0982 127.743 56.0497 127.639C55.8423 127.798 55.7364 128.047 55.7329 128.388C55.7306 128.615 55.7968 128.82 55.9301 129.005C56.0615 129.186 56.2319 129.314 56.4413 129.388C56.6167 129.451 56.7046 129.575 56.7027 129.758C56.7014 129.89 56.6442 129.993 56.5311 130.071C56.4624 130.118 56.3895 130.142 56.3148 130.142C56.2696 130.141 56.2235 130.132 56.1764 130.114C55.8102 129.986 55.5153 129.765 55.2929 129.45C55.0618 129.13 54.9488 128.774 54.9528 128.381C54.9579 127.877 55.1439 127.448 55.5106 127.094C55.8773 126.741 56.317 126.566 56.8286 126.571C57.3392 126.576 57.7753 126.759 58.1347 127.12C58.4942 127.481 58.6713 127.914 58.6662 128.417C58.6625 128.781 58.5579 129.111 58.3534 129.41C58.1524 129.706 57.8905 129.924 57.5667 130.065V130.065ZM57.8426 131.71C57.8435 131.617 57.8124 131.539 57.7481 131.475C57.6827 131.411 57.6039 131.379 57.5115 131.378C57.3816 131.377 57.2842 131.437 57.2192 131.558C57.1945 131.6 57.1399 131.777 57.052 132.087C56.9769 132.338 56.8792 132.524 56.7602 132.645C56.5879 132.819 56.3461 132.904 56.0314 132.901C55.7222 132.898 55.4581 132.789 55.2391 132.571C55.0224 132.35 54.9151 132.088 54.9182 131.784L54.9266 130.955C54.9277 130.853 54.9671 130.763 55.0448 130.687C55.1194 130.612 55.2111 130.575 55.32 130.576L55.3266 130.576C55.4344 130.577 55.5265 130.616 55.6027 130.692C55.6801 130.77 55.7177 130.86 55.7166 130.963L55.7079 131.823C55.7069 131.916 55.738 131.994 55.8023 132.059C55.8655 132.123 55.9455 132.156 56.039 132.156C56.1577 132.158 56.2475 132.098 56.3093 131.978C56.3239 131.947 56.3796 131.77 56.4753 131.447C56.5527 131.196 56.6536 131.009 56.7781 130.888C56.9537 130.714 57.2011 130.629 57.5191 130.632C57.8283 130.635 58.0912 130.746 58.3079 130.964C58.5269 131.183 58.6354 131.445 58.6323 131.75L58.6263 132.334C58.6253 132.439 58.5859 132.53 58.508 132.606C58.4291 132.681 58.3363 132.718 58.2296 132.717L58.2231 132.717C58.113 132.716 58.022 132.677 57.9502 132.601C57.8729 132.523 57.8353 132.432 57.8363 132.327L57.8426 131.71V131.71Z" fill="black"/>
</g>
</g>
</g>
</g>
<defs>
<filter id="filter0_f_416_575" x="124.466" y="151.736" width="128.39" height="92.9898" filterUnits="userSpaceOnUse" color-interpolation-filters="sRGB">
<feFlood flood-opacity="0" result="BackgroundImageFix"/>
<feBlend mode="normal" in="SourceGraphic" in2="BackgroundImageFix" result="shape"/>
<feGaussianBlur stdDeviation="7.37002" result="effect1_foregroundBlur_416_575"/>
</filter>
<filter id="filter1_f_416_575" x="0.355989" y="1.15579" width="149.499" height="225.884" filterUnits="userSpaceOnUse" color-interpolation-filters="sRGB">
<feFlood flood-opacity="0" result="BackgroundImageFix"/>
<feBlend mode="normal" in="SourceGraphic" in2="BackgroundImageFix" result="shape"/>
<feGaussianBlur stdDeviation="13.4558" result="effect1_foregroundBlur_416_575"/>
</filter>
<filter id="filter2_f_416_575" x="8.72342" y="169.889" width="133.462" height="112.295" filterUnits="userSpaceOnUse" color-interpolation-filters="sRGB">
<feFlood flood-opacity="0" result="BackgroundImageFix"/>
<feBlend mode="normal" in="SourceGraphic" in2="BackgroundImageFix" result="shape"/>
<feGaussianBlur stdDeviation="12.5919" result="effect1_foregroundBlur_416_575"/>
</filter>
<filter id="filter3_f_416_575" x="77.0711" y="188.367" width="18.1253" height="5.53837" filterUnits="userSpaceOnUse" color-interpolation-filters="sRGB">
<feFlood flood-opacity="0" result="BackgroundImageFix"/>
<feBlend mode="normal" in="SourceGraphic" in2="BackgroundImageFix" result="shape"/>
<feGaussianBlur stdDeviation="0.356027" result="effect1_foregroundBlur_416_575"/>
</filter>
<filter id="filter4_f_416_575" x="39.5165" y="188.361" width="18.1253" height="5.53837" filterUnits="userSpaceOnUse" color-interpolation-filters="sRGB">
<feFlood flood-opacity="0" result="BackgroundImageFix"/>
<feBlend mode="normal" in="SourceGraphic" in2="BackgroundImageFix" result="shape"/>
<feGaussianBlur stdDeviation="0.356027" result="effect1_foregroundBlur_416_575"/>
</filter>
<linearGradient id="paint0_linear_416_575" x1="138.156" y1="202.327" x2="216.86" y2="238.35" gradientUnits="userSpaceOnUse">
<stop stop-color="#C8C8C8"/>
<stop offset="0.06" stop-color="#F0F0F0"/>
<stop offset="0.5" stop-color="#FAFAFA"/>
<stop offset="0.94" stop-color="#F0F0F0"/>
<stop offset="1" stop-color="#C8C8C8"/>
</linearGradient>
<linearGradient id="paint1_linear_416_575" x1="143.044" y1="193.487" x2="146.894" y2="195.132" gradientUnits="userSpaceOnUse">
<stop stop-color="#939393"/>
<stop offset="1" stop-color="#FAFAFA"/>
</linearGradient>
<linearGradient id="paint2_linear_416_575" x1="142.257" y1="172.53" x2="220.004" y2="209.936" gradientUnits="userSpaceOnUse">
<stop stop-color="#C8C8C8"/>
<stop offset="0.06" stop-color="#F0F0F0"/>
<stop offset="0.5" stop-color="#FAFAFA"/>
<stop offset="0.94" stop-color="#F0F0F0"/>
<stop offset="1" stop-color="#C8C8C8"/>
</linearGradient>
<linearGradient id="paint3_linear_416_575" x1="228.948" y1="195.137" x2="233.744" y2="210.72" gradientUnits="userSpaceOnUse">
<stop stop-color="#C3C3C3"/>
<stop offset="1" stop-color="#F0F0F0"/>
</linearGradient>
<linearGradient id="paint4_linear_416_575" x1="189.939" y1="180.609" x2="193.505" y2="225.424" gradientUnits="userSpaceOnUse">
<stop stop-color="#939393"/>
<stop offset="1" stop-color="#939393" stop-opacity="0"/>
</linearGradient>
<linearGradient id="paint5_linear_416_575" x1="20.0001" y1="74.0056" x2="115.676" y2="74.0056" gradientUnits="userSpaceOnUse">
<stop stop-color="#C8C8C8"/>
<stop offset="0.06" stop-color="#F0F0F0"/>
<stop offset="0.5" stop-color="#FAFAFA"/>
<stop offset="0.94" stop-color="#F0F0F0"/>
<stop offset="1" stop-color="#C8C8C8"/>
</linearGradient>
<linearGradient id="paint6_linear_416_575" x1="20.0001" y1="47.2088" x2="115.676" y2="47.2088" gradientUnits="userSpaceOnUse">
<stop stop-color="#C8C8C8"/>
<stop offset="0.06" stop-color="#F0F0F0"/>
<stop offset="0.5" stop-color="#FAFAFA"/>
<stop offset="0.94" stop-color="#F0F0F0"/>
<stop offset="1" stop-color="#C8C8C8"/>
</linearGradient>
<linearGradient id="paint7_linear_416_575" x1="61.914" y1="201.41" x2="61.6265" y2="161.302" gradientUnits="userSpaceOnUse">
<stop stop-color="#E8E8E8"/>
<stop offset="0.5" stop-color="#F5F5F5"/>
<stop offset="1" stop-color="#E8E8E8"/>
</linearGradient>
<linearGradient id="paint8_linear_416_575" x1="63.2191" y1="178.348" x2="63.1903" y2="165.329" gradientUnits="userSpaceOnUse">
<stop/>
<stop offset="1" stop-opacity="0"/>
</linearGradient>
<linearGradient id="paint9_linear_416_575" x1="26.268" y1="202.788" x2="109.366" y2="202.788" gradientUnits="userSpaceOnUse">
<stop stop-color="#646464"/>
<stop offset="0.06" stop-color="#AAAAAA"/>
<stop offset="0.5" stop-color="#DCDCDC"/>
<stop offset="0.94" stop-color="#AAAAAA"/>
<stop offset="1" stop-color="#646464"/>
</linearGradient>
<linearGradient id="paint10_linear_416_575" x1="55.8098" y1="200.353" x2="26.2247" y2="200.353" gradientUnits="userSpaceOnUse">
<stop stop-color="white"/>
<stop offset="1" stop-color="white" stop-opacity="0"/>
</linearGradient>
<linearGradient id="paint11_linear_416_575" x1="26.2673" y1="238.785" x2="109.229" y2="238.785" gradientUnits="userSpaceOnUse">
<stop stop-color="#232323"/>
<stop offset="0.06" stop-color="#464646"/>
<stop offset="0.5" stop-color="#505050"/>
<stop offset="0.94" stop-color="#464646"/>
<stop offset="1" stop-color="#232323"/>
</linearGradient>
<linearGradient id="paint12_linear_416_575" x1="83.0299" y1="189.525" x2="83.0299" y2="193.193" gradientUnits="userSpaceOnUse">
<stop stop-color="#1D1D1D"/>
<stop offset="1" stop-color="#1D1D1D" stop-opacity="0"/>
</linearGradient>
<linearGradient id="paint13_linear_416_575" x1="83.0303" y1="189.525" x2="83.0303" y2="193.193" gradientUnits="userSpaceOnUse">
<stop stop-color="#1D1D1D"/>
<stop offset="1" stop-color="#1D1D1D" stop-opacity="0"/>
</linearGradient>
<linearGradient id="paint14_linear_416_575" x1="67.0345" y1="171.789" x2="67.0345" y2="185.89" gradientUnits="userSpaceOnUse">
<stop stop-color="white"/>
<stop offset="1" stop-color="white" stop-opacity="0"/>
</linearGradient>
<linearGradient id="paint15_linear_416_575" x1="64.8597" y1="227.69" x2="64.8597" y2="231.877" gradientUnits="userSpaceOnUse">
<stop/>
<stop offset="1" stop-opacity="0"/>
</linearGradient>
<linearGradient id="paint16_linear_416_575" x1="17.018" y1="8.99923" x2="91.4991" y2="108.042" gradientUnits="userSpaceOnUse">
<stop stop-color="white" stop-opacity="0"/>
<stop offset="1" stop-color="white"/>
</linearGradient>
</defs>
</svg>
