<svg width="178" height="182" viewBox="0 0 178 182" fill="none" xmlns="http://www.w3.org/2000/svg">
<g id="Whatsapp">
<path id="baloon-whats2" d="M83.3467 0.676434C40.7885 4.0737 6.49184 38.8303 3.59632 81.4233C2.51965 97.2842 5.6974 112.312 12.0982 125.49L0.373273 170.045C-1.39331 176.756 4.72874 182.878 11.4397 181.111L58.8202 168.641C71.573 173.623 85.7649 175.728 100.629 174.028C141.748 169.327 174.303 135.407 177.359 94.1309C181.327 40.6352 136.905 -3.59889 83.3467 0.676434Z" fill="white"/>
<path id="baloon-whats" d="M26.2341 126.542C26.6592 124.933 26.492 123.225 25.7637 121.727L24.6383 119.406C19.0981 107.999 16.6312 95.19 17.5058 82.371C19.9379 46.5725 48.7223 17.4222 84.4581 14.572C86.4685 14.4083 88.4999 14.3281 90.5 14.3281C110.769 14.3281 130.319 22.8544 144.128 37.7257C158.128 52.7991 164.992 72.4649 163.466 93.1064C160.923 127.441 133.229 156.275 99.0541 160.184C96.2074 160.508 93.3293 160.672 90.5 160.672C81.357 160.672 72.4091 158.985 63.8968 155.661L61.7817 154.836C60.4089 154.299 58.9002 154.212 57.4716 154.588L21.7567 163.986C19.1748 164.665 16.8228 162.31 17.4988 159.728L26.2341 126.542Z" fill="url(#paint0_linear_607_648)"/>
<path id="phone1" fill-rule="evenodd" clip-rule="evenodd" d="M68.2383 49.5726C66.5693 45.8792 64.8132 45.8025 63.2208 45.7363C61.9212 45.6841 60.4368 45.6875 58.9525 45.6875C57.4681 45.6875 55.0535 46.2451 53.0081 48.4646C50.9628 50.6841 45.2031 56.0501 45.2031 66.9666C45.2031 77.8832 53.1893 88.4304 54.3043 89.9078C55.4193 91.3851 69.7262 114.5 92.3816 123.396C111.208 130.786 115.04 129.316 119.131 128.947C123.218 128.577 132.319 123.584 134.177 118.403C136.034 113.222 136.034 108.783 135.48 107.859C134.922 106.932 133.434 106.382 131.208 105.267C130.18 104.755 124.49 101.96 118.257 98.9497C115.378 97.5594 111.922 98.3016 109.877 100.758C109.033 101.769 107.41 103.713 105.594 105.877C103.532 108.337 100.065 109.072 97.1795 107.664C92.7544 105.504 86.2351 101.918 81.1479 97.4026C77.5033 94.1691 73.2976 88.4617 70.5554 84.4721C68.7122 81.7892 68.9457 78.2003 71.1443 75.7995C72.1164 74.7368 73.099 73.6636 73.8098 72.8343C75.5067 70.8517 75.9597 68.0956 74.9736 65.6774C72.9527 60.7435 69.5868 52.5553 68.2383 49.5726Z" fill="white"/>
</g>
<defs>
<linearGradient id="paint0_linear_607_648" x1="90.5034" y1="14.3281" x2="90.5034" y2="164.1" gradientUnits="userSpaceOnUse">
<stop stop-color="#00D772"/>
<stop offset="0.996" stop-color="#00B26E"/>
<stop offset="1" stop-color="#00B26E"/>
</linearGradient>
</defs>
</svg>
