<svg width="304" height="410" viewBox="0 0 304 410" fill="none" xmlns="http://www.w3.org/2000/svg">
<g id="CWV LOGO - Verde">
<path id="cirlce-1" d="M152.35 0.5C228.488 0.5 290.2 61.2447 290.2 136.16C290.2 211.075 228.488 271.82 152.35 271.82C76.2124 271.82 14.5 211.075 14.5 136.16C14.5 61.2447 76.2124 0.5 152.35 0.5ZM279.507 136.16C279.507 67.0331 222.567 11.0082 152.35 11.0082C82.1334 11.0082 25.1937 67.0331 25.1937 136.16C25.1937 205.287 82.1334 261.312 152.35 261.312C222.567 261.312 279.507 205.287 279.507 136.16Z" fill="url(#paint0_linear_418_640)" stroke="white"/>
<path id="body" d="M187.905 139.678L188.165 139.5L188.116 139.188C185.342 121.723 170.205 108.333 152 108.333C133.796 108.333 118.659 121.725 115.884 139.187L115.835 139.498L116.095 139.677C124.766 145.639 130.461 155.635 130.461 166.94V206.554C130.461 212.59 125.559 217.5 119.536 217.5C113.513 217.5 108.611 212.59 108.611 206.554V144.966C108.611 144.498 108.618 144.033 108.633 143.569L108.643 143.237L108.342 143.099C105.031 141.578 101.353 140.732 97.4804 140.732C83.0533 140.732 71.3183 152.489 71.3183 166.94V197.093C71.3183 198.98 69.7914 200.509 67.9088 200.509C66.0269 200.509 64.5 198.98 64.5 197.093V166.94C64.5 148.722 79.2961 133.9 97.4804 133.9C101.517 133.9 105.385 134.629 108.961 135.964L109.5 136.165L109.624 135.603C113.911 116.121 131.285 101.5 152 101.5C172.714 101.5 190.088 116.121 194.375 135.603L194.499 136.165L195.038 135.964C198.615 134.629 202.483 133.9 206.52 133.9C224.704 133.9 239.5 148.722 239.5 166.94V197.093C239.5 198.98 237.973 200.509 236.09 200.509C234.209 200.509 232.682 198.98 232.682 197.093V166.94C232.682 152.489 220.947 140.732 206.52 140.732C202.647 140.732 198.968 141.578 195.658 143.099L195.356 143.237L195.367 143.569C195.381 144.032 195.389 144.499 195.389 144.966V206.554C195.389 212.59 190.487 217.5 184.464 217.5C178.441 217.5 173.539 212.59 173.539 206.554V166.94C173.539 155.635 179.234 145.639 187.905 139.678ZM188.57 149.088V147.85L187.71 148.741C183.16 153.458 180.357 159.877 180.357 166.94V206.554C180.357 208.822 182.198 210.668 184.464 210.668C186.729 210.668 188.57 208.822 188.57 206.554V149.088ZM116.289 148.74L115.429 147.849V149.087V206.554C115.429 208.822 117.27 210.668 119.536 210.668C121.802 210.668 123.643 208.822 123.643 206.554V166.94C123.643 159.877 120.839 153.457 116.289 148.74Z" fill="url(#paint1_linear_418_640)" stroke="white"/>
<path id="head-3" d="M207 140.5C195.145 140.5 185.5 130.854 185.5 119C185.5 107.146 195.145 97.5 207 97.5C218.855 97.5 228.5 107.146 228.5 119C228.5 130.854 218.855 140.5 207 140.5ZM207 104.432C198.967 104.432 192.432 110.967 192.432 119C192.432 127.033 198.967 133.568 207 133.568C215.033 133.568 221.568 127.033 221.568 119C221.568 110.967 215.033 104.432 207 104.432Z" fill="#07DB91" stroke="white"/>
<path id="head-2" d="M152.5 107.5C137.613 107.5 125.5 95.3867 125.5 80.4993C125.5 65.612 137.613 53.5 152.5 53.5C167.387 53.5 179.5 65.612 179.5 80.4993C179.5 95.3867 167.387 107.5 152.5 107.5ZM152.5 60.3991C141.416 60.3991 132.399 69.4159 132.399 80.4993C132.399 91.584 141.416 100.601 152.5 100.601C163.585 100.601 172.601 91.584 172.601 80.4993C172.601 69.4159 163.585 60.3991 152.5 60.3991Z" fill="url(#paint2_linear_418_640)" stroke="white"/>
<path id="head-1" d="M97.0001 140.5C85.1455 140.5 75.5 130.854 75.5 119C75.5 107.146 85.1455 97.5 97.0001 97.5C108.855 97.5 118.5 107.146 118.5 119C118.5 130.854 108.855 140.5 97.0001 140.5ZM97.0001 104.432C88.9671 104.432 82.4322 110.967 82.4322 119C82.4322 127.033 88.9671 133.568 97.0001 133.568C105.034 133.568 111.568 127.033 111.568 119C111.568 110.967 105.034 104.432 97.0001 104.432Z" fill="#00BE7D" stroke="white"/>
<g id="digital-solucoes">
<mask id="path-6-inside-1_418_640" fill="white">
<path d="M78.4933 401.606C78.4933 401.709 78.5281 401.796 78.594 401.87C78.6703 401.933 78.7608 401.967 78.8683 401.967H80.4067C81.9173 401.967 83.2092 401.458 84.2717 400.438C85.3377 399.414 85.8691 398.17 85.8691 396.715C85.8691 395.256 85.3377 394.015 84.2717 392.991C83.2092 391.964 81.9173 391.452 80.4067 391.452H78.8683C78.7608 391.452 78.6703 391.486 78.594 391.559C78.5281 391.63 78.4933 391.72 78.4933 391.823V401.606V401.606ZM80.4067 389.06C82.5979 389.06 84.4696 389.806 86.0218 391.305C87.574 392.8 88.3518 394.603 88.3518 396.715C88.3518 398.826 87.574 400.629 86.0218 402.124C84.4696 403.619 82.5979 404.369 80.4067 404.369H78.8683C78.0836 404.369 77.4099 404.098 76.8437 403.556C76.2812 403.014 76 402.362 76 401.606V391.823C76 391.057 76.2812 390.405 76.8437 389.863C77.4099 389.328 78.0836 389.06 78.8683 389.06H80.4067V389.06ZM91.6195 393.078C91.9634 393.078 92.2516 393.195 92.4842 393.43C92.7274 393.667 92.849 393.948 92.849 394.273V403.185C92.849 403.516 92.7274 403.793 92.4842 404.018C92.2516 404.252 91.9634 404.369 91.6195 404.369H91.5986C91.2584 404.369 90.9668 404.252 90.7236 404.018C90.4806 403.793 90.3557 403.516 90.3557 403.185V394.273C90.3557 393.948 90.4806 393.667 90.7236 393.43C90.9668 393.195 91.2584 393.078 91.5986 393.078H91.6195ZM91.6092 391.803C91.2134 391.803 90.8799 391.67 90.6022 391.402C90.3242 391.134 90.1855 390.81 90.1855 390.432C90.1855 390.06 90.3242 389.739 90.6022 389.472C90.8799 389.204 91.2134 389.07 91.6092 389.07C91.9947 389.07 92.328 389.204 92.6058 389.472C92.8905 389.733 93.0329 390.054 93.0329 390.432C93.0329 390.816 92.8905 391.141 92.6058 391.402C92.328 391.67 91.9947 391.803 91.6092 391.803ZM97.7833 404.516C98.4535 405.503 99.4676 405.995 100.825 405.995C101.673 405.995 102.436 405.677 103.124 405.035C103.836 404.382 104.19 403.619 104.19 402.753C103.419 403.83 102.294 404.369 100.825 404.369C99.2106 404.369 97.8286 403.817 96.6825 402.713C95.5366 401.609 94.9635 400.277 94.9635 398.722C94.9635 397.17 95.5366 395.838 96.6825 394.734C97.8286 393.63 99.2106 393.078 100.825 393.078C102.433 393.078 103.808 393.627 104.954 394.724C106.1 395.815 106.676 397.143 106.684 398.705V402.753C106.684 404.282 106.069 405.613 104.843 406.751C103.655 407.848 102.315 408.397 100.825 408.397C98.5367 408.397 96.825 407.54 95.6858 405.831C95.5506 405.627 95.4811 405.416 95.4811 405.202C95.4811 405.071 95.5053 404.941 95.5539 404.81C95.6755 404.443 95.9256 404.195 96.3075 404.064L96.3388 404.055C96.5054 403.998 96.6687 403.967 96.825 403.967C97.2067 403.967 97.5229 404.151 97.7833 404.516V404.516ZM104.19 398.665C104.176 397.782 103.843 397.032 103.183 396.41C102.534 395.791 101.746 395.48 100.825 395.48C99.8876 395.48 99.0925 395.795 98.4328 396.43C97.7833 397.063 97.4569 397.829 97.4569 398.722C97.4569 399.625 97.7833 400.391 98.4328 401.027C99.0925 401.653 99.8876 401.967 100.825 401.967C101.759 401.967 102.555 401.653 103.204 401.027C103.864 400.391 104.19 399.625 104.19 398.722V398.665ZM110.357 393.078C110.701 393.078 110.989 393.195 111.222 393.43C111.465 393.667 111.587 393.948 111.587 394.273V403.185C111.587 403.516 111.465 403.793 111.222 404.018C110.989 404.252 110.701 404.369 110.357 404.369H110.336C109.996 404.369 109.704 404.252 109.461 404.018C109.218 403.793 109.093 403.516 109.093 403.185V394.273C109.093 393.948 109.218 393.667 109.461 393.43C109.704 393.195 109.996 393.078 110.336 393.078H110.357ZM110.347 391.803C109.951 391.803 109.618 391.67 109.34 391.402C109.062 391.134 108.923 390.81 108.923 390.432C108.923 390.06 109.062 389.739 109.34 389.472C109.618 389.204 109.951 389.07 110.347 389.07C110.732 389.07 111.066 389.204 111.344 389.472C111.628 389.733 111.77 390.054 111.77 390.432C111.77 390.816 111.628 391.141 111.344 391.402C111.066 391.67 110.732 391.803 110.347 391.803ZM115.268 389.06C115.601 389.06 115.889 389.174 116.132 389.401C116.379 389.639 116.5 389.92 116.5 390.244V393.078H118.025C118.358 393.078 118.646 393.195 118.889 393.43C119.136 393.667 119.257 393.948 119.257 394.273V394.292C119.257 394.627 119.136 394.905 118.889 395.126C118.646 395.363 118.358 395.48 118.025 395.48H116.5V401.291C116.5 401.482 116.566 401.642 116.702 401.773C116.837 401.903 117.007 401.967 117.212 401.967H118.025C118.358 401.967 118.646 402.084 118.889 402.322C119.136 402.556 119.257 402.837 119.257 403.165V403.185C119.257 403.516 119.136 403.793 118.889 404.018C118.646 404.252 118.358 404.369 118.025 404.369H117.212C116.33 404.369 115.573 404.068 114.945 403.466C114.319 402.86 114.007 402.134 114.007 401.291V390.244C114.007 389.92 114.128 389.639 114.372 389.401C114.618 389.174 114.906 389.06 115.236 389.06H115.268V389.06ZM126.539 393.078C128.154 393.078 129.536 393.63 130.682 394.734C131.828 395.838 132.401 397.17 132.401 398.722V403.185C132.401 403.516 132.279 403.793 132.036 404.018C131.79 404.252 131.501 404.369 131.172 404.369H131.14C130.807 404.369 130.519 404.252 130.276 404.018C130.029 403.793 129.908 403.516 129.908 403.185C129.137 403.974 128.011 404.369 126.539 404.369C124.928 404.369 123.546 403.817 122.4 402.713C121.254 401.609 120.681 400.277 120.681 398.722C120.681 397.17 121.254 395.838 122.4 394.734C123.546 393.63 124.928 393.078 126.539 393.078ZM126.539 395.48C125.605 395.48 124.806 395.795 124.15 396.43C123.497 397.063 123.174 397.829 123.174 398.722C123.174 399.625 123.497 400.391 124.15 401.027C124.806 401.653 125.605 401.967 126.539 401.967C127.477 401.967 128.272 401.653 128.921 401.027C129.581 400.391 129.908 399.625 129.908 398.722C129.908 397.829 129.581 397.063 128.921 396.43C128.265 395.795 127.47 395.48 126.539 395.48ZM136.103 389.06C136.436 389.06 136.724 389.174 136.967 389.401C137.214 389.639 137.335 389.92 137.335 390.244V403.185C137.335 403.516 137.214 403.793 136.967 404.018C136.724 404.252 136.436 404.369 136.103 404.369H136.075C135.741 404.369 135.453 404.252 135.21 404.018C134.964 403.793 134.842 403.516 134.842 403.185V390.244C134.842 389.92 134.964 389.639 135.21 389.401C135.453 389.174 135.741 389.06 136.075 389.06H136.103ZM150.368 391.432C149.784 391.432 149.288 391.626 148.881 392.021C148.475 392.412 148.27 392.887 148.27 393.449C148.27 394.119 148.586 394.624 149.218 394.968C149.496 395.119 150.312 395.383 151.67 395.764C152.83 396.096 153.677 396.497 154.212 396.969C155.014 397.668 155.413 398.652 155.413 399.92C155.413 401.147 154.958 402.198 154.049 403.064C153.149 403.934 152.062 404.369 150.795 404.369H146.919C146.586 404.369 146.298 404.252 146.055 404.018C145.808 403.78 145.687 403.503 145.687 403.185V403.124C145.687 402.803 145.808 402.526 146.055 402.291C146.298 402.057 146.586 401.937 146.919 401.937H150.895C151.472 401.937 151.968 401.743 152.382 401.351C152.788 400.957 152.993 400.482 152.993 399.92C152.993 399.267 152.677 398.755 152.045 398.391C151.746 398.22 150.927 397.932 149.583 397.528C148.423 397.163 147.579 396.748 147.051 396.283C146.249 395.591 145.85 394.647 145.85 393.449C145.85 392.222 146.301 391.175 147.204 390.305C148.104 389.435 149.194 389 150.468 389H153.205C153.545 389 153.837 389.117 154.08 389.355C154.316 389.582 154.437 389.86 154.437 390.188V390.244C154.437 390.566 154.316 390.844 154.08 391.078C153.837 391.315 153.545 391.432 153.205 391.432H150.368V391.432ZM162.699 395.5C161.761 395.5 160.966 395.815 160.306 396.45C159.657 397.083 159.33 397.852 159.33 398.752C159.33 399.649 159.657 400.411 160.306 401.047C160.966 401.679 161.761 401.997 162.699 401.997C163.626 401.997 164.421 401.679 165.077 401.047C165.737 400.411 166.064 399.649 166.064 398.752C166.064 397.852 165.737 397.083 165.077 396.45C164.421 395.815 163.626 395.5 162.699 395.5ZM162.699 393.078C164.31 393.078 165.692 393.63 166.838 394.734C167.984 395.838 168.557 397.17 168.557 398.722C168.557 400.277 167.984 401.609 166.838 402.713C165.692 403.817 164.31 404.369 162.699 404.369C161.084 404.369 159.702 403.817 158.556 402.713C157.41 401.609 156.837 400.277 156.837 398.722C156.837 397.17 157.41 395.838 158.556 394.734C159.702 393.63 161.084 393.078 162.699 393.078ZM171.953 389.06C172.286 389.06 172.575 389.174 172.818 389.401C173.064 389.639 173.186 389.92 173.186 390.244V403.185C173.186 403.516 173.064 403.793 172.818 404.018C172.575 404.252 172.286 404.369 171.953 404.369H171.925C171.592 404.369 171.304 404.252 171.061 404.018C170.814 403.793 170.693 403.516 170.693 403.185V390.244C170.693 389.92 170.814 389.639 171.061 389.401C171.304 389.174 171.592 389.06 171.925 389.06H171.953V389.06ZM178.12 399.635C178.12 400.281 178.353 400.833 178.822 401.291C179.297 401.743 179.874 401.967 180.551 401.967C181.221 401.967 181.794 401.743 182.27 401.291C182.739 400.833 182.971 400.281 182.971 399.635V394.273C182.971 393.948 183.093 393.667 183.34 393.43C183.583 393.195 183.874 393.078 184.215 393.078H184.235C184.579 393.078 184.867 393.195 185.1 393.43C185.343 393.667 185.465 393.948 185.465 394.273V399.635C185.465 400.937 184.982 402.051 184.02 402.977C183.058 403.904 181.902 404.369 180.551 404.369C179.193 404.369 178.034 403.904 177.072 402.977C176.11 402.051 175.627 400.937 175.627 399.635V394.273C175.627 393.948 175.749 393.667 175.992 393.43C176.238 393.195 176.526 393.078 176.856 393.078H176.888C177.221 393.078 177.509 393.195 177.752 393.43C177.999 393.667 178.12 393.948 178.12 394.273V399.635V399.635ZM193.056 393.078C193.663 393.078 194.254 393.165 194.823 393.342C195.4 393.52 195.688 393.898 195.688 394.48V394.53C195.688 394.928 195.525 395.243 195.191 395.48C194.959 395.637 194.723 395.714 194.48 395.714C194.351 395.714 194.219 395.694 194.084 395.657C193.75 395.551 193.406 395.5 193.056 395.5C192.118 395.5 191.323 395.815 190.663 396.45C190.014 397.083 189.687 397.852 189.687 398.752C189.687 399.649 190.014 400.411 190.663 401.047C191.323 401.679 192.118 401.997 193.056 401.997C193.406 401.997 193.75 401.943 194.084 401.84C194.212 401.8 194.341 401.783 194.469 401.783C194.719 401.783 194.959 401.86 195.191 402.017C195.525 402.251 195.688 402.572 195.688 402.977C195.688 403.553 195.4 403.931 194.823 404.115C194.254 404.285 193.663 404.369 193.056 404.369C191.441 404.369 190.059 403.817 188.913 402.713C187.767 401.609 187.194 400.277 187.194 398.722C187.194 397.17 187.767 395.838 188.913 394.734C190.059 393.63 191.441 393.078 193.056 393.078V393.078ZM192.191 404.182H194.285L194.063 405.299C194.518 405.346 194.927 405.543 195.292 405.888C195.653 406.222 195.83 406.604 195.83 407.035C195.83 407.641 195.539 408.169 194.959 408.614C194.393 409.039 193.566 409.25 192.476 409.25H191.507C191.236 409.25 191.01 409.153 190.826 408.956C190.663 408.792 190.583 408.594 190.583 408.357V408.28L190.594 408.203C190.611 407.972 190.715 407.781 190.899 407.624C191.066 407.467 191.278 407.387 191.528 407.387C191.74 407.393 191.913 407.396 192.055 407.396C192.66 407.396 193.073 407.326 193.288 407.183C193.403 407.102 193.462 407.022 193.462 406.938C193.462 406.885 193.445 406.838 193.41 406.801C193.365 406.748 193.264 406.697 193.115 406.654C193.028 406.627 192.91 406.607 192.761 406.594C192.483 406.56 192.267 406.443 192.118 406.242C191.99 406.078 191.924 405.898 191.924 405.7C191.924 405.657 191.927 405.607 191.934 405.553L192.191 404.182ZM202.973 395.5C202.036 395.5 201.24 395.815 200.581 396.45C199.931 397.083 199.605 397.852 199.605 398.752C199.605 399.649 199.931 400.411 200.581 401.047C201.24 401.679 202.036 401.997 202.973 401.997C203.9 401.997 204.695 401.679 205.352 401.047C206.012 400.411 206.338 399.649 206.338 398.752C206.338 397.852 206.012 397.083 205.352 396.45C204.695 395.815 203.9 395.5 202.973 395.5ZM202.973 393.078C204.584 393.078 205.966 393.63 207.113 394.734C208.258 395.838 208.832 397.17 208.832 398.722C208.832 400.277 208.258 401.609 207.113 402.713C205.966 403.817 204.584 404.369 202.973 404.369C201.359 404.369 199.977 403.817 198.83 402.713C197.685 401.609 197.112 400.277 197.112 398.722C197.112 397.17 197.685 395.838 198.83 394.734C199.977 393.63 201.359 393.078 202.973 393.078ZM199.094 391.579C199.199 390.991 199.466 390.522 199.9 390.178C200.348 389.81 200.907 389.629 201.577 389.629C202.126 389.629 202.775 389.8 203.522 390.137C203.765 390.248 204.018 390.305 204.286 390.305H204.366C204.636 390.298 204.827 390.218 204.935 390.071C205.178 389.716 205.428 389.539 205.678 389.539H206.095C206.331 389.539 206.522 389.622 206.665 389.786C206.786 389.923 206.849 390.074 206.849 390.234C206.849 390.275 206.845 390.318 206.838 390.362C206.613 391.683 205.824 392.342 204.466 392.342C203.911 392.342 203.272 392.162 202.546 391.793C202.247 391.643 201.945 391.569 201.64 391.569C201.369 391.576 201.199 391.67 201.129 391.854C200.956 392.185 200.675 392.369 200.296 392.402H199.848C199.626 392.402 199.435 392.319 199.278 392.158C199.15 392.021 199.087 391.867 199.087 391.697C199.087 391.656 199.091 391.616 199.094 391.579V391.579ZM216.117 395.5C215.179 395.5 214.384 395.815 213.724 396.45C213.075 397.083 212.749 397.852 212.749 398.752V398.822L218.437 396.36C217.933 395.788 217.159 395.5 216.117 395.5ZM221.437 396.37C221.517 396.534 221.559 396.701 221.559 396.872C221.559 397.009 221.53 397.146 221.479 397.283C221.36 397.591 221.145 397.812 220.826 397.949C219.878 398.36 218.628 398.903 217.082 399.575C215.162 400.411 214.037 400.906 213.704 401.057C214.221 401.683 215.023 401.997 216.117 401.997C216.843 401.997 217.499 401.79 218.089 401.378C218.666 400.973 219.068 400.451 219.301 399.812C219.496 399.277 219.891 399.006 220.478 399.006C220.902 399.006 221.235 399.177 221.489 399.518C221.642 399.726 221.722 399.946 221.722 400.174C221.722 400.311 221.694 400.451 221.638 400.595C221.239 401.713 220.537 402.616 219.534 403.302C218.516 404.014 217.377 404.369 216.117 404.369C214.502 404.369 213.12 403.817 211.974 402.713C210.828 401.609 210.255 400.277 210.255 398.722C210.255 397.17 210.828 395.838 211.974 394.734C213.12 393.63 214.502 393.078 216.117 393.078C217.284 393.078 218.346 393.386 219.312 393.998C220.266 394.6 220.975 395.39 221.437 396.37V396.37ZM226.705 395.48C226.406 395.48 226.156 395.577 225.951 395.775C225.75 395.975 225.649 396.216 225.649 396.497C225.649 396.892 225.843 397.186 226.236 397.38C226.371 397.454 226.941 397.614 227.937 397.872C228.743 398.093 229.344 398.384 229.736 398.742C230.299 399.26 230.58 399.993 230.58 400.95C230.58 401.89 230.236 402.696 229.545 403.369C228.844 404.034 228.007 404.369 227.031 404.369H224.374C224.045 404.369 223.756 404.252 223.51 404.018C223.267 403.793 223.145 403.516 223.145 403.185V403.165C223.145 402.837 223.267 402.556 223.51 402.322C223.756 402.084 224.045 401.967 224.374 401.967H227.132C227.43 401.967 227.681 401.87 227.885 401.673C228.09 401.478 228.191 401.234 228.191 400.95C228.191 400.589 227.996 400.318 227.611 400.134C227.51 400.09 226.941 399.926 225.902 399.645C225.093 399.418 224.493 399.117 224.1 398.742C223.538 398.213 223.256 397.464 223.256 396.497C223.256 395.557 223.604 394.754 224.295 394.089C224.993 393.416 225.83 393.078 226.805 393.078H228.68C229.017 393.078 229.309 393.195 229.555 393.43C229.799 393.667 229.92 393.948 229.92 394.273V394.292C229.92 394.627 229.799 394.905 229.555 395.126C229.309 395.363 229.017 395.48 228.68 395.48H226.705V395.48Z"/>
</mask>
<path d="M78.4933 401.606C78.4933 401.709 78.5281 401.796 78.594 401.87C78.6703 401.933 78.7608 401.967 78.8683 401.967H80.4067C81.9173 401.967 83.2092 401.458 84.2717 400.438C85.3377 399.414 85.8691 398.17 85.8691 396.715C85.8691 395.256 85.3377 394.015 84.2717 392.991C83.2092 391.964 81.9173 391.452 80.4067 391.452H78.8683C78.7608 391.452 78.6703 391.486 78.594 391.559C78.5281 391.63 78.4933 391.72 78.4933 391.823V401.606V401.606ZM80.4067 389.06C82.5979 389.06 84.4696 389.806 86.0218 391.305C87.574 392.8 88.3518 394.603 88.3518 396.715C88.3518 398.826 87.574 400.629 86.0218 402.124C84.4696 403.619 82.5979 404.369 80.4067 404.369H78.8683C78.0836 404.369 77.4099 404.098 76.8437 403.556C76.2812 403.014 76 402.362 76 401.606V391.823C76 391.057 76.2812 390.405 76.8437 389.863C77.4099 389.328 78.0836 389.06 78.8683 389.06H80.4067V389.06ZM91.6195 393.078C91.9634 393.078 92.2516 393.195 92.4842 393.43C92.7274 393.667 92.849 393.948 92.849 394.273V403.185C92.849 403.516 92.7274 403.793 92.4842 404.018C92.2516 404.252 91.9634 404.369 91.6195 404.369H91.5986C91.2584 404.369 90.9668 404.252 90.7236 404.018C90.4806 403.793 90.3557 403.516 90.3557 403.185V394.273C90.3557 393.948 90.4806 393.667 90.7236 393.43C90.9668 393.195 91.2584 393.078 91.5986 393.078H91.6195ZM91.6092 391.803C91.2134 391.803 90.8799 391.67 90.6022 391.402C90.3242 391.134 90.1855 390.81 90.1855 390.432C90.1855 390.06 90.3242 389.739 90.6022 389.472C90.8799 389.204 91.2134 389.07 91.6092 389.07C91.9947 389.07 92.328 389.204 92.6058 389.472C92.8905 389.733 93.0329 390.054 93.0329 390.432C93.0329 390.816 92.8905 391.141 92.6058 391.402C92.328 391.67 91.9947 391.803 91.6092 391.803ZM97.7833 404.516C98.4535 405.503 99.4676 405.995 100.825 405.995C101.673 405.995 102.436 405.677 103.124 405.035C103.836 404.382 104.19 403.619 104.19 402.753C103.419 403.83 102.294 404.369 100.825 404.369C99.2106 404.369 97.8286 403.817 96.6825 402.713C95.5366 401.609 94.9635 400.277 94.9635 398.722C94.9635 397.17 95.5366 395.838 96.6825 394.734C97.8286 393.63 99.2106 393.078 100.825 393.078C102.433 393.078 103.808 393.627 104.954 394.724C106.1 395.815 106.676 397.143 106.684 398.705V402.753C106.684 404.282 106.069 405.613 104.843 406.751C103.655 407.848 102.315 408.397 100.825 408.397C98.5367 408.397 96.825 407.54 95.6858 405.831C95.5506 405.627 95.4811 405.416 95.4811 405.202C95.4811 405.071 95.5053 404.941 95.5539 404.81C95.6755 404.443 95.9256 404.195 96.3075 404.064L96.3388 404.055C96.5054 403.998 96.6687 403.967 96.825 403.967C97.2067 403.967 97.5229 404.151 97.7833 404.516V404.516ZM104.19 398.665C104.176 397.782 103.843 397.032 103.183 396.41C102.534 395.791 101.746 395.48 100.825 395.48C99.8876 395.48 99.0925 395.795 98.4328 396.43C97.7833 397.063 97.4569 397.829 97.4569 398.722C97.4569 399.625 97.7833 400.391 98.4328 401.027C99.0925 401.653 99.8876 401.967 100.825 401.967C101.759 401.967 102.555 401.653 103.204 401.027C103.864 400.391 104.19 399.625 104.19 398.722V398.665ZM110.357 393.078C110.701 393.078 110.989 393.195 111.222 393.43C111.465 393.667 111.587 393.948 111.587 394.273V403.185C111.587 403.516 111.465 403.793 111.222 404.018C110.989 404.252 110.701 404.369 110.357 404.369H110.336C109.996 404.369 109.704 404.252 109.461 404.018C109.218 403.793 109.093 403.516 109.093 403.185V394.273C109.093 393.948 109.218 393.667 109.461 393.43C109.704 393.195 109.996 393.078 110.336 393.078H110.357ZM110.347 391.803C109.951 391.803 109.618 391.67 109.34 391.402C109.062 391.134 108.923 390.81 108.923 390.432C108.923 390.06 109.062 389.739 109.34 389.472C109.618 389.204 109.951 389.07 110.347 389.07C110.732 389.07 111.066 389.204 111.344 389.472C111.628 389.733 111.77 390.054 111.77 390.432C111.77 390.816 111.628 391.141 111.344 391.402C111.066 391.67 110.732 391.803 110.347 391.803ZM115.268 389.06C115.601 389.06 115.889 389.174 116.132 389.401C116.379 389.639 116.5 389.92 116.5 390.244V393.078H118.025C118.358 393.078 118.646 393.195 118.889 393.43C119.136 393.667 119.257 393.948 119.257 394.273V394.292C119.257 394.627 119.136 394.905 118.889 395.126C118.646 395.363 118.358 395.48 118.025 395.48H116.5V401.291C116.5 401.482 116.566 401.642 116.702 401.773C116.837 401.903 117.007 401.967 117.212 401.967H118.025C118.358 401.967 118.646 402.084 118.889 402.322C119.136 402.556 119.257 402.837 119.257 403.165V403.185C119.257 403.516 119.136 403.793 118.889 404.018C118.646 404.252 118.358 404.369 118.025 404.369H117.212C116.33 404.369 115.573 404.068 114.945 403.466C114.319 402.86 114.007 402.134 114.007 401.291V390.244C114.007 389.92 114.128 389.639 114.372 389.401C114.618 389.174 114.906 389.06 115.236 389.06H115.268V389.06ZM126.539 393.078C128.154 393.078 129.536 393.63 130.682 394.734C131.828 395.838 132.401 397.17 132.401 398.722V403.185C132.401 403.516 132.279 403.793 132.036 404.018C131.79 404.252 131.501 404.369 131.172 404.369H131.14C130.807 404.369 130.519 404.252 130.276 404.018C130.029 403.793 129.908 403.516 129.908 403.185C129.137 403.974 128.011 404.369 126.539 404.369C124.928 404.369 123.546 403.817 122.4 402.713C121.254 401.609 120.681 400.277 120.681 398.722C120.681 397.17 121.254 395.838 122.4 394.734C123.546 393.63 124.928 393.078 126.539 393.078ZM126.539 395.48C125.605 395.48 124.806 395.795 124.15 396.43C123.497 397.063 123.174 397.829 123.174 398.722C123.174 399.625 123.497 400.391 124.15 401.027C124.806 401.653 125.605 401.967 126.539 401.967C127.477 401.967 128.272 401.653 128.921 401.027C129.581 400.391 129.908 399.625 129.908 398.722C129.908 397.829 129.581 397.063 128.921 396.43C128.265 395.795 127.47 395.48 126.539 395.48ZM136.103 389.06C136.436 389.06 136.724 389.174 136.967 389.401C137.214 389.639 137.335 389.92 137.335 390.244V403.185C137.335 403.516 137.214 403.793 136.967 404.018C136.724 404.252 136.436 404.369 136.103 404.369H136.075C135.741 404.369 135.453 404.252 135.21 404.018C134.964 403.793 134.842 403.516 134.842 403.185V390.244C134.842 389.92 134.964 389.639 135.21 389.401C135.453 389.174 135.741 389.06 136.075 389.06H136.103ZM150.368 391.432C149.784 391.432 149.288 391.626 148.881 392.021C148.475 392.412 148.27 392.887 148.27 393.449C148.27 394.119 148.586 394.624 149.218 394.968C149.496 395.119 150.312 395.383 151.67 395.764C152.83 396.096 153.677 396.497 154.212 396.969C155.014 397.668 155.413 398.652 155.413 399.92C155.413 401.147 154.958 402.198 154.049 403.064C153.149 403.934 152.062 404.369 150.795 404.369H146.919C146.586 404.369 146.298 404.252 146.055 404.018C145.808 403.78 145.687 403.503 145.687 403.185V403.124C145.687 402.803 145.808 402.526 146.055 402.291C146.298 402.057 146.586 401.937 146.919 401.937H150.895C151.472 401.937 151.968 401.743 152.382 401.351C152.788 400.957 152.993 400.482 152.993 399.92C152.993 399.267 152.677 398.755 152.045 398.391C151.746 398.22 150.927 397.932 149.583 397.528C148.423 397.163 147.579 396.748 147.051 396.283C146.249 395.591 145.85 394.647 145.85 393.449C145.85 392.222 146.301 391.175 147.204 390.305C148.104 389.435 149.194 389 150.468 389H153.205C153.545 389 153.837 389.117 154.08 389.355C154.316 389.582 154.437 389.86 154.437 390.188V390.244C154.437 390.566 154.316 390.844 154.08 391.078C153.837 391.315 153.545 391.432 153.205 391.432H150.368V391.432ZM162.699 395.5C161.761 395.5 160.966 395.815 160.306 396.45C159.657 397.083 159.33 397.852 159.33 398.752C159.33 399.649 159.657 400.411 160.306 401.047C160.966 401.679 161.761 401.997 162.699 401.997C163.626 401.997 164.421 401.679 165.077 401.047C165.737 400.411 166.064 399.649 166.064 398.752C166.064 397.852 165.737 397.083 165.077 396.45C164.421 395.815 163.626 395.5 162.699 395.5ZM162.699 393.078C164.31 393.078 165.692 393.63 166.838 394.734C167.984 395.838 168.557 397.17 168.557 398.722C168.557 400.277 167.984 401.609 166.838 402.713C165.692 403.817 164.31 404.369 162.699 404.369C161.084 404.369 159.702 403.817 158.556 402.713C157.41 401.609 156.837 400.277 156.837 398.722C156.837 397.17 157.41 395.838 158.556 394.734C159.702 393.63 161.084 393.078 162.699 393.078ZM171.953 389.06C172.286 389.06 172.575 389.174 172.818 389.401C173.064 389.639 173.186 389.92 173.186 390.244V403.185C173.186 403.516 173.064 403.793 172.818 404.018C172.575 404.252 172.286 404.369 171.953 404.369H171.925C171.592 404.369 171.304 404.252 171.061 404.018C170.814 403.793 170.693 403.516 170.693 403.185V390.244C170.693 389.92 170.814 389.639 171.061 389.401C171.304 389.174 171.592 389.06 171.925 389.06H171.953V389.06ZM178.12 399.635C178.12 400.281 178.353 400.833 178.822 401.291C179.297 401.743 179.874 401.967 180.551 401.967C181.221 401.967 181.794 401.743 182.27 401.291C182.739 400.833 182.971 400.281 182.971 399.635V394.273C182.971 393.948 183.093 393.667 183.34 393.43C183.583 393.195 183.874 393.078 184.215 393.078H184.235C184.579 393.078 184.867 393.195 185.1 393.43C185.343 393.667 185.465 393.948 185.465 394.273V399.635C185.465 400.937 184.982 402.051 184.02 402.977C183.058 403.904 181.902 404.369 180.551 404.369C179.193 404.369 178.034 403.904 177.072 402.977C176.11 402.051 175.627 400.937 175.627 399.635V394.273C175.627 393.948 175.749 393.667 175.992 393.43C176.238 393.195 176.526 393.078 176.856 393.078H176.888C177.221 393.078 177.509 393.195 177.752 393.43C177.999 393.667 178.12 393.948 178.12 394.273V399.635V399.635ZM193.056 393.078C193.663 393.078 194.254 393.165 194.823 393.342C195.4 393.52 195.688 393.898 195.688 394.48V394.53C195.688 394.928 195.525 395.243 195.191 395.48C194.959 395.637 194.723 395.714 194.48 395.714C194.351 395.714 194.219 395.694 194.084 395.657C193.75 395.551 193.406 395.5 193.056 395.5C192.118 395.5 191.323 395.815 190.663 396.45C190.014 397.083 189.687 397.852 189.687 398.752C189.687 399.649 190.014 400.411 190.663 401.047C191.323 401.679 192.118 401.997 193.056 401.997C193.406 401.997 193.75 401.943 194.084 401.84C194.212 401.8 194.341 401.783 194.469 401.783C194.719 401.783 194.959 401.86 195.191 402.017C195.525 402.251 195.688 402.572 195.688 402.977C195.688 403.553 195.4 403.931 194.823 404.115C194.254 404.285 193.663 404.369 193.056 404.369C191.441 404.369 190.059 403.817 188.913 402.713C187.767 401.609 187.194 400.277 187.194 398.722C187.194 397.17 187.767 395.838 188.913 394.734C190.059 393.63 191.441 393.078 193.056 393.078V393.078ZM192.191 404.182H194.285L194.063 405.299C194.518 405.346 194.927 405.543 195.292 405.888C195.653 406.222 195.83 406.604 195.83 407.035C195.83 407.641 195.539 408.169 194.959 408.614C194.393 409.039 193.566 409.25 192.476 409.25H191.507C191.236 409.25 191.01 409.153 190.826 408.956C190.663 408.792 190.583 408.594 190.583 408.357V408.28L190.594 408.203C190.611 407.972 190.715 407.781 190.899 407.624C191.066 407.467 191.278 407.387 191.528 407.387C191.74 407.393 191.913 407.396 192.055 407.396C192.66 407.396 193.073 407.326 193.288 407.183C193.403 407.102 193.462 407.022 193.462 406.938C193.462 406.885 193.445 406.838 193.41 406.801C193.365 406.748 193.264 406.697 193.115 406.654C193.028 406.627 192.91 406.607 192.761 406.594C192.483 406.56 192.267 406.443 192.118 406.242C191.99 406.078 191.924 405.898 191.924 405.7C191.924 405.657 191.927 405.607 191.934 405.553L192.191 404.182ZM202.973 395.5C202.036 395.5 201.24 395.815 200.581 396.45C199.931 397.083 199.605 397.852 199.605 398.752C199.605 399.649 199.931 400.411 200.581 401.047C201.24 401.679 202.036 401.997 202.973 401.997C203.9 401.997 204.695 401.679 205.352 401.047C206.012 400.411 206.338 399.649 206.338 398.752C206.338 397.852 206.012 397.083 205.352 396.45C204.695 395.815 203.9 395.5 202.973 395.5ZM202.973 393.078C204.584 393.078 205.966 393.63 207.113 394.734C208.258 395.838 208.832 397.17 208.832 398.722C208.832 400.277 208.258 401.609 207.113 402.713C205.966 403.817 204.584 404.369 202.973 404.369C201.359 404.369 199.977 403.817 198.83 402.713C197.685 401.609 197.112 400.277 197.112 398.722C197.112 397.17 197.685 395.838 198.83 394.734C199.977 393.63 201.359 393.078 202.973 393.078ZM199.094 391.579C199.199 390.991 199.466 390.522 199.9 390.178C200.348 389.81 200.907 389.629 201.577 389.629C202.126 389.629 202.775 389.8 203.522 390.137C203.765 390.248 204.018 390.305 204.286 390.305H204.366C204.636 390.298 204.827 390.218 204.935 390.071C205.178 389.716 205.428 389.539 205.678 389.539H206.095C206.331 389.539 206.522 389.622 206.665 389.786C206.786 389.923 206.849 390.074 206.849 390.234C206.849 390.275 206.845 390.318 206.838 390.362C206.613 391.683 205.824 392.342 204.466 392.342C203.911 392.342 203.272 392.162 202.546 391.793C202.247 391.643 201.945 391.569 201.64 391.569C201.369 391.576 201.199 391.67 201.129 391.854C200.956 392.185 200.675 392.369 200.296 392.402H199.848C199.626 392.402 199.435 392.319 199.278 392.158C199.15 392.021 199.087 391.867 199.087 391.697C199.087 391.656 199.091 391.616 199.094 391.579V391.579ZM216.117 395.5C215.179 395.5 214.384 395.815 213.724 396.45C213.075 397.083 212.749 397.852 212.749 398.752V398.822L218.437 396.36C217.933 395.788 217.159 395.5 216.117 395.5ZM221.437 396.37C221.517 396.534 221.559 396.701 221.559 396.872C221.559 397.009 221.53 397.146 221.479 397.283C221.36 397.591 221.145 397.812 220.826 397.949C219.878 398.36 218.628 398.903 217.082 399.575C215.162 400.411 214.037 400.906 213.704 401.057C214.221 401.683 215.023 401.997 216.117 401.997C216.843 401.997 217.499 401.79 218.089 401.378C218.666 400.973 219.068 400.451 219.301 399.812C219.496 399.277 219.891 399.006 220.478 399.006C220.902 399.006 221.235 399.177 221.489 399.518C221.642 399.726 221.722 399.946 221.722 400.174C221.722 400.311 221.694 400.451 221.638 400.595C221.239 401.713 220.537 402.616 219.534 403.302C218.516 404.014 217.377 404.369 216.117 404.369C214.502 404.369 213.12 403.817 211.974 402.713C210.828 401.609 210.255 400.277 210.255 398.722C210.255 397.17 210.828 395.838 211.974 394.734C213.12 393.63 214.502 393.078 216.117 393.078C217.284 393.078 218.346 393.386 219.312 393.998C220.266 394.6 220.975 395.39 221.437 396.37V396.37ZM226.705 395.48C226.406 395.48 226.156 395.577 225.951 395.775C225.75 395.975 225.649 396.216 225.649 396.497C225.649 396.892 225.843 397.186 226.236 397.38C226.371 397.454 226.941 397.614 227.937 397.872C228.743 398.093 229.344 398.384 229.736 398.742C230.299 399.26 230.58 399.993 230.58 400.95C230.58 401.89 230.236 402.696 229.545 403.369C228.844 404.034 228.007 404.369 227.031 404.369H224.374C224.045 404.369 223.756 404.252 223.51 404.018C223.267 403.793 223.145 403.516 223.145 403.185V403.165C223.145 402.837 223.267 402.556 223.51 402.322C223.756 402.084 224.045 401.967 224.374 401.967H227.132C227.43 401.967 227.681 401.87 227.885 401.673C228.09 401.478 228.191 401.234 228.191 400.95C228.191 400.589 227.996 400.318 227.611 400.134C227.51 400.09 226.941 399.926 225.902 399.645C225.093 399.418 224.493 399.117 224.1 398.742C223.538 398.213 223.256 397.464 223.256 396.497C223.256 395.557 223.604 394.754 224.295 394.089C224.993 393.416 225.83 393.078 226.805 393.078H228.68C229.017 393.078 229.309 393.195 229.555 393.43C229.799 393.667 229.92 393.948 229.92 394.273V394.292C229.92 394.627 229.799 394.905 229.555 395.126C229.309 395.363 229.017 395.48 228.68 395.48H226.705V395.48Z" fill="#04B879" stroke="white" mask="url(#path-6-inside-1_418_640)"/>
</g>
<path id="cwv" d="M255.788 344.231L255.786 344.227L234.541 289.932C234.54 289.93 234.54 289.929 234.539 289.928C234.113 288.9 233.48 288.071 232.638 287.43C231.829 286.814 230.756 286.485 229.378 286.485H216.562L252.65 374.515H267.166L303.255 286.485H290.438C289.119 286.485 288.047 286.846 287.191 287.543C286.286 288.28 285.679 289.074 285.342 289.923L255.788 344.231ZM255.788 344.231C256.491 345.983 257.174 347.899 257.816 349.999C258.458 352.103 259.06 354.331 259.642 356.665L260.617 356.644C261.571 351.945 262.751 347.807 264.155 344.228L264.155 344.227L285.341 289.925L255.788 344.231ZM13.2256 298.101L13.2256 298.101C17.2574 294.129 22.0949 291.025 27.7235 288.81C33.3455 286.599 39.5527 285.5 46.3732 285.5C53.0285 285.5 58.8347 286.559 63.7816 288.642C68.605 290.692 72.74 293.371 76.2115 296.693L70.8436 304.038L70.8383 304.045L70.8332 304.053C70.5334 304.495 70.1593 304.883 69.6871 305.218C69.2812 305.506 68.6675 305.68 67.8097 305.68C66.9864 305.68 66.109 305.364 65.1695 304.67C64.1473 303.914 62.8571 303.102 61.304 302.234C59.7237 301.35 57.7524 300.538 55.3767 299.792C52.957 299.033 49.9022 298.661 46.2482 298.661C41.9408 298.661 37.9802 299.389 34.351 300.874L34.5242 301.297L34.351 300.874C30.7245 302.357 27.6027 304.49 24.9905 307.252C22.3758 309.996 20.3426 313.36 18.8845 317.294C17.4235 321.216 16.6867 325.648 16.6867 330.52C16.6867 335.576 17.423 340.09 18.8842 344.054L18.8842 344.054C20.3412 348.006 22.3103 351.328 24.8189 354.05C27.3244 356.77 30.2787 358.864 33.6781 360.308C37.0775 361.753 40.7278 362.462 44.6232 362.462C46.932 362.462 49.0377 362.338 50.9179 362.088C52.8005 361.838 54.5412 361.442 56.1385 360.896C57.7322 360.352 59.2441 359.66 60.6723 358.799C62.0998 357.938 63.4993 356.872 64.892 355.625C65.2739 355.286 65.6738 355.024 66.0933 354.817C66.4848 354.624 66.9092 354.52 67.3723 354.52C68.1439 354.52 68.8067 354.806 69.3839 355.41C69.3844 355.41 69.3849 355.411 69.3854 355.412L75.7057 362.167C72.1408 366.415 67.7965 369.683 62.6486 371.972C57.3738 374.317 51.0094 375.5 43.5606 375.5C36.9093 375.5 30.9562 374.381 25.6725 372.153C20.3789 369.921 15.8545 366.82 12.1133 362.851C8.37254 358.882 5.51117 354.139 3.51163 348.616C1.51265 343.094 0.5 337.056 0.5 330.5C0.5 323.866 1.61526 317.794 3.83828 312.299C6.06372 306.798 9.19297 302.074 13.2256 298.101ZM100.603 287.402L100.603 287.402C101.484 288.011 102.063 288.836 102.366 289.88L117.739 343.136C118.111 344.438 118.462 345.841 118.772 347.367L119.262 347.267L118.772 347.367C119.083 348.898 119.373 350.534 119.665 352.256L120.649 352.267C120.98 350.554 121.352 348.922 121.746 347.392C122.139 345.863 122.552 344.461 123.005 343.164L123.007 343.157L140.753 289.907C140.754 289.906 140.754 289.905 140.755 289.903C141.049 289.071 141.647 288.283 142.572 287.546C143.452 286.845 144.526 286.485 145.844 286.485H150.781C152.165 286.485 153.264 286.796 154.118 287.399L154.118 287.399C154.984 288.011 155.587 288.844 155.931 289.896L155.931 289.898L173.556 343.156L173.558 343.163C174.467 345.767 175.253 348.66 175.916 351.844L176.897 351.831C177.188 350.237 177.499 348.702 177.811 347.227C178.122 345.756 178.432 344.392 178.762 343.132C178.763 343.13 178.763 343.128 178.764 343.125L194.135 289.879L194.136 289.877C194.392 288.975 194.963 288.18 195.889 287.496C196.791 286.829 197.892 286.485 199.217 286.485H211.722L183.976 374.515H169.519L149.882 314.031C149.659 313.335 149.436 312.589 149.196 311.787L149.115 311.516L149.115 311.516C148.845 310.619 148.577 309.663 148.33 308.648L147.358 308.648C147.109 309.67 146.862 310.625 146.594 311.516C146.337 312.372 146.081 313.173 145.84 313.922L145.806 314.028L145.805 314.031L125.983 374.515H111.525L83.7785 286.485H97.2211C98.6046 286.485 99.7274 286.796 100.603 287.402Z" fill="url(#paint3_linear_418_640)" stroke="white"/>
</g>
<defs>
<linearGradient id="paint0_linear_418_640" x1="57.1793" y1="5.03168" x2="218.907" y2="268.141" gradientUnits="userSpaceOnUse">
<stop stop-color="#00FAA2"/>
<stop offset="1" stop-color="#006F48"/>
</linearGradient>
<linearGradient id="paint1_linear_418_640" x1="61.2901" y1="120.734" x2="180.852" y2="227.765" gradientUnits="userSpaceOnUse">
<stop stop-color="#16F0A4"/>
<stop offset="0.360784" stop-color="#0BC282"/>
<stop offset="0.54902" stop-color="#0ABD7E"/>
<stop offset="1" stop-color="#009460"/>
</linearGradient>
<linearGradient id="paint2_linear_418_640" x1="195.076" y1="44.0523" x2="93.9732" y2="97.7235" gradientUnits="userSpaceOnUse">
<stop stop-color="#07DB91"/>
<stop offset="1" stop-color="#00A36A"/>
</linearGradient>
<linearGradient id="paint3_linear_418_640" x1="149.304" y1="290.54" x2="149.038" y2="369.791" gradientUnits="userSpaceOnUse">
<stop stop-color="#07DB91"/>
<stop offset="0.294118" stop-color="#06CA85"/>
<stop offset="0.509804" stop-color="#006E47"/>
<stop offset="1" stop-color="#04B879"/>
<stop offset="1" stop-color="#04B879"/>
</linearGradient>
</defs>
</svg>
