<svg width="304" height="408" viewBox="0 0 304 408" fill="none" xmlns="http://www.w3.org/2000/svg">
<g id="CWV LOGO - Branca">
<path id="body" d="M190.513 133.561L190.778 133.383L190.727 133.067C187.774 114.83 171.66 100.86 152.295 100.86C132.932 100.86 116.819 114.831 113.864 133.065L113.813 133.381L114.078 133.56C123.321 139.792 129.389 150.24 129.389 162.051V203.427C129.389 209.735 124.162 214.882 117.721 214.882C111.279 214.882 106.053 209.735 106.053 203.427V139.1C106.053 138.611 106.061 138.125 106.076 137.64L106.087 137.306L105.782 137.168C102.261 135.583 98.3494 134.7 94.2314 134.7C78.8935 134.7 66.4008 146.961 66.4008 162.051V193.545C66.4008 195.519 64.7694 197.135 62.7372 197.135C60.7057 197.135 59.0742 195.519 59.0742 193.545V162.051C59.0742 143.019 74.8376 127.519 94.2314 127.519C98.5353 127.519 102.659 128.282 106.473 129.678L107.008 129.873L107.132 129.317C111.699 108.965 130.211 93.6787 152.295 93.6787C174.379 93.6787 192.891 108.965 197.458 129.317L197.583 129.873L198.118 129.678C201.931 128.282 206.056 127.519 210.36 127.519C229.753 127.519 245.517 143.019 245.517 162.051V193.545C245.517 195.519 243.885 197.135 241.853 197.135C239.822 197.135 238.19 195.519 238.19 193.545V162.051C238.19 146.961 225.697 134.7 210.36 134.7C206.242 134.7 202.329 135.583 198.808 137.168L198.503 137.306L198.514 137.64C198.53 138.124 198.538 138.612 198.538 139.1V203.427C198.538 209.735 193.312 214.882 186.87 214.882C180.428 214.882 175.202 209.735 175.202 203.427V162.051C175.202 150.24 181.269 139.792 190.513 133.561ZM191.211 143.406V142.184L190.354 143.055C185.513 147.977 182.529 154.677 182.529 162.051V203.427C182.529 205.792 184.484 207.701 186.87 207.701C189.256 207.701 191.211 205.792 191.211 203.427V143.406ZM114.236 143.054L113.38 142.183V143.405V203.427C113.38 205.792 115.335 207.701 117.721 207.701C120.107 207.701 122.062 205.792 122.062 203.427V162.051C122.062 154.677 119.077 147.976 114.236 143.054Z" fill="white" stroke="white"/>
<path id="head-3" d="M210.358 134.699C197.891 134.699 187.763 124.736 187.763 112.509C187.763 100.283 197.891 90.3193 210.358 90.3193C222.825 90.3193 232.954 100.283 232.954 112.509C232.954 124.736 222.825 134.699 210.358 134.699ZM210.358 97.4997C201.947 97.4997 195.089 104.224 195.089 112.509C195.089 120.794 201.947 127.518 210.358 127.518C218.769 127.518 225.627 120.794 225.627 112.509C225.627 104.224 218.769 97.4997 210.358 97.4997Z" fill="white" stroke="white"/>
<path id="head-2" d="M152.295 100.141C136.578 100.141 123.805 87.5792 123.805 72.1597C123.805 56.7402 136.578 44.1802 152.295 44.1802C168.012 44.1802 180.785 56.7402 180.785 72.1597C180.785 87.5792 168.012 100.141 152.295 100.141ZM152.295 51.3609C140.634 51.3609 131.132 60.6828 131.132 72.1597C131.132 83.638 140.634 92.9599 152.295 92.9599C163.957 92.9599 173.458 83.638 173.458 72.1597C173.458 60.6828 163.957 51.3609 152.295 51.3609Z" fill="white" stroke="white"/>
<path id="head-1" d="M93.5232 134.699C81.0559 134.699 70.9272 124.736 70.9272 112.509C70.9272 100.283 81.0559 90.3193 93.5232 90.3193C105.991 90.3193 116.119 100.283 116.119 112.509C116.119 124.736 105.991 134.699 93.5232 134.699ZM93.5232 97.4997C85.1122 97.4997 78.2545 104.224 78.2545 112.509C78.2545 120.794 85.1122 127.518 93.5232 127.518C101.935 127.518 108.792 120.794 108.792 112.509C108.792 104.224 101.935 97.4997 93.5232 97.4997Z" fill="white" stroke="white"/>
<path id="circle-1" d="M152.951 0.5C229.089 0.5 290.801 61.2444 290.801 136.159C290.801 211.074 229.089 271.819 152.951 271.819C76.8141 271.819 15.1021 211.074 15.1021 136.159C15.1021 61.2444 76.8141 0.5 152.951 0.5ZM280.108 136.159C280.108 67.0328 223.168 11.0081 152.951 11.0081C82.7351 11.0081 25.7957 67.0328 25.7957 136.159C25.7957 205.286 82.7351 261.311 152.951 261.311C223.168 261.311 280.108 205.286 280.108 136.159Z" fill="white" stroke="white"/>
<path id="Vector" d="M60.6726 361.416C62.1002 360.554 63.4998 359.486 64.8926 358.238C65.2744 357.899 65.6742 357.636 66.0935 357.429C66.485 357.236 66.9093 357.132 67.3723 357.132C68.1436 357.132 68.8062 357.418 69.3834 358.023C69.384 358.023 69.3846 358.024 69.3852 358.025L75.7061 364.789C72.141 369.044 67.7965 372.315 62.6483 374.608C57.3737 376.956 51.0094 378.14 43.5606 378.14C36.9094 378.14 30.9564 377.02 25.6727 374.789C20.3792 372.554 15.8548 369.449 12.1136 365.474C8.37271 361.5 5.51128 356.752 3.5117 351.221C1.51267 345.692 0.5 339.647 0.5 333.082C0.5 326.439 1.61528 320.359 3.83836 314.857C6.06386 309.348 9.19316 304.618 13.2258 300.641L13.2258 300.641C17.2577 296.663 22.0951 293.555 27.7237 291.338C33.3457 289.124 39.5528 288.023 46.3732 288.023C53.0285 288.023 58.8346 289.084 63.7815 291.169C68.6051 293.222 72.7402 295.904 76.2118 299.231L70.8434 306.586L70.8381 306.594L70.833 306.601C70.5332 307.045 70.159 307.433 69.6868 307.768C69.281 308.056 68.6674 308.231 67.8097 308.231C66.9866 308.231 66.1092 307.914 65.1698 307.219C64.1476 306.463 62.8573 305.65 61.3043 304.78C59.724 303.895 57.7526 303.082 55.3768 302.335C52.9571 301.575 49.9023 301.203 46.2482 301.203C41.9407 301.203 37.98 301.932 34.3508 303.418L34.5389 303.877L34.3508 303.418C30.7241 304.903 27.6023 307.04 24.99 309.805C22.3755 312.552 20.3425 315.92 18.8845 319.859C17.4235 323.786 16.6867 328.223 16.6867 333.102C16.6867 338.164 17.423 342.684 18.8841 346.653L18.8841 346.653C20.3411 350.61 22.3102 353.936 24.8186 356.662C27.3242 359.385 30.2784 361.482 33.6779 362.927C37.0773 364.374 40.7277 365.084 44.6232 365.084C46.932 365.084 49.0378 364.96 50.918 364.71C52.8006 364.46 54.5413 364.062 56.1387 363.516C57.7324 362.971 59.2444 362.278 60.6726 361.416ZM60.6726 361.416L60.4184 360.995L60.6727 361.416C60.6726 361.416 60.6726 361.416 60.6726 361.416ZM120.158 354.782C120.08 354.32 120.001 353.864 119.923 353.414C119.835 353.833 119.75 354.258 119.667 354.687L120.158 354.782ZM120.158 354.782L120.651 354.699C120.578 354.268 120.505 353.843 120.432 353.422C120.338 353.87 120.246 354.323 120.158 354.782ZM176.405 354.351L175.913 354.261C175.985 353.866 176.059 353.474 176.133 353.086C176.226 353.503 176.317 353.924 176.405 354.351ZM176.405 354.351L176.895 354.249C176.813 353.854 176.729 353.464 176.643 353.079C176.563 353.498 176.483 353.922 176.405 354.351ZM100.603 289.928L100.603 289.928C101.483 290.537 102.063 291.364 102.366 292.409L117.739 345.734C118.111 347.037 118.462 348.442 118.772 349.97C119.083 351.503 119.373 353.141 119.665 354.865L120.649 354.877C120.98 353.161 121.352 351.527 121.746 349.995C122.139 348.464 122.552 347.06 123.005 345.761L123.007 345.754L140.753 292.436C140.754 292.435 140.754 292.434 140.755 292.433C141.049 291.599 141.647 290.81 142.573 290.072C143.452 289.371 144.526 289.01 145.844 289.01H150.781C152.164 289.01 153.264 289.321 154.117 289.925L154.117 289.925C154.984 290.538 155.587 291.372 155.931 292.425L155.931 292.427L173.556 345.753L173.558 345.761C174.467 348.368 175.253 351.264 175.916 354.452L176.897 354.44C177.188 352.843 177.499 351.307 177.811 349.83C178.122 348.357 178.432 346.991 178.762 345.729C178.763 345.727 178.763 345.725 178.764 345.723L194.135 292.409L194.136 292.407C194.392 291.503 194.963 290.707 195.889 290.022L195.593 289.62L195.889 290.022C196.792 289.354 197.892 289.01 199.217 289.01H211.722L183.976 377.154H169.519L149.883 316.592C149.659 315.895 149.436 315.148 149.196 314.346C149.169 314.256 149.142 314.165 149.115 314.074L149.115 314.074C148.846 313.176 148.577 312.218 148.33 311.202L147.358 311.202C147.109 312.225 146.862 313.182 146.594 314.074C146.337 314.931 146.081 315.733 145.84 316.484L145.806 316.589L145.805 316.592L125.982 377.154H111.525L83.7783 289.01H97.2211C98.6044 289.01 99.7272 289.321 100.603 289.928ZM211.88 288.51H212.404L212.246 289.01L211.88 288.51ZM216.561 289.01H229.378C230.756 289.01 231.829 289.339 232.637 289.956C233.48 290.598 234.113 291.428 234.539 292.457C234.54 292.459 234.54 292.46 234.541 292.461L255.786 346.826L255.788 346.83C256.491 348.585 257.174 350.503 257.816 352.606C258.458 354.712 259.06 356.943 259.642 359.28L260.617 359.258C261.571 354.554 262.751 350.411 264.155 346.827L264.155 346.826L285.341 292.455C285.341 292.454 285.341 292.454 285.341 292.453C285.679 291.603 286.286 290.807 287.192 290.069C288.048 289.371 289.119 289.01 290.438 289.01H303.255L267.166 377.154H252.65L216.561 289.01Z" fill="white" stroke="white"/>
<g id="Vector_2">
<mask id="path-7-inside-1_406_541" fill="white">
<path d="M74.629 400.356C74.629 400.46 74.6638 400.547 74.7297 400.621C74.806 400.684 74.8964 400.718 75.004 400.718H76.5424C78.0529 400.718 79.3447 400.209 80.4072 399.189C81.4732 398.165 82.0046 396.921 82.0046 395.466C82.0046 394.007 81.4732 392.766 80.4072 391.743C79.3447 390.716 78.0529 390.204 76.5424 390.204H75.004C74.8964 390.204 74.806 390.237 74.7297 390.311C74.6638 390.381 74.629 390.472 74.629 390.575V400.356V400.356ZM76.5424 387.812C78.7335 387.812 80.6051 388.558 82.1573 390.057C83.7095 391.552 84.4873 393.355 84.4873 395.466C84.4873 397.577 83.7095 399.38 82.1573 400.875C80.6051 402.37 78.7335 403.119 76.5424 403.119H75.004C74.2193 403.119 73.5456 402.848 72.9794 402.307C72.417 401.765 72.1357 401.112 72.1357 400.356V390.575C72.1357 389.809 72.417 389.157 72.9794 388.615C73.5456 388.08 74.2193 387.812 75.004 387.812H76.5424V387.812ZM87.7549 391.83C88.0988 391.83 88.3869 391.947 88.6196 392.181C88.8628 392.419 88.9844 392.699 88.9844 393.024V401.935C88.9844 402.266 88.8628 402.544 88.6196 402.768C88.3869 403.002 88.0988 403.119 87.7549 403.119H87.734C87.3938 403.119 87.1022 403.002 86.859 402.768C86.616 402.544 86.4911 402.266 86.4911 401.935V393.024C86.4911 392.699 86.616 392.419 86.859 392.181C87.1022 391.947 87.3938 391.83 87.734 391.83H87.7549ZM87.7445 390.555C87.3488 390.555 87.0153 390.421 86.7375 390.154C86.4596 389.886 86.3209 389.562 86.3209 389.184C86.3209 388.812 86.4596 388.491 86.7375 388.224C87.0153 387.956 87.3488 387.822 87.7445 387.822C88.1301 387.822 88.4634 387.956 88.7412 388.224C89.0259 388.485 89.1682 388.806 89.1682 389.184C89.1682 389.568 89.0259 389.893 88.7412 390.154C88.4634 390.421 88.1301 390.555 87.7445 390.555ZM93.9185 403.267C94.5887 404.253 95.6028 404.745 96.9604 404.745C97.8078 404.745 98.5716 404.427 99.2591 403.785C99.971 403.133 100.325 402.37 100.325 401.504C99.5543 402.581 98.4292 403.119 96.9604 403.119C95.3458 403.119 93.9638 402.567 92.8177 401.464C91.6719 400.36 91.0988 399.028 91.0988 397.473C91.0988 395.921 91.6719 394.589 92.8177 393.486C93.9638 392.382 95.3458 391.83 96.9604 391.83C98.5683 391.83 99.9432 392.378 101.089 393.476C102.235 394.566 102.811 395.894 102.819 397.456V401.504C102.819 403.032 102.204 404.364 100.978 405.501C99.7904 406.598 98.4501 407.147 96.9604 407.147C94.6719 407.147 92.9603 406.291 91.8211 404.581C91.6859 404.377 91.6163 404.166 91.6163 403.952C91.6163 403.822 91.6405 403.691 91.6891 403.561C91.8107 403.193 92.0609 402.946 92.4428 402.815L92.4741 402.805C92.6406 402.748 92.8039 402.718 92.9603 402.718C93.342 402.718 93.6582 402.902 93.9185 403.267V403.267ZM100.325 397.416C100.311 396.533 99.9779 395.784 99.3183 395.161C98.6688 394.543 97.8808 394.232 96.9604 394.232C96.0228 394.232 95.2276 394.546 94.568 395.182C93.9185 395.814 93.5921 396.58 93.5921 397.473C93.5921 398.376 93.9185 399.142 94.568 399.778C95.2276 400.403 96.0228 400.718 96.9604 400.718C97.8946 400.718 98.6897 400.403 99.339 399.778C99.9987 399.142 100.325 398.376 100.325 397.473V397.416ZM106.492 391.83C106.836 391.83 107.124 391.947 107.357 392.181C107.6 392.419 107.722 392.699 107.722 393.024V401.935C107.722 402.266 107.6 402.544 107.357 402.768C107.124 403.002 106.836 403.119 106.492 403.119H106.471C106.131 403.119 105.839 403.002 105.596 402.768C105.353 402.544 105.228 402.266 105.228 401.935V393.024C105.228 392.699 105.353 392.419 105.596 392.181C105.839 391.947 106.131 391.83 106.471 391.83H106.492ZM106.482 390.555C106.086 390.555 105.753 390.421 105.475 390.154C105.197 389.886 105.058 389.562 105.058 389.184C105.058 388.812 105.197 388.491 105.475 388.224C105.753 387.956 106.086 387.822 106.482 387.822C106.867 387.822 107.201 387.956 107.479 388.224C107.763 388.485 107.905 388.806 107.905 389.184C107.905 389.568 107.763 389.893 107.479 390.154C107.201 390.421 106.867 390.555 106.482 390.555ZM111.402 387.812C111.736 387.812 112.024 387.926 112.267 388.153C112.513 388.391 112.635 388.672 112.635 388.996V391.83H114.159C114.493 391.83 114.781 391.947 115.024 392.181C115.271 392.419 115.392 392.699 115.392 393.024V393.044C115.392 393.378 115.271 393.656 115.024 393.877C114.781 394.114 114.493 394.232 114.159 394.232H112.635V400.042C112.635 400.233 112.701 400.393 112.836 400.524C112.972 400.654 113.142 400.718 113.347 400.718H114.159C114.493 400.718 114.781 400.835 115.024 401.072C115.271 401.306 115.392 401.587 115.392 401.915V401.935C115.392 402.266 115.271 402.544 115.024 402.768C114.781 403.002 114.493 403.119 114.159 403.119H113.347C112.465 403.119 111.708 402.818 111.079 402.216C110.454 401.611 110.142 400.885 110.142 400.042V388.996C110.142 388.672 110.263 388.391 110.506 388.153C110.753 387.926 111.041 387.812 111.371 387.812H111.402V387.812ZM122.674 391.83C124.289 391.83 125.67 392.382 126.816 393.486C127.962 394.589 128.535 395.921 128.535 397.473V401.935C128.535 402.266 128.414 402.544 128.171 402.768C127.924 403.002 127.636 403.119 127.306 403.119H127.275C126.941 403.119 126.653 403.002 126.41 402.768C126.164 402.544 126.042 402.266 126.042 401.935C125.271 402.725 124.146 403.119 122.674 403.119C121.062 403.119 119.68 402.567 118.535 401.464C117.389 400.36 116.816 399.028 116.816 397.473C116.816 395.921 117.389 394.589 118.535 393.486C119.68 392.382 121.062 391.83 122.674 391.83ZM122.674 394.232C121.74 394.232 120.941 394.546 120.285 395.182C119.632 395.814 119.309 396.58 119.309 397.473C119.309 398.376 119.632 399.142 120.285 399.778C120.941 400.403 121.74 400.718 122.674 400.718C123.611 400.718 124.407 400.403 125.056 399.778C125.716 399.142 126.042 398.376 126.042 397.473C126.042 396.58 125.716 395.814 125.056 395.182C124.4 394.546 123.604 394.232 122.674 394.232ZM132.237 387.812C132.57 387.812 132.858 387.926 133.102 388.153C133.348 388.391 133.47 388.672 133.47 388.996V401.935C133.47 402.266 133.348 402.544 133.102 402.768C132.858 403.002 132.57 403.119 132.237 403.119H132.209C131.876 403.119 131.588 403.002 131.345 402.768C131.098 402.544 130.976 402.266 130.976 401.935V388.996C130.976 388.672 131.098 388.391 131.345 388.153C131.588 387.926 131.876 387.812 132.209 387.812H132.237ZM146.502 390.184C145.918 390.184 145.422 390.378 145.015 390.773C144.609 391.164 144.404 391.639 144.404 392.201C144.404 392.87 144.72 393.375 145.352 393.72C145.63 393.87 146.446 394.135 147.804 394.516C148.964 394.847 149.811 395.248 150.345 395.72C151.148 396.419 151.547 397.403 151.547 398.67C151.547 399.898 151.092 400.949 150.182 401.815C149.283 402.685 148.196 403.119 146.929 403.119H143.054C142.72 403.119 142.432 403.002 142.189 402.768C141.942 402.531 141.821 402.253 141.821 401.935V401.875C141.821 401.554 141.942 401.276 142.189 401.042C142.432 400.808 142.72 400.688 143.054 400.688H147.029C147.606 400.688 148.102 400.494 148.516 400.102C148.922 399.708 149.127 399.232 149.127 398.67C149.127 398.018 148.811 397.506 148.179 397.142C147.88 396.971 147.061 396.684 145.717 396.279C144.557 395.914 143.713 395.499 143.186 395.034C142.383 394.342 141.984 393.399 141.984 392.201C141.984 390.973 142.435 389.926 143.338 389.057C144.238 388.187 145.328 387.752 146.602 387.752H149.338C149.679 387.752 149.971 387.869 150.214 388.107C150.45 388.334 150.571 388.612 150.571 388.94V388.996C150.571 389.318 150.45 389.595 150.214 389.829C149.971 390.067 149.679 390.184 149.338 390.184H146.502V390.184ZM158.832 394.252C157.895 394.252 157.1 394.566 156.44 395.202C155.79 395.834 155.464 396.603 155.464 397.503C155.464 398.4 155.79 399.162 156.44 399.798C157.1 400.43 157.895 400.748 158.832 400.748C159.759 400.748 160.555 400.43 161.211 399.798C161.871 399.162 162.197 398.4 162.197 397.503C162.197 396.603 161.871 395.834 161.211 395.202C160.555 394.566 159.759 394.252 158.832 394.252ZM158.832 391.83C160.443 391.83 161.826 392.382 162.972 393.486C164.117 394.589 164.69 395.921 164.69 397.473C164.69 399.028 164.117 400.36 162.972 401.464C161.826 402.567 160.443 403.119 158.832 403.119C157.218 403.119 155.836 402.567 154.69 401.464C153.544 400.36 152.971 399.028 152.971 397.473C152.971 395.921 153.544 394.589 154.69 393.486C155.836 392.382 157.218 391.83 158.832 391.83ZM168.086 387.812C168.42 387.812 168.708 387.926 168.951 388.153C169.198 388.391 169.319 388.672 169.319 388.996V401.935C169.319 402.266 169.198 402.544 168.951 402.768C168.708 403.002 168.42 403.119 168.086 403.119H168.059C167.725 403.119 167.437 403.002 167.194 402.768C166.947 402.544 166.826 402.266 166.826 401.935V388.996C166.826 388.672 166.947 388.391 167.194 388.153C167.437 387.926 167.725 387.812 168.059 387.812H168.086V387.812ZM174.254 398.386C174.254 399.032 174.486 399.584 174.955 400.042C175.431 400.494 176.007 400.718 176.684 400.718C177.355 400.718 177.928 400.494 178.403 400.042C178.872 399.584 179.105 399.032 179.105 398.386V393.024C179.105 392.699 179.226 392.419 179.473 392.181C179.716 391.947 180.007 391.83 180.348 391.83H180.368C180.712 391.83 181.001 391.947 181.233 392.181C181.476 392.419 181.598 392.699 181.598 393.024V398.386C181.598 399.687 181.115 400.801 180.153 401.728C179.191 402.655 178.035 403.119 176.684 403.119C175.327 403.119 174.167 402.655 173.205 401.728C172.243 400.801 171.76 399.687 171.76 398.386V393.024C171.76 392.699 171.882 392.419 172.125 392.181C172.371 391.947 172.66 391.83 172.989 391.83H173.021C173.354 391.83 173.642 391.947 173.885 392.181C174.132 392.419 174.254 392.699 174.254 393.024V398.386V398.386ZM189.189 391.83C189.796 391.83 190.386 391.917 190.956 392.094C191.533 392.271 191.821 392.649 191.821 393.231V393.281C191.821 393.68 191.658 393.994 191.324 394.232C191.091 394.389 190.855 394.466 190.612 394.466C190.484 394.466 190.352 394.446 190.216 394.409C189.883 394.302 189.539 394.252 189.189 394.252C188.251 394.252 187.456 394.566 186.796 395.202C186.147 395.834 185.82 396.603 185.82 397.503C185.82 398.4 186.147 399.162 186.796 399.798C187.456 400.43 188.251 400.748 189.189 400.748C189.539 400.748 189.883 400.694 190.216 400.59C190.345 400.55 190.473 400.534 190.602 400.534C190.852 400.534 191.091 400.611 191.324 400.768C191.658 401.002 191.821 401.323 191.821 401.728C191.821 402.303 191.533 402.681 190.956 402.865C190.386 403.036 189.796 403.119 189.189 403.119C187.574 403.119 186.192 402.567 185.046 401.464C183.9 400.36 183.327 399.028 183.327 397.473C183.327 395.921 183.9 394.589 185.046 393.486C186.192 392.382 187.574 391.83 189.189 391.83V391.83ZM188.324 402.932H190.418L190.196 404.049C190.651 404.096 191.06 404.294 191.425 404.638C191.786 404.973 191.963 405.354 191.963 405.786C191.963 406.391 191.671 406.92 191.091 407.364C190.526 407.789 189.699 408 188.609 408H187.64C187.369 408 187.143 407.903 186.959 407.706C186.796 407.542 186.716 407.344 186.716 407.107V407.03L186.727 406.953C186.744 406.722 186.848 406.531 187.032 406.374C187.199 406.217 187.411 406.137 187.661 406.137C187.873 406.143 188.046 406.147 188.188 406.147C188.793 406.147 189.206 406.077 189.421 405.933C189.536 405.852 189.595 405.772 189.595 405.689C189.595 405.635 189.578 405.588 189.543 405.551C189.498 405.498 189.397 405.448 189.248 405.404C189.161 405.377 189.043 405.357 188.893 405.344C188.616 405.311 188.4 405.193 188.251 404.993C188.123 404.829 188.057 404.648 188.057 404.451C188.057 404.407 188.06 404.357 188.067 404.304L188.324 402.932ZM199.106 394.252C198.168 394.252 197.373 394.566 196.714 395.202C196.064 395.834 195.738 396.603 195.738 397.503C195.738 398.4 196.064 399.162 196.714 399.798C197.373 400.43 198.168 400.748 199.106 400.748C200.033 400.748 200.828 400.43 201.485 399.798C202.144 399.162 202.471 398.4 202.471 397.503C202.471 396.603 202.144 395.834 201.485 395.202C200.828 394.566 200.033 394.252 199.106 394.252ZM199.106 391.83C200.717 391.83 202.099 392.382 203.245 393.486C204.391 394.589 204.964 395.921 204.964 397.473C204.964 399.028 204.391 400.36 203.245 401.464C202.099 402.567 200.717 403.119 199.106 403.119C197.491 403.119 196.109 402.567 194.963 401.464C193.817 400.36 193.244 399.028 193.244 397.473C193.244 395.921 193.817 394.589 194.963 393.486C196.109 392.382 197.491 391.83 199.106 391.83ZM195.227 390.331C195.331 389.742 195.599 389.274 196.033 388.929C196.481 388.562 197.04 388.381 197.71 388.381C198.259 388.381 198.908 388.552 199.655 388.889C199.898 389 200.151 389.057 200.419 389.057H200.498C200.769 389.05 200.96 388.97 201.068 388.822C201.311 388.468 201.561 388.291 201.811 388.291H202.228C202.464 388.291 202.655 388.374 202.797 388.538C202.919 388.675 202.981 388.826 202.981 388.986C202.981 389.027 202.978 389.07 202.971 389.113C202.745 390.435 201.957 391.094 200.599 391.094C200.044 391.094 199.404 390.913 198.679 390.545C198.38 390.395 198.078 390.321 197.773 390.321C197.501 390.328 197.332 390.421 197.262 390.606C197.089 390.936 196.807 391.121 196.429 391.154H195.981C195.758 391.154 195.567 391.07 195.411 390.91C195.283 390.773 195.22 390.619 195.22 390.448C195.22 390.408 195.224 390.368 195.227 390.331V390.331ZM212.249 394.252C211.312 394.252 210.517 394.566 209.857 395.202C209.207 395.834 208.881 396.603 208.881 397.503V397.573L214.569 395.111C214.065 394.539 213.291 394.252 212.249 394.252ZM217.569 395.121C217.649 395.285 217.691 395.453 217.691 395.623C217.691 395.76 217.663 395.897 217.611 396.035C217.493 396.342 217.277 396.563 216.958 396.7C216.01 397.112 214.76 397.654 213.215 398.326C211.294 399.162 210.169 399.657 209.836 399.808C210.353 400.433 211.155 400.748 212.249 400.748C212.975 400.748 213.631 400.54 214.222 400.129C214.798 399.724 215.201 399.202 215.433 398.563C215.628 398.028 216.024 397.757 216.611 397.757C217.034 397.757 217.367 397.928 217.621 398.269C217.774 398.477 217.854 398.697 217.854 398.925C217.854 399.062 217.826 399.202 217.77 399.346C217.371 400.463 216.67 401.367 215.666 402.052C214.649 402.765 213.51 403.119 212.249 403.119C210.635 403.119 209.253 402.567 208.107 401.464C206.961 400.36 206.388 399.028 206.388 397.473C206.388 395.921 206.961 394.589 208.107 393.486C209.253 392.382 210.635 391.83 212.249 391.83C213.416 391.83 214.478 392.137 215.444 392.75C216.399 393.352 217.107 394.141 217.569 395.121V395.121ZM222.837 394.232C222.538 394.232 222.288 394.329 222.083 394.526C221.882 394.727 221.781 394.967 221.781 395.248C221.781 395.643 221.976 395.937 222.368 396.132C222.503 396.205 223.073 396.366 224.069 396.623C224.875 396.844 225.476 397.135 225.868 397.493C226.431 398.011 226.712 398.744 226.712 399.701C226.712 400.641 226.368 401.447 225.677 402.119C224.976 402.785 224.139 403.119 223.163 403.119H220.507C220.177 403.119 219.889 403.002 219.642 402.768C219.399 402.544 219.278 402.266 219.278 401.935V401.915C219.278 401.587 219.399 401.306 219.642 401.072C219.889 400.835 220.177 400.718 220.507 400.718H223.264C223.563 400.718 223.813 400.621 224.017 400.423C224.222 400.229 224.323 399.985 224.323 399.701C224.323 399.34 224.128 399.069 223.743 398.885C223.642 398.841 223.073 398.677 222.035 398.396C221.226 398.169 220.625 397.868 220.232 397.493C219.67 396.964 219.389 396.215 219.389 395.248C219.389 394.308 219.736 393.506 220.427 392.84C221.125 392.168 221.962 391.83 222.937 391.83H224.813C225.149 391.83 225.441 391.947 225.688 392.181C225.931 392.419 226.052 392.699 226.052 393.024V393.044C226.052 393.378 225.931 393.656 225.688 393.877C225.441 394.114 225.149 394.232 224.813 394.232H222.837V394.232Z"/>
</mask>
<path d="M74.629 400.356C74.629 400.46 74.6638 400.547 74.7297 400.621C74.806 400.684 74.8964 400.718 75.004 400.718H76.5424C78.0529 400.718 79.3447 400.209 80.4072 399.189C81.4732 398.165 82.0046 396.921 82.0046 395.466C82.0046 394.007 81.4732 392.766 80.4072 391.743C79.3447 390.716 78.0529 390.204 76.5424 390.204H75.004C74.8964 390.204 74.806 390.237 74.7297 390.311C74.6638 390.381 74.629 390.472 74.629 390.575V400.356V400.356ZM76.5424 387.812C78.7335 387.812 80.6051 388.558 82.1573 390.057C83.7095 391.552 84.4873 393.355 84.4873 395.466C84.4873 397.577 83.7095 399.38 82.1573 400.875C80.6051 402.37 78.7335 403.119 76.5424 403.119H75.004C74.2193 403.119 73.5456 402.848 72.9794 402.307C72.417 401.765 72.1357 401.112 72.1357 400.356V390.575C72.1357 389.809 72.417 389.157 72.9794 388.615C73.5456 388.08 74.2193 387.812 75.004 387.812H76.5424V387.812ZM87.7549 391.83C88.0988 391.83 88.3869 391.947 88.6196 392.181C88.8628 392.419 88.9844 392.699 88.9844 393.024V401.935C88.9844 402.266 88.8628 402.544 88.6196 402.768C88.3869 403.002 88.0988 403.119 87.7549 403.119H87.734C87.3938 403.119 87.1022 403.002 86.859 402.768C86.616 402.544 86.4911 402.266 86.4911 401.935V393.024C86.4911 392.699 86.616 392.419 86.859 392.181C87.1022 391.947 87.3938 391.83 87.734 391.83H87.7549ZM87.7445 390.555C87.3488 390.555 87.0153 390.421 86.7375 390.154C86.4596 389.886 86.3209 389.562 86.3209 389.184C86.3209 388.812 86.4596 388.491 86.7375 388.224C87.0153 387.956 87.3488 387.822 87.7445 387.822C88.1301 387.822 88.4634 387.956 88.7412 388.224C89.0259 388.485 89.1682 388.806 89.1682 389.184C89.1682 389.568 89.0259 389.893 88.7412 390.154C88.4634 390.421 88.1301 390.555 87.7445 390.555ZM93.9185 403.267C94.5887 404.253 95.6028 404.745 96.9604 404.745C97.8078 404.745 98.5716 404.427 99.2591 403.785C99.971 403.133 100.325 402.37 100.325 401.504C99.5543 402.581 98.4292 403.119 96.9604 403.119C95.3458 403.119 93.9638 402.567 92.8177 401.464C91.6719 400.36 91.0988 399.028 91.0988 397.473C91.0988 395.921 91.6719 394.589 92.8177 393.486C93.9638 392.382 95.3458 391.83 96.9604 391.83C98.5683 391.83 99.9432 392.378 101.089 393.476C102.235 394.566 102.811 395.894 102.819 397.456V401.504C102.819 403.032 102.204 404.364 100.978 405.501C99.7904 406.598 98.4501 407.147 96.9604 407.147C94.6719 407.147 92.9603 406.291 91.8211 404.581C91.6859 404.377 91.6163 404.166 91.6163 403.952C91.6163 403.822 91.6405 403.691 91.6891 403.561C91.8107 403.193 92.0609 402.946 92.4428 402.815L92.4741 402.805C92.6406 402.748 92.8039 402.718 92.9603 402.718C93.342 402.718 93.6582 402.902 93.9185 403.267V403.267ZM100.325 397.416C100.311 396.533 99.9779 395.784 99.3183 395.161C98.6688 394.543 97.8808 394.232 96.9604 394.232C96.0228 394.232 95.2276 394.546 94.568 395.182C93.9185 395.814 93.5921 396.58 93.5921 397.473C93.5921 398.376 93.9185 399.142 94.568 399.778C95.2276 400.403 96.0228 400.718 96.9604 400.718C97.8946 400.718 98.6897 400.403 99.339 399.778C99.9987 399.142 100.325 398.376 100.325 397.473V397.416ZM106.492 391.83C106.836 391.83 107.124 391.947 107.357 392.181C107.6 392.419 107.722 392.699 107.722 393.024V401.935C107.722 402.266 107.6 402.544 107.357 402.768C107.124 403.002 106.836 403.119 106.492 403.119H106.471C106.131 403.119 105.839 403.002 105.596 402.768C105.353 402.544 105.228 402.266 105.228 401.935V393.024C105.228 392.699 105.353 392.419 105.596 392.181C105.839 391.947 106.131 391.83 106.471 391.83H106.492ZM106.482 390.555C106.086 390.555 105.753 390.421 105.475 390.154C105.197 389.886 105.058 389.562 105.058 389.184C105.058 388.812 105.197 388.491 105.475 388.224C105.753 387.956 106.086 387.822 106.482 387.822C106.867 387.822 107.201 387.956 107.479 388.224C107.763 388.485 107.905 388.806 107.905 389.184C107.905 389.568 107.763 389.893 107.479 390.154C107.201 390.421 106.867 390.555 106.482 390.555ZM111.402 387.812C111.736 387.812 112.024 387.926 112.267 388.153C112.513 388.391 112.635 388.672 112.635 388.996V391.83H114.159C114.493 391.83 114.781 391.947 115.024 392.181C115.271 392.419 115.392 392.699 115.392 393.024V393.044C115.392 393.378 115.271 393.656 115.024 393.877C114.781 394.114 114.493 394.232 114.159 394.232H112.635V400.042C112.635 400.233 112.701 400.393 112.836 400.524C112.972 400.654 113.142 400.718 113.347 400.718H114.159C114.493 400.718 114.781 400.835 115.024 401.072C115.271 401.306 115.392 401.587 115.392 401.915V401.935C115.392 402.266 115.271 402.544 115.024 402.768C114.781 403.002 114.493 403.119 114.159 403.119H113.347C112.465 403.119 111.708 402.818 111.079 402.216C110.454 401.611 110.142 400.885 110.142 400.042V388.996C110.142 388.672 110.263 388.391 110.506 388.153C110.753 387.926 111.041 387.812 111.371 387.812H111.402V387.812ZM122.674 391.83C124.289 391.83 125.67 392.382 126.816 393.486C127.962 394.589 128.535 395.921 128.535 397.473V401.935C128.535 402.266 128.414 402.544 128.171 402.768C127.924 403.002 127.636 403.119 127.306 403.119H127.275C126.941 403.119 126.653 403.002 126.41 402.768C126.164 402.544 126.042 402.266 126.042 401.935C125.271 402.725 124.146 403.119 122.674 403.119C121.062 403.119 119.68 402.567 118.535 401.464C117.389 400.36 116.816 399.028 116.816 397.473C116.816 395.921 117.389 394.589 118.535 393.486C119.68 392.382 121.062 391.83 122.674 391.83ZM122.674 394.232C121.74 394.232 120.941 394.546 120.285 395.182C119.632 395.814 119.309 396.58 119.309 397.473C119.309 398.376 119.632 399.142 120.285 399.778C120.941 400.403 121.74 400.718 122.674 400.718C123.611 400.718 124.407 400.403 125.056 399.778C125.716 399.142 126.042 398.376 126.042 397.473C126.042 396.58 125.716 395.814 125.056 395.182C124.4 394.546 123.604 394.232 122.674 394.232ZM132.237 387.812C132.57 387.812 132.858 387.926 133.102 388.153C133.348 388.391 133.47 388.672 133.47 388.996V401.935C133.47 402.266 133.348 402.544 133.102 402.768C132.858 403.002 132.57 403.119 132.237 403.119H132.209C131.876 403.119 131.588 403.002 131.345 402.768C131.098 402.544 130.976 402.266 130.976 401.935V388.996C130.976 388.672 131.098 388.391 131.345 388.153C131.588 387.926 131.876 387.812 132.209 387.812H132.237ZM146.502 390.184C145.918 390.184 145.422 390.378 145.015 390.773C144.609 391.164 144.404 391.639 144.404 392.201C144.404 392.87 144.72 393.375 145.352 393.72C145.63 393.87 146.446 394.135 147.804 394.516C148.964 394.847 149.811 395.248 150.345 395.72C151.148 396.419 151.547 397.403 151.547 398.67C151.547 399.898 151.092 400.949 150.182 401.815C149.283 402.685 148.196 403.119 146.929 403.119H143.054C142.72 403.119 142.432 403.002 142.189 402.768C141.942 402.531 141.821 402.253 141.821 401.935V401.875C141.821 401.554 141.942 401.276 142.189 401.042C142.432 400.808 142.72 400.688 143.054 400.688H147.029C147.606 400.688 148.102 400.494 148.516 400.102C148.922 399.708 149.127 399.232 149.127 398.67C149.127 398.018 148.811 397.506 148.179 397.142C147.88 396.971 147.061 396.684 145.717 396.279C144.557 395.914 143.713 395.499 143.186 395.034C142.383 394.342 141.984 393.399 141.984 392.201C141.984 390.973 142.435 389.926 143.338 389.057C144.238 388.187 145.328 387.752 146.602 387.752H149.338C149.679 387.752 149.971 387.869 150.214 388.107C150.45 388.334 150.571 388.612 150.571 388.94V388.996C150.571 389.318 150.45 389.595 150.214 389.829C149.971 390.067 149.679 390.184 149.338 390.184H146.502V390.184ZM158.832 394.252C157.895 394.252 157.1 394.566 156.44 395.202C155.79 395.834 155.464 396.603 155.464 397.503C155.464 398.4 155.79 399.162 156.44 399.798C157.1 400.43 157.895 400.748 158.832 400.748C159.759 400.748 160.555 400.43 161.211 399.798C161.871 399.162 162.197 398.4 162.197 397.503C162.197 396.603 161.871 395.834 161.211 395.202C160.555 394.566 159.759 394.252 158.832 394.252ZM158.832 391.83C160.443 391.83 161.826 392.382 162.972 393.486C164.117 394.589 164.69 395.921 164.69 397.473C164.69 399.028 164.117 400.36 162.972 401.464C161.826 402.567 160.443 403.119 158.832 403.119C157.218 403.119 155.836 402.567 154.69 401.464C153.544 400.36 152.971 399.028 152.971 397.473C152.971 395.921 153.544 394.589 154.69 393.486C155.836 392.382 157.218 391.83 158.832 391.83ZM168.086 387.812C168.42 387.812 168.708 387.926 168.951 388.153C169.198 388.391 169.319 388.672 169.319 388.996V401.935C169.319 402.266 169.198 402.544 168.951 402.768C168.708 403.002 168.42 403.119 168.086 403.119H168.059C167.725 403.119 167.437 403.002 167.194 402.768C166.947 402.544 166.826 402.266 166.826 401.935V388.996C166.826 388.672 166.947 388.391 167.194 388.153C167.437 387.926 167.725 387.812 168.059 387.812H168.086V387.812ZM174.254 398.386C174.254 399.032 174.486 399.584 174.955 400.042C175.431 400.494 176.007 400.718 176.684 400.718C177.355 400.718 177.928 400.494 178.403 400.042C178.872 399.584 179.105 399.032 179.105 398.386V393.024C179.105 392.699 179.226 392.419 179.473 392.181C179.716 391.947 180.007 391.83 180.348 391.83H180.368C180.712 391.83 181.001 391.947 181.233 392.181C181.476 392.419 181.598 392.699 181.598 393.024V398.386C181.598 399.687 181.115 400.801 180.153 401.728C179.191 402.655 178.035 403.119 176.684 403.119C175.327 403.119 174.167 402.655 173.205 401.728C172.243 400.801 171.76 399.687 171.76 398.386V393.024C171.76 392.699 171.882 392.419 172.125 392.181C172.371 391.947 172.66 391.83 172.989 391.83H173.021C173.354 391.83 173.642 391.947 173.885 392.181C174.132 392.419 174.254 392.699 174.254 393.024V398.386V398.386ZM189.189 391.83C189.796 391.83 190.386 391.917 190.956 392.094C191.533 392.271 191.821 392.649 191.821 393.231V393.281C191.821 393.68 191.658 393.994 191.324 394.232C191.091 394.389 190.855 394.466 190.612 394.466C190.484 394.466 190.352 394.446 190.216 394.409C189.883 394.302 189.539 394.252 189.189 394.252C188.251 394.252 187.456 394.566 186.796 395.202C186.147 395.834 185.82 396.603 185.82 397.503C185.82 398.4 186.147 399.162 186.796 399.798C187.456 400.43 188.251 400.748 189.189 400.748C189.539 400.748 189.883 400.694 190.216 400.59C190.345 400.55 190.473 400.534 190.602 400.534C190.852 400.534 191.091 400.611 191.324 400.768C191.658 401.002 191.821 401.323 191.821 401.728C191.821 402.303 191.533 402.681 190.956 402.865C190.386 403.036 189.796 403.119 189.189 403.119C187.574 403.119 186.192 402.567 185.046 401.464C183.9 400.36 183.327 399.028 183.327 397.473C183.327 395.921 183.9 394.589 185.046 393.486C186.192 392.382 187.574 391.83 189.189 391.83V391.83ZM188.324 402.932H190.418L190.196 404.049C190.651 404.096 191.06 404.294 191.425 404.638C191.786 404.973 191.963 405.354 191.963 405.786C191.963 406.391 191.671 406.92 191.091 407.364C190.526 407.789 189.699 408 188.609 408H187.64C187.369 408 187.143 407.903 186.959 407.706C186.796 407.542 186.716 407.344 186.716 407.107V407.03L186.727 406.953C186.744 406.722 186.848 406.531 187.032 406.374C187.199 406.217 187.411 406.137 187.661 406.137C187.873 406.143 188.046 406.147 188.188 406.147C188.793 406.147 189.206 406.077 189.421 405.933C189.536 405.852 189.595 405.772 189.595 405.689C189.595 405.635 189.578 405.588 189.543 405.551C189.498 405.498 189.397 405.448 189.248 405.404C189.161 405.377 189.043 405.357 188.893 405.344C188.616 405.311 188.4 405.193 188.251 404.993C188.123 404.829 188.057 404.648 188.057 404.451C188.057 404.407 188.06 404.357 188.067 404.304L188.324 402.932ZM199.106 394.252C198.168 394.252 197.373 394.566 196.714 395.202C196.064 395.834 195.738 396.603 195.738 397.503C195.738 398.4 196.064 399.162 196.714 399.798C197.373 400.43 198.168 400.748 199.106 400.748C200.033 400.748 200.828 400.43 201.485 399.798C202.144 399.162 202.471 398.4 202.471 397.503C202.471 396.603 202.144 395.834 201.485 395.202C200.828 394.566 200.033 394.252 199.106 394.252ZM199.106 391.83C200.717 391.83 202.099 392.382 203.245 393.486C204.391 394.589 204.964 395.921 204.964 397.473C204.964 399.028 204.391 400.36 203.245 401.464C202.099 402.567 200.717 403.119 199.106 403.119C197.491 403.119 196.109 402.567 194.963 401.464C193.817 400.36 193.244 399.028 193.244 397.473C193.244 395.921 193.817 394.589 194.963 393.486C196.109 392.382 197.491 391.83 199.106 391.83ZM195.227 390.331C195.331 389.742 195.599 389.274 196.033 388.929C196.481 388.562 197.04 388.381 197.71 388.381C198.259 388.381 198.908 388.552 199.655 388.889C199.898 389 200.151 389.057 200.419 389.057H200.498C200.769 389.05 200.96 388.97 201.068 388.822C201.311 388.468 201.561 388.291 201.811 388.291H202.228C202.464 388.291 202.655 388.374 202.797 388.538C202.919 388.675 202.981 388.826 202.981 388.986C202.981 389.027 202.978 389.07 202.971 389.113C202.745 390.435 201.957 391.094 200.599 391.094C200.044 391.094 199.404 390.913 198.679 390.545C198.38 390.395 198.078 390.321 197.773 390.321C197.501 390.328 197.332 390.421 197.262 390.606C197.089 390.936 196.807 391.121 196.429 391.154H195.981C195.758 391.154 195.567 391.07 195.411 390.91C195.283 390.773 195.22 390.619 195.22 390.448C195.22 390.408 195.224 390.368 195.227 390.331V390.331ZM212.249 394.252C211.312 394.252 210.517 394.566 209.857 395.202C209.207 395.834 208.881 396.603 208.881 397.503V397.573L214.569 395.111C214.065 394.539 213.291 394.252 212.249 394.252ZM217.569 395.121C217.649 395.285 217.691 395.453 217.691 395.623C217.691 395.76 217.663 395.897 217.611 396.035C217.493 396.342 217.277 396.563 216.958 396.7C216.01 397.112 214.76 397.654 213.215 398.326C211.294 399.162 210.169 399.657 209.836 399.808C210.353 400.433 211.155 400.748 212.249 400.748C212.975 400.748 213.631 400.54 214.222 400.129C214.798 399.724 215.201 399.202 215.433 398.563C215.628 398.028 216.024 397.757 216.611 397.757C217.034 397.757 217.367 397.928 217.621 398.269C217.774 398.477 217.854 398.697 217.854 398.925C217.854 399.062 217.826 399.202 217.77 399.346C217.371 400.463 216.67 401.367 215.666 402.052C214.649 402.765 213.51 403.119 212.249 403.119C210.635 403.119 209.253 402.567 208.107 401.464C206.961 400.36 206.388 399.028 206.388 397.473C206.388 395.921 206.961 394.589 208.107 393.486C209.253 392.382 210.635 391.83 212.249 391.83C213.416 391.83 214.478 392.137 215.444 392.75C216.399 393.352 217.107 394.141 217.569 395.121V395.121ZM222.837 394.232C222.538 394.232 222.288 394.329 222.083 394.526C221.882 394.727 221.781 394.967 221.781 395.248C221.781 395.643 221.976 395.937 222.368 396.132C222.503 396.205 223.073 396.366 224.069 396.623C224.875 396.844 225.476 397.135 225.868 397.493C226.431 398.011 226.712 398.744 226.712 399.701C226.712 400.641 226.368 401.447 225.677 402.119C224.976 402.785 224.139 403.119 223.163 403.119H220.507C220.177 403.119 219.889 403.002 219.642 402.768C219.399 402.544 219.278 402.266 219.278 401.935V401.915C219.278 401.587 219.399 401.306 219.642 401.072C219.889 400.835 220.177 400.718 220.507 400.718H223.264C223.563 400.718 223.813 400.621 224.017 400.423C224.222 400.229 224.323 399.985 224.323 399.701C224.323 399.34 224.128 399.069 223.743 398.885C223.642 398.841 223.073 398.677 222.035 398.396C221.226 398.169 220.625 397.868 220.232 397.493C219.67 396.964 219.389 396.215 219.389 395.248C219.389 394.308 219.736 393.506 220.427 392.84C221.125 392.168 221.962 391.83 222.937 391.83H224.813C225.149 391.83 225.441 391.947 225.688 392.181C225.931 392.419 226.052 392.699 226.052 393.024V393.044C226.052 393.378 225.931 393.656 225.688 393.877C225.441 394.114 225.149 394.232 224.813 394.232H222.837V394.232Z" fill="white" stroke="white" stroke-width="2" mask="url(#path-7-inside-1_406_541)"/>
</g>
</g>
</svg>
