<svg width="159" height="149" viewBox="0 0 159 149" fill="none" xmlns="http://www.w3.org/2000/svg">
<g id="CWV LOGO">
<path id="Vector" d="M88.3787 62.8989C86.4576 62.8989 84.8946 61.3359 84.8946 59.4146V47.3554C84.8946 43.8617 86.6578 40.7726 89.3417 38.9311C88.5075 33.6871 83.9539 29.6666 78.4787 29.6666C73.0039 29.6666 68.4505 33.6875 67.6158 38.9307C70.2996 40.7726 72.063 43.8617 72.063 47.3554V59.4146C72.063 61.3359 70.5 62.8989 68.5789 62.8989C66.6577 62.8989 65.0947 61.3359 65.0947 59.4146V40.6662C65.0947 40.5221 65.097 40.379 65.1015 40.236C64.1115 39.7822 63.0115 39.5295 61.853 39.5295C57.5379 39.5295 54.0273 43.0401 54.0273 47.3554V56.5344C54.0273 57.1926 53.4937 57.7266 52.8351 57.7266C52.1767 57.7266 51.6431 57.1926 51.6431 56.5344V47.3554C51.6431 41.7256 56.2232 37.1452 61.853 37.1452C63.1024 37.1452 64.2999 37.3707 65.4073 37.7831C66.7295 31.7845 72.0883 27.2822 78.4787 27.2822C84.869 27.2822 90.2278 31.7845 91.5501 37.7831C92.6575 37.3707 93.8552 37.1452 95.1046 37.1452C100.734 37.1452 105.314 41.7256 105.314 47.3554V56.5344C105.314 57.1926 104.781 57.7266 104.122 57.7266C103.464 57.7266 102.93 57.1926 102.93 56.5344V47.3554C102.93 43.0401 99.4197 39.5295 95.1046 39.5295C93.9461 39.5295 92.8459 39.7822 91.8559 40.236C91.8604 40.3787 91.8627 40.5224 91.8627 40.6662V59.4146C91.8627 61.3359 90.2999 62.8989 88.3787 62.8989V62.8989ZM89.4784 41.9211C88.1172 43.3299 87.2788 45.2464 87.2788 47.3554V59.4146C87.2788 60.0211 87.7723 60.5146 88.3787 60.5146C88.9851 60.5146 89.4784 60.0211 89.4784 59.4146V41.9211ZM67.479 41.9208V59.4146C67.479 60.0211 67.9724 60.5146 68.5789 60.5146C69.1853 60.5146 69.6788 60.0211 69.6788 59.4146V47.3554C69.6788 45.2464 68.8401 43.3295 67.479 41.9208Z" fill="url(#paint0_linear_406_541)"/>
<path id="Vector_2" d="M95.1047 39.5293C91.4583 39.5293 88.4917 36.5626 88.4917 32.9162C88.4917 29.2699 91.4583 26.3032 95.1047 26.3032C98.7512 26.3032 101.718 29.2699 101.718 32.9162C101.718 36.5626 98.7512 39.5293 95.1047 39.5293ZM95.1047 28.6874C92.773 28.6874 90.8759 30.5845 90.8759 32.9162C90.8759 35.248 92.773 37.145 95.1047 37.145C97.4365 37.145 99.3335 35.248 99.3335 32.9162C99.3335 30.5845 97.4365 28.6874 95.1047 28.6874Z" fill="#07DB91"/>
<path id="Vector_3" d="M78.479 29.4574C73.902 29.4574 70.1782 25.7335 70.1782 21.1565C70.1782 16.5795 73.902 12.856 78.479 12.856C83.056 12.856 86.7798 16.5795 86.7798 21.1565C86.7798 25.7335 83.056 29.4574 78.479 29.4574ZM78.479 15.2403C75.2167 15.2403 72.5626 17.8944 72.5626 21.1565C72.5626 24.419 75.2167 27.0731 78.479 27.0731C81.7415 27.0731 84.3955 24.419 84.3955 21.1565C84.3955 17.8944 81.7415 15.2403 78.479 15.2403Z" fill="url(#paint1_linear_406_541)"/>
<path id="Vector_4" d="M61.6508 39.5293C58.0043 39.5293 55.0376 36.5626 55.0376 32.9162C55.0376 29.2699 58.0043 26.3032 61.6508 26.3032C65.2973 26.3032 68.2639 29.2699 68.2639 32.9162C68.2639 36.5626 65.2973 39.5293 61.6508 39.5293ZM61.6508 28.6874C59.3191 28.6874 57.422 30.5845 57.422 32.9162C57.422 35.248 59.3191 37.145 61.6508 37.145C63.9826 37.145 65.8796 35.248 65.8796 32.9162C65.8796 30.5845 63.9826 28.6874 61.6508 28.6874Z" fill="#00BE7D"/>
<path id="Vector_5" d="M35.9457 120.875C36.4218 120.875 36.833 121.059 37.1791 121.427L40.6199 125.159C38.7156 127.518 36.3785 129.325 33.5978 130.58C30.817 131.835 27.4736 132.463 23.5783 132.463C20.0943 132.463 16.9673 131.868 14.1866 130.678C11.4058 129.487 9.02541 127.832 7.05611 125.711C5.08691 123.591 3.58292 121.059 2.53332 118.116C1.48382 115.173 0.953613 111.959 0.953613 108.475C0.953613 104.948 1.53792 101.712 2.70642 98.7801C3.87502 95.8479 5.51971 93.3268 7.64051 91.206C9.76111 89.0853 12.3038 87.4299 15.2577 86.2504C18.2117 85.0711 21.4684 84.4868 25.0391 84.4868C28.5231 84.4868 31.5744 85.0494 34.182 86.1639C36.7896 87.2892 39.0186 88.7715 40.8797 90.6218L37.9583 94.6793C37.7851 94.939 37.5688 95.1662 37.2982 95.361C37.0277 95.5557 36.649 95.6531 36.1729 95.6531C35.6752 95.6531 35.1666 95.4583 34.6473 95.0688C34.128 94.6793 33.4679 94.2573 32.6672 93.8029C31.8665 93.3484 30.8603 92.9264 29.6376 92.5369C28.4149 92.1474 26.8569 91.9527 24.9742 91.9527C22.7668 91.9527 20.7436 92.3313 18.8933 93.0995C17.043 93.8678 15.4525 94.9715 14.1216 96.3997C12.7907 97.8172 11.7521 99.5591 11.0054 101.604C10.2589 103.638 9.88011 105.943 9.88011 108.486C9.88011 111.126 10.2589 113.474 11.0054 115.53C11.7521 117.585 12.7583 119.306 14.0351 120.712C15.3118 122.119 16.8158 123.201 18.547 123.948C20.2782 124.694 22.1393 125.062 24.1302 125.062C25.3204 125.062 26.4024 124.997 27.3654 124.867C28.3284 124.738 29.2156 124.532 30.0271 124.251C30.8386 123.969 31.6069 123.612 32.3318 123.169C33.0567 122.725 33.7708 122.173 34.485 121.524C34.7014 121.329 34.9286 121.178 35.1666 121.059C35.4047 120.94 35.6643 120.875 35.9457 120.875V120.875ZM44.1127 85.0062H51.4487C52.206 85.0062 52.8445 85.1793 53.353 85.5364C53.8616 85.8934 54.197 86.3803 54.3701 86.9862L62.3553 115.064C62.5501 115.757 62.734 116.503 62.8963 117.315C63.0586 118.126 63.2101 118.992 63.3616 119.901C63.5347 118.992 63.7294 118.126 63.935 117.315C64.1406 116.503 64.357 115.757 64.595 115.064L73.8138 86.9862C73.9868 86.4885 74.3331 86.0341 74.8417 85.6229C75.3502 85.2118 75.967 85.0062 76.7027 85.0062H79.2671C80.0244 85.0062 80.652 85.1793 81.1497 85.5364C81.6475 85.8934 81.9937 86.3803 82.1885 86.9862L91.3423 115.064C91.8183 116.449 92.2295 117.986 92.5758 119.674C92.7272 118.83 92.8896 118.018 93.0518 117.239C93.2141 116.46 93.3764 115.735 93.5495 115.064L101.535 86.9862C101.686 86.4453 102.022 85.98 102.541 85.5905C103.06 85.2009 103.688 85.0062 104.424 85.0062H111.273L96.6982 131.944H88.8103L78.5529 99.8729C78.4231 99.4617 78.2932 99.0182 78.1526 98.542C78.0119 98.066 77.8713 97.5574 77.7414 97.0165C77.6116 97.5574 77.4818 98.066 77.3411 98.542C77.2004 99.0182 77.0598 99.4617 76.9299 99.8729L66.5751 131.944H58.6873L44.1127 85.0062V85.0062ZM113.045 85.0062H120.089C120.846 85.0062 121.463 85.1901 121.939 85.558C122.415 85.9259 122.772 86.402 123.01 86.9862L134.047 115.616C134.415 116.547 134.772 117.564 135.107 118.678C135.443 119.793 135.756 120.972 136.059 122.206C136.557 119.717 137.174 117.52 137.91 115.616L148.914 86.9862C149.108 86.4885 149.455 86.0341 149.952 85.6229C150.45 85.2118 151.067 85.0062 151.803 85.0062H158.846L139.89 131.944H132.002L113.045 85.0062V85.0062Z" fill="url(#paint2_linear_406_541)"/>
<path id="Vector_6" d="M39.5215 144.063C39.5215 144.119 39.5396 144.166 39.5739 144.206C39.6136 144.24 39.6607 144.258 39.7167 144.258H40.5175C41.3038 144.258 41.9763 143.984 42.5294 143.432C43.0843 142.879 43.3609 142.207 43.3609 141.42C43.3609 140.632 43.0843 139.962 42.5294 139.408C41.9763 138.854 41.3038 138.577 40.5175 138.577H39.7167C39.6607 138.577 39.6136 138.595 39.5739 138.635C39.5396 138.673 39.5215 138.722 39.5215 138.778V144.063V144.063ZM40.5175 137.285C41.6581 137.285 42.6324 137.688 43.4404 138.497C44.2484 139.305 44.6533 140.28 44.6533 141.42C44.6533 142.561 44.2484 143.535 43.4404 144.343C42.6324 145.151 41.6581 145.556 40.5175 145.556H39.7167C39.3082 145.556 38.9575 145.41 38.6628 145.117C38.37 144.824 38.2236 144.472 38.2236 144.063V138.778C38.2236 138.364 38.37 138.011 38.6628 137.718C38.9575 137.429 39.3082 137.285 39.7167 137.285H40.5175V137.285ZM46.3543 139.455C46.5333 139.455 46.6833 139.519 46.8044 139.645C46.931 139.774 46.9943 139.925 46.9943 140.101V144.916C46.9943 145.095 46.931 145.245 46.8044 145.366C46.6833 145.493 46.5333 145.556 46.3543 145.556H46.3434C46.1663 145.556 46.0145 145.493 45.8879 145.366C45.7614 145.245 45.6964 145.095 45.6964 144.916V140.101C45.6964 139.925 45.7614 139.774 45.8879 139.645C46.0145 139.519 46.1663 139.455 46.3434 139.455H46.3543ZM46.3489 138.767C46.1429 138.767 45.9693 138.694 45.8247 138.55C45.68 138.405 45.6078 138.23 45.6078 138.026C45.6078 137.825 45.68 137.651 45.8247 137.507C45.9693 137.362 46.1429 137.29 46.3489 137.29C46.5496 137.29 46.7231 137.362 46.8677 137.507C47.0159 137.648 47.09 137.821 47.09 138.026C47.09 138.233 47.0159 138.409 46.8677 138.55C46.7231 138.694 46.5496 138.767 46.3489 138.767ZM49.5628 145.636C49.9117 146.169 50.4396 146.435 51.1463 146.435C51.5874 146.435 51.985 146.263 52.3429 145.916C52.7135 145.563 52.8979 145.151 52.8979 144.683C52.4966 145.265 51.9109 145.556 51.1463 145.556C50.3058 145.556 49.5864 145.258 48.9898 144.661C48.3933 144.065 48.095 143.345 48.095 142.505C48.095 141.666 48.3933 140.947 48.9898 140.35C49.5864 139.754 50.3058 139.455 51.1463 139.455C51.9833 139.455 52.699 139.752 53.2956 140.345C53.8921 140.934 54.1921 141.652 54.1958 142.496V144.683C54.1958 145.509 53.8758 146.229 53.2377 146.843C52.6195 147.436 51.9218 147.733 51.1463 147.733C49.955 147.733 49.064 147.27 48.471 146.346C48.4006 146.236 48.3644 146.122 48.3644 146.006C48.3644 145.936 48.377 145.865 48.4023 145.795C48.4656 145.596 48.5958 145.462 48.7946 145.392L48.8109 145.386C48.8976 145.356 48.9826 145.339 49.064 145.339C49.2627 145.339 49.4273 145.439 49.5628 145.636V145.636ZM52.8979 142.474C52.8907 141.997 52.7171 141.592 52.3737 141.256C52.0356 140.921 51.6254 140.753 51.1463 140.753C50.6582 140.753 50.2443 140.923 49.9009 141.267C49.5628 141.608 49.3929 142.022 49.3929 142.505C49.3929 142.993 49.5628 143.407 49.9009 143.75C50.2443 144.088 50.6582 144.258 51.1463 144.258C51.6326 144.258 52.0465 144.088 52.3845 143.75C52.7279 143.407 52.8979 142.993 52.8979 142.505V142.474ZM56.1082 139.455C56.2872 139.455 56.4372 139.519 56.5582 139.645C56.6849 139.774 56.7481 139.925 56.7481 140.101V144.916C56.7481 145.095 56.6849 145.245 56.5582 145.366C56.4372 145.493 56.2872 145.556 56.1082 145.556H56.0973C55.9202 145.556 55.7683 145.493 55.6418 145.366C55.5153 145.245 55.4502 145.095 55.4502 144.916V140.101C55.4502 139.925 55.5153 139.774 55.6418 139.645C55.7683 139.519 55.9202 139.455 56.0973 139.455H56.1082ZM56.1027 138.767C55.8967 138.767 55.7232 138.694 55.5785 138.55C55.4339 138.405 55.3616 138.23 55.3616 138.026C55.3616 137.825 55.4339 137.651 55.5785 137.507C55.7232 137.362 55.8967 137.29 56.1027 137.29C56.3034 137.29 56.477 137.362 56.6216 137.507C56.7698 137.648 56.8438 137.821 56.8438 138.026C56.8438 138.233 56.7698 138.409 56.6216 138.55C56.477 138.694 56.3034 138.767 56.1027 138.767ZM58.6642 137.285C58.8377 137.285 58.9877 137.346 59.1142 137.469C59.2426 137.597 59.3059 137.749 59.3059 137.924V139.455H60.0994C60.2729 139.455 60.423 139.519 60.5495 139.645C60.6778 139.774 60.7411 139.925 60.7411 140.101V140.112C60.7411 140.292 60.6778 140.442 60.5495 140.562C60.423 140.69 60.2729 140.753 60.0994 140.753H59.3059V143.893C59.3059 143.996 59.3402 144.083 59.4107 144.153C59.4812 144.224 59.5697 144.258 59.6764 144.258H60.0994C60.2729 144.258 60.423 144.322 60.5495 144.45C60.6778 144.576 60.7411 144.728 60.7411 144.905V144.916C60.7411 145.095 60.6778 145.245 60.5495 145.366C60.423 145.493 60.2729 145.556 60.0994 145.556H59.6764C59.2173 145.556 58.8233 145.394 58.4961 145.068C58.1706 144.741 58.008 144.349 58.008 143.893V137.924C58.008 137.749 58.0712 137.597 58.1978 137.469C58.3261 137.346 58.4762 137.285 58.6478 137.285H58.6642V137.285ZM64.5316 139.455C65.3722 139.455 66.0916 139.754 66.6881 140.35C67.2847 140.947 67.5828 141.666 67.5828 142.505V144.916C67.5828 145.095 67.5196 145.245 67.3931 145.366C67.2648 145.493 67.1147 145.556 66.943 145.556H66.9267C66.7532 145.556 66.6031 145.493 66.4766 145.366C66.3483 145.245 66.2851 145.095 66.2851 144.916C65.8837 145.343 65.298 145.556 64.5316 145.556C63.6928 145.556 62.9734 145.258 62.3769 144.661C61.7805 144.065 61.4822 143.345 61.4822 142.505C61.4822 141.666 61.7805 140.947 62.3769 140.35C62.9734 139.754 63.6928 139.455 64.5316 139.455ZM64.5316 140.753C64.0454 140.753 63.6296 140.923 63.2879 141.267C62.9482 141.608 62.7801 142.022 62.7801 142.505C62.7801 142.993 62.9482 143.407 63.2879 143.75C63.6296 144.088 64.0454 144.258 64.5316 144.258C65.0196 144.258 65.4337 144.088 65.7716 143.75C66.1151 143.407 66.2851 142.993 66.2851 142.505C66.2851 142.022 66.1151 141.608 65.7716 141.267C65.43 140.923 65.0161 140.753 64.5316 140.753ZM69.5098 137.285C69.6833 137.285 69.8333 137.346 69.9599 137.469C70.0882 137.597 70.1515 137.749 70.1515 137.924V144.916C70.1515 145.095 70.0882 145.245 69.9599 145.366C69.8333 145.493 69.6833 145.556 69.5098 145.556H69.4953C69.3218 145.556 69.1718 145.493 69.0453 145.366C68.9169 145.245 68.8536 145.095 68.8536 144.916V137.924C68.8536 137.749 68.9169 137.597 69.0453 137.469C69.1718 137.346 69.3218 137.285 69.4953 137.285H69.5098ZM76.9355 138.566C76.6317 138.566 76.3732 138.671 76.1618 138.884C75.9503 139.096 75.8437 139.352 75.8437 139.656C75.8437 140.018 76.0081 140.291 76.3371 140.477C76.4817 140.558 76.9065 140.701 77.6133 140.907C78.217 141.086 78.6582 141.303 78.9364 141.558C79.354 141.936 79.5619 142.467 79.5619 143.152C79.5619 143.815 79.3251 144.383 78.8515 144.851C78.3833 145.321 77.8175 145.556 77.1578 145.556H75.1405C74.9669 145.556 74.817 145.493 74.6903 145.366C74.562 145.238 74.4988 145.088 74.4988 144.916V144.884C74.4988 144.71 74.562 144.56 74.6903 144.434C74.817 144.307 74.9669 144.242 75.1405 144.242H77.2102C77.5102 144.242 77.7687 144.137 77.9839 143.926C78.1953 143.712 78.302 143.456 78.302 143.152C78.302 142.8 78.1375 142.523 77.8085 142.326C77.6531 142.234 77.2265 142.078 76.5269 141.86C75.9232 141.663 75.4839 141.438 75.2092 141.187C74.7916 140.813 74.5837 140.303 74.5837 139.656C74.5837 138.993 74.8187 138.427 75.2887 137.957C75.7569 137.487 76.3244 137.252 76.9878 137.252H78.4122C78.5894 137.252 78.7413 137.315 78.8678 137.444C78.9907 137.567 79.0539 137.716 79.0539 137.894V137.924C79.0539 138.098 78.9907 138.248 78.8678 138.375C78.7413 138.503 78.5894 138.566 78.4122 138.566H76.9355V138.566ZM83.3543 140.764C82.8662 140.764 82.4523 140.934 82.1089 141.278C81.7708 141.619 81.6009 142.035 81.6009 142.521C81.6009 143.006 81.7708 143.418 82.1089 143.761C82.4523 144.103 82.8662 144.275 83.3543 144.275C83.8369 144.275 84.2508 144.103 84.5925 143.761C84.9359 143.418 85.1059 143.006 85.1059 142.521C85.1059 142.035 84.9359 141.619 84.5925 141.278C84.2508 140.934 83.8369 140.764 83.3543 140.764ZM83.3543 139.455C84.193 139.455 84.9125 139.754 85.509 140.35C86.1055 140.947 86.4038 141.666 86.4038 142.505C86.4038 143.345 86.1055 144.065 85.509 144.661C84.9125 145.258 84.193 145.556 83.3543 145.556C82.5138 145.556 81.7944 145.258 81.1978 144.661C80.6013 144.065 80.303 143.345 80.303 142.505C80.303 141.666 80.6013 140.947 81.1978 140.35C81.7944 139.754 82.5138 139.455 83.3543 139.455ZM88.1716 137.285C88.3452 137.285 88.4952 137.346 88.6218 137.469C88.7501 137.597 88.8134 137.749 88.8134 137.924V144.916C88.8134 145.095 88.7501 145.245 88.6218 145.366C88.4952 145.493 88.3452 145.556 88.1716 145.556H88.1572C87.9836 145.556 87.8336 145.493 87.7071 145.366C87.5787 145.245 87.5155 145.095 87.5155 144.916V137.924C87.5155 137.749 87.5787 137.597 87.7071 137.469C87.8336 137.346 87.9836 137.285 88.1572 137.285H88.1716V137.285ZM91.382 142.998C91.382 143.347 91.5031 143.645 91.7471 143.893C91.9947 144.137 92.2948 144.258 92.6473 144.258C92.9962 144.258 93.2945 144.137 93.5421 143.893C93.7861 143.645 93.9072 143.347 93.9072 142.998V140.101C93.9072 139.925 93.9704 139.774 94.0989 139.645C94.2254 139.519 94.3772 139.455 94.5543 139.455H94.5651C94.7441 139.455 94.8942 139.519 95.0153 139.645C95.1418 139.774 95.2051 139.925 95.2051 140.101V142.998C95.2051 143.702 94.9538 144.304 94.4531 144.804C93.9524 145.305 93.3505 145.556 92.6473 145.556C91.9406 145.556 91.3368 145.305 90.8361 144.804C90.3354 144.304 90.0841 143.702 90.0841 142.998V140.101C90.0841 139.925 90.1474 139.774 90.2739 139.645C90.4022 139.519 90.5523 139.455 90.7239 139.455H90.7403C90.9138 139.455 91.0638 139.519 91.1903 139.645C91.3187 139.774 91.382 139.925 91.382 140.101V142.998V142.998ZM99.1566 139.455C99.4729 139.455 99.7801 139.502 100.077 139.598C100.377 139.694 100.527 139.898 100.527 140.213V140.24C100.527 140.455 100.442 140.625 100.268 140.753C100.147 140.838 100.024 140.88 99.8977 140.88C99.8308 140.88 99.7621 140.869 99.6916 140.849C99.5181 140.791 99.3391 140.764 99.1566 140.764C98.6685 140.764 98.2546 140.934 97.9111 141.278C97.573 141.619 97.4032 142.035 97.4032 142.521C97.4032 143.006 97.573 143.418 97.9111 143.761C98.2546 144.103 98.6685 144.275 99.1566 144.275C99.3391 144.275 99.5181 144.246 99.6916 144.19C99.7585 144.168 99.8254 144.159 99.8922 144.159C100.022 144.159 100.147 144.2 100.268 144.285C100.442 144.412 100.527 144.585 100.527 144.804C100.527 145.115 100.377 145.319 100.077 145.419C99.7801 145.511 99.4729 145.556 99.1566 145.556C98.316 145.556 97.5966 145.258 97 144.661C96.4036 144.065 96.1053 143.345 96.1053 142.505C96.1053 141.666 96.4036 140.947 97 140.35C97.5966 139.754 98.316 139.455 99.1566 139.455V139.455ZM98.7065 145.455H99.7965L99.6808 146.059C99.9176 146.084 100.131 146.191 100.321 146.377C100.509 146.558 100.601 146.764 100.601 146.997C100.601 147.324 100.449 147.61 100.147 147.85C99.8525 148.08 99.4223 148.194 98.8547 148.194H98.3504C98.2093 148.194 98.0919 148.141 97.9961 148.034C97.9111 147.946 97.8696 147.839 97.8696 147.711V147.669L97.8749 147.628C97.884 147.503 97.9383 147.4 98.034 147.315C98.1208 147.23 98.231 147.187 98.3612 147.187C98.4715 147.19 98.5619 147.192 98.6359 147.192C98.9504 147.192 99.1656 147.154 99.2776 147.076C99.3373 147.033 99.368 146.99 99.368 146.944C99.368 146.916 99.359 146.89 99.3409 146.87C99.3174 146.841 99.2651 146.814 99.1872 146.791C99.1421 146.776 99.0806 146.765 99.0029 146.758C98.8583 146.74 98.7462 146.677 98.6685 146.568C98.6017 146.48 98.5673 146.382 98.5673 146.276C98.5673 146.252 98.5691 146.225 98.5726 146.196L98.7065 145.455ZM104.319 140.764C103.831 140.764 103.417 140.934 103.074 141.278C102.736 141.619 102.566 142.035 102.566 142.521C102.566 143.006 102.736 143.418 103.074 143.761C103.417 144.103 103.831 144.275 104.319 144.275C104.802 144.275 105.216 144.103 105.557 143.761C105.901 143.418 106.071 143.006 106.071 142.521C106.071 142.035 105.901 141.619 105.557 141.278C105.216 140.934 104.802 140.764 104.319 140.764ZM104.319 139.455C105.158 139.455 105.877 139.754 106.474 140.35C107.07 140.947 107.369 141.666 107.369 142.505C107.369 143.345 107.07 144.065 106.474 144.661C105.877 145.258 105.158 145.556 104.319 145.556C103.479 145.556 102.759 145.258 102.163 144.661C101.566 144.065 101.268 143.345 101.268 142.505C101.268 141.666 101.566 140.947 102.163 140.35C102.759 139.754 103.479 139.455 104.319 139.455ZM102.3 138.646C102.354 138.328 102.493 138.074 102.719 137.888C102.953 137.689 103.244 137.592 103.592 137.592C103.878 137.592 104.216 137.684 104.605 137.867C104.731 137.926 104.863 137.957 105.002 137.957H105.044C105.185 137.953 105.284 137.91 105.34 137.83C105.467 137.639 105.597 137.543 105.727 137.543H105.944C106.067 137.543 106.166 137.588 106.241 137.677C106.304 137.751 106.336 137.832 106.336 137.919C106.336 137.941 106.335 137.964 106.331 137.988C106.214 138.702 105.803 139.058 105.096 139.058C104.807 139.058 104.475 138.96 104.097 138.761C103.941 138.68 103.784 138.64 103.625 138.64C103.484 138.644 103.395 138.694 103.359 138.794C103.269 138.973 103.123 139.072 102.925 139.09H102.692C102.577 139.09 102.477 139.045 102.396 138.958C102.329 138.884 102.296 138.801 102.296 138.709C102.296 138.687 102.298 138.666 102.3 138.646V138.646ZM111.161 140.764C110.673 140.764 110.259 140.934 109.916 141.278C109.578 141.619 109.408 142.035 109.408 142.521V142.559L112.369 141.229C112.106 140.92 111.703 140.764 111.161 140.764ZM113.93 141.234C113.972 141.323 113.994 141.413 113.994 141.505C113.994 141.579 113.979 141.654 113.952 141.728C113.891 141.894 113.778 142.013 113.612 142.087C113.119 142.31 112.468 142.603 111.664 142.966C110.664 143.418 110.078 143.685 109.905 143.767C110.174 144.105 110.592 144.275 111.161 144.275C111.539 144.275 111.88 144.162 112.188 143.94C112.488 143.721 112.697 143.439 112.819 143.094C112.92 142.805 113.126 142.659 113.431 142.659C113.652 142.659 113.825 142.751 113.957 142.935C114.037 143.047 114.079 143.167 114.079 143.289C114.079 143.364 114.064 143.439 114.035 143.517C113.827 144.121 113.462 144.609 112.94 144.98C112.41 145.365 111.817 145.556 111.161 145.556C110.321 145.556 109.601 145.258 109.005 144.661C108.408 144.065 108.11 143.345 108.11 142.505C108.11 141.666 108.408 140.947 109.005 140.35C109.601 139.754 110.321 139.455 111.161 139.455C111.768 139.455 112.321 139.622 112.824 139.953C113.321 140.278 113.69 140.705 113.93 141.234V141.234ZM116.672 140.753C116.517 140.753 116.387 140.806 116.28 140.912C116.175 141.021 116.123 141.151 116.123 141.303C116.123 141.516 116.224 141.675 116.428 141.78C116.499 141.82 116.795 141.907 117.314 142.046C117.734 142.165 118.046 142.322 118.25 142.516C118.543 142.796 118.69 143.192 118.69 143.709C118.69 144.217 118.511 144.652 118.151 145.016C117.786 145.375 117.35 145.556 116.842 145.556H115.459C115.288 145.556 115.138 145.493 115.009 145.366C114.883 145.245 114.82 145.095 114.82 144.916V144.905C114.82 144.728 114.883 144.576 115.009 144.45C115.138 144.322 115.288 144.258 115.459 144.258H116.895C117.05 144.258 117.18 144.206 117.287 144.099C117.394 143.994 117.446 143.862 117.446 143.709C117.446 143.514 117.345 143.367 117.144 143.268C117.092 143.244 116.795 143.156 116.255 143.004C115.834 142.881 115.521 142.718 115.317 142.516C115.024 142.23 114.877 141.825 114.877 141.303C114.877 140.795 115.058 140.361 115.418 140.001C115.781 139.638 116.217 139.455 116.725 139.455H117.701C117.876 139.455 118.028 139.519 118.156 139.645C118.283 139.774 118.346 139.925 118.346 140.101V140.112C118.346 140.292 118.283 140.442 118.156 140.562C118.028 140.69 117.876 140.753 117.701 140.753H116.672V140.753Z" fill="#04B879"/>
<path id="Vector_7" fill-rule="evenodd" clip-rule="evenodd" d="M78.6669 0.125C100.545 0.125 118.281 17.8923 118.281 39.8093C118.281 61.7263 100.545 79.4936 78.6669 79.4936C56.7893 79.4936 39.0527 61.7263 39.0527 39.8093C39.0527 17.8923 56.7893 0.125 78.6669 0.125ZM78.667 3.4791C98.6957 3.4791 114.933 19.7447 114.933 39.8093C114.933 59.8738 98.6957 76.1395 78.667 76.1395C58.6385 76.1395 42.401 59.8738 42.401 39.8093C42.401 19.7447 58.6385 3.4791 78.667 3.4791Z" fill="url(#paint3_linear_406_541)"/>
</g>
<defs>
<linearGradient id="paint0_linear_406_541" x1="50.8167" y1="33.2894" x2="87.2204" y2="65.9351" gradientUnits="userSpaceOnUse">
<stop stop-color="#16F0A4"/>
<stop offset="0.360784" stop-color="#0BC282"/>
<stop offset="0.54902" stop-color="#0ABD7E"/>
<stop offset="1" stop-color="#009460"/>
</linearGradient>
<linearGradient id="paint1_linear_406_541" x1="91.3305" y1="10.1552" x2="60.813" y2="26.3558" gradientUnits="userSpaceOnUse">
<stop stop-color="#07DB91"/>
<stop offset="1" stop-color="#00A36A"/>
</linearGradient>
<linearGradient id="paint2_linear_406_541" x1="78.4995" y1="87.4073" x2="78.3573" y2="129.189" gradientUnits="userSpaceOnUse">
<stop stop-color="#07DB91"/>
<stop offset="0.294118" stop-color="#06CA85"/>
<stop offset="0.509804" stop-color="#006E47"/>
<stop offset="1" stop-color="#04B879"/>
</linearGradient>
<linearGradient id="paint3_linear_406_541" x1="51.4164" y1="1.5915" x2="98.9252" y2="77.5243" gradientUnits="userSpaceOnUse">
<stop stop-color="#00FAA2"/>
<stop offset="1" stop-color="#006F48"/>
</linearGradient>
</defs>
</svg>
